<?xml version="1.0" encoding="utf-8" ?>
<svg baseProfile="full" height="200mm" version="1.1" viewBox="0,0,200,200" width="200mm" xmlns="http://www.w3.org/2000/svg" xmlns:ev="http://www.w3.org/2001/xml-events" xmlns:xlink="http://www.w3.org/1999/xlink"><defs /><rect fill="#1a1a1a" height="200" width="200" x="0" y="0" /><rect fill="#1a1a1a" height="200" width="180" x="10" y="0" /><text alignment-baseline="middle" fill="#e1ed5e" style="dominant-baseline: central; font-size:9.0px; font-family:Arial;" text-anchor="middle" x="100.0" y="100.0">2017</text><line stroke="#e1ed5e" stroke-width="0.3" x1="100.0" x2="100.0" y1="15.0" y2="10.0" /><path d="M 100.0 14.0 a86.0,86.0 0 0,1 42.46469731375804,11.215312516191453" fill="none" id="id1" stroke="none" /><text fill="#e1ed5e" style="font-size:6.75px; font-family:Arial;" text-anchor="middle"><textPath startOffset="22.20632615414155" xlink:href="#id1">January</textPath></text><line stroke="#e1ed5e" stroke-width="0.3" x1="143.23703022742887" x2="145.7803849466894" y1="26.81831364943548" y2="22.513508569990506" /><path d="M 143.74570117128098 25.957352633546492 a86.0,86.0 0 0,1 28.547481713284135,27.462654790039103" fill="none" id="id2" stroke="none" /><text fill="#e1ed5e" style="font-size:6.75px; font-family:Arial;" text-anchor="middle"><textPath startOffset="19.985693538727396" xlink:href="#id2">February</textPath></text><path d="M 117.04232023915458 87.72973835380427 l 10.04642389690453 -7.23330204418968 a33.37947056940534,33.37947056940534 0 0,0 0.33170829835536164,0.46917786404968037 l -10.169444815063775 7.059297679808206" fill="#ff8d0c" stroke="none" /><line stroke="#e1ed5e" stroke-width="0.3" x1="172.23445277983987" x2="176.4835382374775" y1="55.19839476539836" y2="52.563006222186495" /><path d="M 173.08426987136738 54.67131705675599 a86.0,86.0 0 0,1 12.851231095245387,41.99856678651699" fill="none" id="id3" stroke="none" /><text fill="#e1ed5e" style="font-size:6.75px; font-family:Arial;" text-anchor="middle"><textPath startOffset="22.20632615414155" xlink:href="#id3">March</textPath></text><path d="M 118.21658344932153 89.55222093294921 l 12.024989007906761 -6.8967064426674005 a34.86235623538107,34.86235623538107 0 0,0 0.29407619112565997,0.5231287301093398 l -12.141922840324854 6.6886942026232665" fill="#ffa10e" stroke="none" /><path d="M 118.56541770881063 90.18545643968196 l 13.769152415005124 -7.27901457889598 a36.57477484483874,36.57477484483874 0 0,0 0.2894467887383271,0.5591190667799715 l -13.892408636903568 7.040922789855664" fill="#ffb711" stroke="none" /><path d="M 118.89224826269711 90.83032412892265 l 11.427564652444735 -5.546563987601289 a33.702503924595334,33.702503924595334 0 0,0 0.24882367050116957,0.5240861080229077 l -11.521346516787661 5.349035463937841" fill="#ff910d" stroke="none" /><path d="M 119.196687751892 91.48605970444005 l 23.5358561251188 -10.438408773638605 a46.74678428984613,46.74678428984613 0 0,0 0.3199022470205291,0.7383784922270248 l -23.71204908198201 10.031731136824979" fill="#c7ff1e" stroke="none" /><path d="M 119.34039704204932 91.81776055985345 l 7.467570303691264 -3.1592654549999573 a29.108363858123766,29.108363858123766 0 0,0 0.19125347345936647,0.46313545607129286 l -7.520845464036829 3.0302554284753613" fill="#ff5107" stroke="none" /><path d="M 119.47837535516314 92.15188598940014 l 14.094063984426064 -5.678698505681332 a36.19507342251176,36.19507342251176 0 0,0 0.2278677223314996,0.5798984986130585 l -14.189725256639266 5.435251002172489" fill="#ffb210" stroke="none" /><path d="M 120.37134235888165 94.90015583598534 l 12.341937061658935 -3.0897303961462073 a33.722808037332804,33.722808037332804 0 0,0 0.13612323831745873,0.5643187035349345 l -12.393293100237214 2.876826460951867" fill="#ff910d" stroke="none" /><path d="M 120.83666639777658 97.38593545837742 l 25.33821006024265 -3.178805822496279 a46.536830177493016,46.536830177493016 0 0,0 0.09287343452717443,0.7956828701781821 l -25.38917384777341 2.7421792139932446" fill="#caff1d" stroke="none" /><path d="M 120.87857604477298 97.74499172005257 l 15.150662379121915 -1.6363601156680037 a36.23877439147549,36.23877439147549 0 0,0 0.06164538966746423,0.6207606612331064 l -15.176584894471608 1.3753239237304624" fill="#ffb310" stroke="none" /><path d="M 120.91429891909075 98.10471618934814 l 17.771369600923695 -1.6104670411397974 a38.84419181647721,38.84419181647721 0 0,0 0.054614038761716555,0.6664296051804105 l -17.796458123504905 1.3043235187516182" fill="#ffd513" stroke="none" /><path d="M 120.94382443527127 98.46500227214037 l 17.739906272077828 -1.3001787665018512 a38.787488281569395,38.787488281569395 0 0,0 0.04307149062615987,0.6662968960937035 l -17.759658353708403 0.9946228061551123" fill="#ffd413" stroke="none" /><path d="M 120.96714384426684 98.82574320788733 l 17.680880195798032 -0.9902108658506311 a38.708586675875964,38.708586675875964 0 0,0 0.03153163087643775,0.6655828917609403 l -17.695305434907965 0.6857168674666909" fill="#ffd313" stroke="none" /><path d="M 120.98425023603335 99.18683210126433 l 11.815555686058193 -0.4578686625232707 a32.824423871058706,32.824423871058706 0 0,0 0.017019159829785954,0.5647830589613801 l -11.821686540343624 0.2544154561368914" fill="#ff850c" stroke="none" /><line stroke="#e1ed5e" stroke-width="0.3" x1="184.98032266829074" x2="189.97916517819016" y1="98.17113171792111" y2="98.06355123074" /><path d="M 185.9800911702706 98.14961562048488 a86.0,86.0 0 0,1 -9.607161424134198,41.387399972396054" fill="none" id="id4" stroke="none" /><text fill="#e1ed5e" style="font-size:6.75px; font-family:Arial;" text-anchor="middle"><textPath startOffset="21.466115282336823" xlink:href="#id4">April</textPath></text><path d="M 120.99980553446 99.90962569577887 l 26.910713203447223 -0.11581235730326302 a47.91096240605848,47.91096240605848 0 0,0 -0.003549295908458305,0.824731371425225 l -26.90871961024926 -0.3474284923256467" fill="#baff1f" stroke="none" /><path d="M 120.81339534386255 102.79330883721812 l 12.539095197906372 1.6828376556715632 a33.65151575731164,33.65151575731164 0 0,0 -0.0819910351644116,0.5734451089750751 l -12.50827011172536 -1.8984282366270475" fill="#ff900d" stroke="none" /><path d="M 120.41448212921028 104.9243191809786 l 24.481346031860824 5.905315700777472 a46.18350764007184,46.18350764007184 0 0,0 -0.19306616366504392,0.7712033527786125 l -24.37606855390072 -6.325846892953481" fill="#ceff1d" stroke="none" /><line stroke="#e1ed5e" stroke-width="0.3" x1="174.80103733775053" x2="179.2010983576182" y1="140.37084112569926" y2="142.7455964860345" /><path d="M 175.68104954172406 140.8457921977663 a86.0,86.0 0 0,1 -30.038265399797805,32.042727171017184" fill="none" id="id5" stroke="none" /><text fill="#e1ed5e" style="font-size:6.75px; font-family:Arial;" text-anchor="middle"><textPath startOffset="22.206326154141568" xlink:href="#id5">May</textPath></text><path d="M 116.93607887273984 112.41649034213515 l 12.394396149473568 9.086808182869493 a36.36851127670957,36.36851127670957 0 0,0 -0.3744895624124256,0.5016899670610953 l -12.23614532036605 -9.298811029439904" fill="#ffb510" stroke="none" /><path d="M 116.498646956653 112.99209946851258 l 11.920506148280502 9.386975913865736 a36.172797488884136,36.172797488884136 0 0,0 -0.38942959919542197,0.4858733025345131 l -11.757158637030226 -9.5907770499785" fill="#ffb210" stroke="none" /><path d="M 116.27256486870786 113.27417163493432 l 12.051310404622802 9.830728224316834 a36.5524049551492,36.5524049551492 0 0,0 -0.4019093579835722,0.4841257125568374 l -11.880305046745686 -10.036715193987442" fill="#ffb711" stroke="none" /><path d="M 116.0416608686014 113.55231037782055 l 11.635912475203986 9.830247546360654 a36.232472745859006,36.232472745859006 0 0,0 -0.406593028539728,0.4729595492212261 l -11.464976937093478 -10.029084194743408" fill="#ffb310" stroke="none" /><path d="M 115.32070863581623 114.36230785411682 l 9.275704815264982 8.695454713453072 a33.714150875840794,33.714150875840794 0 0,0 -0.40054570330206785,0.4199705685515993 l -9.12465256058395 -8.853832398587178" fill="#ff910d" stroke="none" /><path d="M 115.07121518719521 114.62390073753431 l 18.162469211105616 17.62340618143359 a46.307305926948274,46.307305926948274 0 0,0 -0.560008308027137,0.5672854594215692 l -17.856420278022945 -17.933432134835826" fill="#ccff1d" stroke="none" /><path d="M 114.29624159901734 115.38237550388516 l 1.7494802750718619 1.8823942181870674 a23.569842256935164,23.569842256935164 0 0,0 -0.29956197701766396,0.27364276345971483 l -1.7168187485873339 -1.9122297482333652" fill="#ff0000" stroke="none" /><path d="M 111.45004920935366 117.60387380957326 l 6.886840856948572 10.588170860724142 a33.630832876925574,33.630832876925574 0 0,0 -0.4879965138056003,0.3114624638666618 l -6.7035625410960415 -10.705147753414614" fill="#ff900d" stroke="none" /><path d="M 111.1453310114006 117.79835938074945 l 13.477508565564058 21.522693292973223 a46.394282106770554,46.394282106770554 0 0,0 -0.6804954234806495,0.41801586894375237 l -13.1050339421511 -21.751497628745355" fill="#cbff1d" stroke="none" /><line stroke="#e1ed5e" stroke-width="0.3" x1="143.8653032363475" x2="146.44561519142675" y1="172.8068346515853" y2="177.08958963109032" /><path d="M 144.38136562736335 173.6633856474863 a86.0,86.0 0 0,1 -40.68145358897372,12.25698825130547" fill="none" id="id6" stroke="none" /><text fill="#e1ed5e" style="font-size:6.75px; font-family:Arial;" text-anchor="middle"><textPath startOffset="21.466115282336833" xlink:href="#id6">June</textPath></text><path d="M 110.21172684928248 118.3499491758327 l 3.4729528973968646 6.240718156476262 a28.14198606384175,28.14198606384175 0 0,0 -0.4253154478749414,0.2319158936378131 l -3.3650146376532746 -6.299574701873846" fill="#ff4306" stroke="none" /><path d="M 109.89434966115114 118.52300852407294 l 5.976973761037324 11.189369662015164 a33.68566942551137,33.68566942551137 0 0,0 -0.513801255784589,0.26879653327948233 l -5.78348160272624 -11.290595614239363" fill="#ff910d" stroke="none" /><path d="M 109.2508944713604 118.85261126421891 l 11.152577189452394 22.728094347834652 a46.31691629426395,46.31691629426395 0 0,0 -0.7187664894092488,0.3450515942840685 l -10.759698032042913 -22.91670021861828" fill="#ccff1d" stroke="none" /><path d="M 108.92500713936063 119.00905698771935 l 5.3968784365566185 11.494620469698335 a33.69852733986811,33.69852733986811 0 0,0 -0.5271926060311086,0.2420082682644191 l -5.19821783475809 -11.585815808296829" fill="#ff910d" stroke="none" /><path d="M 103.06178313531738 120.77559828337769 l 1.8420732461028668 12.499309088272085 a33.63431682079285,33.63431682079285 0 0,0 -0.5734993908804658,0.07948178983768148 l -1.6266452640355706 -12.529165443602368" fill="#ff900d" stroke="none" /><path d="M 102.34483914955558 120.86867818915974 l 1.424659190355719 12.679229694027057 a33.759017181686154,33.759017181686154 0 0,0 -0.5780305785317017,0.05991523288925457 l -1.2061960152184146 -12.70187429537207" fill="#ff920d" stroke="none" /><path d="M 101.98527174616119 120.90594882070398 l 1.7439257764730547 18.364449653076335 a39.44706719709728,39.44706719709728 0 0,0 -0.6765278761650392,0.058373671836362245 l -1.4275535825664738 -18.39174757719136" fill="#ffdd14" stroke="none" /><line stroke="#e1ed5e" stroke-width="0.3" x1="102.19456741930631" x2="102.32365962044197" y1="184.97166512339345" y2="189.96999836594603" /><path d="M 102.22038585953345 185.97133177190398 a86.0,86.0 0 0,1 -42.740103519485714,-10.115201625700543" fill="none" id="id7" stroke="none" /><text fill="#e1ed5e" style="font-size:6.75px; font-family:Arial;" text-anchor="middle"><textPath startOffset="22.20632615414155" xlink:href="#id7">July</textPath></text><path d="M 100.54218724476979 120.99299961872073 l 0.3265026847593709 12.641888577764309 a33.64610417542742,33.64610417542742 0 0,0 -0.579098015574766,0.009969697509493244 l -0.10884497929193693 -12.645635752552963" fill="#ff900d" stroke="none" /><path d="M 99.09653310690486 120.98055641714683 l -0.5485260941120174 12.73802366389812 a33.74982853759023,33.74982853759023 0 0,0 -0.5801947995747145,-0.029989443916856515 l 0.7677089621002208 -12.726694413219063" fill="#ff920d" stroke="none" /><path d="M 91.7346041902142 119.30500536409082 l -5.003586287755715 11.686586141519419 a33.71267758507903,33.71267758507903 0 0,0 -0.5315033595404278,-0.23299545337859776 l 5.204010321953886 -11.598726134846368" fill="#ff910d" stroke="none" /><path d="M 91.40352486487194 119.15986991738527 l -5.18916922714985 11.565648223096824 a33.67642284275898,33.67642284275898 0 0,0 -0.5268467948531175,-0.24184952331357054 l 5.387484017770387 -11.47461162944918" fill="#ff910d" stroke="none" /><path d="M 90.7491055286396 118.85261126421891 l -5.556876570038122 11.324486960964016 a33.61439186578896,33.61439186578896 0 0,0 -0.5172552084309573,-0.25936249954926566 l 5.75098568615184 -11.227156620505449" fill="#ff900d" stroke="none" /><line stroke="#e1ed5e" stroke-width="0.3" x1="58.666819895761336" x2="56.23545636021788" y1="174.27360380694188" y2="178.64263932499728" /><path d="M 58.180547188652646 175.14741091055294 a86.0,86.0 0 0,1 -31.652253787137756,-30.449443065178592" fill="none" id="id8" stroke="none" /><text fill="#e1ed5e" style="font-size:6.75px; font-family:Arial;" text-anchor="middle"><textPath startOffset="22.20632615414155" xlink:href="#id8">August</textPath></text><path d="M 89.1626897886671 117.98757091392108 l -2.818074757720454 4.677389366617855 a26.460724917723926,26.460724917723926 0 0,0 -0.38811684092992466,-0.23841306335786105 l 2.898170798582688 -4.628187836431616" fill="#ff2b04" stroke="none" /><path d="M 88.24862548938628 117.40417183066458 l -35.25412353184113 52.212515491993734 a84.0,84.0 0 0,0 -1.191372461508439,-0.8194368425395955 l 36.14765287797246 -51.59793786008904" fill="#4dd2ff" stroke="none" /><path d="M 87.07902340077011 116.55440617244103 l -7.767142686708767 9.95129383971994 a33.62365852675608,33.62365852675608 0 0,0 -0.45318688635373444,-0.36003907093998355 l 7.937287065779859 -9.816120854774825" fill="#ff900d" stroke="none" /><path d="M 86.24171649860922 115.8653595955263 l -8.26262549230551 9.528043569195097 a33.611684831241895,33.611684831241895 0 0,0 -0.4338430573905602,-0.3828160560798311 l 8.425410902602659 -9.384404371342976" fill="#ff900d" stroke="none" /><path d="M 85.97065885151581 115.62618273729859 l -11.829877076406154 13.176372218710709 a38.707703873989175,38.707703873989175 0 0,0 -0.49195731443196605,-0.449391342538256 l 12.054933940304975 -12.970788109585877" fill="#ffd313" stroke="none" /><path d="M 85.18274418774928 114.88116024355367 l -8.973227979922049 9.01192806300588 a33.71745524043426,33.71745524043426 0 0,0 -0.40775542178946284,-0.41305408949443656 l 9.127024026767044 -8.85613347953078" fill="#ff910d" stroke="none" /><path d="M 84.9287848128048 114.62390073753433 l -19.061931058414938 18.49617195439042 a47.56060226429632,47.56060226429632 0 0,0 -0.5650504132101454,-0.5924530992090546 l 19.37748802300404 -18.165311738598866" fill="#beff1f" stroke="none" /><path d="M 83.72743513129214 113.27417163493432 l -19.595605524735756 15.98490668954172 a46.28843604801234,46.28843604801234 0 0,0 -0.4983326794976034,-0.6217466398255725 l 19.86785611628822 -15.645232216137888" fill="#cdff1d" stroke="none" /><path d="M 83.50135304334701 112.99209946851258 l -19.856785122528127 15.636514201107667 a46.27434453677674,46.27434453677674 0 0,0 -0.48740807377320633,-0.630040638621412 l 20.123000013519402 -15.292395568373003" fill="#cdff1d" stroke="none" /><path d="M 83.06392112726016 112.41649034213515 l -10.907114490210837 7.996424836344438 a34.52434681106165,34.52434681106165 0 0,0 -0.3472495095966179,-0.4822991975293167 l 11.043143792183063 -7.8074920333639835" fill="#ff9c0e" stroke="none" /><path d="M 82.85270091963577 112.12312394758628 l -43.40171455343531 30.68497042030245 a74.15332760865226,74.15332760865226 0 0,0 -0.7278999849598414,-1.048594217680873 l 43.92347544555729 -29.933334940434563" fill="#40ffca" stroke="none" /><line stroke="#e1ed5e" stroke-width="0.3" x1="26.63291911575756" x2="22.317208475507996" y1="142.92168965132927" y2="145.44649492493687" /><path d="M 25.769776987707644 143.4266507060508 a86.0,86.0 0 0,1 -11.730757126820373,-40.83630448921669" fill="none" id="id9" stroke="none" /><text fill="#e1ed5e" style="font-size:6.75px; font-family:Arial;" text-anchor="middle"><textPath startOffset="21.46611528233685" xlink:href="#id9">September</textPath></text><path d="M 81.18737489456691 109.33194174019688 l -28.878180830120616 14.324928050138384 a53.23589446096986,53.23589446096986 0 0,0 -0.400148217707934,-0.8244238484654248 l 29.120482304443268 -13.825715245707675" fill="#7dff26" stroke="none" /><path d="M 80.32549172779594 107.34259656027581 l -11.807825181805635 4.406722412816444 a33.60333043079098,33.60333043079098 0 0,0 -0.19758076464893085,-0.5436574067520294 l 11.88193020745979 -4.202817209058297" fill="#ff900d" stroke="none" /><line stroke="#e1ed5e" stroke-width="0.3" x1="15.007084014347285" x2="10.007500721073583" y1="101.09737516637583" y2="101.16192664675087" /><path d="M 14.007167355692545 101.11028546245083 a86.0,86.0 0 0,1 10.666146001902534,-42.60595125391555" fill="none" id="id10" stroke="none" /><text fill="#e1ed5e" style="font-size:6.75px; font-family:Arial;" text-anchor="middle"><textPath startOffset="22.20632615414155" xlink:href="#id10">October</textPath></text><path d="M 79.00175016825051 100.2711162175752 l -12.640593649158301 0.16320740849950244 a33.64164722104403,33.64164722104403 0 0,0 -0.002492209607969601,-0.5791017432391943 l 12.641530156055774 0.05440381294336727" fill="#ff900d" stroke="none" /><path d="M 79.00486145842228 99.54816195383935 l -25.203962363315245 -0.5424164783287541 a46.209798381727964,46.209798381727964 0 0,0 0.02395935256777583,-0.7950942684185951 l 25.19089131629182 0.9761808941723435" fill="#ceff1d" stroke="none" /><path d="M 79.03285615573316 98.82574320788736 l -17.613748184961345 -0.9864511635144859 a38.641349467124904,38.641349467124904 0 0,0 0.04290921106501364,-0.663786503109382 l 17.59415838289192 1.2894967308768797" fill="#ffd213" stroke="none" /><path d="M 79.46518482838121 95.60439243477599 l -13.449745330358391 -2.8790033818356062 a34.754428738559746,34.754428738559746 0 0,0 0.13025564848868315,-0.5839105316087692 l 13.398195294867671 3.1100920829943344" fill="#ff9f0e" stroke="none" /><path d="M 80.2630227832202 92.82701384747504 l -11.85877541279568 -4.309820642117827 a33.61765066319211,33.61765066319211 0 0,0 0.20233889472298566,-0.5421676412882563 l 11.782831929571067 4.513311420435424" fill="#ff900d" stroke="none" /><line stroke="#e1ed5e" stroke-width="0.3" x1="26.266209847984243" x2="21.928928074336255" y1="57.711370442889674" y2="55.22380399835377" /><path d="M 25.398753493254645 57.213857153982495 a86.0,86.0 0 0,1 29.58750427330803,-30.492523968695096" fill="none" id="id11" stroke="none" /><text fill="#e1ed5e" style="font-size:6.75px; font-family:Arial;" text-anchor="middle"><textPath startOffset="21.46611528233685" xlink:href="#id11">November</textPath></text><path d="M 84.31358615837235 86.03803664274999 l -9.41094795650339 -8.376376643653142 a33.59879466918773,33.59879466918773 0 0,0 0.3882362473387681,-0.42870016108149295 l 9.265368068548577 8.537129592004192" fill="#ff900d" stroke="none" /><path d="M 84.5562425177563 85.77008943001954 l -9.265359208094338 -8.537121427963053 a33.59878262098384,33.59878262098384 0 0,0 0.39555795266277805,-0.42195364441998584 l 9.117033933461105 8.695344489261089" fill="#ff900d" stroke="none" /><path d="M 86.10567301691215 84.25364557470407 l -7.341472084222355 -8.320044690346727 a32.09596124780467,32.09596124780467 0 0,0 0.41740981215087125,-0.3619736758726426 l 7.19716847342471 8.445183359639051" fill="#ff7b0b" stroke="none" /><path d="M 86.37877921826538 84.01681056812374 l -7.197164349183883 -8.445178520240038 a32.09595488941295,32.09595488941295 0 0,0 0.4235786662714852,-0.354734951532055 l 7.050728145953287 8.567814629165905" fill="#ff7b0b" stroke="none" /><line stroke="#e1ed5e" stroke-width="0.3" x1="56.762969772571076" x2="54.21961505331055" y1="26.818313649435495" y2="22.513508569990535" /><path d="M 56.25429882871897 25.957352633546506 a86.0,86.0 0 0,1 42.265352541879196,-11.944610805530505" fill="none" id="id12" stroke="none" /><text fill="#e1ed5e" style="font-size:6.75px; font-family:Arial;" text-anchor="middle"><textPath startOffset="22.20632615414155" xlink:href="#id12">December</textPath></text><path d="M 94.63758080256005 79.69619591428918 l -3.227566786083289 -12.22058203309949 a33.63961283372011,33.63961283372011 0 0,0 0.5611265411300083,-0.14304364933765065 l 3.0167313562682816 12.274328678606002" fill="#ff900d" stroke="none" /></svg>