<?xml version="1.0" encoding="utf-8" ?>
<svg baseProfile="full" height="200mm" version="1.1" viewBox="0,0,200,200" width="200mm" xmlns="http://www.w3.org/2000/svg" xmlns:ev="http://www.w3.org/2001/xml-events" xmlns:xlink="http://www.w3.org/1999/xlink"><defs /><rect fill="#1a1a1a" height="200" width="200" x="0" y="0" /><text alignment-baseline="middle" fill="#e1ed5e" style="dominant-baseline: central; font-size:9.0px; font-family:Arial;" text-anchor="middle" x="100.0" y="100.0">2022</text><line stroke="#e1ed5e" stroke-width="0.3" x1="100.0" x2="100.0" y1="15.0" y2="10.0" /><path d="M 100.0 14.0 a86.0,86.0 0 0,1 42.46469731375804,11.215312516191453" fill="none" id="id61" stroke="none" /><text fill="#e1ed5e" style="font-size:6.75px; font-family:Arial;" text-anchor="middle"><textPath startOffset="22.20632615414155" xlink:href="#id61">January</textPath></text><line stroke="#e1ed5e" stroke-width="0.3" x1="143.23703022742887" x2="145.7803849466894" y1="26.81831364943548" y2="22.513508569990506" /><path d="M 143.74570117128098 25.957352633546492 a86.0,86.0 0 0,1 28.547481713284135,27.462654790039103" fill="none" id="id62" stroke="none" /><text fill="#e1ed5e" style="font-size:6.75px; font-family:Arial;" text-anchor="middle"><textPath startOffset="19.985693538727396" xlink:href="#id62">February</textPath></text><path d="M 117.04232023915458 87.72973835380427 l 2.219975598523355 -1.5983552157099257 a23.735512941593633,23.735512941593633 0 0,0 0.23587152444724802,0.3336235438757241 l -2.2471597427744863 1.5599051715024084" fill="#ff1702" stroke="none" /><line stroke="#e1ed5e" stroke-width="0.3" x1="172.23445277983987" x2="176.4835382374775" y1="55.19839476539836" y2="52.563006222186495" /><path d="M 173.08426987136738 54.67131705675599 a86.0,86.0 0 0,1 12.851231095245387,41.99856678651699" fill="none" id="id63" stroke="none" /><text fill="#e1ed5e" style="font-size:6.75px; font-family:Arial;" text-anchor="middle"><textPath startOffset="22.20632615414155" xlink:href="#id63">March</textPath></text><path d="M 119.196687751892 91.48605970444005 l 12.752231869688677 -5.655753855920557 a34.95016019037286,34.95016019037286 0 0,0 0.23917441484967059,0.5520475253324734 l -12.847696994381028 5.435407186001481" fill="#ffb110" stroke="none" /><path d="M 119.34039704204932 91.81776055985345 l 6.275183906780726 -2.6548088513695567 a27.813658569463982,27.813658569463982 0 0,0 0.18274674718751904,0.442535743656539 l -6.319952340854442 2.546398537259715" fill="#ff5107" stroke="none" /><path d="M 120.08093135843002 93.85539295169968 l 2.9472772042268174 -0.9018436425651339 a24.082168858805467,24.082168858805467 0 0,0 0.11788118778311468,0.3974367633271348 l -2.962364289121634 0.8509774924914693" fill="#ff1c02" stroke="none" /><path d="M 120.45610955862082 95.25157060432595 l 5.341857586408433 -1.2399930455063723 a26.483887783896886,26.483887783896886 0 0,0 0.09925860107623108,0.44495684596894525 l -5.362410574486702 1.1478580299874632" fill="#ff3f05" stroke="none" /><path d="M 120.53481517161879 95.60439243477599 l 5.362410574486702 -1.1478580299874632 a26.483887783896886,26.483887783896886 0 0,0 0.09158469417975258,0.4465994944625866 l -5.381374564581451 1.0553828793614648" fill="#ff3f05" stroke="none" /><line stroke="#e1ed5e" stroke-width="0.3" x1="184.98032266829074" x2="189.97916517819016" y1="98.17113171792111" y2="98.06355123074" /><path d="M 185.9800911702706 98.14961562048488 a86.0,86.0 0 0,1 -9.607161424134198,41.387399972396054" fill="none" id="id64" stroke="none" /><text fill="#e1ed5e" style="font-size:6.75px; font-family:Arial;" text-anchor="middle"><textPath startOffset="21.466115282336823" xlink:href="#id64">April</textPath></text><path d="M 120.41448212921028 104.9243191809786 l 45.861520949077104 11.06257635383517 a68.17689794112232,68.17689794112232 0 0,0 -0.28500763169956667,1.1384638144855521 l -45.664302003082476 -11.850368007718117" fill="#39ff8d" stroke="none" /><path d="M 118.97047184881838 109.00673069616215 l 1.3101900349431144 0.6220471952184436 a22.450358797244107,22.450358797244107 0 0,0 -0.1687483820941039,0.3476716487336152 l -1.2992883962342963 -0.6445077999173343" fill="#ff0500" stroke="none" /><path d="M 118.64920377521936 109.65438752849418 l 9.134887765699089 4.728981868735146 a31.286371761060586,31.286371761060586 0 0,0 -0.25170257313212957,0.47612641177467335 l -9.052132684342066 -4.885523295595954" fill="#ff810b" stroke="none" /><line stroke="#e1ed5e" stroke-width="0.3" x1="174.80103733775053" x2="179.2010983576182" y1="140.37084112569926" y2="142.7455964860345" /><path d="M 175.68104954172406 140.8457921977663 a86.0,86.0 0 0,1 -30.038265399797805,32.042727171017184" fill="none" id="id65" stroke="none" /><text fill="#e1ed5e" style="font-size:6.75px; font-family:Arial;" text-anchor="middle"><textPath startOffset="22.206326154141568" xlink:href="#id65">May</textPath></text><path d="M 118.48025628344425 109.97397251340804 l 55.44076885033275 29.921917540224147 a84.0,84.0 0 0,0 -0.6976943621939617,1.2665179264087798 l -54.91749807868728 -30.871805985030733" fill="#4dd2ff" stroke="none" /><path d="M 115.56566222782051 114.09645910891815 l 34.45809349146271 31.205682017532467 a67.48822213470562,67.48822213470562 0 0,0 -0.787213449041846,0.8543647223904891 l -33.91583363442514 -31.79419799472429" fill="#38ff85" stroke="none" /><line stroke="#e1ed5e" stroke-width="0.3" x1="143.8653032363475" x2="146.44561519142675" y1="172.8068346515853" y2="177.08958963109032" /><path d="M 144.38136562736335 173.6633856474863 a86.0,86.0 0 0,1 -40.68145358897372,12.25698825130547" fill="none" id="id66" stroke="none" /><text fill="#e1ed5e" style="font-size:6.75px; font-family:Arial;" text-anchor="middle"><textPath startOffset="21.466115282336833" xlink:href="#id66">June</textPath></text><line stroke="#e1ed5e" stroke-width="0.3" x1="102.19456741930631" x2="102.32365962044197" y1="184.97166512339345" y2="189.96999836594603" /><path d="M 102.22038585953345 185.97133177190398 a86.0,86.0 0 0,1 -42.740103519485714,-10.115201625700543" fill="none" id="id67" stroke="none" /><text fill="#e1ed5e" style="font-size:6.75px; font-family:Arial;" text-anchor="middle"><textPath startOffset="22.20632615414155" xlink:href="#id67">July</textPath></text><path d="M 92.06813273071674 119.44442032107085 l -0.4279881070030966 1.0491830438483434 a22.13311909313848,22.13311909313848 0 0,0 -0.3515250908525394,-0.146937516485891 l 0.4459846573530983 -1.0416604843424793" fill="#ff0000" stroke="none" /><line stroke="#e1ed5e" stroke-width="0.3" x1="58.666819895761336" x2="56.23545636021788" y1="174.27360380694188" y2="178.64263932499728" /><path d="M 58.180547188652646 175.14741091055294 a86.0,86.0 0 0,1 -31.652253787137756,-30.449443065178592" fill="none" id="id68" stroke="none" /><text fill="#e1ed5e" style="font-size:6.75px; font-family:Arial;" text-anchor="middle"><textPath startOffset="22.20632615414155" xlink:href="#id68">August</textPath></text><path d="M 88.24862548938628 117.40417183066458 l -25.784602117221493 38.18784308406866 a67.0777285221057,67.0777285221057 0 0,0 -0.9513637921639987,-0.6543566912486007 l 26.43812279400838 -37.73834560345496" fill="#38ff80" stroke="none" /><path d="M 87.36589467227662 116.77436683061367 l -2.278800164987114 3.025574736762537 a24.78774770538918,24.78774770538918 0 0,0 -0.33861393819179286,-0.2596347285664087 l 2.330542831672394 -2.9859006663687615" fill="#ff2603" stroke="none" /><path d="M 83.95833913139862 113.55231037782056 l -2.7278407994237357 2.3045335191839014 a24.57099288266483,24.57099288266483 0 0,0 -0.2701685972949884,-0.32543547961195796 l 2.7671053966122607 -2.257236782458182" fill="#ff2303" stroke="none" /><path d="M 83.72743513129214 113.27417163493432 l -2.7671053966122607 2.257236782458182 a24.57099288266483,24.57099288266483 0 0,0 -0.2645267320856198,-0.33003777112125865 l 2.8055500407527414 -2.209271177758664" fill="#ff2303" stroke="none" /><line stroke="#e1ed5e" stroke-width="0.3" x1="26.63291911575756" x2="22.317208475507996" y1="142.92168965132927" y2="145.44649492493687" /><path d="M 25.769776987707644 143.4266507060508 a86.0,86.0 0 0,1 -11.730757126820373,-40.83630448921669" fill="none" id="id69" stroke="none" /><text fill="#e1ed5e" style="font-size:6.75px; font-family:Arial;" text-anchor="middle"><textPath startOffset="21.46611528233685" xlink:href="#id69">September</textPath></text><line stroke="#e1ed5e" stroke-width="0.3" x1="15.007084014347285" x2="10.007500721073583" y1="101.09737516637583" y2="101.16192664675087" /><path d="M 14.007167355692545 101.11028546245083 a86.0,86.0 0 0,1 10.666146001902534,-42.60595125391555" fill="none" id="id70" stroke="none" /><text fill="#e1ed5e" style="font-size:6.75px; font-family:Arial;" text-anchor="middle"><textPath startOffset="22.20632615414155" xlink:href="#id70">October</textPath></text><line stroke="#e1ed5e" stroke-width="0.3" x1="26.266209847984243" x2="21.928928074336255" y1="57.711370442889674" y2="55.22380399835377" /><path d="M 25.398753493254645 57.213857153982495 a86.0,86.0 0 0,1 29.58750427330803,-30.492523968695096" fill="none" id="id71" stroke="none" /><text fill="#e1ed5e" style="font-size:6.75px; font-family:Arial;" text-anchor="middle"><textPath startOffset="21.46611528233685" xlink:href="#id71">November</textPath></text><line stroke="#e1ed5e" stroke-width="0.3" x1="56.762969772571076" x2="54.21961505331055" y1="26.818313649435495" y2="22.513508569990535" /><path d="M 56.25429882871897 25.957352633546506 a86.0,86.0 0 0,1 42.265352541879196,-11.944610805530505" fill="none" id="id72" stroke="none" /><text fill="#e1ed5e" style="font-size:6.75px; font-family:Arial;" text-anchor="middle"><textPath startOffset="22.20632615414155" xlink:href="#id72">December</textPath></text></svg>