<?xml version="1.0" encoding="utf-8" ?>
<svg baseProfile="full" height="200mm" version="1.1" viewBox="0,0,200,200" width="200mm" xmlns="http://www.w3.org/2000/svg" xmlns:ev="http://www.w3.org/2001/xml-events" xmlns:xlink="http://www.w3.org/1999/xlink"><defs /><rect fill="#1a1a1a" height="200" width="200" x="0" y="0" /><rect fill="#1a1a1a" height="200" width="180" x="10" y="0" /><text alignment-baseline="middle" fill="#e1ed5e" style="dominant-baseline: central; font-size:9.0px; font-family:Arial;" text-anchor="middle" x="100.0" y="100.0">2018</text><line stroke="#e1ed5e" stroke-width="0.3" x1="100.0" x2="100.0" y1="15.0" y2="10.0" /><path d="M 100.0 14.0 a86.0,86.0 0 0,1 42.46469731375804,11.215312516191453" fill="none" id="id13" stroke="none" /><text fill="#e1ed5e" style="font-size:6.75px; font-family:Arial;" text-anchor="middle"><textPath startOffset="22.20632615414155" xlink:href="#id13">January</textPath></text><path d="M 101.80526077348638 79.07773832637324 l 2.3375095518030276 -27.090815479791427 a48.191473558174025,48.191473558174025 0 0,0 0.8258524010515111,0.07842463656484687 l -2.803487079944783 27.046565298711403" fill="#b4ff20" stroke="none" /><path d="M 104.307194497241 79.44645832069477 l 1.515690453772786 -7.232737443015192 a28.389844955833098,28.389844955833098 0 0,0 0.47743239553836775,0.10434822960673103 l -1.6399655734646816 7.20557571531259" fill="#ff4a06" stroke="none" /><path d="M 104.66035177308747 79.52364482259891 l 3.5552588770194338 -15.620868779446026 a37.0203435389912,37.0203435389912 0 0,0 0.6201371408346232,0.14676642540811424 l -3.8236197048165805 15.557356441897044" fill="#ffc011" stroke="none" /><path d="M 109.41281617654863 81.2277094730956 l 7.4476290018696565 -14.853052767355718 a37.61566592885592,37.61566592885592 0 0,0 0.5763069530940172,0.2952068052582551 l -7.702196442552429 14.722653436784963" fill="#ffc812" stroke="none" /><line stroke="#e1ed5e" stroke-width="0.3" x1="143.23703022742887" x2="145.7803849466894" y1="26.81831364943548" y2="22.513508569990506" /><path d="M 143.74570117128098 25.957352633546492 a86.0,86.0 0 0,1 28.547481713284135,27.462654790039103" fill="none" id="id14" stroke="none" /><text fill="#e1ed5e" style="font-size:6.75px; font-family:Arial;" text-anchor="middle"><textPath startOffset="19.985693538727396" xlink:href="#id14">February</textPath></text><path d="M 112.48926042617603 83.11751280151076 l 4.58653310818923 -6.199893656005697 a28.712001510522132,28.712001510522132 0 0,0 0.3947952794980183,0.2973516195534103 l -4.692574541445631 6.120025446946439" fill="#ff4f07" stroke="none" /><path d="M 116.82858285166822 87.43820079747576 l 5.844140351492987 -4.362394519723149 a28.29276781432531,28.29276781432531 0 0,0 0.2879629655901166,0.3927811614456293 l -5.91836592959673 4.261150914606026" fill="#ff4906" stroke="none" /><path d="M 117.65298651832404 88.62581576622439 l 8.877819183366686 -5.720162471145805 a31.561057340477724,31.561057340477724 0 0,0 0.29032025292758606,0.45921691957189464 l -8.974967032540228 5.566497903859704" fill="#ff770a" stroke="none" /><line stroke="#e1ed5e" stroke-width="0.3" x1="172.23445277983987" x2="176.4835382374775" y1="55.19839476539836" y2="52.563006222186495" /><path d="M 173.08426987136738 54.67131705675599 a86.0,86.0 0 0,1 12.851231095245387,41.99856678651699" fill="none" id="id15" stroke="none" /><text fill="#e1ed5e" style="font-size:6.75px; font-family:Arial;" text-anchor="middle"><textPath startOffset="22.20632615414155" xlink:href="#id15">March</textPath></text><path d="M 118.21658344932153 89.55222093294921 l 2.000316240650929 -1.1472437850212183 a23.305956063085695,23.305956063085695 0 0,0 0.19659390614047248,0.3497186224863559 l -2.0197677880838345 1.1126416526000684" fill="#ff0000" stroke="none" /><path d="M 119.7369772167798 92.82701384747503 l 2.8397953916483054 -1.032063461216325 a24.021521612433837,24.021521612433837 0 0,0 0.13789144879235596,0.38983769439818233 l -2.857139921250471 0.9830281403915281" fill="#ff0b01" stroke="none" /><path d="M 120.28053869075195 94.5502522615342 l 14.653392010285117 -3.937631597789831 a36.173227738586164,36.173227738586164 0 0,0 0.15641246508354947,0.6027210326269892 l -14.719000807238968 3.6848141396139913" fill="#ffb510" stroke="none" /><path d="M 120.6074358757038 95.95851677861258 l 6.295416885555598 -1.2346427701181975 a27.415342277130947,27.415342277130947 0 0,0 0.0868338878727045,0.4638701011872405 l -6.315736497338161 1.1260945914683942" fill="#ff3c05" stroke="none" /><path d="M 120.78858239683441 97.02765380044208 l 31.44680051894172 -4.496255503452005 a52.766611031560096,52.766611031560096 0 0,0 0.12082046545506318,0.9002528040007772 l -31.519536983454618 3.9542843573865634" fill="#81ff25" stroke="none" /><line stroke="#e1ed5e" stroke-width="0.3" x1="184.98032266829074" x2="189.97916517819016" y1="98.17113171792111" y2="98.06355123074" /><path d="M 185.9800911702706 98.14961562048488 a86.0,86.0 0 0,1 -9.607161424134198,41.387399972396054" fill="none" id="id16" stroke="none" /><text fill="#e1ed5e" style="font-size:6.75px; font-family:Arial;" text-anchor="middle"><textPath startOffset="21.466115282336823" xlink:href="#id16">April</textPath></text><path d="M 120.89721153311464 102.0752229133903 l 8.783526065248003 0.8722586993044052 a29.826730163395915,29.826730163395915 0 0,0 -0.05513357231867543,0.5104684060416347 l -8.767210191428276 -1.0233234272308314" fill="#ff5e08" stroke="none" /><path d="M 120.49622156327973 104.57218783832717 l 30.93272458054944 6.90030729307167 a52.69302274499776,52.69302274499776 0 0,0 -0.20509989802783926,0.8835649927408891 l -30.809364116591045 -7.431740943161124" fill="#82ff25" stroke="none" /><path d="M 120.02730092923936 106.31721596034902 l 14.059556645487769 4.43480906139656 a35.74241040260121,35.74241040260121 0 0,0 -0.1901287718727647,0.5851561911361615 l -13.981135622598758 -4.676164152510517" fill="#ffaf10" stroke="none" /><line stroke="#e1ed5e" stroke-width="0.3" x1="174.80103733775053" x2="179.2010983576182" y1="140.37084112569926" y2="142.7455964860345" /><path d="M 175.68104954172406 140.8457921977663 a86.0,86.0 0 0,1 -30.038265399797805,32.042727171017184" fill="none" id="id17" stroke="none" /><text fill="#e1ed5e" style="font-size:6.75px; font-family:Arial;" text-anchor="middle"><textPath startOffset="22.206326154141568" xlink:href="#id17">May</textPath></text><path d="M 117.55443506779139 111.5257021239791 l 26.826622336642163 17.61353508959849 a53.092121842367256,53.092121842367256 0 0,0 -0.5081596008319735,0.7596296552437594 l -26.51945963039947 -18.072701659048057" fill="#7dff26" stroke="none" /><path d="M 116.0416608686014 113.55231037782055 l 24.726845731316814 20.889725244796868 a53.369700656994716,53.369700656994716 0 0,0 -0.5989033200850541,0.6966598648083951 l -24.363599901660983 -21.312262208766793" fill="#7aff26" stroke="none" /><line stroke="#e1ed5e" stroke-width="0.3" x1="143.8653032363475" x2="146.44561519142675" y1="172.8068346515853" y2="177.08958963109032" /><path d="M 144.38136562736335 173.6633856474863 a86.0,86.0 0 0,1 -40.68145358897372,12.25698825130547" fill="none" id="id18" stroke="none" /><text fill="#e1ed5e" style="font-size:6.75px; font-family:Arial;" text-anchor="middle"><textPath startOffset="21.466115282336833" xlink:href="#id18">June</textPath></text><line stroke="#e1ed5e" stroke-width="0.3" x1="102.19456741930631" x2="102.32365962044197" y1="184.97166512339345" y2="189.96999836594603" /><path d="M 102.22038585953345 185.97133177190398 a86.0,86.0 0 0,1 -42.740103519485714,-10.115201625700543" fill="none" id="id19" stroke="none" /><text fill="#e1ed5e" style="font-size:6.75px; font-family:Arial;" text-anchor="middle"><textPath startOffset="22.20632615414155" xlink:href="#id19">July</textPath></text><path d="M 94.46302465271185 120.25689768951611 l -2.0343054345398652 7.442459912140207 a28.715478478021467,28.715478478021467 0 0,0 -0.47567714073649653,-0.13443111138266717 l 2.1621137433809756 -7.406340007419019" fill="#ff4f07" stroke="none" /><line stroke="#e1ed5e" stroke-width="0.3" x1="58.666819895761336" x2="56.23545636021788" y1="174.27360380694188" y2="178.64263932499728" /><path d="M 58.180547188652646 175.14741091055294 a86.0,86.0 0 0,1 -31.652253787137756,-30.449443065178592" fill="none" id="id20" stroke="none" /><text fill="#e1ed5e" style="font-size:6.75px; font-family:Arial;" text-anchor="middle"><textPath startOffset="22.20632615414155" xlink:href="#id20">August</textPath></text><path d="M 86.51685102203217 116.09983520530335 l -5.448103232136956 6.505421275268411 a29.485418952340304,29.485418952340304 0 0,0 -0.3863074614941892,-0.32921959944674933 l 5.559276170208201 -6.410677285598711" fill="#ff5a08" stroke="none" /><path d="M 83.06392112726016 112.41649034213515 l -25.38329113324197 18.609466310103258 a52.47417520923763,52.47417520923763 0 0,0 -0.527790770600663,-0.7330552184790148 l 25.69986169621824 -18.169777486173107" fill="#84ff25" stroke="none" /><path d="M 82.24976979558568 111.22182372390057 l -7.289410639462718 4.608418048957634 a29.62397961411498,29.62397961411498 0 0,0 -0.26878169667831076,-0.4333616770007975 l 7.367656975808984 -4.482260040591573" fill="#ff5c08" stroke="none" /><path d="M 82.05923443525364 110.91462005526583 l -7.681310400024981 4.673077313243399 a29.99111678475383,29.99111678475383 0 0,0 -0.264520399414484,-0.4433514046036232 l 7.760611675137697 -4.540163814753665" fill="#ff6108" stroke="none" /><line stroke="#e1ed5e" stroke-width="0.3" x1="26.63291911575756" x2="22.317208475507996" y1="142.92168965132927" y2="145.44649492493687" /><path d="M 25.769776987707644 143.4266507060508 a86.0,86.0 0 0,1 -11.730757126820373,-40.83630448921669" fill="none" id="id21" stroke="none" /><text fill="#e1ed5e" style="font-size:6.75px; font-family:Arial;" text-anchor="middle"><textPath startOffset="21.46611528233685" xlink:href="#id21">September</textPath></text><path d="M 81.35079622478065 109.6543875284942 l -14.37400619948323 7.441187723584563 a37.18589907791371,37.18589907791371 0 0,0 -0.2893794805955379,-0.5709731686534422 l 14.499964349865033 -7.192660343228436" fill="#ffc212" stroke="none" /><path d="M 81.18737489456691 109.33194174019688 l -17.54125976606937 8.701285082183672 a40.58081091942201,40.58081091942201 0 0,0 -0.30502613559831504,-0.6284441850895526 l 17.688439158282403 -8.398051941128834" fill="#ffee16" stroke="none" /><path d="M 80.58989483394504 108.01547362559985 l -15.530219775558173 6.413260821917346 a37.802310574652466,37.802310574652466 0 0,0 -0.24319015874599298,-0.6035780301277893 l 15.638312548561553 -6.144983423946751" fill="#ffca12" stroke="none" /><path d="M 79.76711848015287 105.62410040840567 l -60.698644559541364 16.872301225217015 a84.0,84.0 0 0,0 -0.3752476946329004,-1.3964362672978443 l 60.98008033051604 -15.824974024743632" fill="#4dd2ff" stroke="none" /><path d="M 79.4281124754447 104.21870165774334 l -18.740786912943072 3.84319565828254 a40.130793161397676,40.130793161397676 0 0,0 -0.13294771285610013,-0.6778975236133817 l 18.80416455877484 -3.520034407601204" fill="#ffe815" stroke="none" /><path d="M 79.35854240842038 103.8639653848113 l -18.803788608512217 3.5199640318152525 a40.13041068087371,40.13041068087371 0 0,0 -0.12125796800432653,-0.6800790803189771 l 18.861593018855732 -3.1957662007630616" fill="#ffe815" stroke="none" /><line stroke="#e1ed5e" stroke-width="0.3" x1="15.007084014347285" x2="10.007500721073583" y1="101.09737516637583" y2="101.16192664675087" /><path d="M 14.007167355692545 101.11028546245083 a86.0,86.0 0 0,1 10.666146001902534,-42.60595125391555" fill="none" id="id22" stroke="none" /><text fill="#e1ed5e" style="font-size:6.75px; font-family:Arial;" text-anchor="middle"><textPath startOffset="22.20632615414155" xlink:href="#id22">October</textPath></text><path d="M 79.00175016825051 100.2711162175752 l -14.734525495348922 0.19024294177242795 a35.735753592876804,35.735753592876804 0 0,0 -0.002647343272670994,-0.6151493434797104 l 14.735617135911097 0.0634158799109578" fill="#ffaf10" stroke="none" /><path d="M 79.00486145842228 99.54816195383935 l -16.227789086455584 -0.3492395394205474 a37.231546657370075,37.231546657370075 0 0,0 0.019304212185445337,-0.64061282213557 l 16.219373179814493 0.6285225089811118" fill="#ffc312" stroke="none" /><path d="M 79.03285615573316 98.82574320788736 l -14.71735436865089 -0.824239746609193 a35.740416913111304,35.740416913111304 0 0,0 0.03968787617474434,-0.6139538781534883 l 14.700985901471732 1.077452689015693" fill="#ffaf10" stroke="none" /><path d="M 79.08570108090925 98.10471618934814 l -14.668569912729788 -1.3292868763405956 a35.728677703183436,35.728677703183436 0 0,0 0.060777669672903836,-0.6120228393052436 l 14.643515117374656 1.5815852463502695" fill="#ffaf10" stroke="none" /><path d="M 79.16333360222342 97.38593545837743 l -14.603042486151683 -1.83202508664871 a35.71751221404152,35.71751221404152 0 0,0 0.08178289956913348,-0.6093775949225035 l 14.569343587524715 2.083121023635873" fill="#ffaf10" stroke="none" /><path d="M 79.46518482838121 95.60439243477599 l -30.561210598522095 -6.541821165010173 a52.253528079277615,52.253528079277615 0 0,0 0.19584028375170412,-0.8779135916382539 l 30.444075927768353 7.066912926198387" fill="#87ff25" stroke="none" /><path d="M 79.91906864156998 93.8553929516997 l -8.349829338224271 -2.5549821015756318 a29.73198622976712,29.73198622976712 0 0,0 0.15396145043649764,-0.4880998716440167 l 8.30461240401957 2.698332139646063" fill="#ff5d08" stroke="none" /><path d="M 81.10775173730289 90.83032412892265 l -12.915916400561493 -6.268960968765754 a35.356906633888855,35.356906633888855 0 0,0 0.2704634773178714,-0.5452378663677316 l 12.806092910290209 6.490358423632447" fill="#ffaa0f" stroke="none" /><line stroke="#e1ed5e" stroke-width="0.3" x1="26.266209847984243" x2="21.928928074336255" y1="57.711370442889674" y2="55.22380399835377" /><path d="M 25.398753493254645 57.213857153982495 a86.0,86.0 0 0,1 29.58750427330803,-30.492523968695096" fill="none" id="id23" stroke="none" /><text fill="#e1ed5e" style="font-size:6.75px; font-family:Arial;" text-anchor="middle"><textPath startOffset="21.46611528233685" xlink:href="#id23">November</textPath></text><path d="M 84.07557802195018 86.31012108654704 l -19.04085313165204 -16.36900693415816 a46.10972871202836,46.10972871202836 0 0,0 0.5225947905562414,-0.5974161852497819 l 18.756266477517954 16.694338675610886" fill="#cdff1d" stroke="none" /><line stroke="#e1ed5e" stroke-width="0.3" x1="56.762969772571076" x2="54.21961505331055" y1="26.818313649435495" y2="22.513508569990535" /><path d="M 56.25429882871897 25.957352633546506 a86.0,86.0 0 0,1 42.265352541879196,-11.944610805530505" fill="none" id="id24" stroke="none" /><text fill="#e1ed5e" style="font-size:6.75px; font-family:Arial;" text-anchor="middle"><textPath startOffset="22.20632615414155" xlink:href="#id24">December</textPath></text><path d="M 89.94658935756843 81.56283822128135 l -5.636309856045905 -10.336547500836065 a32.77336838081611,32.77336838081611 0 0,0 0.49761670715123,-0.2658096114022808 l 5.457548102366371 10.432035838740095" fill="#ff870c" stroke="none" /><path d="M 90.26544431104013 81.39251694778311 l -6.827762126158024 -13.051183033565724 a35.72928084554815,35.72928084554815 0 0,0 0.5474057808595613,-0.2804025023121462 l 6.602095857709699 13.166778061190374" fill="#ffaf10" stroke="none" /><path d="M 97.83486435360386 79.11191278185805 l -1.5186229576001489 -14.650873649706067 a35.72936911028445,35.72936911028445 0 0,0 0.6122905794147454,-0.058144368293338064 l 1.2662072510951672 14.674843562514585" fill="#ffaf10" stroke="none" /></svg>