<?xml version="1.0" encoding="utf-8" ?>
<svg baseProfile="full" height="200mm" version="1.1" viewBox="0,0,200,200" width="200mm" xmlns="http://www.w3.org/2000/svg" xmlns:ev="http://www.w3.org/2001/xml-events" xmlns:xlink="http://www.w3.org/1999/xlink"><defs /><rect fill="#1a1a1a" height="200" width="200" x="0" y="0" /><text alignment-baseline="middle" fill="#e1ed5e" style="dominant-baseline: central; font-size:9.0px; font-family:Arial;" text-anchor="middle" x="100.0" y="100.0">2017</text><line stroke="#e1ed5e" stroke-width="0.3" x1="100.0" x2="100.0" y1="15.0" y2="10.0" /><path d="M 100.0 14.0 a86.0,86.0 0 0,1 42.46469731375804,11.215312516191453" fill="none" id="id1" stroke="none" /><text fill="#e1ed5e" style="font-size:6.75px; font-family:Arial;" text-anchor="middle"><textPath startOffset="22.20632615414155" xlink:href="#id1">January</textPath></text><line stroke="#e1ed5e" stroke-width="0.3" x1="143.23703022742887" x2="145.7803849466894" y1="26.81831364943548" y2="22.513508569990506" /><path d="M 143.74570117128098 25.957352633546492 a86.0,86.0 0 0,1 28.547481713284135,27.462654790039103" fill="none" id="id2" stroke="none" /><text fill="#e1ed5e" style="font-size:6.75px; font-family:Arial;" text-anchor="middle"><textPath startOffset="19.985693538727396" xlink:href="#id2">February</textPath></text><line stroke="#e1ed5e" stroke-width="0.3" x1="172.23445277983987" x2="176.4835382374775" y1="55.19839476539836" y2="52.563006222186495" /><path d="M 173.08426987136738 54.67131705675599 a86.0,86.0 0 0,1 12.851231095245387,41.99856678651699" fill="none" id="id3" stroke="none" /><text fill="#e1ed5e" style="font-size:6.75px; font-family:Arial;" text-anchor="middle"><textPath startOffset="22.20632615414155" xlink:href="#id3">March</textPath></text><path d="M 118.89224826269711 90.83032412892265 l 13.54452884465958 -6.574068771752156 a36.05565149170046,36.05565149170046 0 0,0 0.2661968252135913,0.5606784025541072 l -13.655683863714927 6.339947953557509" fill="#ff6c09" stroke="none" /><path d="M 119.34039704204932 91.81776055985345 l 36.95564429102365 -15.634628885674617 a61.12681479207439,61.12681479207439 0 0,0 0.40162737100144097,0.9725725356772972 l -37.21929334891129 14.996181779544017" fill="#43ff2d" stroke="none" /><path d="M 120.91429891909075 98.10471618934814 l 17.988051439665902 -1.6301030606219291 a39.061761558173544,39.061761558173544 0 0,0 0.054919936805947187,0.6701623361313576 l -18.013445860291345 1.3202268072828027" fill="#ff9a0e" stroke="none" /><path d="M 120.94382443527127 98.46500227214037 l 21.093254572673228 -1.5459496398227357 a42.149830939193535,42.149830939193535 0 0,0 0.04680519746503786,0.724055688313383 l -21.116740361142682 1.1826348872563175" fill="#ffc712" stroke="none" /><line stroke="#e1ed5e" stroke-width="0.3" x1="184.98032266829074" x2="189.97916517819016" y1="98.17113171792111" y2="98.06355123074" /><path d="M 185.9800911702706 98.14961562048488 a86.0,86.0 0 0,1 -9.607161424134198,41.387399972396054" fill="none" id="id4" stroke="none" /><text fill="#e1ed5e" style="font-size:6.75px; font-family:Arial;" text-anchor="middle"><textPath startOffset="21.466115282336823" xlink:href="#id4">April</textPath></text><line stroke="#e1ed5e" stroke-width="0.3" x1="174.80103733775053" x2="179.2010983576182" y1="140.37084112569926" y2="142.7455964860345" /><path d="M 175.68104954172406 140.8457921977663 a86.0,86.0 0 0,1 -30.038265399797805,32.042727171017184" fill="none" id="id5" stroke="none" /><text fill="#e1ed5e" style="font-size:6.75px; font-family:Arial;" text-anchor="middle"><textPath startOffset="22.206326154141568" xlink:href="#id5">May</textPath></text><path d="M 116.27256486870786 113.27417163493432 l 13.935175929518453 11.367471479996736 a38.9835629405068,38.9835629405068 0 0,0 -0.4286409819697543,0.5163256756904174 l -13.737438947655153 -11.605658412800924" fill="#ff980e" stroke="none" /><path d="M 115.32070863581623 114.36230785411682 l 10.99402430846124 10.306283177047819 a36.06944071359437,36.06944071359437 0 0,0 -0.428528054926983,0.44930995235835536 l -10.814989702155293 -10.494000245988682" fill="#ff6c0a" stroke="none" /><path d="M 111.45004920935366 117.60387380957326 l 8.16263512097713 12.54964026756208 a35.97070749708994,35.97070749708994 0 0,0 -0.5219490079814388,0.3331325520563447 l -7.945404310948761 -12.688287248442233" fill="#ff6b09" stroke="none" /><line stroke="#e1ed5e" stroke-width="0.3" x1="143.8653032363475" x2="146.44561519142675" y1="172.8068346515853" y2="177.08958963109032" /><path d="M 144.38136562736335 173.6633856474863 a86.0,86.0 0 0,1 -40.68145358897372,12.25698825130547" fill="none" id="id6" stroke="none" /><text fill="#e1ed5e" style="font-size:6.75px; font-family:Arial;" text-anchor="middle"><textPath startOffset="21.466115282336833" xlink:href="#id6">June</textPath></text><path d="M 101.98527174616119 120.90594882070398 l 1.429644072619002 15.054899094689958 a36.12262771232801,36.12262771232801 0 0,0 -0.6195128394619899,0.053454174562860335 l -1.1702869154154705 -15.077277521531482" fill="#ff6d0a" stroke="none" /><line stroke="#e1ed5e" stroke-width="0.3" x1="102.19456741930631" x2="102.32365962044197" y1="184.97166512339345" y2="189.96999836594603" /><path d="M 102.22038585953345 185.97133177190398 a86.0,86.0 0 0,1 -42.740103519485714,-10.115201625700543" fill="none" id="id7" stroke="none" /><text fill="#e1ed5e" style="font-size:6.75px; font-family:Arial;" text-anchor="middle"><textPath startOffset="22.20632615414155" xlink:href="#id7">July</textPath></text><path d="M 100.54218724476979 120.99299961872073 l 0.3869872989614564 14.983798121250475 a35.98879465827545,35.98879465827545 0 0,0 -0.6194191000798178,0.010663861545560784 l -0.1290085089889706 -14.988239460075196" fill="#ff6b09" stroke="none" /><path d="M 91.40352486487194 119.15986991738527 l -6.168056710118449 13.747397898704499 a36.06770959915747,36.06770959915747 0 0,0 -0.5642569963185661,-0.259022711951846 l 6.403781702204435 -13.639188116418579" fill="#ff6c0a" stroke="none" /><path d="M 90.7491055286396 118.85261126421891 l -6.5862921736394515 13.422356768483635 a35.95121753627452,35.95121753627452 0 0,0 -0.553214069566387,-0.27739301901628194 l 6.816360150888599 -13.30699590855805" fill="#ff6a09" stroke="none" /><line stroke="#e1ed5e" stroke-width="0.3" x1="58.666819895761336" x2="56.23545636021788" y1="174.27360380694188" y2="178.64263932499728" /><path d="M 58.180547188652646 175.14741091055294 a86.0,86.0 0 0,1 -31.652253787137756,-30.449443065178592" fill="none" id="id8" stroke="none" /><text fill="#e1ed5e" style="font-size:6.75px; font-family:Arial;" text-anchor="middle"><textPath startOffset="22.20632615414155" xlink:href="#id8">August</textPath></text><path d="M 88.24862548938628 117.40417183066458 l -16.71860099660001 24.760797492271454 a50.876557896397486,50.876557896397486 0 0,0 -0.7215825001679486,-0.4963110233560343 l 17.14234038139085 -24.469345679550315" fill="#c0ff1e" stroke="none" /><path d="M 82.85270091963577 112.12312394758628 l -51.44189724109269 36.36937184275885 a84.0,84.0 0 0,0 -0.8245563713514645,-1.1878349512519497 l 52.06031451960629 -35.47849562931989" fill="#4dd2ff" stroke="none" /><line stroke="#e1ed5e" stroke-width="0.3" x1="26.63291911575756" x2="22.317208475507996" y1="142.92168965132927" y2="145.44649492493687" /><path d="M 25.769776987707644 143.4266507060508 a86.0,86.0 0 0,1 -11.730757126820373,-40.83630448921669" fill="none" id="id9" stroke="none" /><text fill="#e1ed5e" style="font-size:6.75px; font-family:Arial;" text-anchor="middle"><textPath startOffset="21.46611528233685" xlink:href="#id9">September</textPath></text><path d="M 81.18737489456691 109.33194174019688 l -7.452317506727601 3.696697957487431 a29.31881073290951,29.31881073290951 0 0,0 -0.2203751806723424,-0.45403814515741503 l 7.514845944014662 -3.5678708563647312" fill="#ff0000" stroke="none" /><path d="M 81.02952815118164 109.00673069616217 l -27.00021646421959 12.819063245728236 a50.88879508465832,50.88879508465832 0 0,0 -0.36888411096769796,-0.7945435575533011 l 27.216875192027118 -12.352399620896108" fill="#bfff1e" stroke="none" /><line stroke="#e1ed5e" stroke-width="0.3" x1="15.007084014347285" x2="10.007500721073583" y1="101.09737516637583" y2="101.16192664675087" /><path d="M 14.007167355692545 101.11028546245083 a86.0,86.0 0 0,1 10.666146001902534,-42.60595125391555" fill="none" id="id10" stroke="none" /><text fill="#e1ed5e" style="font-size:6.75px; font-family:Arial;" text-anchor="middle"><textPath startOffset="22.20632615414155" xlink:href="#id10">October</textPath></text><path d="M 79.01574976396665 99.18683210126434 l -29.857520972771688 -1.1570190651459729 a50.87993058486938,50.87993058486938 0 0,0 0.041446286935102945,-0.874865610951838 l 29.833181077603086 1.6707957827208197" fill="#c0ff1e" stroke="none" /><path d="M 79.05617556472873 98.46500227214037 l -20.85348171275832 -1.5283764025990716 a41.90941496006924,41.90941496006924 0 0,0 0.05892367188185407,-0.7190180451465276 l 20.82408355705697 1.8871083649533775" fill="#ffc312" stroke="none" /><path d="M 80.38941819471856 92.48833698450439 l -13.96559904651712 -5.349401404231209 a35.955067773556586,35.955067773556586 0 0,0 0.22635675590976784,-0.5760532538787324 l 13.871448740725661 5.5890036630057045" fill="#ff6a09" stroke="none" /><line stroke="#e1ed5e" stroke-width="0.3" x1="26.266209847984243" x2="21.928928074336255" y1="57.711370442889674" y2="55.22380399835377" /><path d="M 25.398753493254645 57.213857153982495 a86.0,86.0 0 0,1 29.58750427330803,-30.492523968695096" fill="none" id="id11" stroke="none" /><text fill="#e1ed5e" style="font-size:6.75px; font-family:Arial;" text-anchor="middle"><textPath startOffset="21.46611528233685" xlink:href="#id11">November</textPath></text><line stroke="#e1ed5e" stroke-width="0.3" x1="56.762969772571076" x2="54.21961505331055" y1="26.818313649435495" y2="22.513508569990535" /><path d="M 56.25429882871897 25.957352633546506 a86.0,86.0 0 0,1 42.265352541879196,-11.944610805530505" fill="none" id="id12" stroke="none" /><text fill="#e1ed5e" style="font-size:6.75px; font-family:Arial;" text-anchor="middle"><textPath startOffset="22.20632615414155" xlink:href="#id12">December</textPath></text><path d="M 94.63758080256005 79.69619591428918 l -3.825471764256646 -14.484438156936026 a35.98109418371132,35.98109418371132 0 0,0 0.6001836889496163,-0.15300018596054116 l 3.57557918662203 14.548141339065431" fill="#ff6b09" stroke="none" /></svg>