<?xml version="1.0" encoding="utf-8" ?>
<svg baseProfile="full" height="200mm" version="1.1" viewBox="0,0,200,200" width="200mm" xmlns="http://www.w3.org/2000/svg" xmlns:ev="http://www.w3.org/2001/xml-events" xmlns:xlink="http://www.w3.org/1999/xlink"><defs /><rect fill="#1a1a1a" height="200" width="200" x="0" y="0" /><text alignment-baseline="middle" fill="#e1ed5e" style="dominant-baseline: central; font-size:9.0px; font-family:Arial;" text-anchor="middle" x="100.0" y="100.0">2020</text><line stroke="#e1ed5e" stroke-width="0.3" x1="100.0" x2="100.0" y1="15.0" y2="10.0" /><path d="M 100.0 14.0 a86.0,86.0 0 0,1 42.35913384403234,11.155469271406648" fill="none" id="id37" stroke="none" /><text fill="#e1ed5e" style="font-size:6.75px; font-family:Arial;" text-anchor="middle"><textPath startOffset="22.145653131862478" xlink:href="#id37">January</textPath></text><path d="M 103.94208987418118 79.37332000966035 l 3.9782688786517286 -20.81598382952171 a42.192730028520586,42.192730028520586 0 0,0 0.7102513500059788,0.142070161750371 l -4.335016714188664 20.74462427110848" fill="#fcff18" stroke="none" /><line stroke="#e1ed5e" stroke-width="0.3" x1="143.13028292997686" x2="145.6673583964461" y1="26.7553504044142" y2="22.446841604673864" /><path d="M 143.63769802327073 25.89364864446614 a86.0,86.0 0 0,1 29.32050498858742,28.57503671076993" fill="none" id="id38" stroke="none" /><text fill="#e1ed5e" style="font-size:6.75px; font-family:Arial;" text-anchor="middle"><textPath startOffset="20.669276256404974" xlink:href="#id38">February</textPath></text><path d="M 115.16444852881244 85.47280134310134 l 15.148007212003256 -14.511448247313096 a41.97723176992972,41.97723176992972 0 0,0 0.49402037846852676,0.524632522186063 l -15.394883424208043 14.249274265182537" fill="#ffff18" stroke="none" /><path d="M 115.41159269507618 85.73525988315684 l 23.103661189668756 -21.384403879523312 a52.481294281677464,52.481294281677464 0 0,0 0.6062896502632847,0.6664185319534957 l -23.46734854077392 20.984647772012146" fill="#84ff25" stroke="none" /><path d="M 115.6541949942343 86.00192230759917 l 7.830125847167884 -7.001746815489512 a31.504062511747733,31.504062511747733 0 0,0 0.35702944372156703,0.4062339679641263 l -7.949166354848041 6.866300569714088" fill="#ff760a" stroke="none" /><path d="M 115.8921839302757 86.27271002978787 l 15.92677147539012 -13.757165867900346 a42.04570413044483,42.04570413044483 0 0,0 0.4671186359430594,0.5502645785878245 l -16.160584674840294 13.481734506862969" fill="#feff18" stroke="none" /><path d="M 116.1254893667686 86.54754324733833 l 16.160584674840294 -13.481734506862969 a42.04570413044483,42.04570413044483 0 0,0 0.45760378173165434,0.5582022083784846 l -16.389635275810576 13.20233001678599" fill="#feff18" stroke="none" /><path d="M 116.57777611688842 87.10902102172516 l 16.572012857363674 -12.886497432809652 a41.99269935550063,41.99269935550063 0 0,0 0.4376199628336377,0.5728585791387631 l -16.79078479755162 12.600117940430007" fill="#ffff18" stroke="none" /><path d="M 116.7966241395341 87.39550010848427 l 25.26674335202454 -18.960635255864148 a52.58977696855416,52.58977696855416 0 0,0 0.5356593849576557,0.7267248320586404 l -25.588504756566024 18.524104114536634" fill="#83ff25" stroke="none" /><path d="M 117.01052211995028 87.68569379921539 l 17.2556154224914 -12.49173485076785 a42.30257503661966,42.30257503661966 0 0,0 0.4207794865930116,0.5918790435518521 l -17.46751000761437 12.193678580506493" fill="#fbff18" stroke="none" /><path d="M 117.21940702142032 87.97951657250589 l 8.778205595388178 -6.127869255383693 a31.70549742356613,31.70549742356613 0 0,0 0.3077097987760975,0.44895779243307765 l -8.882105130979602 5.976276727880568" fill="#ff780b" stroke="none" /><path d="M 117.42321728460499 88.27688183743584 l 17.844199775421743 -12.006373970237295 a42.50740527209996,42.50740527209996 0 0,0 0.402151552021839,0.6089087059735261 l -18.047675766364307 11.698285385924711" fill="#f9ff18" stroke="none" /><path d="M 117.62189284568427 88.57770195909679 l 18.047675766364307 -11.698285385924711 a42.50740527209996,42.50740527209996 0 0,0 0.39163956643046266,0.6157224480316444 l -18.24583302442066 11.386749263214394" fill="#f9ff18" stroke="none" /><line stroke="#e1ed5e" stroke-width="0.3" x1="172.87174338648825" x2="177.1583165268699" y1="56.24261187166439" y2="53.66864786411523" /><path d="M 173.72905801456457 55.72781907015455 a86.0,86.0 0 0,1 12.242430191666344,42.057860355516425" fill="none" id="id39" stroke="none" /><text fill="#e1ed5e" style="font-size:6.75px; font-family:Arial;" text-anchor="middle"><textPath startOffset="22.145653131862474" xlink:href="#id39">March</textPath></text><path d="M 118.00360718960297 89.18935116829356 l 36.03342108998945 -21.63703404025842 a63.03056837003038,63.03056837003038 0 0,0 0.549045143825794,0.9323986869496691 l -36.399539943945015 21.015284185015194" fill="#32ff4d" stroke="none" /><path d="M 118.18653347947321 89.5 l 18.151096983905898 -10.479540729745077 a41.95908145949015,41.95908145949015 0 0,0 0.35478728102645896,0.6268751305130786 l -18.328317629953734 10.16640882913288" fill="#ffff18" stroke="none" /><path d="M 119.0197475246899 91.09779779509293 l 43.963287360786154 -20.577038321360938 a69.54055151773429,69.54055151773429 0 0,0 0.49676966905751313,1.0855313795419363 l -44.310041494698716 19.819317959604316" fill="#3bff98" stroke="none" /><path d="M 119.16976305983485 91.42560881287824 l 19.1717464253144 -8.575278321273371 a42.002172727693114,42.002172727693114 0 0,0 0.2887471725499874,0.6607100382754005 l -19.316127479881356 8.244906213222123" fill="#ffff18" stroke="none" /><path d="M 119.71291397450082 92.76114493625339 l 19.825778461797693 -7.280300466818063 a42.120233580702475,42.120233580702475 0 0,0 0.24341449452683067,0.680873663319959 l -19.947833126368465 6.938891847117187" fill="#fdff18" stroke="none" /><path d="M 119.83427380445688 93.10060997987247 l 19.947833126368465 -6.938891847117187 a42.120233580702475,42.120233580702475 0 0,0 0.23169052501658868,0.6849518685031944 l -20.06400907295742 6.595438304139831" fill="#fdff18" stroke="none" /><path d="M 119.94978838288452 93.4421083053983 l 45.26813642365367 -14.880535581894296 a68.65117537348415,68.65117537348415 0 0,0 0.3584091011570142,1.1227114046065578 l -45.51691024058794 14.101255143596353" fill="#3aff8e" stroke="none" /><path d="M 120.05942366710727 93.78553927170692 l 20.075352959572974 -6.219395663817668 a42.01667620901434,42.01667620901434 0 0,0 0.20752972750547657,0.6907989674798537 l -20.179159007082077 5.87385909274709" fill="#ffff18" stroke="none" /><path d="M 120.16314734710363 94.1308016681162 l 44.827476973973965 -13.048625224474241 a67.68799965838065,67.68799965838065 0 0,0 0.3151730797643636,1.11843807277684 l -45.04486854581291 12.27717922779439" fill="#38ff83" stroke="none" /><path d="M 120.26092885502905 94.47779374421319 l 20.262458923354732 -5.522623282712887 a42.00158588162809,42.00158588162809 0 0,0 0.1836279717531898,0.6972653183617032 l -20.35427637591265 5.173977459978385" fill="#ffff18" stroke="none" /><path d="M 120.592083275326 95.88100663000786 l 24.69657411755382 -4.940006491407953 a46.1857983252265,46.1857983252265 0 0,0 0.14883639126555356,0.7787748913738733 l -24.77773680110153 4.515329035000765" fill="#ccff1d" stroke="none" /><path d="M 120.65975698304385 96.23510406497455 l 24.77773680110153 -4.515329035000765 a46.1857983252265,46.1857983252265 0 0,0 0.13544575329171107,0.7812151116783274 l -24.851597371885475 4.0893208904018445" fill="#ccff1d" stroke="none" /><path d="M 120.82617615685814 97.30363454192243 l 20.83541868928961 -2.6975620889427714 a42.00931967441355,42.00931967441355 0 0,0 0.08645500733233424,0.7159714828389657 l -20.87865578288161 2.339496929180393" fill="#ffff18" stroke="none" /><path d="M 120.86939407059847 97.66154086499901 l 20.87865578288161 -2.339496929180393 a42.00931967441355,42.00931967441355 0 0,0 0.07415166541920883,0.7173500979626368 l -20.915739840782486 1.9807423089348246" fill="#ffff18" stroke="none" /><line stroke="#e1ed5e" stroke-width="0.3" x1="184.99686870605535" x2="189.99668451229388" y1="99.2704041080226" y2="99.22748670261217" /><path d="M 185.99683186730306 99.26182062694052 a86.0,86.0 0 0,1 -10.086455211305974,41.156179273409016" fill="none" id="id40" stroke="none" /><text fill="#e1ed5e" style="font-size:6.75px; font-family:Arial;" text-anchor="middle"><textPath startOffset="21.40746469413373" xlink:href="#id40">April</textPath></text><path d="M 120.99922638620191 99.81974689727618 l 49.21199148145049 -0.4224257595307759 a70.21380445660212,70.21380445660212 0 0,0 0.0,1.2053577245091995 l -49.21199148145049 -0.4224257595307699" fill="#3cffa0" stroke="none" /><path d="M 120.99922638620191 100.18025310272382 l 46.338781027696825 0.3977627033999054 a67.34048815346091,67.34048815346091 0 0,0 -0.01984481986270266,1.1558612683363438 l -46.32512477623545 -1.1931708877053204" fill="#38ff7f" stroke="none" /><path d="M 120.99303781780057 100.54070618675476 l 21.016140712841718 0.5413012353794039 a42.02311055694153,42.02311055694153 0 0,0 -0.024764245071824047,0.7209839751045628 l -21.00375178077305 -0.9019914750480773" fill="#ffff18" stroke="none" /><path d="M 120.96210409425399 101.26102812881392 l 39.44126350682065 2.3726884712730723 a60.5125665781935,60.5125665781935 0 0,0 -0.07127815223236755,1.0363686900545424 l -39.39472139342321 -3.049400585481958" fill="#31ff2f" stroke="none" /><path d="M 120.93736805541906 101.62068470465957 l 62.812104166257186 4.86205411397871 a84.0,84.0 0 0,0 -0.12362550920903681,1.4367158104973705 l -62.7193850343504 -5.939590971851738" fill="#4dd2ff" stroke="none" /><path d="M 120.82617615685814 102.69636545807757 l 20.805300781883584 2.6936627228475505 a41.97895039054872,41.97895039054872 0 0,0 -0.09866149481097045,0.7138654282835025 l -20.755994770517404 -3.0504164593311383" fill="#ffff18" stroke="none" /><path d="M 120.77682067341334 103.0534771498775 l 20.755994770517404 3.0504164593311383 a41.97895039054872,41.97895039054872 0 0,0 -0.1109014061556826,0.7120665828203239 l -20.700571872223456 -3.4062712240829125" fill="#ffff18" stroke="none" /><path d="M 120.7213421655516 103.40968896794604 l 20.717633430798692 3.409078697053783 a41.9962413906788,41.9962413906788 0 0,0 -0.12315934241357794,0.7103503587198992 l -20.65605927089288 -3.7642220886942703" fill="#ffff18" stroke="none" /><path d="M 120.65975698304385 103.76489593502545 l 20.65605927089288 3.7642220886942703 a41.9962413906788,41.9962413906788 0 0,0 -0.1353353031009849,0.7081314930800529 l -20.588397675509736 -4.118256146807638" fill="#ffff18" stroke="none" /><path d="M 120.592083275326 104.11899336999214 l 20.634906108878983 4.12755913602613 a42.0436711280053,42.0436711280053 0 0,0 -0.14763793115841356,0.7065009461256999 l -20.561010466896203 -4.481176533437239" fill="#feff18" stroke="none" /><path d="M 120.51834098615036 104.47187691870673 l 20.561010466896203 4.481176533437239 a42.0436711280053,42.0436711280053 0 0,0 -0.1597442045836408,0.7038624401793384 l -20.481055400754897 -4.833473307555594" fill="#feff18" stroke="none" /><path d="M 120.16314734710363 105.8691983318838 l 10.153170009027264 2.955439815742627 a31.574567874702375,31.574567874702375 0 0,0 -0.15595382734568114,0.519119570000338 l -10.100939861677952 -3.1292969893336884" fill="#ff770a" stroke="none" /><path d="M 119.0197475246899 108.90220220490707 l 19.011996369139514 8.898574272730704 a41.99144182821844,41.99144182821844 0 0,0 -0.31117806364954975,0.6502424715617672 l -18.856439047530053 -9.223629246357575" fill="#ffff18" stroke="none" /><line stroke="#e1ed5e" stroke-width="0.3" x1="174.33088141563837" x2="178.70328620479359" y1="141.23008692659167" y2="143.65538615756765" /><path d="M 175.20536237346943 141.71514677278685 a86.0,86.0 0 0,1 -30.301960400862466,31.631185727798858" fill="none" id="id41" stroke="none" /><text fill="#e1ed5e" style="font-size:6.75px; font-family:Arial;" text-anchor="middle"><textPath startOffset="22.145653131862474" xlink:href="#id41">May</textPath></text><path d="M 118.18653347947321 110.5 l 11.016617779538807 6.360447240575945 a33.720894481151895,33.720894481151895 0 0,0 -0.29373514850203747,0.49882649879363483 l -10.905808920907004 -6.548624907663129" fill="#ff940d" stroke="none" /><path d="M 117.423217284605 111.72311816256416 l 17.41163039783604 11.715321988039673 a41.98603446090504,41.98603446090504 0 0,0 -0.40748498731228977,0.5945327743250137 l -17.20795567370843 -12.01248949743473" fill="#ffff18" stroke="none" /><path d="M 117.21940702142032 112.02048342749411 l 17.20795567370843 12.01248949743473 a41.98603446090504,41.98603446090504 0 0,0 -0.4176308891182774,0.587450146893974 l -16.99920968606019 -12.306116871038208" fill="#ffff18" stroke="none" /><path d="M 115.89218393027572 113.72728997021213 l 16.227543541121367 14.016965614703347 a42.443145627980186,42.443145627980186 0 0,0 -0.4809999557263722,0.547289653672587 l -15.98453252143641 -14.293467546187228" fill="#f9ff18" stroke="none" /><path d="M 111.27062007382361 117.71928675628689 l 6.358193128400502 9.996135665653757 a32.84691302003161,32.84691302003161 0 0,0 -0.4783697266690392,0.2985380895134917 l -6.185659272941748 -10.103809552008796" fill="#ff880c" stroke="none" /><path d="M 110.96478420261333 117.91015095944535 l 10.973130266887466 17.923783628206078 a42.015984569009134,42.015984569009134 0 0,0 -0.618369739584235,0.3713132614146086 l -10.663827770745794 -18.10951089015661" fill="#ffff18" stroke="none" /><line stroke="#e1ed5e" stroke-width="0.3" x1="143.1302829299769" x2="145.66735839644613" y1="173.24464959558577" y2="177.55315839532614" /><path d="M 143.63769802327073 174.10635135553383 a86.0,86.0 0 0,1 -40.68552437913181,11.842963189579606" fill="none" id="id42" stroke="none" /><text fill="#e1ed5e" style="font-size:6.75px; font-family:Arial;" text-anchor="middle"><textPath startOffset="21.407464694133747" xlink:href="#id42">June</textPath></text><path d="M 110.65571695917076 118.09573695890943 l 21.3426825215032 36.24454087758456 a63.061583905513785,63.061583905513785 0 0,0 -0.9375381659026129,0.5412879124594236 l -20.71735188774019 -36.605575687320155" fill="#32ff4d" stroke="none" /><path d="M 110.34350942703117 118.27599006163325 l 10.365969292126504 18.31567449119402 a42.04559933650465,42.04559933650465 0 0,0 -0.6311961692044452,0.35011387499241503 l -10.050028934765965 -18.49092128161958" fill="#feff18" stroke="none" /><path d="M 108.07796709384702 119.3841803445677 l 8.071377659100841 19.368368099976347 a41.98286968391153,41.98286968391153 0 0,0 -0.6676186684459686,0.2715147004021965 l -7.737704529464432 -19.504070056957836" fill="#ffff18" stroke="none" /><path d="M 104.29559338865022 120.5559693870025 l 4.368931079483943 20.906916786184826 a42.358528233044,42.358528233044 0 0,0 -0.7130423141960555,0.1426284327538932 l -4.009392279756929 -20.978834615601578" fill="#faff18" stroke="none" /><path d="M 103.94208987418118 120.62667999033965 l 2.523396055276259 13.20347444688337 a34.44244267688302,34.44244267688302 0 0,0 -0.5816922909118646,0.10600371259387058 l -2.2963690308133375 -13.244846333408603" fill="#ff9e0e" stroke="none" /><path d="M 103.58742460773223 120.69131181640829 l 3.6001624218897694 20.764780143526572 a42.07456438157104,42.07456438157104 0 0,0 -0.7127080523698437,0.11727583880023235 l -3.2431768664668534 -20.823521980822477" fill="#feff18" stroke="none" /><path d="M 103.2317021107853 120.74984581791261 l 6.478941855704381 41.59945439291071 a63.10096546823429,63.10096546823429 0 0,0 -1.0717395330683597,0.15750880398329167 l -5.763877217028336 -41.70454427019288" fill="#32ff4e" stroke="none" /><path d="M 102.875027216393 120.80226474461374 l 2.878641685092953 20.828417239581096 a42.026401086663256,42.026401086663256 0 0,0 -0.7154938311712253,0.09263500113064953 l -2.520670032030952 -20.874763836912138" fill="#feff18" stroke="none" /><path d="M 102.15924093988457 120.88869738790638 l 4.576240409905006 44.27097473518851 a65.50686666451534,65.50686666451534 0 0,0 -1.1195449070082926,0.1060220666801371 l -3.8155959395116983 -44.343008557373835" fill="#36ff6a" stroke="none" /><path d="M 101.80034050326958 120.92268563240118 l 3.8155959395116983 44.343008557373835 a65.50686666451534,65.50686666451534 0 0,0 -1.121199949254826,0.08678796703638565 l -3.0538269954816366 -44.401974291405274" fill="#36ff6a" stroke="none" /><path d="M 101.08105385017728 120.97215588758144 l 1.0798051658509566 20.94793174523944 a41.97574369597914,41.97574369597914 0 0,0 -0.719932455186372,0.030916997304400777 l -0.7200469500637551 -20.96338131096967" fill="#ffff18" stroke="none" /><path d="M 100.72087961077811 120.9876233191556 l 0.7200469500637551 20.96338131096967 a41.97574369597914,41.97574369597914 0 0,0 -0.720357102857609,0.018553843687054327 l -0.3600765331354023 -20.97265287200677" fill="#ffff18" stroke="none" /><line stroke="#e1ed5e" stroke-width="0.3" x1="101.45913802915013" x2="101.54496967792366" y1="184.9874750549273" y2="189.98673829345242" /><path d="M 101.47630435890484 185.9873277026323 a86.0,86.0 0 0,1 -42.54439059252881,-10.42667462771756" fill="none" id="id43" stroke="none" /><text fill="#e1ed5e" style="font-size:6.75px; font-family:Arial;" text-anchor="middle"><textPath startOffset="22.145653131862474" xlink:href="#id43">July</textPath></text><path d="M 100.36049292484886 120.99690560180557 l 0.23631249130586282 13.764017905641465 a34.76604636416593,34.76604636416593 0 0,0 -0.5968054161547134,0.005122856718900736 l -1.6858544616789867e-15 -13.76604636416593" fill="#ffa20f" stroke="none" /><path d="M 100.0 121.0 l 1.6858544616789867e-15 13.76604636416593 a34.76604636416593,34.76604636416593 0 0,0 -0.5968054161547133,-0.005122856718900736 l 0.23631249130585943 -13.764017905641465" fill="#ffa20f" stroke="none" /><path d="M 96.41257539226777 120.69131181640829 l -2.582993121856376 14.898017923156713 a36.1202774943536,36.1202774943536 0 0,0 -0.6100289448449845,-0.1111675948840885 l 2.8383568002524178 -14.851482154341259" fill="#ffb410" stroke="none" /><path d="M 93.61358852112213 120.00534299687104 l -3.456807179153744 10.828399253905841 a32.366782582412554,32.366782582412554 0 0,0 -0.5278517661893023,-0.17351536001471918 l 3.6421816829907896 -10.7674629724891" fill="#ff810b" stroke="none" /><path d="M 92.93061703081489 119.77432235084164 l -9.013942075209222 25.213600256763 a47.776422271152406,47.776422271152406 0 0,0 -0.7699075996053207,-0.2827207349065244 l 9.445438826468662 -25.05514867284776" fill="#b9ff1f" stroke="none" /><path d="M 92.59220618246901 119.65005319985036 l -4.896058240644478 12.987376170020854 a34.87960107774745,34.87960107774745 0 0,0 -0.5584518740713962,-0.21602118180344543 l 5.118282377209402 -12.901415100079367" fill="#ffa30f" stroke="none" /><path d="M 91.59046798132341 119.24265499422711 l -18.494306935973356 42.318593583556094 a67.18336011955158,67.18336011955158 0 0,0 -1.0528163507841743,-0.4709113624224015 l 19.218036689613164 -41.99487847022384" fill="#38ff7e" stroke="none" /><path d="M 90.93487009805054 118.94263497670748 l -5.540029968305587 11.57653189581597 a33.833862348668404,33.833862348668404 0 0,0 -0.5217499785473443,-0.2552140597323518 l 5.737940196115001 -11.479724085986398" fill="#ff950d" stroke="none" /><path d="M 90.6110303473126 118.78422872680471 l -5.737940196115001 11.479724085986398 a33.833862348668404,33.833862348668404 0 0,0 -0.5172920087831993,-0.2641329855361905 l 5.9341594266117825 -11.37953314877737" fill="#ff950d" stroke="none" /><line stroke="#e1ed5e" stroke-width="0.3" x1="58.13341422392154" x2="55.67067388415222" y1="173.97424548756322" y2="178.32567169271397" /><path d="M 57.64086615596768 174.84453072859336 a86.0,86.0 0 0,1 -31.369924170532247,-30.572349798747897" fill="none" id="id44" stroke="none" /><text fill="#e1ed5e" style="font-size:6.75px; font-family:Arial;" text-anchor="middle"><textPath startOffset="22.145653131862474" xlink:href="#id44">August</textPath></text><path d="M 87.83215693770417 117.11559508785305 l -4.927000562234811 6.930443315967968 a29.503315770692467,29.503315770692467 0 0,0 -0.410263260094086,-0.29699896170767914 l 5.045244832702851 -6.844843582887223" fill="#ff5a08" stroke="none" /><path d="M 87.54013794807813 116.9041958592261 l -5.045244759312472 6.844843483319078 a29.503315646999447,29.503315646999447 0 0,0 -0.4051044230492624,-0.30399791136355003 l 5.1620021712725 -6.757226544691513" fill="#ff5a08" stroke="none" /><path d="M 84.58840730492382 114.26474011684316 l -13.657595568587501 12.641266562221869 a39.60998487404677,39.60998487404677 0 0,0 -0.457593971431529,-0.5029759332684367 l 13.872587240860911 -12.404953053395758" fill="#ffe115" stroke="none" /><path d="M 84.3458050057657 113.99807769240083 l -13.872582548136634 12.404948857132775 a39.60997857878791,39.60997857878791 0 0,0 -0.448892221837556,-0.510756946442532 l 14.083485833932784 -12.164979632878941" fill="#ffe115" stroke="none" /><path d="M 83.8745106332314 113.45245675266167 l -16.408011424898792 13.68814670179908 a42.36792453771733,42.36792453771733 0 0,0 -0.461110662635857,-0.5624800328707585 l 16.64056890677328 -13.404464387229826" fill="#faff18" stroke="none" /><path d="M 83.64595745247003 113.17365903436017 l -16.64056890677328 13.404464387229826 a42.36792453771733,42.36792453771733 0 0,0 -0.45138699919678393,-0.5703127278352627 l 16.868222336611623 -13.116831715479883" fill="#faff18" stroke="none" /><path d="M 83.20337586046588 112.60449989151573 l -8.389441299052036 6.295593154036724 a31.488909307997375,31.488909307997375 0 0,0 -0.32073400507088395,-0.4351372766278708 l 8.49627732370675 -6.150649568139973" fill="#ff750a" stroke="none" /><path d="M 82.78059297857968 112.02048342749411 l -13.762910230477365 9.607580222347078 a37.7846148523287,37.7846148523287 0 0,0 -0.3667091570183187,-0.5350396193256576 l 13.925809124311009 -9.36990586795137" fill="#ffca12" stroke="none" /><path d="M 81.99639281039703 110.81064883170644 l -8.73671463059869 5.246146109474033 a31.190791506966804,31.190791506966804 0 0,0 -0.27169598897549124,-0.4613991876970679 l 8.82548432970395 -5.095395753483406" fill="#ff710a" stroke="none" /><line stroke="#e1ed5e" stroke-width="0.3" x1="26.387840678322732" x2="22.057713659400548" y1="142.50000000000003" y2="145.00000000000006" /><path d="M 25.521815274538298 143.00000000000003 a86.0,86.0 0 0,1 -11.493303480769221,-40.785679425670985" fill="none" id="id45" stroke="none" /><text fill="#e1ed5e" style="font-size:6.75px; font-family:Arial;" text-anchor="middle"><textPath startOffset="21.40746469413373" xlink:href="#id45">September</textPath></text><path d="M 81.63589988554817 110.18625677009913 l -7.132456592892346 3.9562534403530476 a29.156217158327678,29.156217158327678 0 0,0 -0.2390180176872109,-0.4397662313840764 l 7.199319960194886 -3.8332323754943842" fill="#ff5507" stroke="none" /><path d="M 81.29705330413844 109.54985784667822 l -8.125844745098755 4.149114225783537 a30.12384248439485,30.12384248439485 0 0,0 -0.23120778790622507,-0.46257045576944256 l 8.195872446216718 -4.009011913850341" fill="#ff6209" stroke="none" /><path d="M 80.5471966667186 107.91128576633889 l -3.808858736045164 1.5490296893566906 a25.11179983093244,25.11179983093244 0 0,0 -0.15897123540521957,-0.4007113609181916 l 3.8348886464165077 -1.4834173112249338" fill="#ff1a02" stroke="none" /><path d="M 79.83685265289637 105.86919833188381 l -8.812617757929019 2.5652245928657775 a30.178377250865715,30.178377250865715 0 0,0 -0.14051843973009476,-0.4986503702626905 l 8.855354689733689 -2.4135662987000917" fill="#ff6309" stroke="none" /><path d="M 79.73907114497094 105.5222062557868 l -11.433027770099303 3.11612255915678 a32.850077797025115,32.850077797025115 0 0,0 -0.1436182237214191,-0.5453417882339566 l 11.484835474625454 -2.9194002665500203" fill="#ff880c" stroke="none" /><path d="M 79.64726062577567 105.17358676015961 l -3.4078983733847887 0.866274440031488 a24.516276827664534,24.516276827664534 0 0,0 -0.1001810645330081,-0.40877293016676924 l 3.4222669644340904 -0.8076456852566192" fill="#ff1202" stroke="none" /><path d="M 79.48165901384964 104.47187691870673 l -5.755362772492582 1.2543545288805709 a26.89046737764642,26.89046737764642 0 0,0 -0.09442688673477777,-0.45186683594370514 l 5.776047370051726 -1.1553712416514565" fill="#ff3405" stroke="none" /><path d="M 79.407916724674 104.11899336999214 l -5.776047370051726 1.1553712416514565 a26.89046737764642,26.89046737764642 0 0,0 -0.08665607760528754,-0.4534212154038062 l 5.795029739939171 -1.0560474612143358" fill="#ff3405" stroke="none" /><path d="M 79.17382384314188 102.69636545807758 l -8.725297037070991 1.1296643879811565 a29.798121959520262,29.798121959520262 0 0,0 -0.06132441259383992,-0.5078541078628577 l 8.743403535924493 -0.9797166031948997" fill="#ff5e08" stroke="none" /><path d="M 79.06263194458094 101.62068470465958 l -10.626531036603666 0.8225607091124479 a31.65831919169606,31.65831919169606 0 0,0 -0.0372905434749775,-0.5421963179768686 l 10.639085541243709 -0.640020966981236" fill="#ff780b" stroke="none" /><path d="M 79.03789590574601 101.26102812881392 l -10.639085541243709 0.640020966981236 a31.65831919169606,31.65831919169606 0 0,0 -0.027977527841636183,-0.5427565658711123 l 10.648504658541917 -0.4572926077333929" fill="#ff780b" stroke="none" /><line stroke="#e1ed5e" stroke-width="0.3" x1="15.003131293944662" x2="10.003315487706104" y1="100.72959589197737" y2="100.7725132973878" /><path d="M 14.003168132696942 100.73817937305945 a86.0,86.0 0 0,1 10.791469493833604,-42.45332614584628" fill="none" id="id46" stroke="none" /><text fill="#e1ed5e" style="font-size:6.75px; font-family:Arial;" text-anchor="middle"><textPath startOffset="22.145653131862435" xlink:href="#id46">October</textPath></text><path d="M 79.22317932658666 96.9465228501225 l -2.7403100426523825 -0.40273120851094096 a23.76974575659395,23.76974575659395 0 0,0 0.06279571556326569,-0.40319354052302536 l 2.732992834950849 0.4497129309654163" fill="#ff0701" stroke="none" /><path d="M 79.34024301695615 96.23510406497455 l -4.956982457426852 -0.9033273295167877 a26.038618396692637,26.038618396692637 0 0,0 0.08391094527400804,-0.43905752306405765 l 4.940745219870685 0.98828741761416" fill="#ff2803" stroke="none" /><path d="M 79.48165901384962 95.52812308129327 l -5.881712490714534 -1.2818918618931756 a27.019783099831365,27.019783099831365 0 0,0 0.10266120068735221,-0.45234419249122587 l 5.85884042846952 1.3826703883234097" fill="#ff3605" stroke="none" /><path d="M 79.94057633289273 93.78553927170692 l -2.4802248710088888 -0.7683800050294873 a23.596521373472626,23.596521373472626 0 0,0 0.1231910155927951,-0.38589410175302064 l 2.4666691396388365 0.8108431404738997" fill="#ff0400" stroke="none" /><path d="M 80.28708602549916 92.7611449362534 l -2.89354771764297 -1.0625508017306011 a24.082471832885936,24.082471832885936 0 0,0 0.14583578452601006,-0.38684674478873693 l 2.8748812493025238 1.112065826713483" fill="#ff0b01" stroke="none" /><line stroke="#e1ed5e" stroke-width="0.3" x1="26.387840678322718" x2="22.05771365940052" y1="57.49999999999999" y2="54.99999999999999" /><path d="M 25.521815274538284 56.99999999999999 a86.0,86.0 0 0,1 29.574782752854787,-30.34633250058573" fill="none" id="id47" stroke="none" /><text fill="#e1ed5e" style="font-size:6.75px; font-family:Arial;" text-anchor="middle"><textPath startOffset="21.40746469413373" xlink:href="#id47">November</textPath></text><path d="M 82.576782715395 88.27688183743585 l -1.9353810562755962 -1.3022107479744611 a23.3326921496697,23.3326921496697 0 0,0 0.22644962513483113,-0.33039677060075484 l 1.9127416943254518 1.3352422536452506" fill="#ff0000" stroke="none" /><path d="M 84.10781606972428 86.27271002978789 l -2.465798009533041 -2.1298975920073353 a24.258316064511813,24.258316064511813 0 0,0 0.27491480144520714,-0.31280257863060473 l 2.4288721441292416 2.1719124484492403" fill="#ff0e01" stroke="none" /><line stroke="#e1ed5e" stroke-width="0.3" x1="56.869717070023135" x2="54.33264160355391" y1="26.7553504044142" y2="22.446841604673864" /><path d="M 56.362301976729285 25.89364864446614 a86.0,86.0 0 0,1 42.16139366436587,-11.88097634709845" fill="none" id="id48" stroke="none" /><text fill="#e1ed5e" style="font-size:6.75px; font-family:Arial;" text-anchor="middle"><textPath startOffset="22.145653131862474" xlink:href="#id48">December</textPath></text><path d="M 89.97174638481275 81.54914285379989 l -1.4427859018855784 -2.65456355510662 a24.021314089395553,24.021314089395553 0 0,0 0.36399289536902407,-0.19380571480263792 l 1.3970041907299926 2.678939737631833" fill="#ff0a01" stroke="none" /></svg>