<?xml version="1.0" encoding="utf-8" ?>
<svg baseProfile="full" height="200mm" version="1.1" viewBox="0,0,200,200" width="200mm" xmlns="http://www.w3.org/2000/svg" xmlns:ev="http://www.w3.org/2001/xml-events" xmlns:xlink="http://www.w3.org/1999/xlink"><defs /><rect fill="#1a1a1a" height="200" width="200" x="0" y="0" /><text alignment-baseline="middle" fill="#e1ed5e" style="dominant-baseline: central; font-size:9.0px; font-family:Arial;" text-anchor="middle" x="100.0" y="100.0">2021</text><line stroke="#e1ed5e" stroke-width="0.3" x1="100.0" x2="100.0" y1="15.0" y2="10.0" /><path d="M 100.0 14.0 a86.0,86.0 0 0,1 42.46469731375804,11.215312516191453" fill="none" id="id49" stroke="none" /><text fill="#e1ed5e" style="font-size:6.75px; font-family:Arial;" text-anchor="middle"><textPath startOffset="22.20632615414155" xlink:href="#id49">January</textPath></text><path d="M 108.76106565485865 80.91482961587045 l 4.7492332718028925 -10.345764973929722 a32.38376341838632,32.38376341838632 0 0,0 0.5046034757435723,0.2369180978555153 l -4.926614958846063 10.262481893434204" fill="red" stroke="none" /><line stroke="#e1ed5e" stroke-width="0.3" x1="143.23703022742887" x2="145.7803849466894" y1="26.81831364943548" y2="22.513508569990506" /><path d="M 143.74570117128098 25.957352633546492 a86.0,86.0 0 0,1 28.547481713284135,27.462654790039103" fill="none" id="id50" stroke="none" /><text fill="#e1ed5e" style="font-size:6.75px; font-family:Arial;" text-anchor="middle"><textPath startOffset="19.985693538727396" xlink:href="#id50">February</textPath></text><path d="M 115.9244219780498 86.31012108654704 l 19.157826305498823 -16.46956622530808 a46.263984650119454,46.263984650119454 0 0,0 0.5139474569841807,0.6083516816965179 l -19.438484375970123 16.137355593982456" fill="red" stroke="none" /><path d="M 116.15771136456269 86.58626213691792 l 19.438484375970123 -16.137355593982456 a46.263984650119454,46.263984650119454 0 0,0 0.5033995359574366,0.6171083084526803 l -19.713382404003966 15.800363115921675" fill="red" stroke="none" /><path d="M 117.04232023915458 87.72973835380427 l 5.29620163823033 -3.8132002520872947 a27.526120436776527,27.526120436776527 0 0,0 0.2735406648054139,0.3869038715053275 l -5.361054922839627 3.721469880250174" fill="red" stroke="none" /><path d="M 117.45458315368197 88.32363383020206 l 19.675427297800457 -13.162015480609975 a44.67194733989682,44.67194733989682 0 0,0 0.4220506979690059,0.6428121682408294 l -19.899074631127387 12.821385248391472" fill="red" stroke="none" /><path d="M 117.65298651832404 88.62581576622439 l 19.899074631127387 -12.821385248391472 a44.67194733989682,44.67194733989682 0 0,0 0.41092321181056923,0.6499818376615515 l -20.116825439183913 12.476955763015713" fill="red" stroke="none" /><line stroke="#e1ed5e" stroke-width="0.3" x1="172.23445277983987" x2="176.4835382374775" y1="55.19839476539836" y2="52.563006222186495" /><path d="M 173.08426987136738 54.67131705675599 a86.0,86.0 0 0,1 12.851231095245387,41.99856678651699" fill="none" id="id51" stroke="none" /><text fill="#e1ed5e" style="font-size:6.75px; font-family:Arial;" text-anchor="middle"><textPath startOffset="22.20632615414155" xlink:href="#id51">March</textPath></text><path d="M 117.84615892207809 88.93136811851018 l 13.0271920325822 -8.079788692217864 a36.32940695410833,36.32940695410833 0 0,0 0.3250343630622642,0.5342710308430197 l -13.164342193930688 7.854349888167763" fill="red" stroke="none" /><path d="M 118.21658344932153 89.55222093294921 l 7.745508934858825 -4.442291077160623 a29.928989790239363,29.928989790239363 0 0,0 0.25246151643703296,0.44910086732845794 l -7.820828092588291 4.308306699897371" fill="red" stroke="none" /><path d="M 118.56541770881063 90.18545643968196 l 9.189423573830195 -4.857956840732343 a31.394481722802936,31.394481722802936 0 0,0 0.24845079586461843,0.47992785731041837 l -9.27168380285493 4.699056261161579" fill="red" stroke="none" /><line stroke="#e1ed5e" stroke-width="0.3" x1="184.98032266829074" x2="189.97916517819016" y1="98.17113171792111" y2="98.06355123074" /><path d="M 185.9800911702706 98.14961562048488 a86.0,86.0 0 0,1 -9.607161424134198,41.387399972396054" fill="none" id="id52" stroke="none" /><text fill="#e1ed5e" style="font-size:6.75px; font-family:Arial;" text-anchor="middle"><textPath startOffset="21.466115282336823" xlink:href="#id52">April</textPath></text><path d="M 120.99824983174949 100.27111621757518 l 6.728583420935229 0.08687524442941023 a27.729144236868393,27.729144236868393 0 0,0 -0.010270264079654721,0.4772188155537658 l -6.726091094170568 -0.20268387577329086" fill="red" stroke="none" /><line stroke="#e1ed5e" stroke-width="0.3" x1="174.80103733775053" x2="179.2010983576182" y1="140.37084112569926" y2="142.7455964860345" /><path d="M 175.68104954172406 140.8457921977663 a86.0,86.0 0 0,1 -30.038265399797805,32.042727171017184" fill="none" id="id53" stroke="none" /><text fill="#e1ed5e" style="font-size:6.75px; font-family:Arial;" text-anchor="middle"><textPath startOffset="22.206326154141568" xlink:href="#id53">May</textPath></text><path d="M 115.56566222782051 114.09645910891815 l 30.40012648570098 27.53073615754712 a62.01352366870092,62.01352366870092 0 0,0 -0.7233540654995525,0.7850579739367555 l -29.921726012205706 -28.04994538628521" fill="red" stroke="none" /><path d="M 115.32070863581623 114.36230785411682 l 29.921727217109456 28.049946515815115 a62.01352532025499,62.01352532025499 0 0,0 -0.7367603949189678,0.7724903285432956 l -29.434460270811524 -28.560843960940918" fill="red" stroke="none" /><path d="M 113.20401910651253 116.32954008644616 l 25.43083509485208 31.450563480960593 a61.44583188526961,61.44583188526961 0 0,0 -0.8281801104226116,0.6579563674637908 l -24.885697491712115 -31.883653762429507" fill="red" stroke="none" /><path d="M 112.92097659922987 116.55440617244103 l 24.885697491712115 31.883653762429507 a61.44583188526961,61.44583188526961 0 0,0 -0.8393830438905866,0.6436031249261233 l -24.333185719328036 -32.307296229183" fill="red" stroke="none" /><line stroke="#e1ed5e" stroke-width="0.3" x1="143.8653032363475" x2="146.44561519142675" y1="172.8068346515853" y2="177.08958963109032" /><path d="M 144.38136562736335 173.6633856474863 a86.0,86.0 0 0,1 -40.68145358897372,12.25698825130547" fill="none" id="id54" stroke="none" /><text fill="#e1ed5e" style="font-size:6.75px; font-family:Arial;" text-anchor="middle"><textPath startOffset="21.466115282336833" xlink:href="#id54">June</textPath></text><line stroke="#e1ed5e" stroke-width="0.3" x1="102.19456741930631" x2="102.32365962044197" y1="184.97166512339345" y2="189.96999836594603" /><path d="M 102.22038585953345 185.97133177190398 a86.0,86.0 0 0,1 -42.740103519485714,-10.115201625700543" fill="none" id="id55" stroke="none" /><text fill="#e1ed5e" style="font-size:6.75px; font-family:Arial;" text-anchor="middle"><textPath startOffset="22.20632615414155" xlink:href="#id55">July</textPath></text><path d="M 99.45781275523022 120.99299961872073 l -0.4950002238062855 19.16596085554247 a40.17235198763455,40.17235198763455 0 0,0 -0.6911168189759554,-0.02380346064190708 l 0.824837394456884 -19.154600596474467" fill="red" stroke="none" /><path d="M 99.09653310690486 120.98055641714683 l -0.824837394456884 19.154600596474467 a40.17235198763455,40.17235198763455 0 0,0 -0.6906046851156746,-0.035696373852671597 l 1.1544301479860475 -19.137564415859593" fill="red" stroke="none" /><path d="M 96.22490169976321 120.6578951692458 l -3.452816860402949 18.894323556113616 a40.2072227798449,40.2072227798449 0 0,0 -0.6797555340464579,-0.13027676593180668 l 3.777540009021102 -18.83208959183334" fill="red" stroke="none" /><path d="M 95.86986931433489 120.58985236759428 l -3.777540009021102 18.83208959183334 a40.2072227798449,40.2072227798449 0 0,0 -0.6774123205580949,-0.14195833812957487 l 4.101143791008584 -18.764275272977226" fill="red" stroke="none" /><path d="M 92.7421414339146 119.70592522655815 l -3.1829254083690035 8.642010522514449 a30.20952550495906,30.20952550495906 0 0,0 -0.48641619952040044,-0.18392098567891957 l 3.331211828649687 -8.585941286728897" fill="red" stroke="none" /><path d="M 91.40352486487194 119.15986991738527 l -2.6691402519112977 5.948994118403349 a27.520340535982054,27.520340535982054 0 0,0 -0.4305386968309197,-0.19763919912549446 l 2.7711469445096366 -5.9021678489437805" fill="red" stroke="none" /><path d="M 90.42595943632237 118.69057910512821 l -9.135858508905153 17.83515382228121 a41.03887777694067,41.03887777694067 0 0,0 -0.625958376288444,-0.32747183785422374 l 9.441507787720093 -17.67525256548227" fill="red" stroke="none" /><line stroke="#e1ed5e" stroke-width="0.3" x1="58.666819895761336" x2="56.23545636021788" y1="174.27360380694188" y2="178.64263932499728" /><path d="M 58.180547188652646 175.14741091055294 a86.0,86.0 0 0,1 -31.652253787137756,-30.449443065178592" fill="none" id="id56" stroke="none" /><text fill="#e1ed5e" style="font-size:6.75px; font-family:Arial;" text-anchor="middle"><textPath startOffset="22.20632615414155" xlink:href="#id56">August</textPath></text><path d="M 89.1626897886671 117.98757091392108 l -6.636212628710709 11.014665348784085 a33.85932233047933,33.85932233047933 0 0,0 -0.49663693114209945,-0.3050749662048632 l 6.824828759785117 -10.898801915750845" fill="red" stroke="none" /><path d="M 88.24862548938628 117.40417183066458 l -10.752182526595572 15.924335666310547 a40.214418947721455,40.214418947721455 0 0,0 -0.5703613248795061,-0.39229972008434943 l 11.02470073609797 -15.736895156861097" fill="red" stroke="none" /><path d="M 85.44109423537348 115.13401014063109 l -11.259331414072673 11.704096348457496 a37.24064085022201,37.24064085022201 0 0,0 -0.4581486351052761,-0.44839486695600866 l 11.459130001553744 -11.508551378578916" fill="red" stroke="none" /><path d="M 84.67929136418377 114.36230785411682 l -13.538457628906894 12.691547170456195 a39.557079634188725,39.557079634188725 0 0,0 -0.46141184502826305,-0.500771427832018 l 13.754915881930886 -12.456624487822832" fill="red" stroke="none" /><path d="M 84.19399662182784 113.82643327865904 l -29.8965996701325 26.1522999019926 a60.72089452668367,60.72089452668367 0 0,0 -0.6813968390845576,-0.7926184642457754 l 30.342339018787836 -25.633804338585293" fill="red" stroke="none" /><path d="M 83.95833913139862 113.55231037782056 l -30.342339018787836 25.633804338585293 a60.72089452668367,60.72089452668367 0 0,0 -0.6676522588692348,-0.8042301557418904 l 30.779087277550605 -25.107712925729643" fill="red" stroke="none" /><path d="M 83.50135304334701 112.99209946851258 l -21.134554678767724 16.64271241942931 a47.90073006714965,47.90073006714965 0 0,0 -0.5045388067205238,-0.6521844202018598 l 21.417900302706318 -16.276450005114196" fill="red" stroke="none" /><path d="M 83.28015986056508 112.70617746262583 l -21.417900302706318 16.276450005114196 a47.90073006714965,47.90073006714965 0 0,0 -0.49323777114767114,-0.6607725982168807 l 21.694899340549075 -15.905364527388008" fill="red" stroke="none" /><path d="M 82.24976979558568 111.22182372390057 l -19.474235262989247 12.311752172356934 a44.039641503977215,44.039641503977215 0 0,0 -0.39957661727877825,-0.6442447350181131 l 19.68327651993598 -11.974711105973556" fill="red" stroke="none" /><path d="M 82.05923443525364 110.91462005526583 l -33.07351348170393 20.12092696060007 a59.71316308154442,59.71316308154442 0 0,0 -0.526667608345349,-0.8827252054510392 l 33.41496196574751 -19.548639661262918" fill="red" stroke="none" /><line stroke="#e1ed5e" stroke-width="0.3" x1="26.63291911575756" x2="22.317208475507996" y1="142.92168965132927" y2="145.44649492493687" /><path d="M 25.769776987707644 143.4266507060508 a86.0,86.0 0 0,1 -11.730757126820373,-40.83630448921669" fill="none" id="id57" stroke="none" /><text fill="#e1ed5e" style="font-size:6.75px; font-family:Arial;" text-anchor="middle"><textPath startOffset="21.46611528233685" xlink:href="#id57">September</textPath></text><path d="M 81.87401531095188 110.60418214915194 l -33.12098171736339 19.37665341303434 a59.37256998704642,59.37256998704642 0 0,0 -0.5084780093082656,-0.8865742689679273 l 33.44961172282404 -18.803659298208107" fill="red" stroke="none" /><path d="M 81.69416730710424 110.29060199501025 l -33.44961172282404 18.803659298208107 a59.37256998704642,59.37256998704642 0 0,0 -0.4931417541538934,-0.8951955264946432 l 33.76832988642945 -18.225093253315638" fill="red" stroke="none" /><path d="M 80.73074385275274 108.34839909993369 l -14.465183404860143 6.267036111550246 a36.76443061324183,36.76443061324183 0 0,0 -0.24658257042374465,-0.5828483571679585 l 14.570916956476195 -6.017113228716129" fill="red" stroke="none" /><path d="M 79.18660465613746 102.79330883721812 l -19.019856190108147 2.552602855070132 a40.190380684814656,40.190380684814656 0 0,0 -0.08611935588625172,-0.6864560000034894 l 19.06097705524125 -2.2248291007792336" fill="red" stroke="none" /><path d="M 79.1416061653843 102.43462659150553 l -19.06097705524125 2.2248291007792336 a40.190380684814656,40.190380684814656 0 0,0 -0.07429038476100397,-0.687836697284438 l 19.096449741503303 -1.8963960816100136" fill="red" stroke="none" /><line stroke="#e1ed5e" stroke-width="0.3" x1="15.007084014347285" x2="10.007500721073583" y1="101.09737516637583" y2="101.16192664675087" /><path d="M 14.007167355692545 101.11028546245083 a86.0,86.0 0 0,1 10.666146001902534,-42.60595125391555" fill="none" id="id58" stroke="none" /><text fill="#e1ed5e" style="font-size:6.75px; font-family:Arial;" text-anchor="middle"><textPath startOffset="22.20632615414155" xlink:href="#id58">October</textPath></text><path d="M 79.12142395522702 97.74499172005258 l -5.887174510834805 -0.635849266681743 a26.92141267021331,26.92141267021331 0 0,0 0.05372699531682613,-0.460300085351452 l 5.87535716251439 0.7370930903580568" fill="red" stroke="none" /><path d="M 79.16333360222342 97.38593545837743 l -38.87940133049036 -4.877616336382528 a60.184167580060716,60.184167580060716 0 0,0 0.13780455098205355,-1.0268039686686918 l 38.789680780450475 5.546138647115879" fill="red" stroke="none" /><path d="M 79.21141760316559 97.0276538004421 l -38.789680780450475 -5.546138647115879 a60.184167580060716,60.184167580060716 0 0,0 0.15545887616570028,-1.0242797577646083 l 38.688466010845474 6.21301751727258" fill="red" stroke="none" /><path d="M 81.6062741919709 89.86733742301443 l -33.60334273507654 -18.511275907173786 a59.36472310186187,59.36472310186187 0 0,0 0.5007622416326449,-0.8908001513120057 l 33.27972285215146 19.08695956842058" fill="red" stroke="none" /><line stroke="#e1ed5e" stroke-width="0.3" x1="26.266209847984243" x2="21.928928074336255" y1="57.711370442889674" y2="55.22380399835377" /><path d="M 25.398753493254645 57.213857153982495 a86.0,86.0 0 0,1 29.58750427330803,-30.492523968695096" fill="none" id="id59" stroke="none" /><text fill="#e1ed5e" style="font-size:6.75px; font-family:Arial;" text-anchor="middle"><textPath startOffset="21.46611528233685" xlink:href="#id59">November</textPath></text><path d="M 81.78341655067845 89.55222093294921 l -33.27972285215146 -19.08695956842058 a59.36472310186187,59.36472310186187 0 0,0 0.5160217085710898,-0.8820483708424492 l 32.94624146911005 19.65698735161692" fill="red" stroke="none" /><path d="M 84.07557802195018 86.31012108654704 l -15.33077169132882 -13.17953068521904 a41.217136041840334,41.217136041840334 0 0,0 0.4671435113322341,-0.5340257873738931 l 15.101636316418743 13.441472028795877" fill="red" stroke="none" /><path d="M 84.31358615837235 86.03803664274999 l -15.101636316418743 -13.441472028795877 a41.217136041840334,41.217136041840334 0 0,0 0.4762666750545797,-0.5259055580544115 l 14.868026000748118 13.699430374119844" fill="red" stroke="none" /><path d="M 84.5562425177563 85.77008943001954 l -46.331272446731106 -42.68973170994139 a84.0,84.0 0 0,0 0.9889307121181763,-1.0549223324877994 l 45.58957441264248 43.480923459307235" fill="red" stroke="none" /><path d="M 87.80319425747018 82.90503203632743 l -10.386458874317652 -14.557596920096124 a38.88301305809186,38.88301305809186 0 0,0 0.5481928269363293,-0.3840441079645618 l 10.134334907797662 14.734225870824627" fill="red" stroke="none" /><line stroke="#e1ed5e" stroke-width="0.3" x1="56.762969772571076" x2="54.21961505331055" y1="26.818313649435495" y2="22.513508569990535" /><path d="M 56.25429882871897 25.957352633546506 a86.0,86.0 0 0,1 42.265352541879196,-11.944610805530505" fill="none" id="id60" stroke="none" /><text fill="#e1ed5e" style="font-size:6.75px; font-family:Arial;" text-anchor="middle"><textPath startOffset="22.20632615414155" xlink:href="#id60">December</textPath></text><path d="M 92.23578459929587 80.48803036053334 l -3.6978092676179446 -9.292831076757139 a31.001525023756347,31.001525023756347 0 0,0 0.4975255163661761,-0.19303217082741844 l 3.5373005862520923 9.355105951475108" fill="red" stroke="none" /><path d="M 93.25333710446033 80.11325718540243 l -3.6463869242823934 -10.74824103241562 a32.34992611837101,32.34992611837101 0 0,0 0.5288707302678908,-0.17436036465844537 l 3.460833371772093 10.8094151213333" fill="red" stroke="none" /><path d="M 93.59665428221793 80.00007090966166 l -5.842100368860576 -18.246959990209827 a40.15937591896352,40.15937591896352 0 0,0 0.6601716185730823,-0.20511853544142816 l 5.527143377576765 18.344818660533782" fill="red" stroke="none" /><path d="M 95.692805502759 79.44645832069477 l -2.4290010667092585 -11.590972893298648 a32.84274878544921,32.84274878544921 0 0,0 0.5543130178569338,-0.11118997667597302 l 2.229121639385188 11.631066826051832" fill="red" stroke="none" /><path d="M 96.40284397218896 79.31037775812273 l -2.02798501811433 -11.66428245329821 a32.83926553397704,32.83926553397704 0 0,0 0.5577527098961678,-0.09203397614249782 l 1.826903102079277 11.697462692380334" fill="red" stroke="none" /><path d="M 98.55514903715128 79.0497635885617 l -0.31317528859668237 -4.541019456695273 a25.55180584685602,25.55180584685602 0 0,0 0.43905053667748895,-0.026484727367391738 l 0.23496270307957043 4.545737453442971" fill="red" stroke="none" /></svg>