<?xml version="1.0" encoding="utf-8" ?>
<svg baseProfile="full" height="200mm" version="1.1" viewBox="0,0,200,200" width="200mm" xmlns="http://www.w3.org/2000/svg" xmlns:ev="http://www.w3.org/2001/xml-events" xmlns:xlink="http://www.w3.org/1999/xlink"><defs /><rect fill="#1a1a1a" height="200" width="200" x="0" y="0" /><text alignment-baseline="middle" fill="#e1ed5e" style="dominant-baseline: central; font-size:9.0px; font-family:Arial;" text-anchor="middle" x="100.0" y="100.0">2025</text><line stroke="#e1ed5e" stroke-width="0.3" x1="100.0" x2="100.0" y1="15.0" y2="10.0" /><path d="M 100.0 14.0 a86.0,86.0 0 0,1 42.46469731375804,11.215312516191453" fill="none" id="id97" stroke="none" /><text fill="#e1ed5e" style="font-size:6.75px; font-family:Arial;" text-anchor="middle"><textPath startOffset="22.20632615414155" xlink:href="#id97">January</textPath></text><path d="M 100.0 79.0 l 0.0 -15.764940535131238 a36.76494053513124,36.76494053513124 0 0,0 0.6328480154792974,0.0054471226664792914 l -0.27136753620676907 15.762604789073318" fill="#ffa60f" stroke="none" /><path d="M 100.36148047927253 79.00311137660856 l 0.3514576610890665 -20.414705050120283 a41.41773015716842,41.41773015716842 0 0,0 0.7127268814041404,0.018407632597548206 l -0.7028111776880748 20.405630625380375" fill="#ffe515" stroke="none" /><path d="M 101.44485096284872 79.0497635885617 l 1.8220940583256555 -26.420234520615022 a47.48299112414765,47.48299112414765 0 0,0 0.8149207542649376,0.06325353462883318 l -2.2766050019529342 26.384955723797724" fill="#ccff1d" stroke="none" /><path d="M 102.16513564639614 79.11191278185805 l 1.7768889259534844 -17.14248754993536 a38.2343324110586,38.2343324110586 0 0,0 0.6540497748156922,0.07349011297430878 l -2.0717054042789016 17.109361483490453" fill="#ffba11" stroke="none" /><path d="M 102.88285421437855 79.19881850522331 l 2.948500275243128 -21.274849438042892 a42.47819527996947,42.47819527996947 0 0,0 0.7234057279774354,0.10661119972104213 l -3.314274983649219 21.22094375416088" fill="#fff316" stroke="none" /><path d="M 103.59715602781102 79.31037775812273 l 1.9390763359985232 -11.152909848724667 a32.32022151420232,32.32022151420232 0 0,0 0.5472965932135874,0.10001495417799727 l -2.1307680503150115 11.117879413195931" fill="#ff6709" stroke="none" /><path d="M 103.95276090670814 79.375362276772 l 6.135069240564303 -32.01144300906778 a53.59404175780158,53.59404175780158 0 0,0 0.9045489833993539,0.18144401651488534 l -6.685184633430782 31.90109503647569" fill="#84ff25" stroke="none" /><path d="M 104.66035177308747 79.52364482259891 l 3.3069478632291873 -14.529855748586092 a35.901429872493324,35.901429872493324 0 0,0 0.6013939349199628,0.14233051413680964 l -3.556565485111674 14.470779322308415" fill="#ff9a0e" stroke="none" /><path d="M 105.36241919743992 79.69619591428918 l 4.246768948210892 -16.0796016773398 a37.630954169902495,37.630954169902495 0 0,0 0.6248568166462286,0.17079697209241032 l -4.522923654080832 16.004118164421097" fill="#ffb210" stroke="none" /><path d="M 105.71112130821622 79.79150937346287 l 2.823590938169727 -9.99112222062047 a31.382446196031566,31.382446196031566 0 0,0 0.518572181990056,0.1513854401084226 l -2.9951533378832105 9.941038451593345" fill="#ff5a08" stroke="none" /><path d="M 106.40334571778207 80.00007090966166 l 1.346875906638226 -4.206773117285321 a25.41712743400018,25.41712743400018 0 0,0 0.41553030749265557,0.13699380925156554 l -1.4190890363732993 4.18296558377452" fill="#ff0000" stroke="none" /><path d="M 107.08798089147638 80.2323363322302 l 5.128272522154697 -14.302234721953944 a36.193850634495256,36.193850634495256 0 0,0 0.5846473254080113,0.21533054398951515 l -5.3737021733352845 14.211840910158104" fill="#ff9e0e" stroke="none" /><path d="M 107.4271985657038 80.35727306442388 l 5.208188053456549 -13.774105385518588 a35.72586846238753,35.72586846238753 0 0,0 0.5733437674681933,0.22244847434779913 l -5.4445149859244095 13.682414207280242" fill="#ff980e" stroke="none" /><path d="M 107.76421540070413 80.48803036053334 l 7.277404257598888 -18.28858211681212 a40.683313963149054,40.683313963149054 0 0,0 0.6484457820031417,0.2645173159830279 l -7.591133909190417 18.160603914645513" fill="#ffdb14" stroke="none" /><path d="M 108.43124777332544 80.76684994638697 l 15.523373766663047 -35.41152923261699 a59.66460313635729,59.66460313635729 0 0,0 0.9370691909025554,0.42043563104668974 l -16.130625076032384 35.13907327105377" fill="#42ff2d" stroke="none" /><path d="M 109.08828744355905 81.06846463323043 l 7.336913994560977 -15.283302562070329 a37.953160300291216,37.953160300291216 0 0,0 0.5865186202477851,0.287802139733187 l -7.598903881819194 15.15474526220231" fill="#ffb710" stroke="none" /><path d="M 109.41281617654863 81.2277094730956 l 10.727106532244065 -21.393423239056208 a44.9321827763266,44.9321827763266 0 0,0 0.688402789429916,0.3526266464554069 l -11.093769809262735 21.205604067288302" fill="#ecff1a" stroke="none" /><line stroke="#e1ed5e" stroke-width="0.3" x1="143.23703022742887" x2="145.7803849466894" y1="26.81831364943548" y2="22.513508569990506" /><path d="M 143.74570117128098 25.957352633546492 a86.0,86.0 0 0,1 28.547481713284135,27.462654790039103" fill="none" id="id98" stroke="none" /><text fill="#e1ed5e" style="font-size:6.75px; font-family:Arial;" text-anchor="middle"><textPath startOffset="19.985693538727396" xlink:href="#id98">February</textPath></text><path d="M 110.68208982089419 81.91981866633111 l 6.807577873388792 -11.522299892404217 a34.383068082945364,34.383068082945364 0 0,0 0.5069667694429285,0.3054418060994643 l -7.004906709049358 11.403411476846138" fill="#ff850c" stroke="none" /><path d="M 110.99172775467656 82.1063720568725 l 18.49720365903026 -30.111924862961047 a56.33941938057633,56.33941938057633 0 0,0 0.8219675745083579,0.5147160197496835 l -19.01279038591088 29.78906450188842" fill="#65ff29" stroke="none" /><path d="M 111.60114157652 82.49532879139004 l 13.600038035333606 -20.52075588103603 a45.61833577826892,45.61833577826892 0 0,0 0.6508113927693078,0.4394307575572942 l -13.951254122509456 20.283613211180068" fill="#e3ff1b" stroke="none" /><path d="M 112.19680574252982 82.90503203632743 l 13.060692929110678 -18.305786934686523 a43.487408367498944,43.487408367498944 0 0,0 0.6056236312719289,0.44001132408409105 l -13.373861876736395 18.07825637578576" fill="#feff18" stroke="none" /><path d="M 113.06298171725822 83.55741782278167 l 14.244935420134489 -17.93032604074488 a43.90010430219077,43.90010430219077 0 0,0 0.5876271486671517,0.47515362082651014 l -14.551465967366132 17.682466322654243" fill="#f9ff18" stroke="none" /><path d="M 114.42810811169701 84.74124197986012 l 10.544757301396618 -11.151836318212162 a36.347812867426846,36.347812867426846 0 0,0 0.45091496714308804,0.4337798411321905 l -10.735155512152126 10.968673390317669" fill="#ffa00e" stroke="none" /><path d="M 114.94478906791727 85.2469230424477 l 20.692471329851966 -20.427027814437707 a50.07648250852495,50.07648250852495 0 0,0 0.6002876283543765,0.618649167791419 l -21.04102322190945 20.067814451096172" fill="#adff20" stroke="none" /><path d="M 115.4437574822437 85.77008943001954 l 13.115990501621344 -12.0851011866362 a38.83476597911666,38.83476597911666 0 0,0 0.44873823476288976,0.4955079667211263 l -13.32207237700027 11.857540432645525" fill="#ffc212" stroke="none" /><path d="M 115.68641384162765 86.03803664274999 l 7.493745447149823 -6.66993746295352 a31.032162607652925,31.032162607652925 0 0,0 0.3517098662569836,0.4020651763296632 l -7.607447176984654 6.539956730420909" fill="#ff5507" stroke="none" /><path d="M 116.38621287248628 86.86637796730983 l 6.067200049253242 -4.86288765218029 a28.775512378961665,28.775512378961665 0 0,0 0.30645361535107857,0.38916497064398153 l -6.150007745198285 4.7577302875832705" fill="#ff3304" stroke="none" /><path d="M 116.60985879189232 87.15038557335679 l 15.356835099022451 -11.880258123103431 a40.41579041219113,40.41579041219113 0 0,0 0.42094789323837106,0.553918084544284 l -15.559058932484934 11.614155262678112" fill="#ffd814" stroke="none" /><path d="M 117.04232023915458 87.72973835380427 l 13.89634910500376 -10.005200996841067 a38.1234507455515,38.1234507455515 0 0,0 0.37885157429165955,0.5358586845710926 l -14.066513299099302 9.76451581193818" fill="#ffb911" stroke="none" /><path d="M 117.45458315368197 88.32363383020206 l 12.650085961757343 -8.462363980187124 a36.21960180073771,36.21960180073771 0 0,0 0.34219480301250116,0.5211861616240309 l -12.793877400127768 8.243359754585418" fill="#ff9f0e" stroke="none" /><line stroke="#e1ed5e" stroke-width="0.3" x1="172.23445277983987" x2="176.4835382374775" y1="55.19839476539836" y2="52.563006222186495" /><path d="M 173.08426987136738 54.67131705675599 a86.0,86.0 0 0,1 12.851231095245387,41.99856678651699" fill="none" id="id99" stroke="none" /><text fill="#e1ed5e" style="font-size:6.75px; font-family:Arial;" text-anchor="middle"><textPath startOffset="22.20632615414155" xlink:href="#id99">March</textPath></text><path d="M 117.84615892207809 88.93136811851018 l 12.813335513481464 -7.947149557056156 a36.0777568976046,36.0777568976046 0 0,0 0.32278288353952944,0.5305701904943241 l -12.948234195307217 7.725411593354751" fill="#ff9d0e" stroke="none" /><path d="M 118.03404312379186 89.2402003453031 l 21.849372346460694 -13.036170947081578 a46.442814798992174,46.442814798992174 0 0,0 0.4036993586629682,0.6900530650247974 l -22.07053137959399 12.658138469702886" fill="#d9ff1c" stroke="none" /><path d="M 118.3937258080291 89.86733742301442 l 8.86610225629026 -4.884123177307812 a31.122372668011714,31.122372668011714 0 0,0 0.25445044381915377,0.47145802807184045 l -8.948860799327878 4.730784165903513" fill="#ff5607" stroke="none" /><path d="M 118.73160827565052 90.50648371742162 l 19.630476716969046 -9.949078990167468 a43.007721119826456,43.007721119826456 0 0,0 0.32898856017106465,0.6632208621508098 l -19.798825290093518 9.609698539517707" fill="#fffa17" stroke="none" /><path d="M 119.04729006885535 91.15688171328212 l 13.2210600607012 -6.138164409211847 a35.57647047275792,35.57647047275792 0 0,0 0.25309725044056824,0.5576662420339105 l -13.324759628105117 5.909676158335874" fill="#ff960d" stroke="none" /><path d="M 119.196687751892 91.48605970444005 l 30.955079763178716 -13.728915339680109 a54.862960289213646,54.862960289213646 0 0,0 0.37544367043295657,0.8665757551639719 l -31.186814143454352 13.194040439929534" fill="#76ff27" stroke="none" /><path d="M 119.7369772167798 92.82701384747503 l 22.101265159069083 -8.032236507042512 a44.51558514977987,44.51558514977987 0 0,0 0.25553412598831216,0.7224293847644346 l -22.2362523658672 7.650609495851463" fill="#f1ff19" stroke="none" /><path d="M 119.97218684219823 93.5106431181261 l 18.292958069120434 -5.9437423790199055 a40.23435437925473,40.23435437925473 0 0,0 0.20834597156526719,0.6605136655327878 l -18.392559524453908 5.627978547060699" fill="#ffd513" stroke="none" /><path d="M 120.08093135843002 93.85539295169968 l 16.43380528745054 -5.028615157198486 a38.18595143205763,38.18595143205763 0 0,0 0.1869186009711653,0.6301966002607351 l -16.517929785533404 4.744989170191221" fill="#ffba11" stroke="none" /><path d="M 120.28053869075195 94.5502522615342 l 14.025280079625764 -3.7688465558434294 a35.52283325227692,35.52283325227692 0 0,0 0.15360016960315856,0.5918841109335166 l -14.088076581099225 3.526866019361062" fill="#ff950d" stroke="none" /><path d="M 120.45610955862082 95.25157060432595 l 14.34567990313104 -3.330029493523627 a35.72710522508871,35.72710522508871 0 0,0 0.13390112939920537,0.6002525077236593 l -14.400875419532284 3.082598816250004" fill="#ff980e" stroke="none" /><path d="M 120.67395015179393 96.31383870115 l 62.02185045538181 -11.058483896549978 a84.0,84.0 0 0,0 0.2415525539191079,1.4256568467366484 l -62.20301487082114 9.98924126149749" fill="#4dd2ff" stroke="none" /><path d="M 120.96714384426684 98.82574320788733 l 10.016172491680571 -0.5609518714941236 a31.03186814034312,31.03186814034312 0 0,0 0.02527825207881851,0.5335839488674994 l -10.024344351992887 0.38845681600362436" fill="#ff5507" stroke="none" /><line stroke="#e1ed5e" stroke-width="0.3" x1="184.98032266829074" x2="189.97916517819016" y1="98.17113171792111" y2="98.06355123074" /><path d="M 185.9800911702706 98.14961562048488 a86.0,86.0 0 0,1 -9.607161424134198,41.387399972396054" fill="none" id="id100" stroke="none" /><text fill="#e1ed5e" style="font-size:6.75px; font-family:Arial;" text-anchor="middle"><textPath startOffset="21.466115282336823" xlink:href="#id100">April</textPath></text><path d="M 120.9764740272857 100.99374915477107 l 10.959222110543505 0.5191872425811209 a31.97151332593114,31.97151332593114 0 0,0 -0.030774331045954912,0.5494963538517842 l -10.948661428610022 -0.7077553127683285" fill="#ff6209" stroke="none" /><line stroke="#e1ed5e" stroke-width="0.3" x1="174.80103733775053" x2="179.2010983576182" y1="140.37084112569926" y2="142.7455964860345" /><path d="M 175.68104954172406 140.8457921977663 a86.0,86.0 0 0,1 -30.038265399797805,32.042727171017184" fill="none" id="id101" stroke="none" /><text fill="#e1ed5e" style="font-size:6.75px; font-family:Arial;" text-anchor="middle"><textPath startOffset="22.206326154141568" xlink:href="#id101">May</textPath></text><line stroke="#e1ed5e" stroke-width="0.3" x1="143.8653032363475" x2="146.44561519142675" y1="172.8068346515853" y2="177.08958963109032" /><path d="M 144.38136562736335 173.6633856474863 a86.0,86.0 0 0,1 -40.68145358897372,12.25698825130547" fill="none" id="id102" stroke="none" /><text fill="#e1ed5e" style="font-size:6.75px; font-family:Arial;" text-anchor="middle"><textPath startOffset="21.466115282336833" xlink:href="#id102">June</textPath></text><line stroke="#e1ed5e" stroke-width="0.3" x1="102.19456741930631" x2="102.32365962044197" y1="184.97166512339345" y2="189.96999836594603" /><path d="M 102.22038585953345 185.97133177190398 a86.0,86.0 0 0,1 -42.740103519485714,-10.115201625700543" fill="none" id="id103" stroke="none" /><text fill="#e1ed5e" style="font-size:6.75px; font-family:Arial;" text-anchor="middle"><textPath startOffset="22.20632615414155" xlink:href="#id103">July</textPath></text><line stroke="#e1ed5e" stroke-width="0.3" x1="58.666819895761336" x2="56.23545636021788" y1="174.27360380694188" y2="178.64263932499728" /><path d="M 58.180547188652646 175.14741091055294 a86.0,86.0 0 0,1 -31.652253787137756,-30.449443065178592" fill="none" id="id104" stroke="none" /><text fill="#e1ed5e" style="font-size:6.75px; font-family:Arial;" text-anchor="middle"><textPath startOffset="22.20632615414155" xlink:href="#id104">August</textPath></text><line stroke="#e1ed5e" stroke-width="0.3" x1="26.63291911575756" x2="22.317208475507996" y1="142.92168965132927" y2="145.44649492493687" /><path d="M 25.769776987707644 143.4266507060508 a86.0,86.0 0 0,1 -11.730757126820373,-40.83630448921669" fill="none" id="id105" stroke="none" /><text fill="#e1ed5e" style="font-size:6.75px; font-family:Arial;" text-anchor="middle"><textPath startOffset="21.46611528233685" xlink:href="#id105">September</textPath></text><line stroke="#e1ed5e" stroke-width="0.3" x1="15.007084014347285" x2="10.007500721073583" y1="101.09737516637583" y2="101.16192664675087" /><path d="M 14.007167355692545 101.11028546245083 a86.0,86.0 0 0,1 10.666146001902534,-42.60595125391555" fill="none" id="id106" stroke="none" /><text fill="#e1ed5e" style="font-size:6.75px; font-family:Arial;" text-anchor="middle"><textPath startOffset="22.20632615414155" xlink:href="#id106">October</textPath></text><line stroke="#e1ed5e" stroke-width="0.3" x1="26.266209847984243" x2="21.928928074336255" y1="57.711370442889674" y2="55.22380399835377" /><path d="M 25.398753493254645 57.213857153982495 a86.0,86.0 0 0,1 29.58750427330803,-30.492523968695096" fill="none" id="id107" stroke="none" /><text fill="#e1ed5e" style="font-size:6.75px; font-family:Arial;" text-anchor="middle"><textPath startOffset="21.46611528233685" xlink:href="#id107">November</textPath></text><line stroke="#e1ed5e" stroke-width="0.3" x1="56.762969772571076" x2="54.21961505331055" y1="26.818313649435495" y2="22.513508569990535" /><path d="M 56.25429882871897 25.957352633546506 a86.0,86.0 0 0,1 42.265352541879196,-11.944610805530505" fill="none" id="id108" stroke="none" /><text fill="#e1ed5e" style="font-size:6.75px; font-family:Arial;" text-anchor="middle"><textPath startOffset="22.20632615414155" xlink:href="#id108">December</textPath></text></svg>