<?xml version="1.0" encoding="utf-8" ?>
<svg baseProfile="full" height="200mm" version="1.1" viewBox="0,0,200,200" width="200mm" xmlns="http://www.w3.org/2000/svg" xmlns:ev="http://www.w3.org/2001/xml-events" xmlns:xlink="http://www.w3.org/1999/xlink"><defs /><rect fill="#1a1a1a" height="200" width="200" x="0" y="0" /><text alignment-baseline="middle" fill="#e1ed5e" style="dominant-baseline: central; font-size:9.0px; font-family:Arial;" text-anchor="middle" x="100.0" y="100.0">2024</text><line stroke="#e1ed5e" stroke-width="0.3" x1="100.0" x2="100.0" y1="15.0" y2="10.0" /><path d="M 100.0 14.0 a86.0,86.0 0 0,1 42.35913384403234,11.155469271406648" fill="none" id="id85" stroke="none" /><text fill="#e1ed5e" style="font-size:6.75px; font-family:Arial;" text-anchor="middle"><textPath startOffset="22.145653131862478" xlink:href="#id85">January</textPath></text><line stroke="#e1ed5e" stroke-width="0.3" x1="143.13028292997686" x2="145.6673583964461" y1="26.7553504044142" y2="22.446841604673864" /><path d="M 143.63769802327073 25.89364864446614 a86.0,86.0 0 0,1 29.32050498858742,28.57503671076993" fill="none" id="id86" stroke="none" /><text fill="#e1ed5e" style="font-size:6.75px; font-family:Arial;" text-anchor="middle"><textPath startOffset="20.669276256404974" xlink:href="#id86">February</textPath></text><line stroke="#e1ed5e" stroke-width="0.3" x1="172.87174338648825" x2="177.1583165268699" y1="56.24261187166439" y2="53.66864786411523" /><path d="M 173.72905801456457 55.72781907015455 a86.0,86.0 0 0,1 12.242430191666344,42.057860355516425" fill="none" id="id87" stroke="none" /><text fill="#e1ed5e" style="font-size:6.75px; font-family:Arial;" text-anchor="middle"><textPath startOffset="22.145653131862474" xlink:href="#id87">March</textPath></text><line stroke="#e1ed5e" stroke-width="0.3" x1="184.99686870605535" x2="189.99668451229388" y1="99.2704041080226" y2="99.22748670261217" /><path d="M 185.99683186730306 99.26182062694052 a86.0,86.0 0 0,1 -10.086455211305974,41.156179273409016" fill="none" id="id88" stroke="none" /><text fill="#e1ed5e" style="font-size:6.75px; font-family:Arial;" text-anchor="middle"><textPath startOffset="21.40746469413373" xlink:href="#id88">April</textPath></text><path d="M 119.83427380445688 106.89939002012753 l 4.1635461292814755 1.448297472138875 a25.408251573862206,25.408251573862206 0 0,0 -0.14683529002307757,0.41072443946693593 l -4.138070669214454 -1.5195568679867324" fill="#ff3004" stroke="none" /><line stroke="#e1ed5e" stroke-width="0.3" x1="174.33088141563837" x2="178.70328620479359" y1="141.23008692659167" y2="143.65538615756765" /><path d="M 175.20536237346943 141.71514677278685 a86.0,86.0 0 0,1 -30.301960400862466,31.631185727798858" fill="none" id="id89" stroke="none" /><text fill="#e1ed5e" style="font-size:6.75px; font-family:Arial;" text-anchor="middle"><textPath startOffset="22.145653131862474" xlink:href="#id89">May</textPath></text><path d="M 116.1254893667686 113.45245675266167 l 13.629480464352955 11.370197352633706 a38.749482402763675,38.749482402763675 0 0,0 -0.4304983288500078,0.5071259489126583 l -13.432287571995833 -11.60249008399592" fill="#ffe215" stroke="none" /><path d="M 115.41159269507618 114.26474011684316 l 3.2837434581202074 3.039383921392756 a25.47446373550709,25.47446373550709 0 0,0 -0.29980310004418,0.31838050289133535 l -3.2310845243397672 -3.0953058842285883" fill="#ff3104" stroke="none" /><path d="M 114.65682725009322 115.03919595460226 l 14.867292454249139 15.25515179503875 a42.3015502067302,42.3015502067302 0 0,0 -0.5243932099696079,0.502356832896571 l -14.603226758414218 -15.5081207582409" fill="#f0ff19" stroke="none" /><path d="M 113.59037401385872 116.0094264158162 l 5.653418296579304 6.659712538052313 a29.735726044559136,29.735726044559136 0 0,0 -0.3919815314983125,0.32700493488216237 l -5.5382624309190955 -6.755779656846345" fill="#ff6d0a" stroke="none" /><path d="M 112.45986205192187 116.90419585922612 l 10.977279665563314 14.89278811393906 a39.50123797648888,39.50123797648888 0 0,0 -0.5492910287081777,0.39764434466848875 l -10.720007626481168 -15.079033229980626" fill="#ffeb16" stroke="none" /><path d="M 111.5731344415666 117.5232005979908 l 5.776165647781347 8.745850991738303 a31.481125853661865,31.481125853661865 0 0,0 -0.45349966111704887,0.29395300130860735 l -5.625180354407288 -8.843717834750805" fill="#ff840c" stroke="none" /><line stroke="#e1ed5e" stroke-width="0.3" x1="143.1302829299769" x2="145.66735839644613" y1="173.24464959558577" y2="177.55315839532614" /><path d="M 143.63769802327073 174.10635135553383 a86.0,86.0 0 0,1 -40.68552437913181,11.842963189579606" fill="none" id="id90" stroke="none" /><text fill="#e1ed5e" style="font-size:6.75px; font-family:Arial;" text-anchor="middle"><textPath startOffset="21.407464694133747" xlink:href="#id90">June</textPath></text><path d="M 110.65571695917076 118.09573695890943 l 7.279978941300962 12.362995797744427 a35.3471864308244,35.3471864308244 0 0,0 -0.5255075163640996,0.3034019060339858 l -7.066678957076464 -12.486144601054583" fill="#ffb711" stroke="none" /><path d="M 109.3889696526874 118.78422872680471 l 4.295867602204407 8.594612892031298 a30.6084259491105,30.6084259491105 0 0,0 -0.4720107157066834,0.23088409381073466 l -4.147696637235653 -8.667090735939256" fill="#ff780b" stroke="none" /><path d="M 108.4095320186766 119.2426549942271 l 9.442843823159956 21.60707462078614 a44.58035142097782,44.58035142097782 0 0,0 -0.7038705175129654,0.3004404691981322 l -9.07053823047656 -21.765989739643675" fill="#d5ff1c" stroke="none" /><path d="M 107.74402155503746 119.51999308798841 l 3.2214119422841967 8.120062476588316 a29.735726044559136,29.735726044559136 0 0,0 -0.47609409005115955,0.1841634216977115 l -3.081545589739508 -8.174165786424068" fill="#ff6d0a" stroke="none" /><path d="M 107.06938296918513 119.77432235084164 l 2.9466467580820086 8.242295417062769 a29.753180042650165,29.753180042650165 0 0,0 -0.48241838418226823,0.1678101562057342 l -2.8047226018547184 -8.291664005837093" fill="#ff6d0a" stroke="none" /><path d="M 104.64783097203109 120.47920084513623 l 2.165217716565495 9.540348768667636 a30.782965930020772,30.782965930020772 0 0,0 -0.5163294061183805,0.11253159089367183 l -2.001125893827979 -9.576111817695027" fill="#ff7b0b" stroke="none" /><path d="M 103.58742460773223 120.69131181640829 l 2.480742794105337 14.308265204655907 a35.521726411734676,35.521726411734676 0 0,0 -0.6017084388118042,0.09901089462956436 l -2.2347568522404604 -14.348742097781141" fill="#ffb911" stroke="none" /><path d="M 103.2317021107853 120.74984581791261 l 1.3940370268182678 8.950717726861072 a30.058625009243144,30.058625009243144 0 0,0 -0.5105312809880944,0.07503051719504268 l -1.2401806402224878 -8.973329317354997" fill="#ff710a" stroke="none" /><path d="M 102.15924093988457 120.88869738790638 l 0.8991133813642549 8.698106354791161 a29.74445304360465,29.74445304360465 0 0,0 -0.5083474849630295,0.04814103535288656 l -0.74966633301621 -8.71225914564923" fill="#ff6d0a" stroke="none" /><path d="M 101.08105385017728 120.97215588758144 l 0.9546669679582228 18.520284137058727 a39.54487297171646,39.54487297171646 0 0,0 -0.6782402164154661,0.029126553180915834 l -0.6366009909419271 -18.533943258665474" fill="#ffec16" stroke="none" /><path d="M 100.72087961077811 120.9876233191556 l 0.3001760907876756 8.739299362438963 a29.74445304360465,29.74445304360465 0 0,0 -0.5104526122458598,0.013147448591383315 l -0.15011016447107195 -8.74316452838039" fill="#ff6d0a" stroke="none" /><line stroke="#e1ed5e" stroke-width="0.3" x1="101.45913802915013" x2="101.54496967792366" y1="184.9874750549273" y2="189.98673829345242" /><path d="M 101.47630435890484 185.9873277026323 a86.0,86.0 0 0,1 -42.54439059252881,-10.42667462771756" fill="none" id="id91" stroke="none" /><text fill="#e1ed5e" style="font-size:6.75px; font-family:Arial;" text-anchor="middle"><textPath startOffset="22.145653131862474" xlink:href="#id91">July</textPath></text><path d="M 99.63950707515114 120.99690560180557 l -0.16808742967718596 9.790250100641517 a30.791692929066286,30.791692929066286 0 0,0 -0.5284245794694051,-0.013610342716101863 l 0.33612532321733496 -9.785922040575368" fill="#ff7b0b" stroke="none" /><path d="M 98.55909050195518 120.95050786540614 l -0.8987999303322435 13.068353727561048 a34.099225567315955,34.099225567315955 0 0,0 -0.5836342344307782,-0.045176980905813735 l 1.123003159538258 -13.050998979660182" fill="#ffa70f" stroke="none" /><path d="M 98.19965949673042 120.92268563240118 l -0.47359160558808583 5.5038523345269095 a26.524190395810123,26.524190395810123 0 0,0 -0.4533115959007256,-0.04292907943808823 l 0.5680027648738267 -5.494911499583637" fill="#ff4006" stroke="none" /><path d="M 96.41257539226777 120.69131181640829 l -0.9079160826984062 5.236618695694379 a26.3147424187178,26.3147424187178 0 0,0 -0.4444250062604689,-0.08098904071654643 l 0.9976758225099323 -5.2202614810464665" fill="#ff3d05" stroke="none" /><path d="M 96.05791012581884 120.62667999033965 l -1.8036799352765764 9.43761558396085 a30.6084259491105,30.6084259491105 0 0,0 -0.5152469593036182,-0.10306382219341573 l 1.9654233801111527 -9.405262365104575" fill="#ff780b" stroke="none" /><path d="M 95.70440661134978 120.55596938700252 l -1.7404975436951624 8.328910813784704 a29.508824069375784,29.508824069375784 0 0,0 -0.4949579466003803,-0.10787378076164773 l 1.8832179069146793 -8.297805574889338" fill="#ff6a09" stroke="none" /><path d="M 95.00130118170881 120.39639698878247 l -1.3440235695702911 5.4840748130145185 a26.646368382447314,26.646368382447314 0 0,0 -0.4433380984568438,-0.11269481096758266 l 1.4379669612525137 -5.460194770211673" fill="#ff4206" stroke="none" /><path d="M 94.6519064749342 120.30758222061772 l -1.4935298268341413 5.671176020992651 a26.864543358585156,26.864543358585156 0 0,0 -0.4449518016910585,-0.12127359216367051 l 1.590663029459895 -5.644701934684836" fill="#ff4506" stroke="none" /><path d="M 93.95794788825049 120.11202640906438 l -2.1844864390760916 7.27144488997463 a28.592489169596853,28.592489169596853 0 0,0 -0.46886149881271627,-0.14525449084352499 l 2.308988570760442 -7.232873811324456" fill="#ff5d08" stroke="none" /><path d="M 93.61358852112213 120.00534299687104 l -2.2797944623945057 7.141423682675528 a28.496492180096205,28.496492180096205 0 0,0 -0.46473336326103964,-0.15276708728141566 l 2.402050563303289 -7.1012356739920905" fill="#ff5c08" stroke="none" /><path d="M 92.59220618246901 119.65005319985036 l -2.5335784419137 6.720617824402609 a28.182320214457715,28.182320214457715 0 0,0 -0.4512227506376201,-0.17454265331533003 l 2.6485734550448488 -6.676135282949238" fill="#ff5708" stroke="none" /><path d="M 92.25597844496254 119.51999308798841 l -3.0122293486293787 7.5927856923942745 a29.168471106600755,29.168471106600755 0 0,0 -0.4638419428545165,-0.18864048011310114 l 3.142125752674336 -7.539957955701881" fill="#ff6509" stroke="none" /><path d="M 91.59046798132341 119.24265499422711 l -1.1008496685031024 2.5189594765165175 a23.74900469933679,23.74900469933679 0 0,0 -0.37216567343191786,-0.16646497196983828 l 1.1439287447906554 -2.4996907536368242" fill="#ff1902" stroke="none" /><path d="M 90.93487009805054 118.94263497670748 l -7.888534748747921 16.48400363402071 a39.27433600130553,39.27433600130553 0 0,0 -0.6056471990981198,-0.2962523944470718 l 8.170342197108111 -16.346157489476415" fill="#ffe915" stroke="none" /><path d="M 90.28995756902619 118.62028667847754 l -4.039250978953916 7.745796347349228 a29.735726044559136,29.735726044559136 0 0,0 -0.4505828856231208,-0.23991000741235022 l 4.171622680363599 -7.675315872214305" fill="#ff6d0a" stroke="none" /><path d="M 89.97174638481275 118.45085714620012 l -4.863420247736585 8.948145477396698 a31.1844078861144,31.1844078861144 0 0,0 -0.4681459916670586,-0.25967269004706484 l 5.016310427559746 -8.863339871916486" fill="#ff800b" stroke="none" /><line stroke="#e1ed5e" stroke-width="0.3" x1="58.13341422392154" x2="55.67067388415222" y1="173.97424548756322" y2="178.32567169271397" /><path d="M 57.64086615596768 174.84453072859336 a86.0,86.0 0 0,1 -31.369924170532247,-30.572349798747897" fill="none" id="id92" stroke="none" /><text fill="#e1ed5e" style="font-size:6.75px; font-family:Arial;" text-anchor="middle"><textPath startOffset="22.145653131862474" xlink:href="#id92">August</textPath></text><path d="M 89.65649057296885 118.27599006163327 l -2.789704770768016 4.929141025598799 a26.663822380538342,26.663822380538342 0 0,0 -0.3964117229922151,-0.2288684149794805 l 2.873908961620631 -4.880525713343147" fill="#ff4206" stroke="none" /><path d="M 89.03521579738668 117.91015095944536 l -0.8885468546543587 1.4513745101893576 a22.701764813875158,22.701764813875158 0 0,0 -0.33061971523155037,-0.2063311548328987 l 0.9133306986756217 -1.435907558514911" fill="#ff0a01" stroke="none" /><path d="M 88.4268655584334 117.5232005979908 l -3.169436437875026 4.7989307273568205 a26.75109237099348,26.75109237099348 0 0,0 -0.3810167155059059,-0.2563650504281189 l 3.2513494414779376 -4.743816002871581" fill="#ff4306" stroke="none" /><path d="M 88.1277618465304 117.32195027204791 l -4.198631828069385 6.1259293147856075 a28.426676187732095,28.426676187732095 0 0,0 -0.400145953462259,-0.2793329524174957 l 4.303172872705409 -6.052951546562983" fill="#ff5b08" stroke="none" /><path d="M 87.54013794807813 116.9041958592261 l -5.0174452810994605 6.80712815207875 a29.456462075102703,29.456462075102703 0 0,0 -0.4044610855532967,-0.30351513891292276 l 5.1335593555635235 -6.719993985901812" fill="#ff6909" stroke="none" /><path d="M 86.96720088162412 116.46651593811092 l -0.6499270026653554 0.8211615364275943 a22.047239885461636,22.047239885461636 0 0,0 -0.2947497911255285,-0.2374295674877676 l 0.6639275641461458 -0.809883675146416" fill="#ff0000" stroke="none" /><path d="M 86.68645165197938 116.24036423190432 l -6.091535401040883 7.430682719468361 a30.6084259491105,30.6084259491105 0 0,0 -0.4034856139818531,-0.33660204964680096 l 6.2181953491846285 -7.32501848590969" fill="#ff780b" stroke="none" /><path d="M 86.40962598614128 116.0094264158162 l -4.196293500857566 4.943223192580292 a27.484160290816625,27.484160290816625 0 0,0 -0.35705918613435556,-0.3084192208005248 l 4.280532166754784 -4.8704598393150444" fill="#ff4e07" stroke="none" /><path d="M 86.13680546590413 115.77377054828092 l -6.394873088960713 7.276191684575637 a30.686968940520124,30.686968940520124 0 0,0 -0.39269817976679644,-0.3511531338446092 l 6.51883629555088 -7.165343020847645" fill="#ff7a0b" stroke="none" /><path d="M 85.60350026404147 115.28858382429668 l -5.904997254359017 6.270902452768931 a29.613548057921946,29.613548057921946 0 0,0 -0.36710577860127935,-0.35167903163135283 l 6.011775518825611 -6.168611290831996" fill="#ff6b09" stroke="none" /><path d="M 85.34317274990678 115.03919595460226 l -5.2260419403772795 5.362379419993773 a28.48776518105069,28.48776518105069 0 0,0 -0.3472903839899666,-0.3443221079458399 l 5.317324244497208 -5.2718773018192735" fill="#ff5c08" stroke="none" /><path d="M 85.08716467003676 114.78537596483092 l -6.544399070150413 6.4884643714698775 a30.21571099206239,30.21571099206239 0 0,0 -0.36203198562930794,-0.3714767105328546 l 6.6548178569305305 -6.375164968869285" fill="#ff730a" stroke="none" /><path d="M 84.83555147118756 114.52719865689866 l -10.057849715588183 9.635192509768348 a34.928290476639745,34.928290476639745 0 0,0 -0.41106301089843356,-0.4365346726254112 l 10.22176856022287 -9.461116377198447" fill="#ffb210" stroke="none" /><path d="M 84.58840730492382 114.26474011684316 l -5.546398228792611 5.133663397652792 a28.5575811734148,28.5575811734148 0 0,0 -0.3299111833840513,-0.36263018247196727 l 5.633707113018542 -5.03769563962315" fill="#ff5c08" stroke="none" /><path d="M 84.3458050057657 113.99807769240083 l -7.266571414828766 6.497812967042793 a30.74805793383872,30.74805793383872 0 0,0 -0.3484617901435159,-0.3964855509347794 l 7.377044268930874 -6.372115138296714" fill="#ff7a0b" stroke="none" /><path d="M 83.8745106332314 113.45245675266167 l -11.184456213862443 9.330471162573666 a35.56536140696224,35.56536140696224 0 0,0 -0.387075070213757,-0.4721686481347366 l 11.342978103314831 -9.137100232740435" fill="#ffba11" stroke="none" /><path d="M 83.4222238831116 112.89097897827486 l -14.79121835432974 11.501740856211212 a39.736866950717754,39.736866950717754 0 0,0 -0.41411117896666866,-0.5420848264147936 l 14.986481510650703 -11.246135116555548" fill="#ffee16" stroke="none" /><path d="M 82.98947788004972 112.3143062007846 l -6.00872327422954 4.3498522710165854 a28.41794918868658,28.41794918868658 0 0,0 -0.28267050077425626,-0.39761145913563295 l 6.082508873533757 -4.2460635851714486" fill="#ff5b08" stroke="none" /><path d="M 82.37810715431573 111.42229804090323 l -6.568869481612083 4.257861835151406 a28.828118143825723,28.828118143825723 0 0,0 -0.2656062306928079,-0.41757711067140246 l 6.64099340393078 -4.144471049801331" fill="#ff6008" stroke="none" /><path d="M 82.18462484594161 111.11811171558189 l -7.951423540492372 4.962276374009621 a30.372796974881634,30.372796974881634 0 0,0 -0.2722444476078427,-0.44469084520287794 l 8.03543595255562 -4.825048412682185" fill="#ff750a" stroke="none" /><line stroke="#e1ed5e" stroke-width="0.3" x1="26.387840678322732" x2="22.057713659400548" y1="142.50000000000003" y2="145.00000000000006" /><path d="M 25.521815274538298 143.00000000000003 a86.0,86.0 0 0,1 -11.493303480769221,-40.785679425670985" fill="none" id="id93" stroke="none" /><text fill="#e1ed5e" style="font-size:6.75px; font-family:Arial;" text-anchor="middle"><textPath startOffset="21.40746469413373" xlink:href="#id93">September</textPath></text><path d="M 81.81346652052679 110.50000000000001 l -15.954521863250815 9.21134749253964 a39.42269498507926,39.42269498507926 0 0,0 -0.33334072810900517,-0.588981126476949 l 16.110295956381197 -8.936109595963568" fill="#ffeb16" stroke="none" /><path d="M 81.4637452351635 109.86951160357371 l -4.8067575070208735 2.559327630795327 a26.445647404400503,26.445647404400503 0 0,0 -0.20991790633557816,-0.40254526411191777 l 4.8499834823314005 -2.4764361235789063" fill="#ff3f05" stroke="none" /><path d="M 81.29705330413844 109.54985784667822 l -6.6764996976324875 3.409068317554936 a28.496492180096205,28.496492180096205 0 0,0 -0.21871748013090306,-0.43758147329332175 l 6.734037090975128 -3.2939549880978616" fill="#ff5c08" stroke="none" /><path d="M 81.1358732173502 109.22738970284198 l -4.100001628149 2.0055162500293147 a25.564220500803625,25.564220500803625 0 0,0 -0.18944395066721384,-0.3958649953005851 l 4.1338248367761254 -1.9348387526636246" fill="#ff3304" stroke="none" /><path d="M 80.9802524753101 108.90220220490708 l -9.089672203236223 4.254425555570112 a31.036048902340667,31.036048902340667 0 0,0 -0.22170902308901355,-0.48447422755766584 l 9.161365691180293 -4.097762345797757" fill="#ff7e0b" stroke="none" /><path d="M 80.68587082218212 108.24405325689762 l -10.145368811489316 4.3304546647044635 a32.03092679352922,32.03092679352922 0 0,0 -0.2115172248479201,-0.5075643394929877 l 10.218211880873723 -4.155657815770194" fill="#ff8c0c" stroke="none" /><path d="M 80.41425534168474 107.57618678355246 l -7.642779222263079 2.9563911887688037 a29.194652103737294,29.194652103737294 0 0,0 -0.17679352115751001,-0.4689658192041584 l 7.692403427235025 -2.8247570893705003" fill="#ff6509" stroke="none" /><path d="M 80.28708602549918 107.23885506374661 l -8.274044154959933 3.0383436211546386 a29.814269035968763,29.814269035968763 0 0,0 -0.17229783906996654,-0.4819477208936228 l 8.324982164073843 -2.8958609438800944" fill="#ff6e0a" stroke="none" /><path d="M 80.16572619554312 106.89939002012753 l -10.73180869071697 3.733080147457309 a32.36255275725874,32.36255275725874 0 0,0 -0.17801650659984597,-0.526274170302165 l 10.794310618889185 -3.548304302680983" fill="#ff900d" stroke="none" /><path d="M 79.94057633289273 106.21446072829308 l -6.97733448054217 2.1615960576472264 a28.304498201094905,28.304498201094905 0 0,0 -0.13980222446991464,-0.4653561370510516 l 7.013413025015715 -2.0415023170054516" fill="#ff5908" stroke="none" /><path d="M 79.73907114497094 105.5222062557868 l -20.729700804287667 5.649972135093501 a42.48587165005455,42.48587165005455 0 0,0 -0.18574523498357143,-0.70530491171066 l 20.82363552007597 -5.293286719010038" fill="#eeff19" stroke="none" /><path d="M 79.64726062577567 105.17358676015961 l -7.840580880223565 1.9930449993997983 a29.089928115191128,29.089928115191128 0 0,0 -0.11887041357275076,-0.485031852004917 l 7.8736388203126095 -1.8581573227867818" fill="#ff6409" stroke="none" /><path d="M 79.56144815229197 104.8234425847677 l -9.402500727169429 2.2189645699298466 a30.660787943383582,30.660787943383582 0 0,0 -0.11649513590312692,-0.513299063584282 l 9.439206724630221 -2.057231172406538" fill="#ff790b" stroke="none" /><path d="M 79.48165901384964 104.47187691870673 l -18.19626662182556 3.9657916187132374 a39.62341596312608,39.62341596312608 0 0,0 -0.1391391141942497,-0.6658310303458238 l 18.261663446844178 -3.6528441370820044" fill="#ffed16" stroke="none" /><path d="M 79.2786578344484 103.40968896794605 l -6.458397617876077 1.062726870312982 a27.54524928413522,27.54524928413522 0 0,0 -0.07276996804587031,-0.4672353965072968 l 6.475689078060215 -0.9517032918742352" fill="#ff4e07" stroke="none" /><path d="M 79.17382384314188 102.69636545807758 l -9.572167690643573 1.239308749027279 a30.652060944338068,30.652060944338068 0 0,0 -0.0630818155169527,-0.5224079251099008 l 9.592031592420186 -1.0748071469939788" fill="#ff790b" stroke="none" /><path d="M 79.13060592940153 102.33845913500099 l -7.389159960887885 0.8279707859302624 a28.43540318677761,28.43540318677761 0 0,0 -0.050192017378716876,-0.4855622376114272 l 7.402284370748268 -0.7010040260359038" fill="#ff5b08" stroke="none" /><path d="M 79.0935383218832 101.97986365728391 l -14.691623087952257 1.391311981252011 a35.75735538596354,35.75735538596354 0 0,0 -0.052625253185217116,-0.6115852121974579 l 14.713341963835214 -1.1389057216788911" fill="#ffbc11" stroke="none" /><path d="M 79.03789590574601 101.26102812881392 l -9.669488156618485 0.5816923960448875 a30.686968940520124,30.686968940520124 0 0,0 -0.02711911275864646,-0.526103542588544 l 9.678048858833703 -0.4156170600796127" fill="#ff7a0b" stroke="none" /><path d="M 79.01933749520258 100.90099992219065 l -19.94189945976286 0.856390967514568 a40.96027954595152,40.96027954595152 0 0,0 -0.024137918098940444,-0.7027491486718452 l 19.953662064858648 -0.5139355542786028" fill="#fffd18" stroke="none" /><line stroke="#e1ed5e" stroke-width="0.3" x1="15.003131293944662" x2="10.003315487706104" y1="100.72959589197737" y2="100.7725132973878" /><path d="M 14.003168132696942 100.73817937305945 a86.0,86.0 0 0,1 10.791469493833604,-42.45332614584628" fill="none" id="id94" stroke="none" /><text fill="#e1ed5e" style="font-size:6.75px; font-family:Arial;" text-anchor="middle"><textPath startOffset="22.145653131862435" xlink:href="#id94">October</textPath></text><path d="M 79.00077361379809 100.18025310272382 l -22.52109892667058 0.19331654812531074 a43.52192860641961,43.52192860641961 0 0,0 0.0,-0.7471393016982483 l 22.52109892667058 0.19331654812530244" fill="#e2ff1b" stroke="none" /><path d="M 79.00077361379809 99.81974689727619 l -13.484440767108644 -0.1157477062280691 a34.48493753538216,34.48493753538216 0 0,0 0.010162494988259135,-0.5919143851068136 l 13.48046684052172 0.34720900730393506" fill="#ffac0f" stroke="none" /><path d="M 79.00696218219943 99.45929381324524 l -12.786362348720298 -0.32933133775326784 a33.790602849076286,33.790602849076286 0 0,0 0.01991282318202074,-0.5797401201487313 l 12.778824838541427 0.5487777224661378" fill="#ffa30f" stroke="none" /><path d="M 79.03789590574601 98.7389718711861 l -62.886312282761985 -3.7830843864417325 a84.0,84.0 0 0,0 0.09894415533974499,-1.4386263033827 l 62.81210416625718 4.862054113978758" fill="#4dd2ff" stroke="none" /><path d="M 79.13060592940154 97.66154086499901 l -9.678758822008072 -1.0845251139649965 a30.739330934793205,30.739330934793205 0 0,0 0.06326141679882867,-0.5238952813669289 l 9.658715318949575 1.2505140722553616" fill="#ff7a0b" stroke="none" /><path d="M 79.17382384314186 97.30363454192245 l -16.44404937813996 -2.129011413337982 a37.58129818647589,37.58129818647589 0 0,0 0.08832586383220986,-0.6390819512100077 l 16.405078997752543 2.4109816727480564" fill="#ffd413" stroke="none" /><path d="M 79.2786578344484 96.59031103205396 l -13.467911832477576 -2.216139766892666 a34.64902650718331,34.64902650718331 0 0,0 0.10161269624577594,-0.5860750294224082 l 13.427884318739565 2.447007829235667" fill="#ffae10" stroke="none" /><path d="M 79.407916724674 95.88100663000787 l -19.6907626950274 -3.938704010977356 a41.080824803726856,41.080824803726856 0 0,0 0.1442568601071405,-0.6903212971838819 l 19.62024812409589 4.276141759446647" fill="#ffff18" stroke="none" /><path d="M 79.56144815229197 95.17655741523228 l -5.3849913830401235 -1.2708433038261298 a26.532917394855637,26.532917394855637 0 0,0 0.10842167954244285,-0.44239745152203136 l 5.362382176981383 1.3630965799562789" fill="#ff4006" stroke="none" /><path d="M 79.64726062577567 94.8264132398404 l -15.884154145695643 -4.037689869334215 a37.38930420747459,37.38930420747459 0 0,0 0.16346340150658567,-0.6206971606982055 l 15.812501263384332 4.309767534405204" fill="#ffd113" stroke="none" /><path d="M 79.73907114497095 94.47779374421319 l -18.380559242794465 -5.009703156340024 a40.05103891635625,40.05103891635625 0 0,0 0.18648814186766244,-0.6617806258775081 l 18.29185260885222 5.324491706120544" fill="#fff216" stroke="none" /><path d="M 79.94057633289273 93.78553927170692 l -2.4341477518737302 -0.754105195738338 a23.548283721289977,23.548283721289977 0 0,0 0.12293917994006737,-0.3851052301577089 l 2.420843856156406 0.7957794595874386" fill="#ff1602" stroke="none" /><path d="M 80.28708602549916 92.7611449362534 l -9.068680078753113 -3.3301449392259217 a30.660787943383582,30.660787943383582 0 0,0 0.18567197316527032,-0.4925169679782957 l 9.010177421773406 3.4853301873983624" fill="#ff790b" stroke="none" /><path d="M 80.41425534168474 92.42381321644754 l -6.755598247580785 -2.613210528943669 a28.24340920777631,28.24340920777631 0 0,0 0.1787960115978832,-0.45068274742601766 l 6.70974356101677 2.7287942935832694" fill="#ff5808" stroke="none" /><path d="M 81.46374523516351 90.13048839642627 l -3.967115570698313 -2.112265592723708 a25.494404508439516,25.494404508439516 0 0,0 0.2089990616626302,-0.38453473340433725 l 3.9302711594203323 2.180055159602665" fill="#ff3204" stroke="none" /><path d="M 81.63589988554816 89.8137432299009 l -4.273692911214343 -2.370545416266976 a25.88711946548763,25.88711946548763 0 0,0 0.21888993775125978,-0.38675754637773396 l 4.232369608441713 2.443559732743815" fill="#ff3705" stroke="none" /><line stroke="#e1ed5e" stroke-width="0.3" x1="26.387840678322718" x2="22.05771365940052" y1="57.49999999999999" y2="54.99999999999999" /><path d="M 25.521815274538284 56.99999999999999 a86.0,86.0 0 0,1 29.574782752854787,-30.34633250058573" fill="none" id="id95" stroke="none" /><text fill="#e1ed5e" style="font-size:6.75px; font-family:Arial;" text-anchor="middle"><textPath startOffset="21.40746469413373" xlink:href="#id95">November</textPath></text><path d="M 82.18462484594161 88.88188828441811 l -31.709447880753107 -19.789040698215263 a58.37773691193486,58.37773691193486 0 0,0 0.5378599664465546,-0.8456052034198437 l 31.36507022268066 20.33045957631378" fill="#41ff2d" stroke="none" /><path d="M 82.78059297857968 87.97951657250589 l -7.6568052878601405 -5.3450447483923 a30.33788897869958,30.33788897869958 0 0,0 0.3017679500059191,-0.42447441311905665 l 7.563922239324249 5.475696388220877" fill="#ff750a" stroke="none" /><path d="M 82.98947788004972 87.6856937992154 l -7.450816860044633 -5.393816816060564 a30.198256993971363,30.198256993971363 0 0,0 0.3075879134809188,-0.417302078606091 l 7.357126926979896 5.520925203935518" fill="#ff730a" stroke="none" /><path d="M 83.64595745247003 86.82634096563983 l -7.5302694658315374 -6.065852041867224 a30.669514942429096,30.669514942429096 0 0,0 0.3337911996428828,-0.4071709898744386 l 7.425031446950025 6.194225313440155" fill="#ff790b" stroke="none" /><path d="M 85.08716467003674 85.21462403516908 l -5.769730619611774 -5.720416979013685 a29.124836111373185,29.124836111373185 0 0,0 0.35505682711437003,-0.35202217161334787 l 5.670681872367428 5.8186191608557065" fill="#ff6409" stroke="none" /><path d="M 85.34317274990677 84.96080404539775 l -6.754872391466678 -6.931094145423178 a30.67824194147461,30.67824194147461 0 0,0 0.38030430774509355,-0.36432292398831967 l 6.634895597856285 7.046029199717066" fill="#ff790b" stroke="none" /><line stroke="#e1ed5e" stroke-width="0.3" x1="56.869717070023135" x2="54.33264160355391" y1="26.7553504044142" y2="22.446841604673864" /><path d="M 56.362301976729285 25.89364864446614 a86.0,86.0 0 0,1 42.16139366436587,-11.88097634709845" fill="none" id="id96" stroke="none" /><text fill="#e1ed5e" style="font-size:6.75px; font-family:Arial;" text-anchor="middle"><textPath startOffset="22.145653131862474" xlink:href="#id96">December</textPath></text><path d="M 89.34428304082924 81.90426304109057 l -2.772060107818979 -4.707564093301713 a26.46310140249153,26.46310140249153 0 0,0 0.39342759912532743,-0.22714553026163475 l 2.6908400408332516 4.754456520839521" fill="#ff3f05" stroke="none" /><path d="M 89.65649057296885 81.72400993836675 l -3.043314295383292 -5.377244755198689 a27.178715324223646,27.178715324223646 0 0,0 0.40801180782915714,-0.2263172719533079 l 2.9505582993980326 5.4286949425851425" fill="#ff4906" stroke="none" /><path d="M 89.97174638481275 81.54914285379989 l -3.667360598121849 -6.747530437111478 a28.67975916005199,28.67975916005199 0 0,0 0.43458191072744495,-0.23139038953889476 l 3.550989871607842 6.809491294372948" fill="#ff5e08" stroke="none" /><path d="M 90.28995756902619 81.37971332152246 l -2.606749383021212 -4.9987856547328695 a26.637641383401803,26.637641383401803 0 0,0 0.4072676917126701,-0.20795378528568464 l 2.5205544695949595 5.042797391691388" fill="#ff4206" stroke="none" /><path d="M 90.93487009805054 81.0573650232925 l -3.171989617213822 -6.628238328483974 a28.348133196322472,28.348133196322472 0 0,0 0.4407612109177446,-0.2062985020477234 l 3.057739692424555 6.68171306210224" fill="#ff5a08" stroke="none" /><path d="M 91.26138138417902 80.90454125486306 l -3.6060991859591254 -7.879977518607513 a29.66591005219503,29.66591005219503 0 0,0 0.46488825667943595,-0.20793860407281023 l 3.4702975264240705 7.940719873590169" fill="#ff6c09" stroke="none" /><path d="M 91.5904679813234 80.7573450057729 l -3.4982556132431957 -8.004693447596933 a29.735726044559136,29.735726044559136 0 0,0 0.4694916081293763,-0.20039804981372475 l 3.3603289299433885 8.063566147070063" fill="#ff6d0a" stroke="none" /><path d="M 92.592206182469 80.34994680014964 l -1.9117280831450905 -5.0710858675018455 a26.41946640726396,26.41946640726396 0 0,0 0.42574447808226146,-0.1563392695272993 l 1.824394453408702 5.103155986037867" fill="#ff3f05" stroke="none" /><path d="M 92.93061703081487 80.22567764915836 l -3.2609949167208683 -9.121583163449328 a30.686968940520124,30.686968940520124 0 0,0 0.4975588475086348,-0.17307679528734893 l 3.103930297167229 9.176218391305262" fill="#ff7a0b" stroke="none" /><path d="M 93.61358852112211 79.99465700312896 l -3.3546684522312704 -10.508451146567939 a32.03092679352922,32.03092679352922 0 0,0 0.5252452228169198,-0.16272231266901674 l 3.1737825965427344 10.564490047043599" fill="#ff8c0c" stroke="none" /><path d="M 93.95794788825049 79.88797359093562 l -1.288093727869006 -4.2876450902953875 a25.47695051034849,25.47695051034849 0 0,0 0.4199329206764761,-0.12223635304096316 l 1.2143007948109057 4.309125137638871" fill="#ff3104" stroke="none" /><path d="M 94.6519064749342 79.69241777938228 l -2.84259620315605 -10.79380078995476 a32.16183177921192,32.16183177921192 0 0,0 0.5351035135158317,-0.13602122062971322 l 2.6568873964148403 10.841007242419737" fill="#ff8d0d" stroke="none" /><path d="M 95.35216902796891 79.52079915486377 l -1.189807416060971 -5.242511009365982 a26.375831412036394,26.375831412036394 0 0,0 0.4424075769636784,-0.09642067228633402 l 1.0996374224781742 5.26216313978603" fill="#ff3e05" stroke="none" /><path d="M 96.05791012581881 79.37332000966035 l -2.750570945803257 -14.39214946909198 a35.65263139741738,35.65263139741738 0 0,0 0.6021309530557927,-0.10972831768415084 l 2.503105259196426 14.437245960707493" fill="#ffbb11" stroke="none" /><path d="M 97.12497278360702 79.19773525538626 l -1.55918664305428 -11.281497841183306 a32.38873375439528,32.38873375439528 0 0,0 0.551413839908122,-0.07139156126577882 l 1.365294981255364 11.306600998649479" fill="#ff900d" stroke="none" /><path d="M 97.48249496171623 79.15144685158666 l -1.1257144826289434 -9.32253078509336 a30.39025097297266,30.39025097297266 0 0,0 0.518463612617023,-0.05809492920534649 l 0.9655149684111213 9.340481474805678" fill="#ff760a" stroke="none" /><path d="M 97.84075906011542 79.11130261209362 l -1.2732952975607632 -12.317976963521616 a33.383611645583834,33.383611645583834 0 0,0 0.5705425140659579,-0.054030969272861905 l 1.0616532201097897 12.338019688299662" fill="#ff9d0e" stroke="none" /><path d="M 98.5590905019552 79.04949213459386 l -1.3359244800607721 -19.424048744962484 a40.4699348705409,40.4699348705409 0 0,0 0.69349212533308,-0.041718764167174086 l 1.0022880025952083 19.444119486954353" fill="#fff717" stroke="none" /><path d="M 99.63950707515114 79.00309439819443 l -0.18231943129869851 -10.619192845348243 a31.620757838390084,31.620757838390084 0 0,0 0.5428123561475481,-0.004659391236275135 l 2.6013354182607157e-15 10.620757838390084" fill="#ff860c" stroke="none" /></svg>