<?xml version="1.0" encoding="utf-8" ?>
<svg baseProfile="full" height="200mm" version="1.1" viewBox="0,0,200,200" width="200mm" xmlns="http://www.w3.org/2000/svg" xmlns:ev="http://www.w3.org/2001/xml-events" xmlns:xlink="http://www.w3.org/1999/xlink"><defs /><rect fill="#1a1a1a" height="200" width="200" x="0" y="0" /><rect fill="#1a1a1a" height="200" width="180" x="10" y="0" /><text alignment-baseline="middle" fill="#e1ed5e" style="dominant-baseline: central; font-size:9.0px; font-family:Arial;" text-anchor="middle" x="100.0" y="100.0">2026</text><line stroke="#e1ed5e" stroke-width="0.3" x1="100.0" x2="100.0" y1="15.0" y2="10.0" /><path d="M 100.0 14.0 a86.0,86.0 0 0,1 42.46469731375804,11.215312516191453" fill="none" id="id109" stroke="none" /><text fill="#e1ed5e" style="font-size:6.75px; font-family:Arial;" text-anchor="middle"><textPath startOffset="22.20632615414155" xlink:href="#id109">January</textPath></text><path d="M 100.0 79.0 l 0.0 -30.172202455468955 a51.172202455468955,51.172202455468955 0 0,0 0.8808453461444653,0.007581713987065944 l -0.519364866871937 30.16773211809045" fill="#baff1f" stroke="none" /><path d="M 100.36148047927253 79.00311137660856 l 0.4074425188842884 -23.666631201397845 a44.67013818779208,44.67013818779208 0 0,0 0.7686951496777454,0.019853127844580078 l -0.8147643037569016 23.656111281410904" fill="#ffed16" stroke="none" /><path d="M 100.72285384407766 79.0124445844662 l 0.9329641746340703 -27.087961800666083 a48.10402362501729,48.10402362501729 0 0,0 0.8272956729111989,0.03562509193823166 l -1.3991006799346006 27.067888982203655" fill="#e3ff1b" stroke="none" /><path d="M 101.08401301168833 79.027996857942 l 1.2076961960947712 -23.364856460259148 a44.396047689953434,44.396047689953434 0 0,0 0.7628466137172227,0.046016990983161414 l -1.6097048586516058 23.340606199895685" fill="#ffe915" stroke="none" /><path d="M 101.80526077348638 79.07773832637324 l 1.4626531764770536 -16.95157450129199 a38.01455942384378,38.01455942384378 0 0,0 0.6514516543512447,0.061863184228821984 l -1.7542299579185425 16.923885772547987" fill="#ff8c0c" stroke="none" /><path d="M 102.16513564639614 79.11191278185805 l 1.9931732184342024 -19.229084374836923 a40.332108663394195,40.332108663394195 0 0,0 0.6899350642645269,0.0775222433675251 l -2.3238749862084545 19.1919261779988" fill="#ffaf10" stroke="none" /><path d="M 102.88285421437855 79.19881850522331 l 2.416969669463202 -17.439600140415745 a38.60628851975038,38.60628851975038 0 0,0 0.6574669678658956,0.09689354052685267 l -2.7168056177577538 17.395412115727925" fill="#ff950d" stroke="none" /><path d="M 103.59715602781102 79.31037775812273 l 1.3936730711083594 -8.015935129579454 a29.136187106425133,29.136187106425133 0 0,0 0.4933795375001681,0.09016195687551694 l -1.5314477297114284 7.990757691353198" fill="#ff0000" stroke="none" /><path d="M 104.307194497241 79.44645832069477 l 5.0502048014928596 -24.09911949483596 a45.62259387155228,45.62259387155228 0 0,0 0.7672357604155883,0.16768802041609024 l -5.464283286061975 24.008617976323997" fill="#fffa17" stroke="none" /><path d="M 104.66035177308747 79.52364482259891 l 3.8481474771165254 -16.907743954327223 a38.34012816073535,38.34012816073535 0 0,0 0.642245186941324,0.15199868563924843 l -4.138616351020373 16.838999356547106" fill="#ff910d" stroke="none" /><path d="M 106.0581310904928 79.89281104454417 l 7.816114533034318 -25.942009089212604 a48.093901195256095,48.093901195256095 0 0,0 0.7906056274289465,0.24564501691316912 l -8.261505533173983 25.803623937416916" fill="#e3ff1b" stroke="none" /><path d="M 106.74666289553966 80.11325718540242 l 11.487324964226946 -33.86051455784418 a56.756021604140045,56.756021604140045 0 0,0 0.9224691214888869,0.3218313633314646 l -12.068476089779107 33.657762341340515" fill="#75ff27" stroke="none" /><path d="M 107.08798089147638 80.2323363322302 l 10.759909328055054 -30.008301651669306 a52.87904980964058,52.87904980964058 0 0,0 0.8541670615134458,0.3145969373677658 l -11.274858715341075 29.818641446495217" fill="#a5ff21" stroke="none" /><path d="M 107.76421540070413 80.48803036053334 l 18.278582446317003 -45.93524616958475 a70.43837999881427,70.43837999881427 0 0,0 1.1227077136031351,0.4579806658905901 l -19.066574029508526 45.61380461751058" fill="#3aff92" stroke="none" /><path d="M 108.09893153111575 80.62456947434976 l 10.221262422107747 -24.4527761696863 a47.50306525491665,47.50306525491665 0 0,0 0.7517161970931114,0.32184564512780434 l -10.640662376991173 24.273210996595704" fill="#ebff1a" stroke="none" /><path d="M 108.43124777332544 80.76684994638697 l 12.197491646997817 -27.82461071380324 a51.38071368242154,51.38071368242154 0 0,0 0.8069656256381521,0.36206195374045147 l -12.67463939110275 27.610528429546257" fill="#b8ff1f" stroke="none" /><path d="M 110.36928655335952 81.73862282372117 l 12.950478045979041 -22.807120142139453 a47.22745909914585,47.22745909914585 0 0,0 0.7034715963606135,0.4074961545617478 l -13.341146374804982 22.580819830187657" fill="#eeff19" stroke="none" /><line stroke="#e1ed5e" stroke-width="0.3" x1="143.23703022742887" x2="145.7803849466894" y1="26.81831364943548" y2="22.513508569990506" /><path d="M 143.74570117128098 25.957352633546492 a86.0,86.0 0 0,1 28.547481713284135,27.462654790039103" fill="none" id="id110" stroke="none" /><text fill="#e1ed5e" style="font-size:6.75px; font-family:Arial;" text-anchor="middle"><textPath startOffset="19.985693538727396" xlink:href="#id110">February</textPath></text><path d="M 110.68208982089419 81.91981866633111 l 15.5958790403186 -26.397111972919358 a51.6600548523823,51.6600548523823 0 0,0 0.7617101258845317,0.4589218280126604 l -16.04795123242077 26.124743535448083" fill="#b4ff20" stroke="none" /><path d="M 111.90073688211348 82.69761687909136 l 10.247784898393654 -14.899169875704354 a39.083206527296014,39.083206527296014 0 0,0 0.5510152579977784,0.38602140129279433 l -10.502731295975082 14.720563631647625" fill="#ff9c0e" stroke="none" /><path d="M 112.77801427241765 83.33499621200491 l 18.976347710817148 -24.748830275272958 a52.186637722526335,52.186637722526335 0 0,0 0.7081663241242293,0.5527350487270649 l -19.399546590100808 24.41851683732267" fill="#adff20" stroke="none" /><path d="M 115.19652480421416 85.50635884689758 l 19.216898858015863 -18.328061166083717 a47.55573436805914,47.55573436805914 0 0,0 0.5598729315941218,0.5972334074133604 l -19.529539111580448 17.994558341792303" fill="#eaff1a" stroke="none" /><path d="M 115.4437574822437 85.77008943001954 l 25.182538660630815 -23.203243995371984 a55.24252889759943,55.24252889759943 0 0,0 0.6383309974026153,0.7048610305853885 l -25.578213298649466 22.766330177517048" fill="#87ff25" stroke="none" /><path d="M 115.68641384162765 86.03803664274999 l 30.497180562043248 -27.144541882270218 a61.82773782898326,61.82773782898326 0 0,0 0.7007383171368421,0.801065031353756 l -30.959910742757938 26.615561294713515" fill="#3bff2e" stroke="none" /><path d="M 116.15771136456269 86.58626213691792 l 18.317068898855386 -15.206383817954118 a44.806493271045866,44.806493271045866 0 0,0 0.4875405370096295,0.597667050931812 l -18.576107927941425 14.888832597414204" fill="#ffee16" stroke="none" /><path d="M 116.38621287248628 86.86637796730983 l 44.589235470292046 -35.738469282108234 a78.14401199122568,78.14401199122568 0 0,0 0.8322185432311412,1.056833036787289 l -45.19780809411715 34.96564385136791" fill="#45ffed" stroke="none" /><path d="M 117.04232023915458 87.72973835380427 l 20.960234788928183 -15.09111209135461 a46.827758450179616,46.827758450179616 0 0,0 0.46535058244878896,0.6582053973027124 l -21.216897991180854 14.728080193720103" fill="#f4ff19" stroke="none" /><path d="M 117.2510076193507 88.02491185347247 l 33.54794499480011 -23.28789177491009 a61.83859102239032,61.83859102239032 0 0,0 0.5994678195083704,0.8796450546848253 l -33.94383727997722 22.70696869695486" fill="#3bff2e" stroke="none" /><path d="M 117.45458315368197 88.32363383020206 l 15.305759868877722 -10.2388957193925 a39.414702569315146,39.414702569315146 0 0,0 0.37238140981517937,0.5671624347685619 l -15.479737914050826 9.973915220646266" fill="#ffa10e" stroke="none" /><line stroke="#e1ed5e" stroke-width="0.3" x1="172.23445277983987" x2="176.4835382374775" y1="55.19839476539836" y2="52.563006222186495" /><path d="M 173.08426987136738 54.67131705675599 a86.0,86.0 0 0,1 12.851231095245387,41.99856678651699" fill="none" id="id111" stroke="none" /><text fill="#e1ed5e" style="font-size:6.75px; font-family:Arial;" text-anchor="middle"><textPath startOffset="22.20632615414155" xlink:href="#id111">March</textPath></text><path d="M 117.84615892207809 88.93136811851018 l 49.046235105912956 -30.41969557318828 a78.71387230839687,78.71387230839687 0 0,0 0.7042425267839643,1.1575895459283645 l -49.56259343098315 29.570938254052837" fill="#46fff4" stroke="none" /><path d="M 118.21658344932153 89.55222093294921 l 37.587735892559984 -21.557739481096178 a64.33098223054326,64.33098223054326 0 0,0 0.5426543776330006,0.9653215868064731 l -37.95324791148542 20.90753438435491" fill="#31ff43" stroke="none" /><path d="M 118.56541770881063 90.18545643968196 l 18.291120019319578 -9.669537039903105 a41.68973219080449,41.68973219080449 0 0,0 0.3299257249615592,0.6373114873766303 l -18.454855177441257 9.35325283026613" fill="#ffc212" stroke="none" /><path d="M 118.89224826269711 90.83032412892265 l 18.02568267364838 -8.749073438687345 a41.03675427524657,41.03675427524657 0 0,0 0.3029720238907744,0.6381363498132023 l -18.17361289138091 8.437494673233603" fill="#ffb911" stroke="none" /><path d="M 119.04729006885535 91.15688171328212 l 57.14187020656606 -26.529354860153646 a84.0,84.0 0 0,0 0.5975907321466121,1.3167119646317489 l -57.59006325567602 25.541820886679833" fill="#4dd2ff" stroke="none" /><path d="M 119.47837535516314 92.15188598940014 l 41.870613412326804 -16.870264678752513 a66.1414897611464,66.1414897611464 0 0,0 0.41639674127890586,1.059684287991095 l -42.15480370348741 16.147031385865635" fill="#34ff5b" stroke="none" /><path d="M 119.85752413597 93.16781622104841 l 19.72959391468608 -6.788168081087699 a41.86470948600809,41.86470948600809 0 0,0 0.2285867088154446,0.6834451642927104 l -19.843517917273296 6.447549813872675" fill="#ffc512" stroke="none" /><line stroke="#e1ed5e" stroke-width="0.3" x1="184.98032266829074" x2="189.97916517819016" y1="98.17113171792111" y2="98.06355123074" /><path d="M 185.9800911702706 98.14961562048488 a86.0,86.0 0 0,1 -9.607161424134198,41.387399972396054" fill="none" id="id112" stroke="none" /><text fill="#e1ed5e" style="font-size:6.75px; font-family:Arial;" text-anchor="middle"><textPath startOffset="21.466115282336823" xlink:href="#id112">April</textPath></text><line stroke="#e1ed5e" stroke-width="0.3" x1="174.80103733775053" x2="179.2010983576182" y1="140.37084112569926" y2="142.7455964860345" /><path d="M 175.68104954172406 140.8457921977663 a86.0,86.0 0 0,1 -30.038265399797805,32.042727171017184" fill="none" id="id113" stroke="none" /><text fill="#e1ed5e" style="font-size:6.75px; font-family:Arial;" text-anchor="middle"><textPath startOffset="22.206326154141568" xlink:href="#id113">May</textPath></text><line stroke="#e1ed5e" stroke-width="0.3" x1="143.8653032363475" x2="146.44561519142675" y1="172.8068346515853" y2="177.08958963109032" /><path d="M 144.38136562736335 173.6633856474863 a86.0,86.0 0 0,1 -40.68145358897372,12.25698825130547" fill="none" id="id114" stroke="none" /><text fill="#e1ed5e" style="font-size:6.75px; font-family:Arial;" text-anchor="middle"><textPath startOffset="21.466115282336833" xlink:href="#id114">June</textPath></text><line stroke="#e1ed5e" stroke-width="0.3" x1="102.19456741930631" x2="102.32365962044197" y1="184.97166512339345" y2="189.96999836594603" /><path d="M 102.22038585953345 185.97133177190398 a86.0,86.0 0 0,1 -42.740103519485714,-10.115201625700543" fill="none" id="id115" stroke="none" /><text fill="#e1ed5e" style="font-size:6.75px; font-family:Arial;" text-anchor="middle"><textPath startOffset="22.20632615414155" xlink:href="#id115">July</textPath></text><line stroke="#e1ed5e" stroke-width="0.3" x1="58.666819895761336" x2="56.23545636021788" y1="174.27360380694188" y2="178.64263932499728" /><path d="M 58.180547188652646 175.14741091055294 a86.0,86.0 0 0,1 -31.652253787137756,-30.449443065178592" fill="none" id="id116" stroke="none" /><text fill="#e1ed5e" style="font-size:6.75px; font-family:Arial;" text-anchor="middle"><textPath startOffset="22.20632615414155" xlink:href="#id116">August</textPath></text><line stroke="#e1ed5e" stroke-width="0.3" x1="26.63291911575756" x2="22.317208475507996" y1="142.92168965132927" y2="145.44649492493687" /><path d="M 25.769776987707644 143.4266507060508 a86.0,86.0 0 0,1 -11.730757126820373,-40.83630448921669" fill="none" id="id117" stroke="none" /><text fill="#e1ed5e" style="font-size:6.75px; font-family:Arial;" text-anchor="middle"><textPath startOffset="21.46611528233685" xlink:href="#id117">September</textPath></text><line stroke="#e1ed5e" stroke-width="0.3" x1="15.007084014347285" x2="10.007500721073583" y1="101.09737516637583" y2="101.16192664675087" /><path d="M 14.007167355692545 101.11028546245083 a86.0,86.0 0 0,1 10.666146001902534,-42.60595125391555" fill="none" id="id118" stroke="none" /><text fill="#e1ed5e" style="font-size:6.75px; font-family:Arial;" text-anchor="middle"><textPath startOffset="22.20632615414155" xlink:href="#id118">October</textPath></text><line stroke="#e1ed5e" stroke-width="0.3" x1="26.266209847984243" x2="21.928928074336255" y1="57.711370442889674" y2="55.22380399835377" /><path d="M 25.398753493254645 57.213857153982495 a86.0,86.0 0 0,1 29.58750427330803,-30.492523968695096" fill="none" id="id119" stroke="none" /><text fill="#e1ed5e" style="font-size:6.75px; font-family:Arial;" text-anchor="middle"><textPath startOffset="21.46611528233685" xlink:href="#id119">November</textPath></text><line stroke="#e1ed5e" stroke-width="0.3" x1="56.762969772571076" x2="54.21961505331055" y1="26.818313649435495" y2="22.513508569990535" /><path d="M 56.25429882871897 25.957352633546506 a86.0,86.0 0 0,1 42.265352541879196,-11.944610805530505" fill="none" id="id120" stroke="none" /><text fill="#e1ed5e" style="font-size:6.75px; font-family:Arial;" text-anchor="middle"><textPath startOffset="22.20632615414155" xlink:href="#id120">December</textPath></text></svg>