<?xml version="1.0" encoding="utf-8" ?>
<svg baseProfile="full" height="200mm" version="1.1" viewBox="0,0,200,200" width="200mm" xmlns="http://www.w3.org/2000/svg" xmlns:ev="http://www.w3.org/2001/xml-events" xmlns:xlink="http://www.w3.org/1999/xlink"><defs /><rect fill="#1a1a1a" height="200" width="200" x="0" y="0" /><rect fill="#1a1a1a" height="200" width="180" x="10" y="0" /><text alignment-baseline="middle" fill="#e1ed5e" style="dominant-baseline: central; font-size:9.0px; font-family:Arial;" text-anchor="middle" x="100.0" y="100.0">2020</text><line stroke="#e1ed5e" stroke-width="0.3" x1="100.0" x2="100.0" y1="15.0" y2="10.0" /><path d="M 100.0 14.0 a86.0,86.0 0 0,1 42.35913384403234,11.155469271406648" fill="none" id="id37" stroke="none" /><text fill="#e1ed5e" style="font-size:6.75px; font-family:Arial;" text-anchor="middle"><textPath startOffset="22.145653131862478" xlink:href="#id37">January</textPath></text><path d="M 103.94208987418118 79.37332000966035 l 10.185391766493936 -53.29427365918426 a75.25884084918313,75.25884084918313 0 0,0 1.26686974928822,0.25340943061426674 l -11.098758001313113 53.11157483190714" fill="#42ffd5" stroke="none" /><line stroke="#e1ed5e" stroke-width="0.3" x1="143.13028292997686" x2="145.6673583964461" y1="26.7553504044142" y2="22.446841604673864" /><path d="M 143.63769802327073 25.89364864446614 a86.0,86.0 0 0,1 29.32050498858742,28.57503671076993" fill="none" id="id38" stroke="none" /><text fill="#e1ed5e" style="font-size:6.75px; font-family:Arial;" text-anchor="middle"><textPath startOffset="20.669276256404974" xlink:href="#id38">February</textPath></text><path d="M 115.16444852881244 85.47280134310134 l 19.391397696102736 -18.576520341704256 a47.85355493438756,47.85355493438756 0 0,0 0.5631774731912046,0.5980749602164417 l -19.7074310030302 18.24090392154332" fill="#bdff1f" stroke="none" /><path d="M 115.41159269507618 85.73525988315684 l 9.868227107950677 -9.133883687042724 a34.44655113635157,34.44655113635157 0 0,0 0.397943452559368,0.43740956379505463 l -10.023568261351922 8.963136547689997" fill="#ff960d" stroke="none" /><path d="M 115.8921839302757 86.27271002978787 l 20.38831612448063 -17.61094187388011 a47.941208363340735,47.941208363340735 0 0,0 0.5326164068193188,0.6274207879882562 l -20.687627094807063 17.258354303442303" fill="#bcff1f" stroke="none" /><path d="M 116.57777611688842 87.10902102172516 l 21.214308089807755 -16.496374284229855 a47.873355433489934,47.873355433489934 0 0,0 0.4989042463825584,0.6530816735562314 l -21.494364313544622 16.129771697432744" fill="#bdff1f" stroke="none" /><path d="M 116.7966241395341 87.39550010848427 l 10.850317199164616 -8.14228030726031 a34.56562243041161,34.56562243041161 0 0,0 0.35207222998538357,0.4776535974047478 l -10.988491448733825 7.954820400586687" fill="#ff980e" stroke="none" /><path d="M 117.01052211995028 87.68569379921539 l 11.100915855178059 -8.036207000929311 a34.70441373374027,34.70441373374027 0 0,0 0.3452013353975151,0.4855689089842068 l -11.237232289105535 7.844460865235599" fill="#ff9a0e" stroke="none" /><path d="M 117.42321728460499 88.27688183743584 l 22.84287098435769 -15.369703043217521 a48.53224521256304,48.53224521256304 0 0,0 0.45915100228775957,0.6952131385391357 l -23.103346425566173 14.975310026339326" fill="#b5ff1f" stroke="none" /><line stroke="#e1ed5e" stroke-width="0.3" x1="172.87174338648825" x2="177.1583165268699" y1="56.24261187166439" y2="53.66864786411523" /><path d="M 173.72905801456457 55.72781907015455 a86.0,86.0 0 0,1 12.242430191666344,42.057860355516425" fill="none" id="id39" stroke="none" /><text fill="#e1ed5e" style="font-size:6.75px; font-family:Arial;" text-anchor="middle"><textPath startOffset="22.145653131862474" xlink:href="#id39">March</textPath></text><path d="M 118.00360718960297 89.18935116829356 l 46.12741391840916 -27.698186709753823 a74.80453384064052,74.80453384064052 0 0,0 0.6516055162352671,1.1065686211400045 l -46.596093144774194 26.902266920320265" fill="#41ffd0" stroke="none" /><path d="M 119.0197475246899 91.09779779509293 l 53.6690920308471 -25.11984498175706 a80.25688188998001,80.25688188998001 0 0,0 0.5733228136090611,1.2528138160300106 l -54.092399309311205 24.19484218351236" fill="#48f6ff" stroke="none" /><path d="M 119.71291397450082 92.76114493625339 l 25.379546590320473 -9.31972105131588 a48.036615646278435,48.036615646278435 0 0,0 0.27760550030937176,0.7765119916989068 l -25.535792260673787 8.882674103236056" fill="#bbff1f" stroke="none" /><path d="M 119.94978838288452 93.4421083053983 l 57.9490373926496 -19.048999605101187 a81.99963377504693,81.99963377504693 0 0,0 0.42809776928990917,1.341010164967464 l -58.267499877716766 18.051420406442336" fill="#4ae5ff" stroke="none" /><path d="M 120.16314734710363 94.1308016681162 l 57.3849366157161 -16.703918711807614 a80.76664496791192,80.76664496791192 0 0,0 0.3760706826209189,1.334542181752572 l -57.6632257904116 15.716368606152027" fill="#49f1ff" stroke="none" /><path d="M 120.592083275326 95.88100663000786 l 31.614791552599947 -6.323843734396563 a53.24106146657414,53.24106146657414 0 0,0 0.1715723824893646,0.8977392047722638 l -31.718690227371468 5.780201964590985" fill="#80ff26" stroke="none" /><path d="M 120.82617615685814 97.30363454192243 l 26.672015949970998 -3.453226457085985 a47.89463157954438,47.89463157954438 0 0,0 0.09856695505856848,0.81627578494012 l -26.727364991289228 2.994856995222452" fill="#bdff1f" stroke="none" /><line stroke="#e1ed5e" stroke-width="0.3" x1="184.99686870605535" x2="189.99668451229388" y1="99.2704041080226" y2="99.22748670261217" /><path d="M 185.99683186730306 99.26182062694052 a86.0,86.0 0 0,1 -10.086455211305974,41.156179273409016" fill="none" id="id40" stroke="none" /><text fill="#e1ed5e" style="font-size:6.75px; font-family:Arial;" text-anchor="middle"><textPath startOffset="21.40746469413373" xlink:href="#id40">April</textPath></text><path d="M 120.99922638620191 99.81974689727618 l 62.99767915860572 -0.5407593081714844 a84.0,84.0 0 0,0 0.0,1.442024821790615 l -62.99767915860572 -0.5407593081714768" fill="#4dd2ff" stroke="none" /><path d="M 120.99922638620191 100.18025310272382 l 26.91129426805426 0.23100109503643707 a47.9122856830801,47.9122856830801 0 0,0 -0.014119450343518278,0.8223871970208165 l -26.903363386112073 -0.6929352080263246" fill="#bcff1f" stroke="none" /><path d="M 120.96210409425399 101.26102812881392 l 50.48989055745233 3.0373464384778046 a71.58116766041337,71.58116766041337 0 0,0 -0.08431593062370957,1.2259351264656246 l -50.430310665663555 -3.903624989097773" fill="#3dffad" stroke="none" /><path d="M 120.93736805541906 101.62068470465957 l 26.81005881440953 2.0752681108975874 a47.89025829857732,47.89025829857732 0 0,0 -0.07048163771802289,0.8191034674567732 l -26.770483553993767 -2.535192625730018" fill="#bdff1f" stroke="none" /><path d="M 120.82617615685814 102.69636545807757 l 26.633461154471437 3.4482347669146725 a47.85575498984339,47.85575498984339 0 0,0 -0.11247352014948248,0.8138023631802473 l -26.570343117766747 -3.904925438295005" fill="#bdff1f" stroke="none" /><path d="M 120.7213421655516 103.40968896794604 l 26.521235668566995 4.3640592367488935 a47.87788969412449,47.87788969412449 0 0,0 -0.1404080273761586,0.8098361899244093 l -26.4424128236986 -4.818688459593891" fill="#bdff1f" stroke="none" /><path d="M 120.592083275326 104.11899336999214 l 26.415334055422303 5.283806615661104 a47.93860585871617,47.93860585871617 0 0,0 -0.16833821599572682,0.8055593026597068 l -26.320738128602212 -5.73648236960622" fill="#bcff1f" stroke="none" /><path d="M 120.16314734710363 105.8691983318838 l 12.997363598109466 3.7833431178029455 a34.5368070699293,34.5368070699293 0 0,0 -0.17058498688655846,0.5678219415851731 l -12.930502291219277 -4.005902662978842" fill="#ff980e" stroke="none" /><path d="M 120.05942366710727 106.21446072829308 l 12.930502291219277 4.005902662978842 a34.5368070699293,34.5368070699293 0 0,0 -0.18030726948846731,0.5648099535828608 l -12.859830305953555 -4.2272816502530866" fill="#ff980e" stroke="none" /><path d="M 119.0197475246899 108.90220220490707 l 24.337800836186087 11.391319678940766 a47.87174563681495,47.87174563681495 0 0,0 -0.35475412279788043,0.7412996754957929 l -24.138667455428294 -11.807431856501662" fill="#bdff1f" stroke="none" /><path d="M 118.8641267826498 109.22738970284198 l 24.138667455428294 11.807431856501662 a47.87174563681495,47.87174563681495 0 0,0 -0.36742724364036705,0.7351006170335723 l -23.932420298576194 -12.22006432969898" fill="#bdff1f" stroke="none" /><line stroke="#e1ed5e" stroke-width="0.3" x1="174.33088141563837" x2="178.70328620479359" y1="141.23008692659167" y2="143.65538615756765" /><path d="M 175.20536237346943 141.71514677278685 a86.0,86.0 0 0,1 -30.301960400862466,31.631185727798858" fill="none" id="id41" stroke="none" /><text fill="#e1ed5e" style="font-size:6.75px; font-family:Arial;" text-anchor="middle"><textPath startOffset="22.145653131862474" xlink:href="#id41">May</textPath></text><path d="M 118.18653347947321 110.5 l 7.051343904157739 4.071095301214095 a29.142190602428194,29.142190602428194 0 0,0 -0.25385108598063844,0.4310946411433819 l -6.980419108047335 -4.191541110651026" fill="#ff4c07" stroke="none" /><path d="M 117.423217284605 111.72311816256416 l 22.289126540317994 14.997119068438257 a47.86482351111249,47.86482351111249 0 0,0 -0.46454010843276566,0.6777779011527405 l -22.028396695069908 -15.377531704661042" fill="#bdff1f" stroke="none" /><path d="M 115.89218393027572 113.72728997021213 l 20.773343056462235 17.94351896742755 a48.44998460247109,48.44998460247109 0 0,0 -0.5490742993697623,0.6247457605038602 l -20.462257693133886 -18.297477005742703" fill="#b6ff1f" stroke="none" /><path d="M 115.6541949942343 113.99807769240083 l 20.462257693133886 18.297477005742703 a48.44998460247109,48.44998460247109 0 0,0 -0.559717983749286,0.6152281122994483 l -20.14514200854272 -18.646042693599824" fill="#b6ff1f" stroke="none" /><path d="M 111.27062007382361 117.71928675628689 l 8.139305048900663 12.796339439506667 a36.16557251573885,36.16557251573885 0 0,0 -0.5267013989604635,0.3287006276183676 l -7.918439521150486 -12.934175863966583" fill="#ffae10" stroke="none" /><path d="M 110.96478420261333 117.91015095944535 l 21.965457719540762 35.878924416636124 a63.068736017660676,63.068736017660676 0 0,0 -0.9282133518278619,0.5573654480368364 l -21.346311611155464 -36.250703865208884" fill="#32ff4a" stroke="none" /><line stroke="#e1ed5e" stroke-width="0.3" x1="143.1302829299769" x2="145.66735839644613" y1="173.24464959558577" y2="177.55315839532614" /><path d="M 143.63769802327073 174.10635135553383 a86.0,86.0 0 0,1 -40.68552437913181,11.842963189579606" fill="none" id="id42" stroke="none" /><text fill="#e1ed5e" style="font-size:6.75px; font-family:Arial;" text-anchor="middle"><textPath startOffset="21.407464694133747" xlink:href="#id42">June</textPath></text><path d="M 110.65571695917076 118.09573695890943 l 13.670307685539308 23.215171064765983 a47.94107421361782,47.94107421361782 0 0,0 -0.7127411651597668,0.41150130356752046 l -13.269774052519143 -23.446419265609677" fill="#bcff1f" stroke="none" /><path d="M 108.07796709384702 119.3841803445677 l 10.332401612473536 24.794002491201773 a47.860772189480436,47.860772189480436 0 0,0 -0.7610900646027432,0.30952870348985223 l -9.905257086680352 -24.96771845127092" fill="#bdff1f" stroke="none" /><path d="M 107.74402155503746 119.51999308798841 l 9.905257086680352 24.96771845127092 a47.860772189480436,47.860772189480436 0 0,0 -0.766291388027696,0.2964179707030277 l -9.475193436159127 -25.134076310111986" fill="#bdff1f" stroke="none" /><path d="M 104.29559338865022 120.5559693870025 l 5.592793750586865 26.763542710686483 a48.341663452748136,48.341663452748136 0 0,0 -0.813759425039337,0.16277467566974857 l -5.132537840016569 -26.855606783019095" fill="#b7ff1f" stroke="none" /><path d="M 103.94208987418118 120.62667999033965 l 1.9022679350199216 9.953469657941346 a31.133616409168248,31.133616409168248 0 0,0 -0.525810112346516,0.09582011812595265 l -1.7311230891223484 -9.984657949998661" fill="#ff6809" stroke="none" /><path d="M 103.58742460773223 120.69131181640829 l 4.608670983342936 26.58158952526742 a47.97815319703174,47.97815319703174 0 0,0 -0.812709926388112,0.13373110911476177 l -4.151683553901752 -26.656786632877854" fill="#bcff1f" stroke="none" /><path d="M 103.2317021107853 120.74984581791261 l 4.14219539766991 26.5958658635254 a47.916497984379646,47.916497984379646 0 0,0 -0.8138386599156268,0.11960625693416406 l -3.6850316321465977 -26.663053193758447" fill="#bcff1f" stroke="none" /><path d="M 102.15924093988457 120.88869738790638 l 5.858176359404358 56.67254216804849 a77.97451418000085,77.97451418000085 0 0,0 -1.3326231992401725,0.1262008024911614 l -4.884453596779171 -56.764754726044835" fill="#45fff1" stroke="none" /><path d="M 101.08105385017728 120.97215588758144 l 1.3822895059575957 26.816047133967142 a47.85165000832217,47.85165000832217 0 0,0 -0.8207110307496545,0.035244862962610014 l -0.9217527146071116 -26.835824565355583" fill="#bdff1f" stroke="none" /><line stroke="#e1ed5e" stroke-width="0.3" x1="101.45913802915013" x2="101.54496967792366" y1="184.9874750549273" y2="189.98673829345242" /><path d="M 101.47630435890484 185.9873277026323 a86.0,86.0 0 0,1 -42.54439059252881,-10.42667462771756" fill="none" id="id43" stroke="none" /><text fill="#e1ed5e" style="font-size:6.75px; font-family:Arial;" text-anchor="middle"><textPath startOffset="22.145653131862474" xlink:href="#id43">July</textPath></text><path d="M 100.36049292484886 120.99690560180557 l 0.3025103853817614 17.619713363555753 a38.62231005138455,38.62231005138455 0 0,0 -0.6630033102306115,0.005691086023233794 l -2.158110559801032e-15 -17.622310051384552" fill="#ffce13" stroke="none" /><path d="M 96.41257539226777 120.69131181640829 l -6.613126884772729 38.1427585012872 a59.711800181360985,59.711800181360985 0 0,0 -1.0084619772127823,-0.18377536588413115 l 7.266923595536568 -38.0236149614717" fill="#3bff2e" stroke="none" /><path d="M 93.61358852112213 120.00534299687104 l -4.425157833077675 13.861743885247446 a35.55094379715088,35.55094379715088 0 0,0 -0.5797804716993888,-0.19058535695103634 l 4.662461042424807 -13.783737606894388" fill="#ffa50f" stroke="none" /><path d="M 93.27111125876986 119.89276391827306 l -4.662463717342989 13.783745514814692 a35.55095214522795,35.55095214522795 0 0,0 -0.5764235239882747,-0.20051002360761097 l 4.898393013376286 -13.701677058638492" fill="#ffa50f" stroke="none" /><path d="M 92.93061703081489 119.77432235084164 l -11.53900530569526 32.27665151506032 a55.27726471685728,55.27726471685728 0 0,0 -0.8907821927176912,-0.3271075597849579 l 12.09137665006707 -32.07381310626664" fill="#69ff28" stroke="none" /><path d="M 92.59220618246901 119.65005319985036 l -5.82379294130347 15.448302685031836 a37.509591759687396,37.509591759687396 0 0,0 -0.600560246292909,-0.23230960476958926 l 6.0881254500899065 -15.346053192124206" fill="#ffc011" stroke="none" /><path d="M 91.59046798132341 119.24265499422711 l -11.837545886071156 27.086621581095585 a50.56032072360368,50.56032072360368 0 0,0 -0.7923201855932595,-0.35439474110996144 l 12.30077947452005 -26.879423089075768" fill="#9eff22" stroke="none" /><path d="M 90.93487009805054 118.94263497670748 l -7.091950964917323 14.819449898037012 a37.42899460615959,37.42899460615959 0 0,0 -0.5771902992204796,-0.2823326987234799 l 7.345301513399871 -14.695523449216312" fill="#ffbe11" stroke="none" /><line stroke="#e1ed5e" stroke-width="0.3" x1="58.13341422392154" x2="55.67067388415222" y1="173.97424548756322" y2="178.32567169271397" /><path d="M 57.64086615596768 174.84453072859336 a86.0,86.0 0 0,1 -31.369924170532247,-30.572349798747897" fill="none" id="id44" stroke="none" /><text fill="#e1ed5e" style="font-size:6.75px; font-family:Arial;" text-anchor="middle"><textPath startOffset="22.145653131862474" xlink:href="#id44">August</textPath></text><path d="M 87.83215693770417 117.11559508785305 l -6.307194472122387 8.871858896643555 a31.885337954842036,31.885337954842036 0 0,0 -0.44338686540276145,-0.3209778975315584 l 6.458562347899102 -8.762280227738932" fill="#ff730a" stroke="none" /><path d="M 84.58840730492382 114.26474011684316 l -17.48347908318607 16.182447226209906 a44.82317441235054,44.82317441235054 0 0,0 -0.5178192937143649,-0.5691741123808868 l 17.758696077742314 -15.879935538271344" fill="#e1ff1b" stroke="none" /><path d="M 83.8745106332314 113.45245675266167 l -21.004365161002113 17.522588463441906 a48.35369193136215,48.35369193136215 0 0,0 -0.526256671069915,-0.6419475705675072 l 21.30206865131066 -17.159438611175904" fill="#b7ff1f" stroke="none" /><path d="M 83.20337586046588 112.60449989151573 l -10.739563983645125 8.059169029577145 a34.427153086417945,34.427153086417945 0 0,0 -0.3506618341268142,-0.47574012454823356 l 10.87632783735577 -7.873622595760032" fill="#ff960d" stroke="none" /><path d="M 82.98947788004972 112.3143062007846 l -10.87632783735577 7.873622595760032 a34.427153086417945,34.427153086417945 0 0,0 -0.3424434514452559,-0.4816895998260847 l 11.009886387330987 -7.685755769224443" fill="#ff960d" stroke="none" /><path d="M 82.78059297857968 112.02048342749411 l -17.618295396867165 12.298938492788416 a42.486465990028776,42.486465990028776 0 0,0 -0.4123418007245004,-0.6016190102410559 l 17.82682693440699 -11.994684747477308" fill="#feff18" stroke="none" /><path d="M 82.576782715395 111.72311816256416 l -17.82682693440699 11.994684747477308 a42.486465990028776,42.486465990028776 0 0,0 -0.40195345089735385,-0.6086087556220858 l 18.03010482422507 -11.68689611351616" fill="#feff18" stroke="none" /><path d="M 81.99639281039703 110.81064883170644 l -11.184118517256358 6.715741823786717 a34.04552395466716,34.04552395466716 0 0,0 -0.29656292303406206,-0.5036286781595719 l 11.29775515042019 -6.5227619773335865" fill="#ff910d" stroke="none" /><line stroke="#e1ed5e" stroke-width="0.3" x1="26.387840678322732" x2="22.057713659400548" y1="142.50000000000003" y2="145.00000000000006" /><path d="M 25.521815274538298 143.00000000000003 a86.0,86.0 0 0,1 -11.493303480769221,-40.785679425670985" fill="none" id="id45" stroke="none" /><text fill="#e1ed5e" style="font-size:6.75px; font-family:Arial;" text-anchor="middle"><textPath startOffset="21.40746469413373" xlink:href="#id45">September</textPath></text><path d="M 81.81346652052679 110.50000000000001 l -11.29775515042019 6.5227619773335865 a34.04552395466716,34.04552395466716 0 0,0 -0.2878737678435383,-0.5086453642478573 l 11.408062283285108 -6.327859842986607" fill="#ff910d" stroke="none" /><path d="M 81.63589988554817 110.18625677009913 l -9.130461875762123 5.064513290412878 a31.44100708425745,31.44100708425745 0 0,0 -0.2577483610634422,-0.47422795355380076 l 9.216055586440895 -4.90703050338449" fill="#ff6d0a" stroke="none" /><path d="M 81.4637452351635 109.86951160357371 l -9.216055586440895 4.90703050338449 a31.44100708425745,31.44100708425745 0 0,0 -0.24956962782129405,-0.4785826683362302 l 9.298933283237139 -4.748101591943757" fill="#ff6d0a" stroke="none" /><path d="M 81.29705330413844 109.54985784667822 l -10.402126488567896 5.311399903148441 a32.67969196577252,32.67969196577252 0 0,0 -0.25082455177413887,-0.5018171242544279 l 10.491770953553772 -5.132050922730261" fill="#ff7e0b" stroke="none" /><path d="M 81.1358732173502 109.22738970284198 l -10.491770953553772 5.132050922730261 a32.67969196577252,32.67969196577252 0 0,0 -0.24217323396928678,-0.5060489173158412 l 10.57832344548297 -4.9511895033493145" fill="#ff7e0b" stroke="none" /><path d="M 80.5471966667186 107.91128576633889 l -4.875829109745946 1.9829572516696545 a26.263632678046143,26.263632678046143 0 0,0 -0.16626295849630707,-0.41909126641380134 l 4.909150743208377 -1.898964968042288" fill="#ff2203" stroke="none" /><path d="M 80.41425534168474 107.57618678355246 l -4.909150743208377 1.898964968042288 a26.263632678046143,26.263632678046143 0 0,0 -0.1590442003912363,-0.4218836371254553 l 4.941025627414049 -1.8144130507226877" fill="#ff2203" stroke="none" /><path d="M 79.83685265289637 105.86919833188381 l -11.281284283541055 3.2838174397399964 a32.74950348157789,32.74950348157789 0 0,0 -0.15249027782084001,-0.5411342002008944 l 11.33599305343647 -3.0896753156361063" fill="#ff7f0b" stroke="none" /><path d="M 79.73907114497094 105.5222062557868 l -25.971739211842415 7.078713013381925 a47.919127318948796,47.919127318948796 0 0,0 -0.20949904564461003,-0.795501999848923 l 26.089427738291757 -6.6318305091602" fill="#bcff1f" stroke="none" /><path d="M 79.64726062577567 105.17358676015961 l -19.0646149547737 4.846150569906614 a40.6709104700313,40.6709104700313 0 0,0 -0.16619387744132194,-0.6781277337603294 l 19.144996358731312 -4.518167011538185" fill="#ffe915" stroke="none" /><path d="M 79.56144815229197 104.8234425847677 l -4.380941915382124 1.0338903633437988 a25.501286632660396,25.501286632660396 0 0,0 -0.09689169950433198,-0.4269227057344313 l 4.398044476444122 -0.9585333236703412" fill="#ff1702" stroke="none" /><path d="M 79.48165901384964 104.47187691870673 l -7.367604652202232 1.605735142650097 a28.540555925095543,28.540555925095543 0 0,0 -0.10022123467912984,-0.47959488843499803 l 7.394083597705729 -1.4790238029296898" fill="#ff4306" stroke="none" /><path d="M 79.17382384314188 102.69636545807758 l -11.169502528913512 1.446115723598878 a32.26272779700572,32.26272779700572 0 0,0 -0.06639656128376285,-0.5498587751546454 l 11.192681176456935 -1.2541632715208333" fill="#ff780b" stroke="none" /><path d="M 79.13060592940153 102.33845913500099 l -11.192681176456935 1.2541632715208333 a32.26272779700572,32.26272779700572 0 0,0 -0.05694772054525001,-0.5509175374677625 l 11.212561289483851 -1.0618412117701395" fill="#ff780b" stroke="none" /><path d="M 79.06263194458094 101.62068470465958 l -13.603326601104095 1.052983512375709 a34.64401952848358,34.64401952848358 0 0,0 -0.04080741964070375,-0.5933309255783079 l 13.619397981909865 -0.8193091626430578" fill="#ff990e" stroke="none" /><line stroke="#e1ed5e" stroke-width="0.3" x1="15.003131293944662" x2="10.003315487706104" y1="100.72959589197737" y2="100.7725132973878" /><path d="M 14.003168132696942 100.73817937305945 a86.0,86.0 0 0,1 10.791469493833604,-42.45332614584628" fill="none" id="id46" stroke="none" /><text fill="#e1ed5e" style="font-size:6.75px; font-family:Arial;" text-anchor="middle"><textPath startOffset="22.145653131862435" xlink:href="#id46">October</textPath></text><path d="M 79.22317932658666 96.9465228501225 l -3.5079493364374583 -0.5155477495864597 a24.54563083655302,24.54563083655302 0 0,0 0.06484547492080427,-0.41635446599657217 l 3.4985823693783864 0.5756903975144818" fill="#ff0801" stroke="none" /><path d="M 79.2786578344484 96.59031103205396 l -3.4985823693783864 -0.5756903975144818 a24.54563083655302,24.54563083655302 0 0,0 0.07198319784939804,-0.41517995640489397 l 3.488184354036754 0.6356633868399685" fill="#ff0801" stroke="none" /><path d="M 79.34024301695615 96.23510406497455 l -6.345575154493004 -1.156375175378726 a27.450079657457813,27.450079657457813 0 0,0 0.08845946036048792,-0.4628572760160478 l 6.324789401850357 1.2651350164280883" fill="#ff3304" stroke="none" /><path d="M 79.407916724674 95.88100663000787 l -6.324789401850357 -1.2651350164280883 a27.450079657457813,27.450079657457813 0 0,0 0.09639198628544858,-0.4612705486677102 l 6.302139704740542 1.3735220163812076" fill="#ff3304" stroke="none" /><path d="M 79.48165901384962 95.52812308129327 l -7.529348543695162 -1.6409864709907847 a28.706096683173605,28.706096683173605 0 0,0 0.10906832011394695,-0.4805751428776741 l 7.500069362023553 1.769995947807467" fill="#ff4606" stroke="none" /><path d="M 79.56144815229197 95.17655741523228 l -7.500069362023553 -1.769995947807467 a28.706096683173605,28.706096683173605 0 0,0 0.11730196002121025,-0.47863202627854623 l 7.468579875486045 1.898483798694131" fill="#ff4606" stroke="none" /><path d="M 79.94057633289273 93.78553927170692 l -3.1750068623804255 -0.9836252419693541 a24.32388134457325,24.32388134457325 0 0,0 0.12698836402916952,-0.3977892416448915 l 3.157653782573999 1.0379835173056373" fill="#ff0500" stroke="none" /><path d="M 80.05021161711548 93.44210830539832 l -3.157653782573999 -1.0379835173056373 a24.32388134457325,24.32388134457325 0 0,0 0.13379823329724738,-0.39555070235528295 l 3.1393701277043866 1.0920358941350818" fill="#ff0500" stroke="none" /><path d="M 80.28708602549916 92.7611449362534 l -3.704113271150531 -1.3602017004813707 a24.945960439678267,24.945960439678267 0 0,0 0.15106479670028655,-0.40071732082502354 l 3.6802177906358082 1.4235873015005391" fill="#ff0e01" stroke="none" /><path d="M 80.41425534168474 92.42381321644754 l -3.6802177906358082 -1.4235873015005391 a24.945960439678267,24.945960439678267 0 0,0 0.15792138262349026,-0.3980650460936377 l 3.655237733046187 1.4865533648077596" fill="#ff0e01" stroke="none" /><line stroke="#e1ed5e" stroke-width="0.3" x1="26.387840678322718" x2="22.05771365940052" y1="57.49999999999999" y2="54.99999999999999" /><path d="M 25.521815274538284 56.99999999999999 a86.0,86.0 0 0,1 29.574782752854787,-30.34633250058573" fill="none" id="id47" stroke="none" /><text fill="#e1ed5e" style="font-size:6.75px; font-family:Arial;" text-anchor="middle"><textPath startOffset="21.40746469413373" xlink:href="#id47">November</textPath></text><path d="M 82.576782715395 88.27688183743585 l -2.477536697104616 -1.6669972587617183 a23.9861460021605,23.9861460021605 0 0,0 0.23279155854698336,-0.3396498409800612 l 2.4485554017423192 1.7092818348118142" fill="#ff0000" stroke="none" /><path d="M 82.78059297857968 87.97951657250589 l -2.4485554017423192 -1.7092818348118142 a23.9861460021605,23.9861460021605 0 0,0 0.23858779734795213,-0.33560361613834044 l 2.4188525058643946 1.751062677659675" fill="#ff0000" stroke="none" /><path d="M 84.10781606972428 86.27271002978789 l -6.313077247972923 -5.4530857664047625 a29.34212734946186,29.34212734946186 0 0,0 0.33252865090904343,-0.37835656329197764 l 6.218537533105287 5.560654607508041" fill="#ff4f07" stroke="none" /><line stroke="#e1ed5e" stroke-width="0.3" x1="56.869717070023135" x2="54.33264160355391" y1="26.7553504044142" y2="22.446841604673864" /><path d="M 56.362301976729285 25.89364864446614 a86.0,86.0 0 0,1 42.16139366436587,-11.88097634709845" fill="none" id="id48" stroke="none" /><text fill="#e1ed5e" style="font-size:6.75px; font-family:Arial;" text-anchor="middle"><textPath startOffset="22.145653131862474" xlink:href="#id48">December</textPath></text><path d="M 89.97174638481275 81.54914285379989 l -1.8469515377325727 -3.398182802940808 a24.867670661384622,24.867670661384622 0 0,0 0.3768176633232844,-0.20063418138035374 l 1.7883450586227265 3.4293874520437373" fill="#ff0d01" stroke="none" /><path d="M 90.28995756902619 81.37971332152246 l -1.7883450586227265 -3.4293874520437373 a24.867670661384622,24.867670661384622 0 0,0 0.38020629089344754,-0.19413604120727465 l 1.7292115460156967 3.459581444923846" fill="#ff0d01" stroke="none" /></svg>