<?xml version="1.0" encoding="utf-8" ?>
<svg baseProfile="full" height="200mm" version="1.1" viewBox="0,0,200,200" width="200mm" xmlns="http://www.w3.org/2000/svg" xmlns:ev="http://www.w3.org/2001/xml-events" xmlns:xlink="http://www.w3.org/1999/xlink"><defs /><rect fill="#1a1a1a" height="200" width="200" x="0" y="0" /><text alignment-baseline="middle" fill="#e1ed5e" style="dominant-baseline: central; font-size:9.0px; font-family:Arial;" text-anchor="middle" x="100.0" y="100.0">2021</text><line stroke="#e1ed5e" stroke-width="0.3" x1="100.0" x2="100.0" y1="15.0" y2="10.0" /><path d="M 100.0 14.0 a86.0,86.0 0 0,1 42.46469731375804,11.215312516191453" fill="none" id="id49" stroke="none" /><text fill="#e1ed5e" style="font-size:6.75px; font-family:Arial;" text-anchor="middle"><textPath startOffset="22.20632615414155" xlink:href="#id49">January</textPath></text><path d="M 108.76106565485865 80.91482961587045 l 7.295196056317276 -15.891909181531128 a38.486356479671244,38.486356479671244 0 0,0 0.5996940194209206,0.2815643831370156 l -7.567668287037795 15.763979815754109" fill="red" stroke="none" /><line stroke="#e1ed5e" stroke-width="0.3" x1="143.23703022742887" x2="145.7803849466894" y1="26.81831364943548" y2="22.513508569990506" /><path d="M 143.74570117128098 25.957352633546492 a86.0,86.0 0 0,1 28.547481713284135,27.462654790039103" fill="none" id="id50" stroke="none" /><text fill="#e1ed5e" style="font-size:6.75px; font-family:Arial;" text-anchor="middle"><textPath startOffset="19.985693538727396" xlink:href="#id50">February</textPath></text><path d="M 115.92442197804982 86.31012108654704 l 29.42792887038607 -25.298549828973375 a59.807468624603054,59.807468624603054 0 0,0 0.6644022697296187,0.7864427240962923 l -29.859041753602806 24.788248155247974" fill="red" stroke="none" /><path d="M 117.04232023915458 87.72973835380427 l 8.135382511967407 -5.85737567496133 a31.024634577562107,31.024634577562107 0 0,0 0.3083071291206335,0.43607856972315556 l -8.235002260891923 5.716470604906381" fill="red" stroke="none" /><path d="M 117.45458315368197 88.32363383020206 l 30.22300472825213 -20.217891590505538 a57.361974027401004,57.361974027401004 0 0,0 0.54194326902608,0.825416779317258 l -30.566544632636134 19.694656747210608" fill="red" stroke="none" /><line stroke="#e1ed5e" stroke-width="0.3" x1="172.23445277983987" x2="176.4835382374775" y1="55.19839476539836" y2="52.563006222186495" /><path d="M 173.08426987136738 54.67131705675599 a86.0,86.0 0 0,1 12.851231095245387,41.99856678651699" fill="none" id="id51" stroke="none" /><text fill="#e1ed5e" style="font-size:6.75px; font-family:Arial;" text-anchor="middle"><textPath startOffset="22.20632615414155" xlink:href="#id51">March</textPath></text><path d="M 117.84615892207809 88.93136811851018 l 20.01079216412215 -12.4111912870872 a44.547175461196225,44.547175461196225 0 0,0 0.3985576428633508,0.6551239711912423 l -20.221465605271725 12.064899542688877" fill="red" stroke="none" /><path d="M 118.21658344932153 89.55222093294921 l 11.897711272940281 -6.823708689889892 a34.71563100330164,34.71563100330164 0 0,0 0.29283851237839964,0.5209270377218695 l -12.013407426611113 6.617898142233229" fill="red" stroke="none" /><path d="M 118.56541770881063 90.18545643968196 l 14.115677790277505 -7.462204014421169 a36.966741941666655,36.966741941666655 0 0,0 0.2925487522623468,0.5651110729732202 l -14.242035975699968 7.218120219187605" fill="red" stroke="none" /><line stroke="#e1ed5e" stroke-width="0.3" x1="184.98032266829074" x2="189.97916517819016" y1="98.17113171792111" y2="98.06355123074" /><path d="M 185.9800911702706 98.14961562048488 a86.0,86.0 0 0,1 -9.607161424134198,41.387399972396054" fill="none" id="id52" stroke="none" /><text fill="#e1ed5e" style="font-size:6.75px; font-family:Arial;" text-anchor="middle"><textPath startOffset="21.466115282336823" xlink:href="#id52">April</textPath></text><path d="M 120.99824983174949 100.27111621757518 l 10.335633654477123 0.13344721227231732 a31.336495111885043,31.336495111885043 0 0,0 -0.011606347364372008,0.5393013557561209 l -10.331805244427743 -0.31133838381855305" fill="red" stroke="none" /><line stroke="#e1ed5e" stroke-width="0.3" x1="174.80103733775053" x2="179.2010983576182" y1="140.37084112569926" y2="142.7455964860345" /><path d="M 175.68104954172406 140.8457921977663 a86.0,86.0 0 0,1 -30.038265399797805,32.042727171017184" fill="none" id="id53" stroke="none" /><text fill="#e1ed5e" style="font-size:6.75px; font-family:Arial;" text-anchor="middle"><textPath startOffset="22.206326154141568" xlink:href="#id53">May</textPath></text><path d="M 115.56566222782051 114.09645910891815 l 46.696986683461546 42.289377326754476 a84.0,84.0 0 0,0 -0.9798143680171121,1.0633949807946608 l -45.96212590744871 -43.08692356235047" fill="red" stroke="none" /><path d="M 113.20401910651253 116.32954008644616 l 39.06376403835647 48.310540574512814 a83.12798074495936,83.12798074495936 0 0,0 -1.120416766447479,0.8901268412750601 l -38.22638977919164 -48.975801329793" fill="red" stroke="none" /><line stroke="#e1ed5e" stroke-width="0.3" x1="143.8653032363475" x2="146.44561519142675" y1="172.8068346515853" y2="177.08958963109032" /><path d="M 144.38136562736335 173.6633856474863 a86.0,86.0 0 0,1 -40.68145358897372,12.25698825130547" fill="none" id="id54" stroke="none" /><text fill="#e1ed5e" style="font-size:6.75px; font-family:Arial;" text-anchor="middle"><textPath startOffset="21.466115282336833" xlink:href="#id54">June</textPath></text><line stroke="#e1ed5e" stroke-width="0.3" x1="102.19456741930631" x2="102.32365962044197" y1="184.97166512339345" y2="189.96999836594603" /><path d="M 102.22038585953345 185.97133177190398 a86.0,86.0 0 0,1 -42.740103519485714,-10.115201625700543" fill="none" id="id55" stroke="none" /><text fill="#e1ed5e" style="font-size:6.75px; font-family:Arial;" text-anchor="middle"><textPath startOffset="22.20632615414155" xlink:href="#id55">July</textPath></text><path d="M 99.45781275523022 120.99299961872073 l -0.7603592988425555 29.4404241794185 a50.45024146127542,50.45024146127542 0 0,0 -0.8679354996694727,-0.02989345352166147 l 1.267015150186671 -29.422973927470743" fill="red" stroke="none" /><path d="M 96.22490169976321 120.6578951692458 l -5.303798424210741 29.02316791043137 a50.50380574234032,50.50380574234032 0 0,0 -0.8538326964719433,-0.1636390684177885 l 5.802598735254379 -28.92757164366511" fill="red" stroke="none" /><path d="M 92.7421414339146 119.70592522655815 l -4.889223914215287 13.274808263643525 a35.14655593845488,35.14655593845488 0 0,0 -0.5659093905002912,-0.2139785085455504 l 5.1170035254758615 -13.188681504991342" fill="red" stroke="none" /><path d="M 91.40352486487194 119.15986991738527 l -4.100009480500655 9.138123134380331 a31.015756195080442,31.015756195080442 0 0,0 -0.4852223116932788,-0.22274176464686496 l 4.256699787961354 -9.066194299399392" fill="red" stroke="none" /><path d="M 90.42595943632237 118.69057910512821 l -14.03339763513802 27.396199845691193 a51.781293266705795,51.781293266705795 0 0,0 -0.7898104434413992,-0.41319149526171023 l 14.502898981105913 -27.150578931484766" fill="red" stroke="none" /><line stroke="#e1ed5e" stroke-width="0.3" x1="58.666819895761336" x2="56.23545636021788" y1="174.27360380694188" y2="178.64263932499728" /><path d="M 58.180547188652646 175.14741091055294 a86.0,86.0 0 0,1 -31.652253787137756,-30.449443065178592" fill="none" id="id56" stroke="none" /><text fill="#e1ed5e" style="font-size:6.75px; font-family:Arial;" text-anchor="middle"><textPath startOffset="22.20632615414155" xlink:href="#id56">August</textPath></text><path d="M 89.1626897886671 117.98757091392108 l -10.193744848307913 16.919392797819 a40.752931090835446,40.752931090835446 0 0,0 -0.5977500209382203,-0.3671868844254491 l 10.483474069178444 -16.741417446565173" fill="red" stroke="none" /><path d="M 88.24862548938628 117.40417183066458 l -16.51619852630373 24.461032782295963 a50.51485962251617,50.51485962251617 0 0,0 -0.7164525315622603,-0.49278258417148907 l 16.934807942488884 -24.17310940875937" fill="red" stroke="none" /><path d="M 85.44109423537348 115.13401014063109 l -17.29521912860911 17.97841306952931 a45.946902437080816,45.946902437080816 0 0,0 -0.5652564015621221,-0.5532223596305957 l 17.602125482547024 -17.678040606976143" fill="red" stroke="none" /><path d="M 84.67929136418377 114.36230785411682 l -20.79613635519043 19.495215241623406 a49.505134706240185,49.505134706240185 0 0,0 -0.5774505032832778,-0.6267084734544999 l 21.12863326646944 -19.134355513367563" fill="red" stroke="none" /><path d="M 84.19399662182784 113.82643327865904 l -45.92352986865431 40.17199075930362 a82.01441991171235,82.01441991171235 0 0,0 -0.9203482083524993,-1.0705728903229972 l 46.608220586577595 -39.3755407698191" fill="red" stroke="none" /><path d="M 83.50135304334701 112.99209946851258 l -32.46433921449355 25.564516009244834 a62.32163839225932,62.32163839225932 0 0,0 -0.6564343596270694,-0.8485298980601574 l 32.89958039133869 -25.001908117071423" fill="red" stroke="none" /><path d="M 82.24976979558568 111.22182372390057 l -29.91395792955488 18.911820235782606 a56.390702502800586,56.390702502800586 0 0,0 -0.511639181940391,-0.8249252707500152 l 30.235061751163226 -18.394098633667326" fill="red" stroke="none" /><path d="M 82.05923443525364 110.91462005526583 l -20.568457745930143 12.513228636171121 a45.07576260364782,45.07576260364782 0 0,0 -0.3975663465086684,-0.6663440647220554 l 20.780804968137044 -12.157322477562953" fill="red" stroke="none" /><line stroke="#e1ed5e" stroke-width="0.3" x1="26.63291911575756" x2="22.317208475507996" y1="142.92168965132927" y2="145.44649492493687" /><path d="M 25.769776987707644 143.4266507060508 a86.0,86.0 0 0,1 -11.730757126820373,-40.83630448921669" fill="none" id="id57" stroke="none" /><text fill="#e1ed5e" style="font-size:6.75px; font-family:Arial;" text-anchor="middle"><textPath startOffset="21.46611528233685" xlink:href="#id57">September</textPath></text><path d="M 81.87401531095188 110.60418214915194 l -50.876434442678224 29.764064528616725 a79.94328730961479,79.94328730961479 0 0,0 -0.6846495544595905,-1.1937442074829838 l 51.38123599329019 -28.883900475275436" fill="red" stroke="none" /><path d="M 80.73074385275274 108.34839909993369 l -22.219660077674423 9.626660664832636 a45.215406036720395,45.215406036720395 0 0,0 -0.3032640750125488,-0.7168266905701125 l 22.38207513387928 -9.242759448596365" fill="red" stroke="none" /><path d="M 79.18660465613746 102.79330883721812 l -29.215995915299693 3.920998867798866 a50.47793495895003,50.47793495895003 0 0,0 -0.10816337568992927,-0.8621685271433486 l 29.27916080023647 -3.4175125863681086" fill="red" stroke="none" /><line stroke="#e1ed5e" stroke-width="0.3" x1="15.007084014347285" x2="10.007500721073583" y1="101.09737516637583" y2="101.16192664675087" /><path d="M 14.007167355692545 101.11028546245083 a86.0,86.0 0 0,1 10.666146001902534,-42.60595125391555" fill="none" id="id58" stroke="none" /><text fill="#e1ed5e" style="font-size:6.75px; font-family:Arial;" text-anchor="middle"><textPath startOffset="22.20632615414155" xlink:href="#id58">October</textPath></text><path d="M 79.12142395522702 97.74499172005258 l -9.043163352131952 -0.9767145131087592 a30.095755859380773,30.095755859380773 0 0,0 0.06006202400746756,-0.5145747424360427 l 9.025010975120894 1.1322329938696638" fill="red" stroke="none" /><path d="M 79.16333360222342 97.38593545837743 l -59.721820139295446 -7.49240254688491 a81.18996508285183,81.18996508285183 0 0,0 0.18590182654944207,-1.3851845379807888 l 59.58400231368817 8.519305426930359" fill="red" stroke="none" /><path d="M 81.6062741919709 89.86733742301443 l -51.617378926293 -28.434776576925312 a79.93123387644431,79.93123387644431 0 0,0 0.6742479668228525,-1.1994118983679511 l 51.12027331817772 29.319071985228046" fill="red" stroke="none" /><line stroke="#e1ed5e" stroke-width="0.3" x1="26.266209847984257" x2="21.92892807433627" y1="57.711370442889674" y2="55.22380399835377" /><path d="M 25.39875349325466 57.213857153982495 a86.0,86.0 0 0,1 29.58750427330802,-30.492523968695096" fill="none" id="id59" stroke="none" /><text fill="#e1ed5e" style="font-size:6.75px; font-family:Arial;" text-anchor="middle"><textPath startOffset="21.46611528233685" xlink:href="#id59">November</textPath></text><path d="M 84.07557802195018 86.31012108654704 l -23.54927180496774 -20.24479632318067 a52.05511198999801,52.05511198999801 0 0,0 0.5899781045707657,-0.6744469615520112 l 23.197301836819133 20.64715884093562" fill="red" stroke="none" /><path d="M 84.5562425177563 85.77008943001954 l -35.58424030719856 -32.787393732018415 a69.38647895826742,69.38647895826742 0 0,0 0.8168859529472887,-0.8713969788782271 l 35.01458703228082 33.3950601277747" fill="red" stroke="none" /><path d="M 87.80319425747017 82.90503203632743 l -15.954418215018446 -22.361614509751416 a48.46971539827884,48.46971539827884 0 0,0 0.6833511144129925,-0.4787311257390932 l 15.567135961021796 22.632930478254455" fill="red" stroke="none" /><line stroke="#e1ed5e" stroke-width="0.3" x1="56.762969772571076" x2="54.21961505331055" y1="26.818313649435495" y2="22.513508569990535" /><path d="M 56.25429882871897 25.957352633546506 a86.0,86.0 0 0,1 42.265352541879196,-11.944610805530505" fill="none" id="id60" stroke="none" /><text fill="#e1ed5e" style="font-size:6.75px; font-family:Arial;" text-anchor="middle"><textPath startOffset="22.20632615414155" xlink:href="#id60">December</textPath></text><path d="M 92.23578459929587 80.48803036053334 l -5.680126041881966 -14.27451985264263 a36.36312952738322,36.36312952738322 0 0,0 0.5835708011440698,-0.2264164045275371 l 5.433572075738218 14.370178961060718" fill="red" stroke="none" /><path d="M 93.25333710446033 80.11325718540243 l -5.60113727572989 -16.510144081059206 a38.434379723950755,38.434379723950755 0 0,0 0.6283420369376352,-0.20715449054097573 l 5.316112416549845 16.604112295859412" fill="red" stroke="none" /><path d="M 93.59665428221793 80.00007090966166 l -8.97392592285583 -28.028766527575733 a50.430309198617906,50.430309198617906 0 0,0 0.8290133520992186,-0.25757848392744304 l 8.490127198045883 28.1790851463857" fill="red" stroke="none" /><path d="M 95.692805502759 79.44645832069477 l -3.731136793775766 -17.804646539918824 a39.19139412429159,39.19139412429159 0 0,0 0.6614641208314876,-0.13268347990742776 l 3.4241062634771415 17.866233975903462" fill="red" stroke="none" /><path d="M 96.40284397218896 79.31037775812273 l -3.1151445843387497 -17.91725579332704 a39.1860435759086,39.1860435759086 0 0,0 0.6655484414521685,-0.10982119547870682 l 2.806266936747696 17.968223251745375" fill="red" stroke="none" /><path d="M 98.55514903715128 79.0497635885617 l -0.4810618892677048 -6.975363250491074 a27.991931994635475,27.991931994635475 0 0,0 0.4809786376173748,-0.029013944916762503 l 0.36092120281070705 6.982610464788143" fill="red" stroke="none" /></svg>