<?xml version="1.0" encoding="utf-8" ?>
<svg baseProfile="full" height="200mm" version="1.1" viewBox="0,0,200,200" width="200mm" xmlns="http://www.w3.org/2000/svg" xmlns:ev="http://www.w3.org/2001/xml-events" xmlns:xlink="http://www.w3.org/1999/xlink"><defs /><rect fill="#1a1a1a" height="200" width="200" x="0" y="0" /><text alignment-baseline="middle" fill="#e1ed5e" style="dominant-baseline: central; font-size:9.0px; font-family:Arial;" text-anchor="middle" x="100.0" y="100.0">2024</text><line stroke="#e1ed5e" stroke-width="0.3" x1="100.0" x2="100.0" y1="15.0" y2="10.0" /><path d="M 100.0 14.0 a86.0,86.0 0 0,1 42.35913384403234,11.155469271406648" fill="none" id="id85" stroke="none" /><text fill="#e1ed5e" style="font-size:6.75px; font-family:Arial;" text-anchor="middle"><textPath startOffset="22.145653131862478" xlink:href="#id85">January</textPath></text><line stroke="#e1ed5e" stroke-width="0.3" x1="143.13028292997686" x2="145.6673583964461" y1="26.7553504044142" y2="22.446841604673864" /><path d="M 143.63769802327073 25.89364864446614 a86.0,86.0 0 0,1 29.32050498858742,28.57503671076993" fill="none" id="id86" stroke="none" /><text fill="#e1ed5e" style="font-size:6.75px; font-family:Arial;" text-anchor="middle"><textPath startOffset="20.669276256404974" xlink:href="#id86">February</textPath></text><line stroke="#e1ed5e" stroke-width="0.3" x1="172.87174338648825" x2="177.1583165268699" y1="56.24261187166439" y2="53.66864786411523" /><path d="M 173.72905801456457 55.72781907015455 a86.0,86.0 0 0,1 12.242430191666344,42.057860355516425" fill="none" id="id87" stroke="none" /><text fill="#e1ed5e" style="font-size:6.75px; font-family:Arial;" text-anchor="middle"><textPath startOffset="22.145653131862474" xlink:href="#id87">March</textPath></text><line stroke="#e1ed5e" stroke-width="0.3" x1="184.99686870605535" x2="189.99668451229388" y1="99.2704041080226" y2="99.22748670261217" /><path d="M 185.99683186730306 99.26182062694052 a86.0,86.0 0 0,1 -10.086455211305974,41.156179273409016" fill="none" id="id88" stroke="none" /><text fill="#e1ed5e" style="font-size:6.75px; font-family:Arial;" text-anchor="middle"><textPath startOffset="21.40746469413373" xlink:href="#id88">April</textPath></text><line stroke="#e1ed5e" stroke-width="0.3" x1="174.33088141563837" x2="178.70328620479359" y1="141.23008692659167" y2="143.65538615756765" /><path d="M 175.20536237346943 141.71514677278685 a86.0,86.0 0 0,1 -30.301960400862466,31.631185727798858" fill="none" id="id89" stroke="none" /><text fill="#e1ed5e" style="font-size:6.75px; font-family:Arial;" text-anchor="middle"><textPath startOffset="22.145653131862474" xlink:href="#id89">May</textPath></text><path d="M 113.31354834802062 116.24036423190432 l 9.372909427350333 11.43342548761242 a35.78427034094338,35.78427034094338 0 0,0 -0.478400301505678,0.3853654187124976 l -9.175258355489403 -11.592639200118322" fill="#ffb610" stroke="none" /><line stroke="#e1ed5e" stroke-width="0.3" x1="143.1302829299769" x2="145.66735839644613" y1="173.24464959558577" y2="177.55315839532614" /><path d="M 143.63769802327073 174.10635135553383 a86.0,86.0 0 0,1 -40.68552437913181,11.842963189579606" fill="none" id="id90" stroke="none" /><text fill="#e1ed5e" style="font-size:6.75px; font-family:Arial;" text-anchor="middle"><textPath startOffset="21.407464694133747" xlink:href="#id90">June</textPath></text><path d="M 110.65571695917076 118.09573695890943 l 12.320576011149377 20.92303160212308 a45.28105938112978,45.28105938112978 0 0,0 -0.6731946572404418,0.3886691165747884 l -11.959588886048536 -21.131447615974036" fill="#d2ff1c" stroke="none" /><path d="M 107.407793817531 119.65005319985036 l 5.215182210873677 13.833890415262251 a35.78427034094338,35.78427034094338 0 0,0 -0.5766564420722243,0.21175623305292418 l -4.976936617147326 -13.921377497323897" fill="#ffb610" stroke="none" /><path d="M 106.72888874123015 119.89276391827305 l 4.746689280967132 14.032743427767556 a35.813809342623586,35.813809342623586 0 0,0 -0.584067398955606,0.1919945550893485 l -4.5050991443637916 -14.112158904258925" fill="#ffb610" stroke="none" /><path d="M 102.875027216393 120.80226474461374 l 2.09887143474161 15.18638815015452 a36.3307418720272,36.3307418720272 0 0,0 -0.618525998400532,0.0800805738148392 l -1.837867614450303 -15.220180320169755" fill="#ffbd11" stroke="none" /><path d="M 101.80034050326958 120.92268563240118 l 1.2687290874601451 14.744555155762667 a35.79903984178348,35.79903984178348 0 0,0 -0.6127278512577914,0.047429010849117034 l -1.0154322414271177 -14.764161933606838" fill="#ffb610" stroke="none" /><path d="M 101.08105385017728 120.97215588758144 l 1.615670462634726 31.343575345279675 a52.385189285219454,52.385189285219454 0 0,0 -0.8984664622183567,0.038584015750906045 l -1.0773782398155398 -31.366691929456408" fill="#82ff25" stroke="none" /><line stroke="#e1ed5e" stroke-width="0.3" x1="101.45913802915013" x2="101.54496967792366" y1="184.9874750549273" y2="189.98673829345242" /><path d="M 101.47630435890484 185.9873277026323 a86.0,86.0 0 0,1 -42.54439059252881,-10.42667462771756" fill="none" id="id91" stroke="none" /><text fill="#e1ed5e" style="font-size:6.75px; font-family:Arial;" text-anchor="middle"><textPath startOffset="22.145653131862474" xlink:href="#id91">July</textPath></text><path d="M 100.36049292484886 120.99690560180557 l 0.2540451979771077 14.796859169299397 a35.79903984178348,35.79903984178348 0 0,0 -0.6145381228259581,0.005275070678519916 l -1.8123596772694296e-15 -14.799039841783483" fill="#ffb610" stroke="none" /><path d="M 99.27912038922189 120.98762331915562 l -0.5688557106226008 16.561613338752984 a37.57137994259587,37.57137994259587 0 0,0 -0.6443925330476843,-0.027672988019490367 l 0.8530740042711238 -16.549407782307664" fill="#ffcd13" stroke="none" /><path d="M 97.84075906011543 120.88869738790638 l -0.4965870407773639 4.804029152072676 a25.82962677471377,25.82962677471377 0 0,0 -0.44065847373479444,-0.04937670110760321 l 0.5789814161129576 -4.794796690458102" fill="#ff2d04" stroke="none" /><path d="M 96.41257539226777 120.69131181640829 l -1.5524021010102396 8.95384278382243 a30.087422785401262,30.087422785401262 0 0,0 -0.5081411342355396,-0.09260024172950054 l 1.7058779687968364 -8.925874368161566" fill="#ff6909" stroke="none" /><path d="M 96.05791012581884 120.62667999033965 l -3.0647070596884736 16.03584235822618 a37.32607330314259,37.32607330314259 0 0,0 -0.6283284806661898,-0.12568329349864152 l 3.339532025885622 -15.980869668064676" fill="#ffca12" stroke="none" /><path d="M 95.70440661134978 120.55596938700252 l -2.981298288229523 14.266591551307409 a35.57476497152651,35.57476497152651 0 0,0 -0.5967032972815569,-0.1300487063857023 l 3.2257640021302163 -14.213311386787987" fill="#ffb310" stroke="none" /><path d="M 94.6519064749342 120.30758222061772 l -2.5238272348915616 9.583383095860126 a30.910143060198376,30.910143060198376 0 0,0 -0.5119582217193502,-0.13953648990669576 l 2.6879668575456073 -9.538646111809287" fill="#ff740a" stroke="none" /><path d="M 93.95794788825049 120.11202640906438 l -3.967032713467522 13.204961695667828 a34.78797889227337,34.78797889227337 0 0,0 -0.5704555426199155,-0.17672858531133304 l 4.193128888959071 -13.134916522549846" fill="#ffa90f" stroke="none" /><path d="M 92.25597844496254 119.51999308798841 l -5.003555900975757 12.612229435089416 a34.56848934028859,34.56848934028859 0 0,0 -0.5497139427892941,-0.22356387491495802 l 5.219324304955491 -12.524478303595165" fill="#ffa60f" stroke="none" /><path d="M 91.59046798132341 119.24265499422711 l -1.8691193911155344 4.276910951332125 a25.667501963991956,25.667501963991956 0 0,0 -0.4022300418345912,-0.17991238155302608 l 1.9422628358057605 -4.244194818869244" fill="#ff2b04" stroke="none" /><path d="M 89.97174638481275 118.45085714620012 l -8.529067965587458 15.692524407735313 a38.86058013192681,38.86058013192681 0 0,0 -0.5833820827721626,-0.3235922072498362 l 8.797194236515724 -15.543799285052328" fill="#ffdd14" stroke="none" /><line stroke="#e1ed5e" stroke-width="0.3" x1="58.13341422392154" x2="55.67067388415222" y1="173.97424548756322" y2="178.32567169271397" /><path d="M 57.64086615596768 174.84453072859336 a86.0,86.0 0 0,1 -31.369924170532247,-30.572349798747897" fill="none" id="id92" stroke="none" /><text fill="#e1ed5e" style="font-size:6.75px; font-family:Arial;" text-anchor="middle"><textPath startOffset="22.145653131862474" xlink:href="#id92">August</textPath></text><path d="M 89.65649057296885 118.27599006163327 l -5.059648117087076 8.939913416774072 a31.27239460730359,31.27239460730359 0 0,0 -0.46492748306866655,-0.2684260075033518 l 5.212368068016143 -8.85174051199455" fill="#ff790b" stroke="none" /><path d="M 88.1277618465304 117.32195027204791 l -7.130069538199898 10.402984540943374 a33.611898309876786,33.611898309876786 0 0,0 -0.47313533977941885,-0.3302852127082808 l 7.307599969153082 -10.279054512429964" fill="#ff990e" stroke="none" /><path d="M 86.96720088162412 116.46651593811092 l -4.045894792803509 5.111855901752072 a27.519228131819904,27.519228131819904 0 0,0 -0.3679048618298212,-0.29635811407140217 l 4.133050424988592 -5.04164949388726" fill="#ff4506" stroke="none" /><path d="M 86.40962598614128 116.0094264158162 l -7.198788470883827 8.480154717605012 a32.12364955772378,32.12364955772378 0 0,0 -0.41733289448827104,-0.3604822145202208 l 7.34330084513496 -8.35532837062007" fill="#ff850c" stroke="none" /><path d="M 86.13680546590413 115.77377054828092 l -11.835404138334342 13.466517314253064 a38.92829829327868,38.92829829327868 0 0,0 -0.4981616760788601,-0.445459242567046 l 12.064830841236573 -13.261362541802637" fill="#ffde14" stroke="none" /><path d="M 85.60350026404147 115.28858382429668 l -10.149628047578462 10.778553262030432 a35.80513964563044,35.80513964563044 0 0,0 -0.44386014272344043,-0.42520797620642414 l 10.333160676167218 -10.602733155518425" fill="#ffb610" stroke="none" /><path d="M 85.08716467003676 114.78537596483092 l -11.123209402208849 11.028139807643498 a36.66351349545556,36.66351349545556 0 0,0 -0.43928685293533526,-0.4507470101711857 l 11.310883056294992 -10.835570105404575" fill="#ffc111" stroke="none" /><path d="M 84.58840730492382 114.26474011684316 l -10.29128970592633 9.525464111771129 a35.02302072864278,35.02302072864278 0 0,0 -0.40460311201101135,-0.4447296961330342 l 10.453290518779221 -9.34739684008042" fill="#ffac0f" stroke="none" /><path d="M 83.4222238831116 112.89097897827486 l -24.739921662394433 19.23791272275632 a52.33944814111766,52.33944814111766 0 0,0 -0.5454468920024292,-0.7140074907116293 l 25.06652053175116 -18.81038431880382" fill="#83ff25" stroke="none" /><path d="M 82.37810715431573 111.42229804090323 l -11.391185732705157 7.383628967537876 a34.57486976465152,34.57486976465152 0 0,0 -0.3185536006570952,-0.5008191705796589 l 11.51625702498814 -7.186996122279545" fill="#ffa60f" stroke="none" /><path d="M 82.18462484594161 111.11811171558189 l -13.41967241607631 8.37486810231222 a36.81853417627329,36.81853417627329 0 0,0 -0.3300203635127701,-0.5390634618049306 l 13.561460744044485 -8.143267524382733" fill="#ffc312" stroke="none" /><line stroke="#e1ed5e" stroke-width="0.3" x1="26.387840678322732" x2="22.057713659400548" y1="142.50000000000003" y2="145.00000000000006" /><path d="M 25.521815274538298 143.00000000000003 a86.0,86.0 0 0,1 -11.493303480769221,-40.785679425670985" fill="none" id="id93" stroke="none" /><text fill="#e1ed5e" style="font-size:6.75px; font-family:Arial;" text-anchor="middle"><textPath startOffset="21.40746469413373" xlink:href="#id93">September</textPath></text><path d="M 81.4637452351635 109.86951160357371 l -8.53067242664595 4.542102575153682 a30.664526261227458,30.664526261227458 0 0,0 -0.24340614745011357,-0.46676338203914236 l 8.607386643071012 -4.394992950010036" fill="#ff710a" stroke="none" /><path d="M 80.9802524753101 108.90220220490708 l -16.054933524310993 7.514519550494829 a38.72650260330035,38.72650260330035 0 0,0 -0.2766465243964841,-0.6045225825549232 l 16.18156451356253 -7.237807985725217" fill="#ffdb14" stroke="none" /><path d="M 80.68587082218212 108.24405325689762 l -3.5891826642695026 1.5320086533828645 a24.902471359476287,24.902471359476287 0 0,0 -0.16444424689189197,-0.3946063287144423 l 3.61495275569788 -1.470169815227141" fill="#ff2003" stroke="none" /><path d="M 80.41425534168474 107.57618678355246 l -13.494633706164166 5.220014215293914 a35.46905965401389,35.46905965401389 0 0,0 -0.2147893362831393,-0.5697542329992844 l 13.58225372626174 -4.987591702100485" fill="#ffb110" stroke="none" /><path d="M 79.73907114497094 105.5222062557868 l -30.071466029938925 8.196111788329503 a52.16840255188842,52.16840255188842 0 0,0 -0.2280765773274566,-0.8660439135864731 l 30.207732088071115 -7.678687370370227" fill="#84ff25" stroke="none" /><path d="M 79.56144815229197 104.8234425847677 l -16.622461592541388 3.9228556752234267 a38.079081533974424,38.079081533974424 0 0,0 -0.14468081467958066,-0.6374903648800878 l 16.687353268778633 -3.6369309764043125" fill="#ffd313" stroke="none" /><path d="M 79.13060592940153 102.33845913500099 l -13.490516558487197 1.5116405189032747 a34.57494361215572,34.57494361215572 0 0,0 -0.06102906856113882,-0.5904008772210328 l 13.514478019530003 -1.2798351193993105" fill="#ffa60f" stroke="none" /><line stroke="#e1ed5e" stroke-width="0.3" x1="15.003131293944662" x2="10.003315487706104" y1="100.72959589197737" y2="100.7725132973878" /><path d="M 14.003168132696942 100.73817937305945 a86.0,86.0 0 0,1 10.791469493833604,-42.45332614584628" fill="none" id="id94" stroke="none" /><text fill="#e1ed5e" style="font-size:6.75px; font-family:Arial;" text-anchor="middle"><textPath startOffset="22.145653131862435" xlink:href="#id94">October</textPath></text><path d="M 79.00077361379809 99.81974689727619 l -14.041068716690697 -0.12052568771794371 a35.04158599119879,35.04158599119879 0 0,0 0.010326535799893332,-0.6014689399934883 l 14.036930749292138 0.36154154368048436" fill="#ffac0f" stroke="none" /><path d="M 79.00696218219943 99.45929381324524 l -14.387914922017055 -0.37058165094330486 a35.39268656516972,35.39268656516972 0 0,0 0.020856932107920983,-0.6072268214131251 l 14.379433302912282 0.6175147369205685" fill="#ffb010" stroke="none" /><path d="M 79.13060592940154 97.66154086499901 l -16.306099736289312 -1.8271324867205183 a37.40814741931105,37.40814741931105 0 0,0 0.0769858137311141,-0.6375529759976983 l 16.272331836298527 2.106779139641653" fill="#ffcb12" stroke="none" /><path d="M 79.17382384314186 97.30363454192245 l -28.121692520680202 -3.6409161127003227 a49.35640774793947,49.35640774793947 0 0,0 0.11600044597608744,-0.839321441525428 l 28.055047558148907 4.123125862425818" fill="#a3ff21" stroke="none" /><path d="M 79.56144815229197 95.17655741523228 l -9.001133927091772 -2.1242430979766604 a30.248395575057547,30.248395575057547 0 0,0 0.12360426872424517,-0.504347596455047 l 8.963342131851228 2.278446519039825" fill="#ff6b09" stroke="none" /><path d="M 79.64726062577567 94.8264132398404 l -27.12075821445508 -6.89399068321445 a48.98325630921427,48.98325630921427 0 0,0 0.21415134255353152,-0.8131675289855664 l 26.998417391096822 7.358538716572801" fill="#a8ff21" stroke="none" /><path d="M 81.63589988554816 89.8137432299009 l -6.458469403032 -3.582404107530448 a28.385488895093644,28.385488895093644 0 0,0 0.24001503549167033,-0.42408356991726953 l 6.39602100251896 3.692744447546823" fill="#ff5107" stroke="none" /><line stroke="#e1ed5e" stroke-width="0.3" x1="26.387840678322718" x2="22.05771365940052" y1="57.49999999999999" y2="54.99999999999999" /><path d="M 25.521815274538284 56.99999999999999 a86.0,86.0 0 0,1 29.574782752854787,-30.34633250058573" fill="none" id="id95" stroke="none" /><text fill="#e1ed5e" style="font-size:6.75px; font-family:Arial;" text-anchor="middle"><textPath startOffset="21.40746469413373" xlink:href="#id95">November</textPath></text><path d="M 82.18462484594161 88.88188828441811 l -53.44612546217515 -33.35433514674566 a84.0,84.0 0 0,0 0.7739292334964403,-1.2167453012853122 l 52.865678537052815 34.266894122709644" fill="#4dd2ff" stroke="none" /><path d="M 82.78059297857968 87.97951657250589 l -11.989080366608144 -8.369309214796717 a35.621333207675356,35.621333207675356 0 0,0 0.3543218417769663,-0.498398043399211 l 11.843643426301206 8.573884484905447" fill="#ffb310" stroke="none" /><path d="M 83.64595745247003 86.82634096563983 l -12.663099844489972 -10.20049686091624 a37.26051148891338,37.26051148891338 0 0,0 0.40552421036127273,-0.49467359932648297 l 12.486128814890069 10.416372741941217" fill="#ffc912" stroke="none" /><line stroke="#e1ed5e" stroke-width="0.3" x1="56.869717070023135" x2="54.33264160355391" y1="26.7553504044142" y2="22.446841604673864" /><path d="M 56.362301976729285 25.89364864446614 a86.0,86.0 0 0,1 42.16139366436587,-11.88097634709845" fill="none" id="id96" stroke="none" /><text fill="#e1ed5e" style="font-size:6.75px; font-family:Arial;" text-anchor="middle"><textPath startOffset="22.145653131862474" xlink:href="#id96">December</textPath></text><path d="M 91.26138138417902 80.90454125486306 l -6.071821549318488 -13.268025874585206 a35.59135112096995,35.59135112096995 0 0,0 0.5577446013414694,-0.2494720659551161 l 5.8431635451214 13.370301691450168" fill="#ffb310" stroke="none" /><path d="M 93.95794788825049 79.88797359093562 l -1.2751613663543517 -4.244597464835735 a25.43200227309651,25.43200227309651 0 0,0 0.41919204532952997,-0.12202069502510014 l 1.2021093086431975 4.265861854163355" fill="#ff2703" stroke="none" /><path d="M 97.48249496171623 79.15144685158666 l -1.7709111580841717 -14.665684810547848 a35.77221842825785,35.77221842825785 0 0,0 0.6102810277590034,-0.06838326208480637 l 1.518894228724369 14.693923833139625" fill="#ffb510" stroke="none" /><path d="M 97.84075906011542 79.11130261209362 l -0.17950482562999068 -1.7365463543194084 a22.745799307802727,22.745799307802727 0 0,0 0.3887370144155814,-0.03681379943350583 l 0.1496682478293937 1.739371909258098" fill="#ff0000" stroke="none" /><path d="M 98.5590905019552 79.04949213459386 l -2.25800005541241 -32.830825242803726 a53.90838267636015,53.90838267636015 0 0,0 0.9237731415948366,-0.05557189826727249 l 1.6940825616850894 32.86474911889569" fill="#72ff27" stroke="none" /><path d="M 99.63950707515114 79.00309439819443 l -0.31351738165404813 -18.260815714692 a39.26350688434567,39.26350688434567 0 0,0 0.6740103065028958,-0.005785567848100091 l 4.473269049423914e-15 18.263506884345666" fill="#ffe215" stroke="none" /></svg>