<?xml version="1.0" encoding="utf-8" ?>
<svg baseProfile="full" height="200mm" version="1.1" viewBox="0,0,200,200" width="200mm" xmlns="http://www.w3.org/2000/svg" xmlns:ev="http://www.w3.org/2001/xml-events" xmlns:xlink="http://www.w3.org/1999/xlink"><defs /><rect fill="#1a1a1a" height="200" width="200" x="0" y="0" /><text alignment-baseline="middle" fill="#e1ed5e" style="dominant-baseline: central; font-size:9.0px; font-family:Arial;" text-anchor="middle" x="100.0" y="100.0">2017</text><line stroke="#e1ed5e" stroke-width="0.3" x1="100.0" x2="100.0" y1="15.0" y2="10.0" /><path d="M 100.0 14.0 a86.0,86.0 0 0,1 42.46469731375804,11.215312516191453" fill="none" id="id1" stroke="none" /><text fill="#e1ed5e" style="font-size:6.75px; font-family:Arial;" text-anchor="middle"><textPath startOffset="22.20632615414155" xlink:href="#id1">January</textPath></text><line stroke="#e1ed5e" stroke-width="0.3" x1="143.23703022742887" x2="145.7803849466894" y1="26.81831364943548" y2="22.513508569990506" /><path d="M 143.74570117128098 25.957352633546492 a86.0,86.0 0 0,1 28.547481713284135,27.462654790039103" fill="none" id="id2" stroke="none" /><text fill="#e1ed5e" style="font-size:6.75px; font-family:Arial;" text-anchor="middle"><textPath startOffset="19.985693538727396" xlink:href="#id2">February</textPath></text><path d="M 117.04232023915458 87.72973835380427 l 10.046426678477824 -7.23330404688835 a33.37947399693389,33.37947399693389 0 0,0 0.331708332416407,0.46917791222661354 l -10.169447630698112 7.0592996343299435" fill="#ff9b0e" stroke="none" /><line stroke="#e1ed5e" stroke-width="0.3" x1="172.23445277983987" x2="176.4835382374775" y1="55.19839476539836" y2="52.563006222186495" /><path d="M 173.08426987136738 54.67131705675599 a86.0,86.0 0 0,1 12.851231095245387,41.99856678651699" fill="none" id="id3" stroke="none" /><text fill="#e1ed5e" style="font-size:6.75px; font-family:Arial;" text-anchor="middle"><textPath startOffset="22.20632615414155" xlink:href="#id3">March</textPath></text><path d="M 118.21658344932153 89.55222093294921 l 12.024991315060532 -6.896707765892084 a34.86235889505814,34.86235889505814 0 0,0 0.29407621356096797,0.5231287700192494 l -12.141925169913934 6.688695485938041" fill="#ffae10" stroke="none" /><path d="M 118.56541770881063 90.18545643968196 l 13.76915395542736 -7.279015393234842 a36.574776587264765,36.574776587264765 0 0,0 0.28944680252760174,0.559119093416461 l -13.892410191115077 7.040923577558036" fill="#ffc412" stroke="none" /><path d="M 118.89224826269711 90.83032412892265 l 11.4275675254048 -5.546565382041602 a33.70250711808298,33.70250711808298 0 0,0 0.2488236940785073,0.5240861576827939 l -11.521349413325064 5.349036808718268" fill="#ff9f0e" stroke="none" /><path d="M 119.196687751892 91.48605970444005 l 11.767929750118354 -5.219205135270096 a33.873393991009145,33.873393991009145 0 0,0 0.23180578122224418,0.5350397029796554 l -11.856026241183278 5.015866287703838" fill="#ffa10e" stroke="none" /><path d="M 119.34039704204932 91.81776055985345 l 19.323592133671504 -8.175129876479467 a41.981753059403744,41.981753059403744 0 0,0 0.2758367366046071,0.6679605368617444 l -19.46145055716231 7.841294769164419" fill="#f6ff19" stroke="none" /><path d="M 119.47837535516314 92.15188598940014 l 7.047033002780221 -2.8393496600125356 a28.597537800767228,28.597537800767228 0 0,0 0.18003709308396756,0.45817476431421694 l -7.09486364574589 2.7176258908025344" fill="#ff5a08" stroke="none" /><path d="M 119.61058180528143 92.48833698450437 l 7.094867604888621 -2.7176274073177673 a28.597542040416933,28.597542040416933 0 0,0 0.17212371876383664,0.4612059917581032 l -7.140595912154083 2.595098278530331" fill="#ff5a08" stroke="none" /><path d="M 120.37134235888165 94.90015583598534 l 6.170969415766323 -1.5448654196117717 a27.36140493091232,27.36140493091232 0 0,0 0.1104452227106307,0.45786675120332077 l -6.196647438737773 1.4384134367490449" fill="#ff4906" stroke="none" /><path d="M 120.45610955862082 95.25157060432595 l 6.196645102650155 -1.4384128944784298 a27.361402532712418,27.361402532712418 0 0,0 0.10254742661053011,0.4597000059653262 l -6.220486916262723 1.3315347189631397" fill="#ff4906" stroke="none" /><path d="M 120.83666639777658 97.38593545837742 l 19.02874248262248 -2.3872513983714043 a40.17790420533453,40.17790420533453 0 0,0 0.08018294201434241,0.6869584802814093 l -19.06701577764041 2.0593491797651424" fill="#fff216" stroke="none" /><path d="M 120.87857604477298 97.74499172005257 l 13.89748651609397 -1.501009795737265 a34.978310408340235,34.978310408340235 0 0,0 0.059501227931672895,0.5991692451664633 l -13.921264869707871 1.2615650198663666" fill="#ffb010" stroke="none" /><path d="M 120.91429891909075 98.10471618934814 l 16.47397862572756 -1.49289560731418 a37.54148448765305,37.54148448765305 0 0,0 0.05278246227049462,0.6440797327743729 l -16.49723557181755 1.2091019573320383" fill="#ffd113" stroke="none" /><path d="M 120.94382443527127 98.46500227214037 l 17.768182606201293 -1.3022511725595824 a38.81584045852867,38.81584045852867 0 0,0 0.043102974245704084,0.6667839337530727 l -17.787966171451412 0.9962081745534747" fill="#ffe115" stroke="none" /><path d="M 120.96714384426684 98.82574320788733 l 17.720266680964453 -0.992416690738734 a38.74803488086937,38.74803488086937 0 0,0 0.031563764993061676,0.6662611921745965 l -17.734724054191012 0.6872443919411377" fill="#ffe015" stroke="none" /><path d="M 120.98425023603335 99.18683210126433 l 20.66320547330882 -0.800726982707298 a41.678714276594064,41.678714276594064 0 0,0 0.021610027416163066,0.7171316040513009 l -20.67392719518063 0.4449252312309981" fill="#faff18" stroke="none" /><line stroke="#e1ed5e" stroke-width="0.3" x1="184.98032266829074" x2="189.97916517819016" y1="98.17113171792111" y2="98.06355123074" /><path d="M 185.9800911702706 98.14961562048488 a86.0,86.0 0 0,1 -9.607161424134198,41.387399972396054" fill="none" id="id4" stroke="none" /><text fill="#e1ed5e" style="font-size:6.75px; font-family:Arial;" text-anchor="middle"><textPath startOffset="21.466115282336823" xlink:href="#id4">April</textPath></text><path d="M 120.99980553446 99.90962569577887 l 26.910717668500673 -0.11581237651896947 a47.91096687115328,47.91096687115328 0 0,0 -0.0035492962392373564,0.8247314482866274 l -26.908724074971932 -0.34742854997134254" fill="#b1ff20" stroke="none" /><path d="M 120.81339534386255 102.79330883721812 l 6.269548498026594 0.8414189484979635 a27.325758785789965,27.325758785789965 0 0,0 -0.06657849428411367,0.4656498339555262 l -6.254135952725878 -0.9492142544338991" fill="#ff4806" stroke="none" /><path d="M 120.76222939487914 103.15116336523771 l 6.254134796601327 0.9492140789644318 a27.32575761642539,27.32575761642539 0 0,0 -0.07458402320581733,0.4644347836986344 l -6.236869019034221 -1.056728092356271" fill="#ff4806" stroke="none" /><path d="M 120.41448212921028 104.9243191809786 l 12.240674771282528 2.952658273809426 a33.59175562573416,33.59175562573416 0 0,0 -0.14042743223355703,0.5609377868433751 l -12.18803602475391 -3.1629239000501967" fill="#ff9e0e" stroke="none" /><path d="M 120.32669344350535 105.2749913415812 l 12.188038990810998 3.1629246697732953 a33.591758690039676,33.591758690039676 0 0,0 -0.15006226198930683,0.5584375013939009 l -12.131788652479914 -3.3722531043427444" fill="#ff9e0e" stroke="none" /><line stroke="#e1ed5e" stroke-width="0.3" x1="174.80103733775053" x2="179.2010983576182" y1="140.37084112569926" y2="142.7455964860345" /><path d="M 175.68104954172406 140.8457921977663 a86.0,86.0 0 0,1 -30.038265399797805,32.042727171017184" fill="none" id="id5" stroke="none" /><text fill="#e1ed5e" style="font-size:6.75px; font-family:Arial;" text-anchor="middle"><textPath startOffset="22.206326154141568" xlink:href="#id5">May</textPath></text><path d="M 116.93607887273984 112.41649034213515 l 6.197198963435038 4.5434047429735935 a28.684256740301905,28.684256740301905 0 0,0 -0.29536415920550724,0.3956885589768372 l -6.118073537534439 -4.649406181459745" fill="#ff5b08" stroke="none" /><path d="M 116.71984013943494 112.70617746262583 l 6.11807275656494 4.649405587965013 a28.684255759409783,28.684255759409783 0 0,0 -0.3021315155788001,0.39054571162375856 l -6.037134423768072 -4.7540292937020245" fill="#ff5b08" stroke="none" /><path d="M 116.498646956653 112.99209946851258 l 5.960253928859825 4.693488629994227 a28.586399832356193,28.586399832356193 0 0,0 -0.3077558552825648,0.38397274909100254 l -5.8785801615224065 -4.79538921266348" fill="#ff5a08" stroke="none" /><path d="M 116.27256486870786 113.27417163493432 l 11.904235636739237 9.710753547441598 a36.36260266211953,36.36260266211953 0 0,0 -0.3998224004269089,0.4816118377387328 l -11.735317236418785 -9.914226642294102" fill="#ffc212" stroke="none" /><path d="M 116.0416608686014 113.55231037782055 l 11.758113282385333 9.933485189950499 a36.39244476944362,36.39244476944362 0 0,0 -0.4083882002357678,0.47504773946684586 l -11.585382572578787 -10.134410028578872" fill="#ffc212" stroke="none" /><path d="M 115.80600337817218 113.82643327865902 l 5.732490873396521 5.014544201034107 a28.616239568034818,28.616239568034818 0 0,0 -0.3275076160247727,0.36795827848823187 l -5.645324407723409 -5.112476649263205" fill="#ff5a08" stroke="none" /><path d="M 115.32070863581623 114.36230785411682 l 9.275702427636325 8.695452475184684 a33.71414760313305,33.71414760313305 0 0,0 -0.40054566442020395,0.41997052778412053 l -9.124650211837157 -8.853830119551313" fill="#ff9f0e" stroke="none" /><path d="M 115.07121518719521 114.62390073753431 l 9.081235907831232 8.811704354343528 a33.65365477804891,33.65365477804891 0 0,0 -0.40698386343000426,0.4122725049498146 l -8.928211419345692 -8.966717353274007" fill="#ff9e0e" stroke="none" /><path d="M 114.81725581225074 114.88116024355365 l 8.928212063197062 8.966717999902205 a33.653655690557876,33.653655690557876 0 0,0 -0.4140201690659167,0.4052058751255599 l -8.772541941755351 -9.119073977950336" fill="#ff9e0e" stroke="none" /><path d="M 114.29624159901734 115.38237550388516 l 0.8747402629764978 0.9411972440642453 a22.28492131272943,22.28492131272943 0 0,0 -0.2832312161172843,0.2587250005758217 l -0.8584094973923495 -0.9561150112266501" fill="#ff0000" stroke="none" /><path d="M 114.0293411484842 115.62618273729858 l 0.8584064569278457 0.9561116246917131 a22.284916761570976,22.284916761570976 0 0,0 -0.2876427191935226,0.25381125604279076 l -0.8418213848277354 -0.9707460225067926" fill="#ff0000" stroke="none" /><path d="M 111.45004920935366 117.60387380957326 l 6.886843546064185 10.588174995103921 a33.63083780890681,33.63083780890681 0 0,0 -0.4879965853705734,0.3114625095428136 l -6.703565158646681 -10.705151933470544" fill="#ff9e0e" stroke="none" /><path d="M 111.1453310114006 117.79835938074945 l 6.738755249141198 10.761348189698541 a33.69714287419639,33.69714287419639 0 0,0 -0.4942581384812035,0.30361371746332816 l -6.552517910727686 -10.875750373990247" fill="#ff9f0e" stroke="none" /><line stroke="#e1ed5e" stroke-width="0.3" x1="143.8653032363475" x2="146.44561519142675" y1="172.8068346515853" y2="177.08958963109032" /><path d="M 144.38136562736335 173.6633856474863 a86.0,86.0 0 0,1 -40.68145358897372,12.25698825130547" fill="none" id="id6" stroke="none" /><text fill="#e1ed5e" style="font-size:6.75px; font-family:Arial;" text-anchor="middle"><textPath startOffset="21.466115282336833" xlink:href="#id6">June</textPath></text><path d="M 110.8373102113329 117.98757091392108 l 6.55251888123392 10.87575198481889 a33.69714475479503,33.69714475479503 0 0,0 -0.49941114772855455,0.2950609089112334 l -6.3643398624769825 -10.986931466023872" fill="#ff9f0e" stroke="none" /><path d="M 110.21172684928248 118.3499491758327 l 3.4729509657083177 6.24071468533106 a28.141982091402994,28.141982091402994 0 0,0 -0.4253153878386822,0.23191586090125776 l -3.3650127660009868 -6.299571197992088" fill="#ff5407" stroke="none" /><path d="M 109.89434966115114 118.52300852407294 l 2.988487309077349 5.594685633303487 a27.342835622338704,27.342835622338704 0 0,0 -0.4170551905027474,0.21818356442544729 l -2.891741216048106 -5.645298616673651" fill="#ff4906" stroke="none" /><path d="M 109.57404056367764 118.69057910512821 l 2.891739069654308 5.645294426452938 a27.34283091437142,27.34283091437142 0 0,0 -0.42074899823191125,0.21097228231940393 l -2.794136163739636 -5.694234549681644" fill="#ff4906" stroke="none" /><path d="M 109.2508944713604 118.85261126421891 l 5.5762893943840215 11.364048803558456 a33.658459962395824,33.658459962395824 0 0,0 -0.5223269388745791,0.2507486724156003 l -5.379849787509209 -11.458351752473616" fill="#ff9f0e" stroke="none" /><path d="M 108.92500713936063 119.00905698771935 l 8.07829171433344 17.205667756158928 a40.00773000537401,40.00773000537401 0 0,0 -0.6258961773076892,0.2873182367330387 l -7.780927541258332 -17.342173063226042" fill="#fff016" stroke="none" /><path d="M 108.59647513512805 119.15986991738527 l 2.5991094120801317 5.792909006740851 a27.3492648784204,27.3492648784204 0 0,0 -0.4311798173597055,0.18901656072370618 l -2.4990089200626726 -5.836790120759012" fill="#ff4906" stroke="none" /><path d="M 103.06178313531738 120.77559828337769 l 0.921036755131065 6.249655440356723 a27.317159316297378,27.317159316297378 0 0,0 -0.46578541529335243,0.06455361431328843 l -0.8133227486508822 -6.264583620162615" fill="#ff4806" stroke="none" /><path d="M 102.70371172650421 120.8252237178851 l 0.8133225808297639 6.264582327527643 a27.31715801281393,27.31715801281393 0 0,0 -0.4668275662367224,0.05652631705585109 l -0.7053675915416612 -6.277654173308845" fill="#ff4806" stroke="none" /><path d="M 102.34483914955558 120.86867818915974 l 0.712329697328228 6.339615756134808 a27.37950950568525,27.37950950568525 0 0,0 -0.4687990066272126,0.04859293384040263 l -0.6030980940954128 -6.35093805843097" fill="#ff4906" stroke="none" /><path d="M 101.98527174616119 120.90594882070398 l 1.7452007983296243 18.377876299443646 a39.46055424693806,39.46055424693806 0 0,0 -0.6767591827191848,0.058393629939141156 l -1.4285972978688977 -18.40519418166145" fill="#ffe915" stroke="none" /><path d="M 101.62511606390274 120.93702456842531 l 0.49264413788948336 6.346932780734714 a27.36602340317421,27.36602340317421 0 0,0 -0.46996224421809185,0.032411347906810786 l -0.3833191328924612 -6.35447247315781" fill="#ff4906" stroke="none" /><line stroke="#e1ed5e" stroke-width="0.3" x1="102.19456741930631" x2="102.32365962044197" y1="184.97166512339345" y2="189.96999836594603" /><path d="M 102.22038585953345 185.97133177190398 a86.0,86.0 0 0,1 -42.740103519485714,-10.115201625700543" fill="none" id="id7" stroke="none" /><text fill="#e1ed5e" style="font-size:6.75px; font-family:Arial;" text-anchor="middle"><textPath startOffset="22.20632615414155" xlink:href="#id7">July</textPath></text><path d="M 100.54218724476979 120.99299961872073 l 0.32650266890697016 12.641887963973694 a33.64610356143213,33.64610356143213 0 0,0 -0.5790980050070208,0.009969697327559928 l -0.10884497400728138 -12.645635138580415" fill="#ff9e0e" stroke="none" /><path d="M 99.09653310690486 120.98055641714683 l -0.274263086386217 6.369012745285963 a27.374915182978448,27.374915182978448 0 0,0 -0.470603381296379,-0.02432481938965291 l 0.3838545360960849 -6.363348119134109" fill="#ff4906" stroke="none" /><path d="M 98.73552117531835 120.96189622390904 l -0.38385438045343756 6.363345538968306 a27.374912598122513,27.374912598122513 0 0,0 -0.4701149001573805,-0.032421875954157534 l 0.49333204138974807 -6.355795318497863" fill="#ff4906" stroke="none" /><path d="M 91.7346041902142 119.30500536409082 l -2.5017935026430878 5.843293908706839 a27.35633970405906,27.35633970405906 0 0,0 -0.4312913568120697,-0.18906545634177738 l 2.6020055341129007 -5.79936389907061" fill="#ff4906" stroke="none" /><path d="M 91.40352486487194 119.15986991738527 l -5.196591041984241 11.582190003831672 a33.69455331008103,33.69455331008103 0 0,0 -0.5271304347944025,-0.24197972849895388 l 5.395189472546063 -11.491023204998644" fill="#ff9f0e" stroke="none" /><path d="M 91.07499286063937 119.00905698771935 l -2.693741423460031 5.737304567848246 a27.338210043909623,27.338210043909623 0 0,0 -0.4242464920408901,-0.20366409759649387 l 2.7921005835011634 -5.69008619375219" fill="#ff4906" stroke="none" /><path d="M 90.7491055286396 118.85261126421891 l -5.5568781385448585 11.32449015746008 a33.61439542637886,33.61439542637886 0 0,0 -0.5172552632209914,-0.2593625270221261 l 5.75098730944861 -11.22715978952865" fill="#ff9e0e" stroke="none" /><line stroke="#e1ed5e" stroke-width="0.3" x1="58.666819895761336" x2="56.23545636021788" y1="174.27360380694188" y2="178.64263932499728" /><path d="M 58.180547188652646 175.14741091055294 a86.0,86.0 0 0,1 -31.652253787137756,-30.449443065178592" fill="none" id="id8" stroke="none" /><text fill="#e1ed5e" style="font-size:6.75px; font-family:Arial;" text-anchor="middle"><textPath startOffset="22.20632615414155" xlink:href="#id8">August</textPath></text><path d="M 89.1626897886671 117.98757091392108 l -1.4090375809207463 2.338695018685312 a23.730362850404774,23.730362850404774 0 0,0 -0.34806882624182367,-0.21381230179257077 l 1.4490856070948785 -2.3140942500643633" fill="#ff1502" stroke="none" /><path d="M 88.8546689885994 117.79835938074946 l -1.449088261153534 2.314098488421189 a23.730367851174307,23.730367851174307 0 0,0 -0.34433690135111694,-0.21977210217889853 l 1.4887069645515745 -2.288811957418486" fill="#ff1502" stroke="none" /><path d="M 88.24862548938628 117.40417183066458 l -35.25412353184113 52.212515491993734 a84.0,84.0 0 0,0 -1.191372461508439,-0.8194368425395955 l 36.14765287797246 -51.59793786008904" fill="#4dd2ff" stroke="none" /><path d="M 87.07902340077011 116.55440617244103 l -3.8835719002710807 4.975647633383839 a27.31183016851478,27.31183016851478 0 0,0 -0.3681147090178154,-0.29245258815954817 l 3.9686441020062544 -4.90806113121916" fill="#ff4806" stroke="none" /><path d="M 86.79598089348748 116.32954008644616 l -3.9686452852666836 4.908062594568952 a27.311832050401563,27.311832050401563 0 0,0 -0.36302610330655416,-0.2987457683300063 l 4.052541517117927 -4.839021707381765" fill="#ff4806" stroke="none" /><path d="M 86.24171649860922 115.8653595955263 l -8.262623695525406 9.528041497238776 a33.61168208872084,33.61168208872084 0 0,0 -0.4338430219914505,-0.38281602484423255 l 8.425409070423445 -9.384402330622255" fill="#ff9e0e" stroke="none" /><path d="M 85.97065885151581 115.62618273729859 l -5.914939386424399 6.588187054122556 a29.853853206665597,29.853853206665597 0 0,0 -0.3794288986194969,-0.3465993027165532 l 6.02746783451075 -6.485394984819426" fill="#ff6b09" stroke="none" /><path d="M 85.70375840098266 115.38237550388516 l -6.027467158920293 6.485394257902073 a29.853852214278927,29.853852214278927 0 0,0 -0.3734065324801636,-0.353079183320604 l 6.138209525791273 -6.380680437835539" fill="#ff6b09" stroke="none" /><path d="M 85.18274418774928 114.88116024355367 l -4.486614633355988 4.505964677672763 a27.358728532079247,27.358728532079247 0 0,0 -0.3308574093943902,-0.33515680892760963 l 4.563512667805912 -4.428067374764488" fill="#ff4906" stroke="none" /><path d="M 84.9287848128048 114.62390073753433 l -14.094482954063965 13.676157967820775 a40.6390362926287,40.6390362926287 0 0,0 -0.4828177768230305,-0.5062325087189127 l 14.327807282265953 -13.431518342519361" fill="#fff717" stroke="none" /><path d="M 84.67929136418377 114.36230785411682 l -9.688747680798533 9.082659309059784 a34.28030616163006,34.28030616163006 0 0,0 -0.3998611490141632,-0.4339703037188144 l 9.843655237808425 -8.914537750539624" fill="#ffa70f" stroke="none" /><path d="M 83.72743513129214 113.27417163493432 l -9.797804167404493 7.992454490914527 a33.64421983722794,33.64421983722794 0 0,0 -0.36220740324217904,-0.4519094274788657 l 9.933929482701533 -7.822617229857402" fill="#ff9e0e" stroke="none" /><path d="M 83.50135304334701 112.99209946851258 l -19.86232759120541 15.640878698665894 a46.28139916631871,46.28139916631871 0 0,0 -0.4874823802475747,-0.6301366897561467 l 20.128616788671053 -15.296664014796495" fill="#c3ff1e" stroke="none" /><path d="M 83.28015986056508 112.70617746262583 l -10.061501517775326 7.646198932476947 a33.63717416621322,33.63717416621322 0 0,0 -0.34636475874565503,-0.4640121964597239 l 10.191627543216066 -7.471873856507915" fill="#ff9e0e" stroke="none" /><path d="M 83.06392112726016 112.41649034213515 l -10.907113946025612 7.996424437381335 a34.52434613629568,34.52434613629568 0 0,0 -0.3472495028097508,-0.4822991881029519 l 11.04314324121097 -7.807491643827245" fill="#ffaa0f" stroke="none" /><path d="M 82.85270091963577 112.12312394758628 l -43.40171925907617 30.684973747186003 a74.15333337156906,74.15333337156906 0 0,0 -0.7279000415294815,-1.0485942991736585 l 43.92348020776778 -29.93333818582533" fill="#41ffcc" stroke="none" /><line stroke="#e1ed5e" stroke-width="0.3" x1="26.63291911575756" x2="22.317208475507996" y1="142.92168965132927" y2="145.44649492493687" /><path d="M 25.769776987707644 143.4266507060508 a86.0,86.0 0 0,1 -11.730757126820373,-40.83630448921669" fill="none" id="id9" stroke="none" /><text fill="#e1ed5e" style="font-size:6.75px; font-family:Arial;" text-anchor="middle"><textPath startOffset="21.46611528233685" xlink:href="#id9">September</textPath></text><path d="M 81.18737489456691 109.33194174019688 l -17.58286631875765 8.721923877860588 a40.62725513449338,40.62725513449338 0 0,0 -0.30537523407917705,-0.6291634313596828 l 17.730394809451546 -8.41797149053562" fill="#fff717" stroke="none" /><path d="M 81.02952815118164 109.00673069616217 l -11.3900909255702 5.407745383929458 a33.60864312407037,33.60864312407037 0 0,0 -0.2436232655740541,-0.5247428403033382 l 11.48148880798408 -5.210882476347293" fill="#ff9e0e" stroke="none" /><path d="M 80.32549172779594 107.34259656027581 l -11.8078316088495 4.406724811412106 a33.60333729083136,33.60333729083136 0 0,0 -0.19758080498457634,-0.5436575177384024 l 11.8819366748393 -4.202819496667586" fill="#ff9e0e" stroke="none" /><line stroke="#e1ed5e" stroke-width="0.3" x1="15.007084014347285" x2="10.007500721073583" y1="101.09737516637583" y2="101.16192664675087" /><path d="M 14.007167355692545 101.11028546245083 a86.0,86.0 0 0,1 10.666146001902534,-42.60595125391555" fill="none" id="id10" stroke="none" /><text fill="#e1ed5e" style="font-size:6.75px; font-family:Arial;" text-anchor="middle"><textPath startOffset="22.20632615414155" xlink:href="#id10">October</textPath></text><path d="M 79.00175016825051 100.2711162175752 l -6.3202977309301644 0.08160371595198644 a27.320824516948573,27.320824516948573 0 0,0 -0.0020239562263823533,-0.4702961481208361 l 6.32076598444605 0.027201910372525034" fill="#ff4806" stroke="none" /><path d="M 79.00019446554 99.90962569577889 l -6.32076344029241 -0.027201899423561025 a27.320821972771373,27.320821972771373 0 0,0 0.006071718175480217,-0.4702612639591247 l 6.319358714999215 0.1359994214431577" fill="#ff4806" stroke="none" /><path d="M 79.00486145842228 99.54816195383935 l -12.601982988822494 -0.27120827805651593 a33.604900998447306,33.604900998447306 0 0,0 0.0174238299932806,-0.5782120915984106 l 12.595447464373567 0.488090517079921" fill="#ff9e0e" stroke="none" /><path d="M 79.01574976396665 99.18683210126434 l -12.595450082508016 -0.48809061853614955 a33.6049036185468,33.6049036185468 0 0,0 0.027374221265446436,-0.5778265456981667 l 12.585182253009071 0.7048282708573254" fill="#ff9e0e" stroke="none" /><path d="M 79.03285615573316 98.82574320788736 l -8.80687535541491 -0.4932256524873871 a29.820675998475746,29.820675998475746 0 0,0 0.03311431143492073,-0.5122637411570425 l 8.797080452975576 0.6447484578974414" fill="#ff6b09" stroke="none" /><path d="M 79.05617556472873 98.46500227214037 l -8.79707957666917 -0.6447483936719057 a29.820675119818908,29.820675119818908 0 0,0 0.041927182179225427,-0.5116178202447151 l 8.784677910670446 0.7960801311243992" fill="#ff6b09" stroke="none" /><path d="M 79.46518482838121 95.60439243477599 l -13.449746977323816 -2.879003734379012 a34.75443042283465,34.75443042283465 0 0,0 0.13025565480115406,-0.5839105599063384 l 13.398196935520625 3.110092463835309" fill="#ffad10" stroke="none" /><path d="M 80.2630227832202 92.82701384747504 l -5.929388556691221 -2.154910630080025 a27.308826236302018,27.308826236302018 0 0,0 0.16436715855594963,-0.44042226672007545 l 5.891416809633643 2.256656033829442" fill="#ff4806" stroke="none" /><path d="M 80.38941819471856 92.48833698450439 l -5.891413618134645 -2.256654811353473 a27.308822818683936,27.308822818683936 0 0,0 0.17192392960800348,-0.4375276482129283 l 5.85169613864495 2.3577314644621645" fill="#ff4806" stroke="none" /><line stroke="#e1ed5e" stroke-width="0.3" x1="26.266209847984243" x2="21.928928074336255" y1="57.711370442889674" y2="55.22380399835377" /><path d="M 25.398753493254645 57.213857153982495 a86.0,86.0 0 0,1 29.58750427330803,-30.492523968695096" fill="none" id="id11" stroke="none" /><text fill="#e1ed5e" style="font-size:6.75px; font-family:Arial;" text-anchor="middle"><textPath startOffset="21.46611528233685" xlink:href="#id11">November</textPath></text><path d="M 84.31358615837235 86.03803664274999 l -4.705474653031886 -4.188188922426326 a27.299398237947823,27.299398237947823 0 0,0 0.315446313799675,-0.3483236984322149 l 4.632684698616166 4.268565408128096" fill="#ff4806" stroke="none" /><path d="M 86.10567301691215 84.25364557470407 l -3.670736568506602 -4.160022941734027 a26.547981419500704,26.547981419500704 0 0,0 0.3452580170988512,-0.29940435019912603 l 3.5985847527609773 4.2225922853528335" fill="#ff3d05" stroke="none" /><line stroke="#e1ed5e" stroke-width="0.3" x1="56.762969772571076" x2="54.21961505331055" y1="26.818313649435495" y2="22.513508569990535" /><path d="M 56.25429882871897 25.957352633546506 a86.0,86.0 0 0,1 42.265352541879196,-11.944610805530505" fill="none" id="id12" stroke="none" /><text fill="#e1ed5e" style="font-size:6.75px; font-family:Arial;" text-anchor="middle"><textPath startOffset="22.20632615414155" xlink:href="#id12">December</textPath></text><path d="M 94.63758080256005 79.69619591428918 l -3.227565917128592 -12.220578742963959 a33.63960943076932,33.63960943076932 0 0,0 0.5611264843669885,-0.14304363486749305 l 3.016730544076604 12.274325374000316" fill="#ff9e0e" stroke="none" /></svg>