<?xml version="1.0" encoding="utf-8" ?>
<svg baseProfile="full" height="200mm" version="1.1" viewBox="0,0,200,200" width="200mm" xmlns="http://www.w3.org/2000/svg" xmlns:ev="http://www.w3.org/2001/xml-events" xmlns:xlink="http://www.w3.org/1999/xlink"><defs /><rect fill="#1a1a1a" height="200" width="200" x="0" y="0" /><text alignment-baseline="middle" fill="#e1ed5e" style="dominant-baseline: central; font-size:9.0px; font-family:Arial;" text-anchor="middle" x="100.0" y="100.0">2019</text><line stroke="#e1ed5e" stroke-width="0.3" x1="100.0" x2="100.0" y1="15.0" y2="10.0" /><path d="M 100.0 14.0 a86.0,86.0 0 0,1 42.46469731375804,11.215312516191453" fill="none" id="id25" stroke="none" /><text fill="#e1ed5e" style="font-size:6.75px; font-family:Arial;" text-anchor="middle"><textPath startOffset="22.20632615414155" xlink:href="#id25">January</textPath></text><line stroke="#e1ed5e" stroke-width="0.3" x1="143.23703022742887" x2="145.7803849466894" y1="26.81831364943548" y2="22.513508569990506" /><path d="M 143.74570117128098 25.957352633546492 a86.0,86.0 0 0,1 28.547481713284135,27.462654790039103" fill="none" id="id26" stroke="none" /><text fill="#e1ed5e" style="font-size:6.75px; font-family:Arial;" text-anchor="middle"><textPath startOffset="19.985693538727396" xlink:href="#id26">February</textPath></text><path d="M 115.4437574822437 85.77008943001954 l 5.452370369319492 -5.023825506132967 a28.413984445647653,28.413984445647653 0 0,0 0.3283254295796881,0.3625451397513179 l -5.538039439515215 4.9292275791121005" fill="#ff3805" stroke="none" /><path d="M 115.68641384162765 86.03803664274999 l 5.538039439515215 -4.9292275791121005 a28.413984445647653,28.413984445647653 0 0,0 0.32203616601126694,0.36814300733105404 l -5.62206746910433 4.833169015578099" fill="#ff3805" stroke="none" /><line stroke="#e1ed5e" stroke-width="0.3" x1="172.23445277983987" x2="176.4835382374775" y1="55.19839476539836" y2="52.563006222186495" /><path d="M 173.08426987136738 54.67131705675599 a86.0,86.0 0 0,1 12.851231095245387,41.99856678651699" fill="none" id="id27" stroke="none" /><text fill="#e1ed5e" style="font-size:6.75px; font-family:Arial;" text-anchor="middle"><textPath startOffset="22.20632615414155" xlink:href="#id27">March</textPath></text><path d="M 118.73160827565052 90.50648371742162 l 6.614603593816943 -3.3524001781700665 a28.415629956917396,28.415629956917396 0 0,0 0.21736602039047423,0.43819663325284275 l -6.671329627160825 3.2380439564182737" fill="#ff3805" stroke="none" /><path d="M 118.89224826269711 90.83032412892265 l 6.671329627160825 -3.2380439564182737 a28.415629956917396,28.415629956917396 0 0,0 0.20979098055451298,0.44187330841824957 l -6.726078801557094 3.122728232359484" fill="#ff3805" stroke="none" /><path d="M 120.18372546131832 94.20196356495316 l 7.136544408579261 -2.0500647702810046 a28.425162062741204,28.425162062741204 0 0,0 0.13104436840326075,0.47143631642558054 l -7.170775547548884 1.9269171504364722" fill="#ff3805" stroke="none" /><path d="M 120.28053869075195 94.5502522615342 l 7.170775547548884 -1.9269171504364722 a28.425162062741204,28.425162062741204 0 0,0 0.12290995154657212,0.47362218143363616 l -7.202881830965759 1.8031985434539854" fill="#ff3805" stroke="none" /><line stroke="#e1ed5e" stroke-width="0.3" x1="184.98032266829074" x2="189.97916517819016" y1="98.17113171792111" y2="98.06355123074" /><path d="M 185.9800911702706 98.14961562048488 a86.0,86.0 0 0,1 -9.607161424134198,41.387399972396054" fill="none" id="id28" stroke="none" /><text fill="#e1ed5e" style="font-size:6.75px; font-family:Arial;" text-anchor="middle"><textPath startOffset="21.466115282336823" xlink:href="#id28">April</textPath></text><path d="M 120.89721153311464 102.0752229133903 l 5.311150799916208 0.5274302659468068 a26.337275101106115,26.337275101106115 0 0,0 -0.04868344781707574,0.45074826394617334 l -5.30128505059808 -0.6187748517777715" fill="#ff1902" stroke="none" /><path d="M 120.8583938346157 102.4346265915055 l 5.30128505059808 0.6187748517777715 a26.337275101106115,26.337275101106115 0 0,0 -0.05643512524287336,0.44984347520073426 l -5.2898484161083585 -0.7099360812659007" fill="#ff1902" stroke="none" /><path d="M 120.5718875245553 104.21870165774334 l 30.832134235287914 6.32278276142218 a52.473768178452204,52.473768178452204 0 0,0 -0.18907038623682454,0.8832738997258304 l -30.718729810326646 -6.85257048056418" fill="#8dff24" stroke="none" /><path d="M 119.54520255179757 107.68017299344265 l 4.9286139613144 1.9366700212226733 a26.295462807986272,26.295462807986272 0 0,0 -0.16916420391671008,0.4198516810658849 l -4.894547143140298 -2.021221070131372" fill="#ff1802" stroke="none" /><line stroke="#e1ed5e" stroke-width="0.3" x1="174.80103733775053" x2="179.2010983576182" y1="140.37084112569926" y2="142.7455964860345" /><path d="M 175.68104954172406 140.8457921977663 a86.0,86.0 0 0,1 -30.038265399797805,32.042727171017184" fill="none" id="id29" stroke="none" /><text fill="#e1ed5e" style="font-size:6.75px; font-family:Arial;" text-anchor="middle"><textPath startOffset="22.206326154141568" xlink:href="#id29">May</textPath></text><path d="M 112.63410532772338 116.77436683061366 l 37.90231598317012 50.32310049184099 a84.0,84.0 0 0,0 -1.1624601183257428,0.8599602050409239 l -37.03047089442582 -50.96807064562168" fill="#4dd2ff" stroke="none" /><path d="M 111.45004920935366 117.60387380957326 l 2.267563126292536 3.486264067571507 a25.158831528273513,25.158831528273513 0 0,0 -0.36506446694763695,0.23300141523342097 l -2.2072168572979685 -3.5247799116287366" fill="#ff0701" stroke="none" /><path d="M 111.1453310114006 117.79835938074945 l 2.207215836303969 3.5247782811685813 a25.158829604519614,25.158829604519614 0 0,0 -0.3690210868357547,0.22668289153689264 l -2.1462155495359054 -3.562249639533852" fill="#ff0701" stroke="none" /><line stroke="#e1ed5e" stroke-width="0.3" x1="143.8653032363475" x2="146.44561519142675" y1="172.8068346515853" y2="177.08958963109032" /><path d="M 144.38136562736335 173.6633856474863 a86.0,86.0 0 0,1 -40.68145358897372,12.25698825130547" fill="none" id="id30" stroke="none" /><text fill="#e1ed5e" style="font-size:6.75px; font-family:Arial;" text-anchor="middle"><textPath startOffset="21.466115282336833" xlink:href="#id30">June</textPath></text><path d="M 107.59598834532513 119.57807347666477 l 1.8799224061390387 4.845354853719589 a26.197265811132578,26.197265811132578 0 0,0 -0.42181312882869804,0.15949363220833485 l -1.7962390565500659 -4.876996736034555" fill="#ff1602" stroke="none" /><path d="M 107.2578585660854 119.70592522655815 l 3.602287061705804 9.780625901733385 a31.422912985561716,31.422912985561716 0 0,0 -0.5091715541438359,0.18257080385979776 l -3.4333959469322335 -9.841184246633144" fill="#ff6309" stroke="none" /><path d="M 106.91757812671514 119.82793768551818 l 1.721372504369607 4.933990787670718 a26.225647174429135,26.225647174429135 0 0,0 -0.4275158476722088,0.14503658711913708 l -1.6361869237601714 -4.962890361687977" fill="#ff1702" stroke="none" /><path d="M 101.26447882468166 120.96189622390904 l 3.764217213129354 62.401306408380734 a83.51473724411099,83.51473724411099 0 0,0 -1.435705552782725,0.07420957786566884 l -2.6895235919331495 -62.45685579300861" fill="#4cd7ff" stroke="none" /><line stroke="#e1ed5e" stroke-width="0.3" x1="102.19456741930631" x2="102.32365962044197" y1="184.97166512339345" y2="189.96999836594603" /><path d="M 102.22038585953345 185.97133177190398 a86.0,86.0 0 0,1 -42.740103519485714,-10.115201625700543" fill="none" id="id31" stroke="none" /><text fill="#e1ed5e" style="font-size:6.75px; font-family:Arial;" text-anchor="middle"><textPath startOffset="22.20632615414155" xlink:href="#id31">July</textPath></text><path d="M 92.7421414339146 119.70592522655815 l -1.3132155837121076 3.565532155711232 a24.799678239366475,24.799678239366475 0 0,0 -0.39930998706157145,-0.1509848695093073 l 1.374395791533962 -3.5423990360952917" fill="#ff0100" stroke="none" /><path d="M 92.40401165467489 119.57807347666478 l -2.7191707992090572 7.0084527888039645 a28.517466350318124,28.517466350318124 0 0,0 -0.4561150434170177,-0.18149758891732518 l 2.839406918667933 -6.960608355480573" fill="#ff3905" stroke="none" /><path d="M 92.06813273071674 119.44442032107085 l -2.809067091437008 6.886232381561876 a28.437140198830846,28.437140198830846 0 0,0 -0.45164751745629034,-0.18878869892642827 l 2.927186068390761 -6.836858639615475" fill="#ff3805" stroke="none" /><path d="M 91.7346041902142 119.30500536409082 l -1.4639008172511796 3.4191481908309673 a24.719352087879198,24.719352087879198 0 0,0 -0.38971744819774995,-0.17084067654981253 l 1.522538940106673 -3.3934429609867025" fill="#ff0000" stroke="none" /><line stroke="#e1ed5e" stroke-width="0.3" x1="58.666819895761336" x2="56.23545636021788" y1="174.27360380694188" y2="178.64263932499728" /><path d="M 58.180547188652646 175.14741091055294 a86.0,86.0 0 0,1 -31.652253787137756,-30.449443065178592" fill="none" id="id32" stroke="none" /><text fill="#e1ed5e" style="font-size:6.75px; font-family:Arial;" text-anchor="middle"><textPath startOffset="22.20632615414155" xlink:href="#id32">August</textPath></text><path d="M 83.28015986056508 112.70617746262583 l -25.096502699160222 19.07198958408075 a52.52102844807322,52.52102844807322 0 0,0 -0.5408133649277502,-0.7245078807777166 l 25.421077330783056 -18.637168823793726" fill="#8cff24" stroke="none" /><line stroke="#e1ed5e" stroke-width="0.3" x1="26.63291911575756" x2="22.317208475507996" y1="142.92168965132927" y2="145.44649492493687" /><path d="M 25.769776987707644 143.4266507060508 a86.0,86.0 0 0,1 -11.730757126820373,-40.83630448921669" fill="none" id="id33" stroke="none" /><text fill="#e1ed5e" style="font-size:6.75px; font-family:Arial;" text-anchor="middle"><textPath startOffset="21.46611528233685" xlink:href="#id33">September</textPath></text><path d="M 81.69416730710424 110.29060199501025 l -3.2496454866436784 1.826784330925815 a24.727913193809602,24.727913193809602 0 0,0 -0.2053872098112137,-0.37283744455521806 l 3.2806091059064086 -1.7705763679727744" fill="#ff0000" stroke="none" /><path d="M 81.51974371655577 109.97397251340807 l -3.2806091059064086 1.7705763679727744 a24.727913193809602,24.727913193809602 0 0,0 -0.1989389957584228,-0.37631760785691537 l 3.3106006098897174 -1.7138437450297328" fill="#ff0000" stroke="none" /><line stroke="#e1ed5e" stroke-width="0.3" x1="15.007084014347285" x2="10.007500721073583" y1="101.09737516637583" y2="101.16192664675087" /><path d="M 14.007167355692545 101.11028546245083 a86.0,86.0 0 0,1 10.666146001902534,-42.60595125391555" fill="none" id="id34" stroke="none" /><text fill="#e1ed5e" style="font-size:6.75px; font-family:Arial;" text-anchor="middle"><textPath startOffset="22.20632615414155" xlink:href="#id34">October</textPath></text><path d="M 81.43458229118936 90.18545643968196 l -6.566022077269631 -3.4711047554179246 a28.427059589250455,28.427059589250455 0 0,0 0.23241409021467516,-0.43062801158483605 l 6.505299887836484 3.583613750335233" fill="#ff3805" stroke="none" /><line stroke="#e1ed5e" stroke-width="0.3" x1="26.266209847984243" x2="21.928928074336255" y1="57.711370442889674" y2="55.22380399835377" /><path d="M 25.398753493254645 57.213857153982495 a86.0,86.0 0 0,1 29.58750427330803,-30.492523968695096" fill="none" id="id35" stroke="none" /><text fill="#e1ed5e" style="font-size:6.75px; font-family:Arial;" text-anchor="middle"><textPath startOffset="21.46611528233685" xlink:href="#id35">November</textPath></text><path d="M 82.34701348167596 88.62581576622439 l -6.236531372020121 -4.018326119008033 a28.418980277160287,28.418980277160287 0 0,0 0.26849625269930977,-0.408938213330133 l 6.1664384839628905 4.125082396315833" fill="#ff3805" stroke="none" /><path d="M 82.54541684631803 88.32363383020206 l -6.1664384839628905 -4.125082396315833 a28.418980277160287,28.418980277160287 0 0,0 0.27549567119392543,-0.4042559030967804 l 6.094518347100225 4.230616322683029" fill="#ff3805" stroke="none" /><line stroke="#e1ed5e" stroke-width="0.3" x1="56.762969772571076" x2="54.21961505331055" y1="26.818313649435495" y2="22.513508569990535" /><path d="M 56.25429882871897 25.957352633546506 a86.0,86.0 0 0,1 42.265352541879196,-11.944610805530505" fill="none" id="id36" stroke="none" /><text fill="#e1ed5e" style="font-size:6.75px; font-family:Arial;" text-anchor="middle"><textPath startOffset="22.20632615414155" xlink:href="#id36">December</textPath></text></svg>