<?xml version="1.0" encoding="utf-8" ?>
<svg baseProfile="full" height="200mm" version="1.1" viewBox="0,0,200,200" width="200mm" xmlns="http://www.w3.org/2000/svg" xmlns:ev="http://www.w3.org/2001/xml-events" xmlns:xlink="http://www.w3.org/1999/xlink"><defs /><rect fill="#1a1a1a" height="200" width="200" x="0" y="0" /><rect fill="#1a1a1a" height="200" width="180" x="10" y="0" /><text alignment-baseline="middle" fill="#e1ed5e" style="dominant-baseline: central; font-size:9.0px; font-family:Arial;" text-anchor="middle" x="100.0" y="100.0">2021</text><line stroke="#e1ed5e" stroke-width="0.3" x1="100.0" x2="100.0" y1="15.0" y2="10.0" /><path d="M 100.0 14.0 a86.0,86.0 0 0,1 42.46469731375804,11.215312516191453" fill="none" id="id49" stroke="none" /><text fill="#e1ed5e" style="font-size:6.75px; font-family:Arial;" text-anchor="middle"><textPath startOffset="22.20632615414155" xlink:href="#id49">January</textPath></text><path d="M 108.76106565485865 80.91482961587045 l 5.536046871509258 -12.059765553598767 a34.26973097584555,34.26973097584555 0 0,0 0.5339906032475121,0.2507157482569743 l -5.742815686056368 11.96268482270179" fill="red" stroke="none" /><path d="M 109.08828744355905 81.06846463323043 l 5.742815686056368 -11.96268482270179 a34.26973097584555,34.26973097584555 0 0,0 0.5295958273087864,0.2598703724509958 l -5.947882780375586 11.862059290115962" fill="red" stroke="none" /><line stroke="#e1ed5e" stroke-width="0.3" x1="143.23703022742887" x2="145.7803849466894" y1="26.81831364943548" y2="22.513508569990506" /><path d="M 143.74570117128098 25.957352633546492 a86.0,86.0 0 0,1 28.547481713284135,27.462654790039103" fill="none" id="id50" stroke="none" /><text fill="#e1ed5e" style="font-size:6.75px; font-family:Arial;" text-anchor="middle"><textPath startOffset="19.985693538727396" xlink:href="#id50">February</textPath></text><path d="M 115.9244219780498 86.31012108654704 l 22.331736159005906 -19.198107433059242 a50.44951220116789,50.44951220116789 0 0,0 0.5604445595849834,0.6633895852347479 l -22.658891332078007 18.810858898195388" fill="red" stroke="none" /><path d="M 117.04232023915458 87.72973835380427 l 6.173632422792498 -4.4449396603322535 a28.607313972470795,28.607313972470795 0 0,0 0.2842850193982241,0.40210099911244745 l -6.249230061994606 4.338012160888013" fill="red" stroke="none" /><path d="M 117.2510076193507 88.02491185347247 l 6.249230061994606 -4.338012160888013 a28.607313972470795,28.607313972470795 0 0,0 0.2773213917965739,0.40693492279907606 l -6.322975919459912 4.229799214818531" fill="red" stroke="none" /><path d="M 117.45458315368197 88.32363383020206 l 22.935088993058997 -15.34258909891917 a48.593719346579746,48.593719346579746 0 0,0 0.4591027342301962,0.6992449614607156 l -23.195788362647118 14.945526073480782" fill="red" stroke="none" /><line stroke="#e1ed5e" stroke-width="0.3" x1="172.23445277983987" x2="176.4835382374775" y1="55.19839476539836" y2="52.563006222186495" /><path d="M 173.08426987136738 54.67131705675599 a86.0,86.0 0 0,1 12.851231095245387,41.99856678651699" fill="none" id="id51" stroke="none" /><text fill="#e1ed5e" style="font-size:6.75px; font-family:Arial;" text-anchor="middle"><textPath startOffset="22.20632615414155" xlink:href="#id51">March</textPath></text><path d="M 117.84615892207809 88.93136811851018 l 15.185429219641037 -9.418381105341721 a38.86905602515661,38.86905602515661 0 0,0 0.3477562648883137,0.5716198631232297 l -15.345301282815575 9.15559346901141" fill="red" stroke="none" /><path d="M 118.03404312379186 89.2402003453031 l 15.345301282815575 -9.15559346901141 a38.86905602515661,38.86905602515661 0 0,0 0.3378652447553892,0.5775212239151777 l -15.50062620204129 8.890092832742338" fill="red" stroke="none" /><path d="M 118.21658344932153 89.55222093294921 l 9.028720648795252 -5.178253038455769 a31.408270801831502,31.408270801831502 0 0,0 0.26493977013154474,0.47129828829003045 l -9.11651806021923 5.022071240230945" fill="red" stroke="none" /><path d="M 118.3937258080291 89.86733742301442 l 9.11651806021923 -5.022071240230945 a31.408270801831502,31.408270801831502 0 0,0 0.25678789115369727,0.47578896298602313 l -9.201614050591393 4.864401293912463" fill="red" stroke="none" /><path d="M 118.56541770881063 90.18545643968196 l 10.711851095821993 -5.66278286007499 a33.11655328958784,33.11655328958784 0 0,0 0.26207898871332463,0.5062531881274575 l -10.807739517695435 5.477556949687187" fill="red" stroke="none" /><path d="M 118.73160827565052 90.50648371742162 l 10.807739517695435 -5.477556949687187 a33.11655328958784,33.11655328958784 0 0,0 0.2533258424508172,0.5106894402284087 l -10.90042537309966 5.29070792095983" fill="red" stroke="none" /><line stroke="#e1ed5e" stroke-width="0.3" x1="184.98032266829074" x2="189.97916517819016" y1="98.17113171792111" y2="98.06355123074" /><path d="M 185.9800911702706 98.14961562048488 a86.0,86.0 0 0,1 -9.607161424134198,41.387399972396054" fill="none" id="id52" stroke="none" /><text fill="#e1ed5e" style="font-size:6.75px; font-family:Arial;" text-anchor="middle"><textPath startOffset="21.466115282336823" xlink:href="#id52">April</textPath></text><path d="M 120.99824983174949 100.27111621757518 l 15.68663869105629 0.20253602954839212 a36.68794614559246,36.68794614559246 0 0,0 -0.013588406920773358,0.6313998749886152 l -15.68082822145051 -0.4725257203271221" fill="red" stroke="none" /><line stroke="#e1ed5e" stroke-width="0.3" x1="174.80103733775053" x2="179.2010983576182" y1="140.37084112569926" y2="142.7455964860345" /><path d="M 175.68104954172406 140.8457921977663 a86.0,86.0 0 0,1 -30.038265399797805,32.042727171017184" fill="none" id="id53" stroke="none" /><text fill="#e1ed5e" style="font-size:6.75px; font-family:Arial;" text-anchor="middle"><textPath startOffset="22.206326154141568" xlink:href="#id53">May</textPath></text><path d="M 115.56566222782051 114.09645910891815 l 35.43656744002436 32.09180030811112 a68.80830428855509,68.80830428855509 0 0,0 -0.8026114902478542,0.8710762549695383 l -34.878909541780786 -32.69702781788199" fill="red" stroke="none" /><path d="M 113.20401910651253 116.32954008644616 l 29.64400504447716 36.66103212906182 a68.14656203632552,68.14656203632552 0 0,0 -0.9184939895930548,0.729707175195971 l -29.008553562166757 -37.165873218262924" fill="red" stroke="none" /><line stroke="#e1ed5e" stroke-width="0.3" x1="143.8653032363475" x2="146.44561519142675" y1="172.8068346515853" y2="177.08958963109032" /><path d="M 144.38136562736335 173.6633856474863 a86.0,86.0 0 0,1 -40.68145358897372,12.25698825130547" fill="none" id="id54" stroke="none" /><text fill="#e1ed5e" style="font-size:6.75px; font-family:Arial;" text-anchor="middle"><textPath startOffset="21.466115282336833" xlink:href="#id54">June</textPath></text><line stroke="#e1ed5e" stroke-width="0.3" x1="102.19456741930631" x2="102.32365962044197" y1="184.97166512339345" y2="189.96999836594603" /><path d="M 102.22038585953345 185.97133177190398 a86.0,86.0 0 0,1 -42.740103519485714,-10.115201625700543" fill="none" id="id55" stroke="none" /><text fill="#e1ed5e" style="font-size:6.75px; font-family:Arial;" text-anchor="middle"><textPath startOffset="22.20632615414155" xlink:href="#id55">July</textPath></text><path d="M 99.45781275523022 120.99299961872073 l -0.5770077575824964 22.34121837386943 a43.34866833574724,43.34866833574724 0 0,0 -0.7457615072243476,-0.02568553419343374 l 0.9614896164814871 -22.3279760412499" fill="red" stroke="none" /><path d="M 96.22490169976321 120.6578951692458 l -4.024850935711524 22.024578458408413 a43.389316231749596,43.389316231749596 0 0,0 -0.7335529735171967,-0.14058717324535858 l 4.403371523800415 -21.95203408681459" fill="red" stroke="none" /><path d="M 92.7421414339146 119.70592522655815 l -3.7102461051696 10.073747187944369 a31.735283348265348,31.735283348265348 0 0,0 -0.5109830644123252,-0.1932100718779785 l 3.883099390342208 -10.008388865959757" fill="red" stroke="none" /><path d="M 92.40401165467489 119.57807347666478 l -3.883099390342208 10.008388865959757 a31.735283348265348,31.735283348265348 0 0,0 -0.507581562977243,-0.2019771791982511 l 4.054802029361309 -9.94006484235544" fill="red" stroke="none" /><path d="M 91.40352486487194 119.15986991738527 l -3.1113412830116824 6.934574149757771 a28.60057650562518,28.60057650562518 0 0,0 -0.44743832007620454,-0.20539698728322742 l 3.230247598855306 -6.879990092140469" fill="red" stroke="none" /><path d="M 91.07499286063937 119.00905698771935 l -3.230247598855306 6.879990092140469 a28.60057650562518,28.60057650562518 0 0,0 -0.4438364557653881,-0.21306847066438805 l 3.3481967226209366 -6.823367344976519" fill="red" stroke="none" /><path d="M 90.42595943632237 118.69057910512821 l -10.649411814967742 20.789934263061436 a44.35875293476067,44.35875293476067 0 0,0 -0.6765958151230169,-0.3539629525793141 l 11.005698532617254 -20.603541891537404" fill="red" stroke="none" /><path d="M 90.10565033884886 118.52300852407294 l -11.005698532617254 20.603541891537404 a44.35875293476067,44.35875293476067 0 0,0 -0.6704026797832396,-0.36555699388758367 l 11.358724024269135 -20.411044245890054" fill="red" stroke="none" /><line stroke="#e1ed5e" stroke-width="0.3" x1="58.666819895761336" x2="56.23545636021788" y1="174.27360380694188" y2="178.64263932499728" /><path d="M 58.180547188652646 175.14741091055294 a86.0,86.0 0 0,1 -31.652253787137756,-30.449443065178592" fill="none" id="id56" stroke="none" /><text fill="#e1ed5e" style="font-size:6.75px; font-family:Arial;" text-anchor="middle"><textPath startOffset="22.20632615414155" xlink:href="#id56">August</textPath></text><path d="M 89.1626897886671 117.98757091392108 l -7.735645326155485 12.839483797709812 a35.989748256849545,35.989748256849545 0 0,0 -0.5278852882052187,-0.3242702593399623 l 7.955509814293013 -12.704425071541472" fill="red" stroke="none" /><path d="M 88.8546689885994 117.79835938074946 l -7.955509814293013 12.704425071541472 a35.989748256849545,35.989748256849545 0 0,0 -0.52222529683867,-0.33330889267718483 l 8.173016913178605 -12.565601750040482" fill="red" stroke="none" /><path d="M 88.24862548938628 117.40417183066458 l -12.533514997392281 18.562547594735346 a43.39770460106732,43.39770460106732 0 0,0 -0.6155098827903532,-0.42335330990196046 l 12.851181764805524 -18.344053495468284" fill="red" stroke="none" /><path d="M 87.95078237400918 117.19931262002967 l -12.851181764805524 18.344053495468284 a43.39770460106732,43.39770460106732 0 0,0 -0.6081313570562255,-0.4338855763706481 l 13.165040449710638 -18.120123657253416" fill="red" stroke="none" /><path d="M 85.44109423537348 115.13401014063109 l -13.124684108536231 13.643134010371313 a39.93125559950565,39.93125559950565 0 0,0 -0.4912496088488865,-0.4807911365955984 l 13.357583669760912 -13.415192770853146" fill="red" stroke="none" /><path d="M 85.18274418774928 114.88116024355367 l -13.357583669760912 13.415192770853146 a39.93125559950565,39.93125559950565 0 0,0 -0.4829007958475329,-0.48917595667907815 l 13.586525090663978 -13.183276320193402" fill="red" stroke="none" /><path d="M 84.67929136418377 114.36230785411682 l -15.781397061828999 14.794177499085851 a42.63146275908227,42.63146275908227 0 0,0 -0.49727285405873867,-0.5396914704992976 l 16.033716323883468 -14.520334773785208" fill="red" stroke="none" /><path d="M 84.43433777217949 114.09645910891817 l -16.033716323883468 14.520334773785208 a42.63146275908227,42.63146275908227 0 0,0 -0.48790927622342184,-0.5481712441277438 l 16.281284449755226 -14.242189359916601" fill="red" stroke="none" /><path d="M 84.19399662182784 113.82643327865904 l -34.84962047563768 30.484996160282705 a67.3015230655368,67.3015230655368 0 0,0 -0.75524323941375,-0.8785185111224821 l 35.369206224622204 -29.880600549998693" fill="red" stroke="none" /><path d="M 83.50135304334701 112.99209946851258 l -24.635952503069507 19.39993905332722 a52.35742003109164,52.35742003109164 0 0,0 -0.5514811609013152,-0.7128637408735565 l 24.96624048118889 -18.97299731834041" fill="red" stroke="none" /><path d="M 82.24976979558568 111.22182372390057 l -22.700565129701502 14.351461214011877 a47.85665832126378,47.85665832126378 0 0,0 -0.43420883988235764,-0.7000829049948233 l 22.944238609251816 -13.95858197765179" fill="red" stroke="none" /><path d="M 82.05923443525364 110.91462005526583 l -15.608620423233587 9.495813369370316 a39.27018070689222,39.27018070689222 0 0,0 -0.3463613562715603,-0.5805215557791266 l 15.76976265520338 -9.225729719705079" fill="red" stroke="none" /><line stroke="#e1ed5e" stroke-width="0.3" x1="26.63291911575756" x2="22.317208475507996" y1="142.92168965132927" y2="145.44649492493687" /><path d="M 25.769776987707644 143.4266507060508 a86.0,86.0 0 0,1 -11.730757126820373,-40.83630448921669" fill="none" id="id57" stroke="none" /><text fill="#e1ed5e" style="font-size:6.75px; font-family:Arial;" text-anchor="middle"><textPath startOffset="21.46611528233685" xlink:href="#id57">September</textPath></text><path d="M 81.87401531095188 110.60418214915194 l -54.3779540671444 31.812546447455823 a84.0,84.0 0 0,0 -0.7193920153904911,-1.2543206165667722 l 54.91749807868727 -30.871805985030743" fill="red" stroke="none" /><path d="M 80.73074385275274 108.34839909993369 l -16.861655082249495 7.305306703920358 a39.37615079800702,39.37615079800702 0 0,0 -0.26409962877728865,-0.6242535086603498 l 16.98490569221909 -7.0139786695938495" fill="red" stroke="none" /><path d="M 80.58989483394504 108.01547362559985 l -16.98490569221909 7.0139786695938495 a39.37615079800702,39.37615079800702 0 0,0 -0.2533150015913153,-0.6287070597375608 l 17.103123308067794 -6.720572242013484" fill="red" stroke="none" /><path d="M 79.18660465613746 102.79330883721812 l -22.170908298600473 2.9754969362985415 a43.369683878027274,43.369683878027274 0 0,0 -0.09293191995012048,-0.7407588385340949 l 22.218841727797443 -2.593420343477038" fill="red" stroke="none" /><line stroke="#e1ed5e" stroke-width="0.3" x1="15.007084014347285" x2="10.007500721073583" y1="101.09737516637583" y2="101.16192664675087" /><path d="M 14.007167355692545 101.11028546245083 a86.0,86.0 0 0,1 10.666146001902534,-42.60595125391555" fill="none" id="id58" stroke="none" /><text fill="#e1ed5e" style="font-size:6.75px; font-family:Arial;" text-anchor="middle"><textPath startOffset="22.20632615414155" xlink:href="#id58">October</textPath></text><path d="M 79.12142395522702 97.74499172005258 l -6.862512782060861 -0.7411915023135158 a27.902423235868,27.902423235868 0 0,0 0.055684795626651726,-0.47707332279753706 l 6.848737633430621 0.8592085634359146" fill="red" stroke="none" /><path d="M 79.16333360222342 97.38593545837743 l -52.16935588558607 -6.5449079414330384 a73.578298883463,73.578298883463 0 0,0 0.1684732853731151,-1.2553216624775785 l 52.04896660115512 7.441947945975277" fill="red" stroke="none" /><path d="M 81.6062741919709 89.86733742301443 l -39.17046600453756 -21.57807065026546 a65.72067240103262,65.72067240103262 0 0,0 0.5543769011888748,-0.9861746481780606 l 38.793231462056255 22.249128808378302" fill="red" stroke="none" /><line stroke="#e1ed5e" stroke-width="0.3" x1="26.266209847984243" x2="21.928928074336255" y1="57.711370442889674" y2="55.22380399835377" /><path d="M 25.398753493254645 57.213857153982495 a86.0,86.0 0 0,1 29.58750427330803,-30.492523968695096" fill="none" id="id59" stroke="none" /><text fill="#e1ed5e" style="font-size:6.75px; font-family:Arial;" text-anchor="middle"><textPath startOffset="21.46611528233685" xlink:href="#id59">November</textPath></text><path d="M 84.07557802195018 86.31012108654704 l -17.870646860726804 -15.363006077435594 a44.566543551317146,44.566543551317146 0 0,0 0.5051047608298033,-0.577422057815116 l 17.603550236319155 15.668343691453654" fill="red" stroke="none" /><path d="M 84.5562425177563 85.77008943001954 l -27.003526801327236 -24.88110629157143 a57.71865888077169,57.71865888077169 0 0,0 0.6795208860650911,-0.7248655030306108 l 26.57123859329169 25.342241211480093" fill="red" stroke="none" /><path d="M 87.80319425747018 82.90503203632743 l -12.107201282070916 -16.96937890262801 a41.845722420332095,41.845722420332095 0 0,0 0.5899626357279143,-0.413306528355695 l 11.813307506759342 17.175270273747646" fill="red" stroke="none" /><path d="M 88.09926311788651 82.69761687909137 l -11.813307506759342 -17.175270273747646 a41.845722420332095,41.845722420332095 0 0,0 0.5969896188713578,-0.4030900555661829 l 11.515913193481444 17.376072241612494" fill="red" stroke="none" /><line stroke="#e1ed5e" stroke-width="0.3" x1="56.762969772571076" x2="54.21961505331055" y1="26.818313649435495" y2="22.513508569990535" /><path d="M 56.25429882871897 25.957352633546506 a86.0,86.0 0 0,1 42.265352541879196,-11.944610805530505" fill="none" id="id60" stroke="none" /><text fill="#e1ed5e" style="font-size:6.75px; font-family:Arial;" text-anchor="middle"><textPath startOffset="22.20632615414155" xlink:href="#id60">December</textPath></text><path d="M 92.23578459929587 80.48803036053334 l -4.310431654089508 -10.83239029663745 a32.6584947820575,32.6584947820575 0 0,0 0.5241172641582669,-0.2033493558431606 l 4.123331224931565 10.904982356371162" fill="red" stroke="none" /><path d="M 92.57280143429618 80.3572730644239 l -4.123331224931565 -10.904982356371162 a32.6584947820575,32.6584947820575 0 0,0 0.5275399354161058,-0.1942974103064065 l 3.93500896374289 10.974343034483892" fill="red" stroke="none" /><path d="M 93.25333710446033 80.11325718540243 l -4.250490083175601 -12.5289205091296 a34.23028779245797,34.23028779245797 0 0,0 0.5596117047017515,-0.1844951806077585 l 4.03419555623144 12.600229413996592" fill="red" stroke="none" /><path d="M 93.59665428221793 80.00007090966166 l -10.844166686117855 -33.87019447722212 a56.56383029204189,56.56383029204189 0 0,0 0.929841028205754,-0.2889061336977213 l 10.259540285201373 34.05184074580237" fill="red" stroke="none" /><path d="M 93.94186890950719 79.89281104454417 l -6.442834675122463 -21.384036146849372 a43.33354249958391,43.33354249958391 0 0,0 0.7160553880025469,-0.20903620328954453 l 6.073789069396495 21.491770679057613" fill="red" stroke="none" /><path d="M 95.692805502759 79.44645832069477 l -2.8314178282389784 -13.511269198898551 a34.80475723376453,34.80475723376453 0 0,0 0.5874273844756105,-0.11783240709589254 l 2.5984240342962317 13.558005562071655" fill="red" stroke="none" /><path d="M 96.04723909329186 79.375362276772 l -2.5984240342962317 -13.558005562071655 a34.80475723376453,34.80475723376453 0 0,0 0.5893686419598112,-0.10770335216860336 l 2.364660271233527 13.600724395590994" fill="red" stroke="none" /><path d="M 96.40284397218896 79.31037775812273 l -2.3639647649351017 -13.596724079099294 a34.80069690606287,34.80069690606287 0 0,0 0.5910662948764509,-0.09753100310605525 l 2.129569263919765 13.635401345144977" fill="red" stroke="none" /><path d="M 96.75951476605007 79.25152402106235 l -2.129569263919765 -13.635401345144977 a34.80069690606287,34.80069690606287 0 0,0 0.5926575579194682,-0.08734231819008643 l 1.894542725571648 13.670038147496031" fill="red" stroke="none" /><path d="M 98.55514903715128 79.0497635885617 l -0.3650595743450417 -5.293337917502889 a26.305911307371694,26.305911307371694 0 0,0 0.45200814950279034,-0.02726636595871958 l 0.27388937600262836 5.298837552841914" fill="red" stroke="none" /><path d="M 98.91598698831166 79.02799685794201 l -0.27388937600262836 -5.298837552841914 a26.305911307371694,26.305911307371694 0 0,0 0.4524105252862204,-0.019481748889646815 l 0.1826380183270839 5.3027670282557535" fill="red" stroke="none" /></svg>