<?xml version="1.0" encoding="utf-8" ?>
<svg baseProfile="full" height="200mm" version="1.1" viewBox="0,0,200,200" width="200mm" xmlns="http://www.w3.org/2000/svg" xmlns:ev="http://www.w3.org/2001/xml-events" xmlns:xlink="http://www.w3.org/1999/xlink"><defs /><rect fill="#1a1a1a" height="200" width="200" x="0" y="0" /><text alignment-baseline="middle" fill="#e1ed5e" style="dominant-baseline: central; font-size:9.0px; font-family:Arial;" text-anchor="middle" x="100.0" y="100.0">2018</text><line stroke="#e1ed5e" stroke-width="0.3" x1="100.0" x2="100.0" y1="15.0" y2="10.0" /><path d="M 100.0 14.0 a86.0,86.0 0 0,1 42.46469731375804,11.215312516191453" fill="none" id="id13" stroke="none" /><text fill="#e1ed5e" style="font-size:6.75px; font-family:Arial;" text-anchor="middle"><textPath startOffset="22.20632615414155" xlink:href="#id13">January</textPath></text><line stroke="#e1ed5e" stroke-width="0.3" x1="143.23703022742887" x2="145.7803849466894" y1="26.81831364943548" y2="22.513508569990506" /><path d="M 143.74570117128098 25.957352633546492 a86.0,86.0 0 0,1 28.547481713284135,27.462654790039103" fill="none" id="id14" stroke="none" /><text fill="#e1ed5e" style="font-size:6.75px; font-family:Arial;" text-anchor="middle"><textPath startOffset="19.985693538727396" xlink:href="#id14">February</textPath></text><line stroke="#e1ed5e" stroke-width="0.3" x1="172.23445277983987" x2="176.4835382374775" y1="55.19839476539836" y2="52.563006222186495" /><path d="M 173.08426987136738 54.67131705675599 a86.0,86.0 0 0,1 12.851231095245387,41.99856678651699" fill="none" id="id15" stroke="none" /><text fill="#e1ed5e" style="font-size:6.75px; font-family:Arial;" text-anchor="middle"><textPath startOffset="22.20632615414155" xlink:href="#id15">March</textPath></text><line stroke="#e1ed5e" stroke-width="0.3" x1="184.98032266829074" x2="189.97916517819016" y1="98.17113171792111" y2="98.06355123074" /><path d="M 185.9800911702706 98.14961562048488 a86.0,86.0 0 0,1 -9.607161424134198,41.387399972396054" fill="none" id="id16" stroke="none" /><text fill="#e1ed5e" style="font-size:6.75px; font-family:Arial;" text-anchor="middle"><textPath startOffset="21.466115282336823" xlink:href="#id16">April</textPath></text><path d="M 120.8583938346157 102.4346265915055 l 8.767203784921216 1.0233226794526193 a29.82672371339553,29.82672371339553 0 0,0 -0.06391226434352593,0.5094436306557201 l -8.748290011330841 -1.1740840643957342" fill="#ff0200" stroke="none" /><path d="M 119.9155931802556 106.66101706037122 l 13.98114242981131 4.676166429267154 a35.74241758046743,35.74241758046743 0 0,0 -0.20017314436756353,0.581796856504031 l -13.898578454500516 -4.916135988860485" fill="#ff6109" stroke="none" /><line stroke="#e1ed5e" stroke-width="0.3" x1="174.80103733775053" x2="179.2010983576182" y1="140.37084112569926" y2="142.7455964860345" /><path d="M 175.68104954172406 140.8457921977663 a86.0,86.0 0 0,1 -30.038265399797805,32.042727171017184" fill="none" id="id17" stroke="none" /><text fill="#e1ed5e" style="font-size:6.75px; font-family:Arial;" text-anchor="middle"><textPath startOffset="22.206326154141568" xlink:href="#id17">May</textPath></text><path d="M 116.0416608686014 113.55231037782055 l 24.726841037947665 20.889721279746368 a53.36969451294561,53.36969451294561 0 0,0 -0.5989032511378544,0.6966597846072253 l -24.363595277239032 -21.31225816351512" fill="#a3ff22" stroke="none" /><line stroke="#e1ed5e" stroke-width="0.3" x1="143.8653032363475" x2="146.44561519142675" y1="172.8068346515853" y2="177.08958963109032" /><path d="M 144.38136562736335 173.6633856474863 a86.0,86.0 0 0,1 -40.68145358897372,12.25698825130547" fill="none" id="id18" stroke="none" /><text fill="#e1ed5e" style="font-size:6.75px; font-family:Arial;" text-anchor="middle"><textPath startOffset="21.466115282336833" xlink:href="#id18">June</textPath></text><line stroke="#e1ed5e" stroke-width="0.3" x1="102.19456741930631" x2="102.32365962044197" y1="184.97166512339345" y2="189.96999836594603" /><path d="M 102.22038585953345 185.97133177190398 a86.0,86.0 0 0,1 -42.740103519485714,-10.115201625700543" fill="none" id="id19" stroke="none" /><text fill="#e1ed5e" style="font-size:6.75px; font-family:Arial;" text-anchor="middle"><textPath startOffset="22.20632615414155" xlink:href="#id19">July</textPath></text><line stroke="#e1ed5e" stroke-width="0.3" x1="58.666819895761336" x2="56.23545636021788" y1="174.27360380694188" y2="178.64263932499728" /><path d="M 58.180547188652646 175.14741091055294 a86.0,86.0 0 0,1 -31.652253787137756,-30.449443065178592" fill="none" id="id20" stroke="none" /><text fill="#e1ed5e" style="font-size:6.75px; font-family:Arial;" text-anchor="middle"><textPath startOffset="22.20632615414155" xlink:href="#id20">August</textPath></text><path d="M 83.06392112726016 112.41649034213515 l -25.38329113324197 18.609466310103258 a52.47417520923763,52.47417520923763 0 0,0 -0.527790770600663,-0.7330552184790148 l 25.69986169621824 -18.169777486173107" fill="#aeff20" stroke="none" /><line stroke="#e1ed5e" stroke-width="0.3" x1="26.63291911575756" x2="22.317208475507996" y1="142.92168965132927" y2="145.44649492493687" /><path d="M 25.769776987707644 143.4266507060508 a86.0,86.0 0 0,1 -11.730757126820373,-40.83630448921669" fill="none" id="id21" stroke="none" /><text fill="#e1ed5e" style="font-size:6.75px; font-family:Arial;" text-anchor="middle"><textPath startOffset="21.46611528233685" xlink:href="#id21">September</textPath></text><path d="M 81.87401531095188 110.60418214915194 l -7.760611675137697 4.540163814753665 a29.99111678475383,29.99111678475383 0 0,0 -0.2568496422332815,-0.4478390011545059 l 7.837613313523355 -4.405904967740852" fill="#ff0400" stroke="none" /><path d="M 81.02952815118164 109.00673069616217 l -17.688439158282403 8.398051941128834 a40.58081091942201,40.58081091942201 0 0,0 -0.29416330910283617,-0.6336015978109869 l 17.830377084225066 -8.09233027603902" fill="#ffab0f" stroke="none" /><path d="M 80.45479744820244 107.68017299344265 l -15.638312548561553 6.144983423946751 a37.802310574652466,37.802310574652466 0 0,0 -0.23276452389930222,-0.6076747223455419 l 15.741771352054364 -5.874885134768052" fill="#ff810b" stroke="none" /><path d="M 79.76711848015287 105.62410040840567 l -60.698644559541364 16.872301225217015 a84.0,84.0 0 0,0 -0.3752476946329004,-1.3964362672978443 l 60.98008033051604 -15.824974024743632" fill="#4dd2ff" stroke="none" /><line stroke="#e1ed5e" stroke-width="0.3" x1="15.007084014347285" x2="10.007500721073583" y1="101.09737516637583" y2="101.16192664675087" /><path d="M 14.007167355692545 101.11028546245083 a86.0,86.0 0 0,1 10.666146001902534,-42.60595125391555" fill="none" id="id22" stroke="none" /><text fill="#e1ed5e" style="font-size:6.75px; font-family:Arial;" text-anchor="middle"><textPath startOffset="22.20632615414155" xlink:href="#id22">October</textPath></text><path d="M 79.01574976396665 99.18683210126434 l -16.219373179814493 -0.6285225089811118 a37.231546657370075,37.231546657370075 0 0,0 0.030328448723511453,-0.640185618153503 l 16.206151122857484 0.9076192337576241" fill="#ff780b" stroke="none" /><path d="M 79.05617556472873 98.46500227214037 l -14.700985901471732 -1.077452689015693 a35.740416913111304,35.740416913111304 0 0,0 0.05025020275552324,-0.6131797527136065 l 14.680261214896712 1.330346358937078" fill="#ff6109" stroke="none" /><path d="M 79.46518482838121 95.60439243477599 l -30.561210598522095 -6.541821165010173 a52.253528079277615,52.253528079277615 0 0,0 0.19584028375170412,-0.8779135916382539 l 30.444075927768353 7.066912926198387" fill="#b1ff20" stroke="none" /><path d="M 80.02781315780177 93.51064311812611 l -8.30461240401957 -2.698332139646063 a29.73198622976712,29.73198622976712 0 0,0 0.16234047631645218,-0.48537736110034796 l 8.256934633931346 2.840882603668733" fill="#ff0000" stroke="none" /><line stroke="#e1ed5e" stroke-width="0.3" x1="26.266209847984243" x2="21.928928074336255" y1="57.711370442889674" y2="55.22380399835377" /><path d="M 25.398753493254645 57.213857153982495 a86.0,86.0 0 0,1 29.58750427330803,-30.492523968695096" fill="none" id="id23" stroke="none" /><text fill="#e1ed5e" style="font-size:6.75px; font-family:Arial;" text-anchor="middle"><textPath startOffset="21.46611528233685" xlink:href="#id23">November</textPath></text><path d="M 84.31358615837235 86.03803664274999 l -18.756266477517954 -16.694338675610886 a46.10972871202836,46.10972871202836 0 0,0 0.5328009000686963,-0.5883320613402344 l 18.46612193683321 17.014723524220678" fill="#fffb17" stroke="none" /><line stroke="#e1ed5e" stroke-width="0.3" x1="56.762969772571076" x2="54.21961505331055" y1="26.818313649435495" y2="22.513508569990535" /><path d="M 56.25429882871897 25.957352633546506 a86.0,86.0 0 0,1 42.265352541879196,-11.944610805530505" fill="none" id="id24" stroke="none" /><text fill="#e1ed5e" style="font-size:6.75px; font-family:Arial;" text-anchor="middle"><textPath startOffset="22.20632615414155" xlink:href="#id24">December</textPath></text><path d="M 90.26544431104013 81.39251694778311 l -5.457548102366371 -10.432035838740095 a32.77336838081611,32.77336838081611 0 0,0 0.5021184553770287,-0.25720457523072826 l 5.277169159400578 10.52443293928333" fill="#ff3204" stroke="none" /><path d="M 90.58718382345135 81.22770947309562 l -6.602095857709699 -13.166778061190374 a35.72928084554815,35.72928084554815 0 0,0 0.5521513449254475,-0.27093826698795304 l 6.374473245773825 13.278471488313158" fill="#ff6109" stroke="none" /></svg>