<?xml version="1.0" encoding="utf-8" ?>
<svg baseProfile="full" height="200mm" version="1.1" viewBox="0,0,200,200" width="200mm" xmlns="http://www.w3.org/2000/svg" xmlns:ev="http://www.w3.org/2001/xml-events" xmlns:xlink="http://www.w3.org/1999/xlink"><defs /><rect fill="#1a1a1a" height="200" width="200" x="0" y="0" /><text alignment-baseline="middle" fill="#e1ed5e" style="dominant-baseline: central; font-size:9.0px; font-family:Arial;" text-anchor="middle" x="100.0" y="100.0">2025</text><line stroke="#e1ed5e" stroke-width="0.3" x1="100.0" x2="100.0" y1="15.0" y2="10.0" /><path d="M 100.0 14.0 a86.0,86.0 0 0,1 42.46469731375804,11.215312516191453" fill="none" id="id97" stroke="none" /><text fill="#e1ed5e" style="font-size:6.75px; font-family:Arial;" text-anchor="middle"><textPath startOffset="22.20632615414155" xlink:href="#id97">January</textPath></text><path d="M 100.0 79.0 l 0.0 -25.687351560563286 a46.687351560563286,46.687351560563286 0 0,0 0.8036460103846401,0.006917234931481 l -0.4421655311121117 25.683545702240362" fill="#edff1a" stroke="none" /><path d="M 100.36148047927253 79.00311137660856 l 0.5726641644432314 -33.263665312219416 a54.268594413479306,54.268594413479306 0 0,0 0.9338678364973341,0.02411905103823727 l -1.1451586361354333 33.24887946903882" fill="#8dff24" stroke="none" /><path d="M 101.44485096284872 79.0497635885617 l 2.9689151410576504 -43.049058823355644 a64.15131426378038,64.15131426378038 0 0,0 1.1009887155221918,0.08545791413307963 l -3.7094940459421837 42.991575647034104" fill="#32ff45" stroke="none" /><path d="M 102.16513564639614 79.11191278185805 l 2.8952580203727933 -27.931922948677535 a49.08157471751525,49.08157471751525 0 0,0 0.8396064706050823,0.09433956979209371 l -3.375631194487601 27.877947425414842" fill="#ceff1d" stroke="none" /><path d="M 102.88285421437855 79.19881850522331 l 4.804278390889431 -34.66518225649057 a55.99651342252361,55.99651342252361 0 0,0 0.9536233422732181,0.14053929167244442 l -5.400270713591305 34.57734848065715" fill="#79ff26" stroke="none" /><path d="M 103.59715602781102 79.31037775812273 l 3.1595257485789405 -18.17252120736111 a39.445138383539515,39.445138383539515 0 0,0 0.6679468408551374,0.12206301575751538 l -3.471867710536979 18.115442710252857" fill="#ffad10" stroke="none" /><path d="M 103.95276090670814 79.375362276772 l 9.996465262877782 -52.159358844547334 a74.10864367338127,74.10864367338127 0 0,0 1.2507901269846633,0.25089673265053486 l -10.892821799329571 51.97955815581959" fill="#3fffc1" stroke="none" /><path d="M 104.66035177308747 79.52364482259891 l 5.388331923353781 -23.674907742688507 a45.28034961735612,45.28034961735612 0 0,0 0.7585025924495926,0.17951305739693102 l -5.7950582027658974 23.578648773150707" fill="#fffe18" stroke="none" /><path d="M 105.36241919743992 79.69619591428918 l 6.919673862776719 -26.20005957645132 a48.098431839809365,48.098431839809365 0 0,0 0.7986678432176666,0.21830609140395088 l -7.369639595218096 26.077066944221077" fill="#dbff1b" stroke="none" /><path d="M 105.71112130821622 79.79150937346287 l 4.60075145417494 -16.279507581631186 a37.9171298110371,37.9171298110371 0 0,0 0.6265530933466921,0.1829080291649763 l -4.8802947652450595 16.197901223547507" fill="#ff960d" stroke="none" /><path d="M 106.40334571778207 80.00007090966166 l 2.1945959672457795 -6.854504763809769 a28.197255519747944,28.197255519747944 0 0,0 0.46098105645472764,0.15197820659004593 l -2.3122598459429247 6.815712832960487" fill="#ff0000" stroke="none" /><path d="M 107.08798089147638 80.2323363322302 l 8.355993407105336 -23.304022656211547 a45.75681921775915,45.75681921775915 0 0,0 0.739120085480616,0.2722241651735043 l -8.755895818358528 23.156735223231717" fill="#faff18" stroke="none" /><path d="M 107.4271985657038 80.35727306442388 l 8.486207558127683 -22.443490140771324 a44.99429032954555,44.99429032954555 0 0,0 0.7220873009499776,0.28015865446929017 l -8.871278024077327 22.29408878241149" fill="#fffa17" stroke="none" /><path d="M 107.76421540070413 80.48803036053334 l 11.857782856630772 -29.799366342796862 a53.071938649031196,53.071938649031196 0 0,0 0.8459063780022011,0.3450664510313413 l -12.36897310422136 29.59083900558194" fill="#9cff22" stroke="none" /><path d="M 108.43124777332544 80.76684994638697 l 25.2937433199763 -57.69945016083909 a84.0,84.0 0 0,0 1.3192715261328791,0.591918677933875 l -26.283196964575957 57.255511152388685" fill="#4dd2ff" stroke="none" /><path d="M 109.08828744355905 81.06846463323043 l 11.95474786142831 -24.902571947131683 a48.62343363907526,48.62343363907526 0 0,0 0.7514143482138782,0.36871575731186496 l -12.381633476652619 24.693101029684986" fill="#d4ff1c" stroke="none" /><path d="M 109.41281617654863 81.2277094730956 l 17.478718432671492 -34.858386087847485 a59.995034026117345,59.995034026117345 0 0,0 0.919179666412334,0.4708395262683335 l -18.07615858667258 34.55235403626666" fill="#4bff2c" stroke="none" /><line stroke="#e1ed5e" stroke-width="0.3" x1="143.23703022742887" x2="145.7803849466894" y1="26.81831364943548" y2="22.513508569990506" /><path d="M 143.74570117128098 25.957352633546492 a86.0,86.0 0 0,1 28.547481713284135,27.462654790039103" fill="none" id="id98" stroke="none" /><text fill="#e1ed5e" style="font-size:6.75px; font-family:Arial;" text-anchor="middle"><textPath startOffset="19.985693538727396" xlink:href="#id98">February</textPath></text><path d="M 110.68208982089419 81.91981866633111 l 11.09224901419484 -18.774404347600274 a42.80633501531375,42.80633501531375 0 0,0 0.6311650060446354,0.38026985398843843 l -11.413776086457112 18.58068788415322" fill="#ffdc14" stroke="none" /><path d="M 110.99172775467656 82.1063720568725 l 30.1392937206466 -49.064289103816016 a78.58195456253848,78.58195456253848 0 0,0 1.1464764689102303,0.7179234596536329 l -30.979389341929092 48.53822130283944" fill="#46fff3" stroke="none" /><path d="M 111.60114157652 82.49532879139004 l 22.159865270163458 -33.43646424989709 a61.11304987565073,61.11304987565073 0 0,0 0.8718658501544682,0.5886877139495896 l -22.732135814724465 33.05006462364884" fill="#3eff2d" stroke="none" /><path d="M 112.19680574252982 82.90503203632743 l 21.281057809701167 -29.82739982660801 a57.640922503618526,57.640922503618526 0 0,0 0.8027313217081685,0.5832184437829339 l -21.791334447763123 29.456662148008398" fill="#65ff29" stroke="none" /><path d="M 113.06298171725822 83.55741782278167 l 23.210659328469763 -29.21562485933617 a58.31336814579652,58.31336814579652 0 0,0 0.7805566478114792,0.6311558584538892 l -23.710119374845736 28.811762903618153" fill="#5eff2a" stroke="none" /><line stroke="#e1ed5e" stroke-width="0.3" x1="172.23445277983987" x2="176.4835382374775" y1="55.19839476539836" y2="52.563006222186495" /><path d="M 173.08426987136738 54.67131705675599 a86.0,86.0 0 0,1 12.851231095245387,41.99856678651699" fill="none" id="id99" stroke="none" /><text fill="#e1ed5e" style="font-size:6.75px; font-family:Arial;" text-anchor="middle"><textPath startOffset="22.20632615414155" xlink:href="#id99">March</textPath></text><line stroke="#e1ed5e" stroke-width="0.3" x1="184.98032266829074" x2="189.97916517819016" y1="98.17113171792111" y2="98.06355123074" /><path d="M 185.9800911702706 98.14961562048488 a86.0,86.0 0 0,1 -9.607161424134198,41.387399972396054" fill="none" id="id100" stroke="none" /><text fill="#e1ed5e" style="font-size:6.75px; font-family:Arial;" text-anchor="middle"><textPath startOffset="21.466115282336823" xlink:href="#id100">April</textPath></text><line stroke="#e1ed5e" stroke-width="0.3" x1="174.80103733775053" x2="179.2010983576182" y1="140.37084112569926" y2="142.7455964860345" /><path d="M 175.68104954172406 140.8457921977663 a86.0,86.0 0 0,1 -30.038265399797805,32.042727171017184" fill="none" id="id101" stroke="none" /><text fill="#e1ed5e" style="font-size:6.75px; font-family:Arial;" text-anchor="middle"><textPath startOffset="22.206326154141568" xlink:href="#id101">May</textPath></text><line stroke="#e1ed5e" stroke-width="0.3" x1="143.8653032363475" x2="146.44561519142675" y1="172.8068346515853" y2="177.08958963109032" /><path d="M 144.38136562736335 173.6633856474863 a86.0,86.0 0 0,1 -40.68145358897372,12.25698825130547" fill="none" id="id102" stroke="none" /><text fill="#e1ed5e" style="font-size:6.75px; font-family:Arial;" text-anchor="middle"><textPath startOffset="21.466115282336833" xlink:href="#id102">June</textPath></text><line stroke="#e1ed5e" stroke-width="0.3" x1="102.19456741930631" x2="102.32365962044197" y1="184.97166512339345" y2="189.96999836594603" /><path d="M 102.22038585953345 185.97133177190398 a86.0,86.0 0 0,1 -42.740103519485714,-10.115201625700543" fill="none" id="id103" stroke="none" /><text fill="#e1ed5e" style="font-size:6.75px; font-family:Arial;" text-anchor="middle"><textPath startOffset="22.20632615414155" xlink:href="#id103">July</textPath></text><line stroke="#e1ed5e" stroke-width="0.3" x1="58.666819895761336" x2="56.23545636021788" y1="174.27360380694188" y2="178.64263932499728" /><path d="M 58.180547188652646 175.14741091055294 a86.0,86.0 0 0,1 -31.652253787137756,-30.449443065178592" fill="none" id="id104" stroke="none" /><text fill="#e1ed5e" style="font-size:6.75px; font-family:Arial;" text-anchor="middle"><textPath startOffset="22.20632615414155" xlink:href="#id104">August</textPath></text><line stroke="#e1ed5e" stroke-width="0.3" x1="26.63291911575756" x2="22.317208475507996" y1="142.92168965132927" y2="145.44649492493687" /><path d="M 25.769776987707644 143.4266507060508 a86.0,86.0 0 0,1 -11.730757126820373,-40.83630448921669" fill="none" id="id105" stroke="none" /><text fill="#e1ed5e" style="font-size:6.75px; font-family:Arial;" text-anchor="middle"><textPath startOffset="21.46611528233685" xlink:href="#id105">September</textPath></text><line stroke="#e1ed5e" stroke-width="0.3" x1="15.007084014347285" x2="10.007500721073583" y1="101.09737516637583" y2="101.16192664675087" /><path d="M 14.007167355692545 101.11028546245083 a86.0,86.0 0 0,1 10.666146001902534,-42.60595125391555" fill="none" id="id106" stroke="none" /><text fill="#e1ed5e" style="font-size:6.75px; font-family:Arial;" text-anchor="middle"><textPath startOffset="22.20632615414155" xlink:href="#id106">October</textPath></text><line stroke="#e1ed5e" stroke-width="0.3" x1="26.266209847984243" x2="21.928928074336255" y1="57.711370442889674" y2="55.22380399835377" /><path d="M 25.398753493254645 57.213857153982495 a86.0,86.0 0 0,1 29.58750427330803,-30.492523968695096" fill="none" id="id107" stroke="none" /><text fill="#e1ed5e" style="font-size:6.75px; font-family:Arial;" text-anchor="middle"><textPath startOffset="21.46611528233685" xlink:href="#id107">November</textPath></text><line stroke="#e1ed5e" stroke-width="0.3" x1="56.762969772571076" x2="54.21961505331055" y1="26.818313649435495" y2="22.513508569990535" /><path d="M 56.25429882871897 25.957352633546506 a86.0,86.0 0 0,1 42.265352541879196,-11.944610805530505" fill="none" id="id108" stroke="none" /><text fill="#e1ed5e" style="font-size:6.75px; font-family:Arial;" text-anchor="middle"><textPath startOffset="22.20632615414155" xlink:href="#id108">December</textPath></text></svg>