<?xml version="1.0" encoding="utf-8" ?>
<svg baseProfile="full" height="200mm" version="1.1" viewBox="0,0,200,200" width="200mm" xmlns="http://www.w3.org/2000/svg" xmlns:ev="http://www.w3.org/2001/xml-events" xmlns:xlink="http://www.w3.org/1999/xlink"><defs /><rect fill="#1a1a1a" height="200" width="200" x="0" y="0" /><rect fill="#1a1a1a" height="200" width="180" x="10" y="0" /><text alignment-baseline="middle" fill="#e1ed5e" style="dominant-baseline: central; font-size:9.0px; font-family:Arial;" text-anchor="middle" x="100.0" y="100.0">2026</text><line stroke="#e1ed5e" stroke-width="0.3" x1="100.0" x2="100.0" y1="15.0" y2="10.0" /><path d="M 100.0 14.0 a86.0,86.0 0 0,1 42.46469731375804,11.215312516191453" fill="none" id="id109" stroke="none" /><text fill="#e1ed5e" style="font-size:6.75px; font-family:Arial;" text-anchor="middle"><textPath startOffset="22.20632615414155" xlink:href="#id109">January</textPath></text><path d="M 100.0 79.0 l 0.0 -32.935734142690464 a53.935734142690464,53.935734142690464 0 0,0 0.9284150013245439,0.007991161027477002 l -0.5669345220520154 32.930854358271546" fill="#9dff22" stroke="none" /><path d="M 100.36148047927253 79.00311137660856 l 0.4447609848902058 -25.83430475295169 a46.838132951164695,46.838132951164695 0 0,0 0.8060025574167868,0.020816668118905434 l -0.8893901775018604 25.822821292690428" fill="#fbff18" stroke="none" /><path d="M 100.72285384407766 79.0124445844662 l 1.0184162082881922 -29.569001787351503 a50.586534745956655,50.586534745956655 0 0,0 0.8699900371979935,0.03746360107440198 l -1.5272470778755174 29.547090459752905" fill="#c8ff1d" stroke="none" /><path d="M 101.08401301168833 79.027996857942 l 1.318311478866077 -25.504889866524614 a46.53893796262601,46.53893796262601 0 0,0 0.7996673820768749,0.0482381202837724 l -1.7571409097825639 25.478418476860536" fill="#ffff18" stroke="none" /><path d="M 101.80526077348638 79.07773832637324 l 1.5966204732488165 -18.504202730926753 a39.57295656708523,39.57295656708523 0 0,0 0.6781577483449087,0.06439924964784001 l -1.9149033486839693 18.473977936763735" fill="#ff9a0e" stroke="none" /><path d="M 102.16513564639614 79.11191278185805 l 2.1757318949310123 -20.990314237474475 a42.10277472434712,42.10277472434712 0 0,0 0.7202246931245064,0.080925636094779 l -2.536723291565244 20.949752647909094" fill="#ffc011" stroke="none" /><path d="M 102.88285421437855 79.19881850522331 l 2.638344700950311 -19.036927603389067 a40.21888330100657,40.21888330100657 0 0,0 0.6849295352838043,0.10094080908806395 l -2.965643216662771 18.988692310140035" fill="#ffa40f" stroke="none" /><path d="M 103.59715602781102 79.31037775812273 l 1.521322343624001 -8.750130479289155 a29.88139657248761,29.88139657248761 0 0,0 0.5059985909255071,0.09246800823003803 l -1.671716055652409 8.722646989708377" fill="#ff0000" stroke="none" /><path d="M 104.307194497241 79.44645832069477 l 5.512763045839852 -26.306405504414137 a47.87782593444358,47.87782593444358 0 0,0 0.8051620276409364,0.17597723345973848 l -5.964767797634317 26.207614772858527" fill="#ecff1a" stroke="none" /><path d="M 104.66035177308747 79.52364482259891 l 4.200606914103548 -18.456357657492333 a39.928344788387875,39.928344788387875 0 0,0 0.6688498054927726,0.1582951392896254 l -4.517680406558844 18.38131660606184" fill="#ffa00e" stroke="none" /><path d="M 106.0581310904928 79.89281104454417 l 8.5320079191692 -28.31808900098029 a50.57548518283693,50.57548518283693 0 0,0 0.8313998698746496,0.2583199866172461 l -9.018193161754567 28.167028879480522" fill="#c8ff1d" stroke="none" /><path d="M 106.74666289553966 80.11325718540242 l 12.53947177342674 -36.9618660440121 a60.03098632896766,60.03098632896766 0 0,0 0.9756979022813456,0.340401839775445 l -13.17385167977136 36.74054335106444" fill="#53ff2b" stroke="none" /><path d="M 107.08798089147638 80.2323363322302 l 11.745430700702501 -32.75682134016352 a55.79891502125313,55.79891502125313 0 0,0 0.9013322941868159,0.3319682906051404 l -12.307545320661895 32.549789781752054" fill="#85ff25" stroke="none" /><path d="M 107.76421540070413 80.48803036053334 l 19.95275395774182 -50.14254620137142 a74.96653898532728,74.96653898532728 0 0,0 1.1948814209295258,0.4874221332828924 l -20.812919248259732 49.791663181904944" fill="#40ffc8" stroke="none" /><path d="M 108.09893153111575 80.62456947434976 l 11.157448059486743 -26.692454293455967 a49.93053341036733,49.93053341036733 0 0,0 0.7901298683075423,0.3382923744141289 l -11.615261685584601 26.496442391079047" fill="#d1ff1d" stroke="none" /><path d="M 108.43124777332544 80.76684994638697 l 13.314684026998844 -30.373121831136697 a54.163343325242266,54.163343325242266 0 0,0 0.8506685310613269,0.381670173494714 l -13.835534676526951 30.13943132712545" fill="#9aff23" stroke="none" /><path d="M 110.36928655335952 81.73862282372117 l 14.136637939263284 -24.89606937612705 a49.62968394178932,49.62968394178932 0 0,0 0.7392536811287963,0.42822344763324016 l -14.56308835285741 24.649041771103757" fill="#d5ff1c" stroke="none" /><line stroke="#e1ed5e" stroke-width="0.3" x1="143.23703022742887" x2="145.7803849466894" y1="26.81831364943548" y2="22.513508569990506" /><path d="M 143.74570117128098 25.957352633546492 a86.0,86.0 0 0,1 28.547481713284135,27.462654790039103" fill="none" id="id110" stroke="none" /><text fill="#e1ed5e" style="font-size:6.75px; font-family:Arial;" text-anchor="middle"><textPath startOffset="19.985693538727396" xlink:href="#id110">February</textPath></text><path d="M 110.68208982089419 81.91981866633111 l 17.024336441849197 -28.81487565775352 a54.468269905345736,54.468269905345736 0 0,0 0.803116311913871,0.48386859179835967 l -17.517814819980707 28.517560456496547" fill="#96ff23" stroke="none" /><path d="M 111.90073688211348 82.69761687909136 l 11.186399781822812 -16.26381430713339 a40.73948317194962,40.73948317194962 0 0,0 0.5743663026985788,0.40238030037266337 l -11.464697224105043 16.068849163996795" fill="#ffac0f" stroke="none" /><path d="M 112.77801427241765 83.33499621200491 l 20.714428922620467 -27.01562458000847 a55.04308354186285,55.04308354186285 0 0,0 0.7469279463366986,0.582989109690561 l -21.176389424116596 26.655057081094686" fill="#8fff24" stroke="none" /><path d="M 115.19652480421416 85.50635884689758 l 20.977012625071392 -20.006764531294152 a49.9880265917336,49.9880265917336 0 0,0 0.5885082706517148,0.627779590578724 l -21.31828821769357 19.642715523837374" fill="#d0ff1d" stroke="none" /><path d="M 115.4437574822437 85.77008943001954 l 27.48905717402226 -25.32847499639624 a58.378869832563616,58.378869832563616 0 0,0 0.6745716199295348,0.7448788311423443 l -27.920972434567833 24.851543377984346" fill="#66ff29" stroke="none" /><path d="M 115.68641384162765 86.03803664274999 l 33.290477636677124 -29.63076415051462 a65.5672310719605,65.5672310719605 0 0,0 0.7431206894189488,0.8495154094060559 l -33.79559018967392 29.053333184905615" fill="#33ff50" stroke="none" /><path d="M 116.15771136456269 86.58626213691792 l 19.99476546057361 -16.59916658185711 a46.986977066130436,46.986977066130436 0 0,0 0.5112664339229523,0.6267521951659165 l -20.277530386572973 16.25253021708309" fill="#f9ff18" stroke="none" /><path d="M 116.38621287248628 86.86637796730983 l 48.673251720448086 -39.01182635505194 a83.3779450495031,83.3779450495031 0 0,0 0.8879589132753364,1.1276176462202139 l -49.33756471431739 38.168216314878684" fill="#4cd8ff" stroke="none" /><path d="M 117.04232023915458 87.72973835380427 l 22.88002414127314 -16.473336889873117 a49.1933739199922,49.1933739199922 0 0,0 0.4888588726843411,0.6914562066881329 l -23.160195633761365 16.07705418285319" fill="#daff1b" stroke="none" /><path d="M 117.2510076193507 88.02491185347247 l 36.62066761659499 -25.420875833449845 a65.57907833081347,65.57907833081347 0 0,0 0.635728376768921,0.9328529481469264 l -37.052820459032645 24.78674486203251" fill="#33ff51" stroke="none" /><path d="M 117.45458315368197 88.32363383020206 l 16.70764468179697 -11.176696425338942 a41.10134159197746,41.10134159197746 0 0,0 0.3883164030072186,0.5914325226370809 l -16.897557720162112 10.887445838724188" fill="#ffb110" stroke="none" /><line stroke="#e1ed5e" stroke-width="0.3" x1="172.23445277983987" x2="176.4835382374775" y1="55.19839476539836" y2="52.563006222186495" /><path d="M 173.08426987136738 54.67131705675599 a86.0,86.0 0 0,1 12.851231095245387,41.99856678651699" fill="none" id="id111" stroke="none" /><text fill="#e1ed5e" style="font-size:6.75px; font-family:Arial;" text-anchor="middle"><textPath startOffset="22.20632615414155" xlink:href="#id111">March</textPath></text><path d="M 117.84615892207809 88.93136811851018 l 53.538476766234254 -33.20589564446945 a84.0,84.0 0 0,0 0.7515368068551043,1.2353289071716742 l -54.10212937137558 32.279398964090696" fill="#4dd2ff" stroke="none" /><line stroke="#e1ed5e" stroke-width="0.3" x1="184.98032266829074" x2="189.97916517819016" y1="98.17113171792111" y2="98.06355123074" /><path d="M 185.9800911702706 98.14961562048488 a86.0,86.0 0 0,1 -9.607161424134198,41.387399972396054" fill="none" id="id112" stroke="none" /><text fill="#e1ed5e" style="font-size:6.75px; font-family:Arial;" text-anchor="middle"><textPath startOffset="21.466115282336823" xlink:href="#id112">April</textPath></text><line stroke="#e1ed5e" stroke-width="0.3" x1="174.80103733775053" x2="179.2010983576182" y1="140.37084112569926" y2="142.7455964860345" /><path d="M 175.68104954172406 140.8457921977663 a86.0,86.0 0 0,1 -30.038265399797805,32.042727171017184" fill="none" id="id113" stroke="none" /><text fill="#e1ed5e" style="font-size:6.75px; font-family:Arial;" text-anchor="middle"><textPath startOffset="22.206326154141568" xlink:href="#id113">May</textPath></text><line stroke="#e1ed5e" stroke-width="0.3" x1="143.8653032363475" x2="146.44561519142675" y1="172.8068346515853" y2="177.08958963109032" /><path d="M 144.38136562736335 173.6633856474863 a86.0,86.0 0 0,1 -40.68145358897372,12.25698825130547" fill="none" id="id114" stroke="none" /><text fill="#e1ed5e" style="font-size:6.75px; font-family:Arial;" text-anchor="middle"><textPath startOffset="21.466115282336833" xlink:href="#id114">June</textPath></text><line stroke="#e1ed5e" stroke-width="0.3" x1="102.19456741930631" x2="102.32365962044197" y1="184.97166512339345" y2="189.96999836594603" /><path d="M 102.22038585953345 185.97133177190398 a86.0,86.0 0 0,1 -42.740103519485714,-10.115201625700543" fill="none" id="id115" stroke="none" /><text fill="#e1ed5e" style="font-size:6.75px; font-family:Arial;" text-anchor="middle"><textPath startOffset="22.20632615414155" xlink:href="#id115">July</textPath></text><line stroke="#e1ed5e" stroke-width="0.3" x1="58.666819895761336" x2="56.23545636021788" y1="174.27360380694188" y2="178.64263932499728" /><path d="M 58.180547188652646 175.14741091055294 a86.0,86.0 0 0,1 -31.652253787137756,-30.449443065178592" fill="none" id="id116" stroke="none" /><text fill="#e1ed5e" style="font-size:6.75px; font-family:Arial;" text-anchor="middle"><textPath startOffset="22.20632615414155" xlink:href="#id116">August</textPath></text><line stroke="#e1ed5e" stroke-width="0.3" x1="26.63291911575756" x2="22.317208475507996" y1="142.92168965132927" y2="145.44649492493687" /><path d="M 25.769776987707644 143.4266507060508 a86.0,86.0 0 0,1 -11.730757126820373,-40.83630448921669" fill="none" id="id117" stroke="none" /><text fill="#e1ed5e" style="font-size:6.75px; font-family:Arial;" text-anchor="middle"><textPath startOffset="21.46611528233685" xlink:href="#id117">September</textPath></text><line stroke="#e1ed5e" stroke-width="0.3" x1="15.007084014347285" x2="10.007500721073583" y1="101.09737516637583" y2="101.16192664675087" /><path d="M 14.007167355692545 101.11028546245083 a86.0,86.0 0 0,1 10.666146001902534,-42.60595125391555" fill="none" id="id118" stroke="none" /><text fill="#e1ed5e" style="font-size:6.75px; font-family:Arial;" text-anchor="middle"><textPath startOffset="22.20632615414155" xlink:href="#id118">October</textPath></text><line stroke="#e1ed5e" stroke-width="0.3" x1="26.266209847984243" x2="21.928928074336255" y1="57.711370442889674" y2="55.22380399835377" /><path d="M 25.398753493254645 57.213857153982495 a86.0,86.0 0 0,1 29.58750427330803,-30.492523968695096" fill="none" id="id119" stroke="none" /><text fill="#e1ed5e" style="font-size:6.75px; font-family:Arial;" text-anchor="middle"><textPath startOffset="21.46611528233685" xlink:href="#id119">November</textPath></text><line stroke="#e1ed5e" stroke-width="0.3" x1="56.762969772571076" x2="54.21961505331055" y1="26.818313649435495" y2="22.513508569990535" /><path d="M 56.25429882871897 25.957352633546506 a86.0,86.0 0 0,1 42.265352541879196,-11.944610805530505" fill="none" id="id120" stroke="none" /><text fill="#e1ed5e" style="font-size:6.75px; font-family:Arial;" text-anchor="middle"><textPath startOffset="22.20632615414155" xlink:href="#id120">December</textPath></text></svg>