<?xml version="1.0" encoding="utf-8" ?>
<svg baseProfile="full" height="200mm" version="1.1" viewBox="0,0,200,200" width="200mm" xmlns="http://www.w3.org/2000/svg" xmlns:ev="http://www.w3.org/2001/xml-events" xmlns:xlink="http://www.w3.org/1999/xlink"><defs /><rect fill="#1a1a1a" height="200" width="200" x="0" y="0" /><rect fill="#1a1a1a" height="200" width="180" x="10" y="0" /><text alignment-baseline="middle" fill="#e1ed5e" style="dominant-baseline: central; font-size:9.0px; font-family:Arial;" text-anchor="middle" x="100.0" y="100.0">2026</text><line stroke="#e1ed5e" stroke-width="0.3" x1="100.0" x2="100.0" y1="15.0" y2="10.0" /><path d="M 100.0 14.0 a86.0,86.0 0 0,1 42.46469731375804,11.215312516191453" fill="none" id="id109" stroke="none" /><text fill="#e1ed5e" style="font-size:6.75px; font-family:Arial;" text-anchor="middle"><textPath startOffset="22.20632615414155" xlink:href="#id109">January</textPath></text><path d="M 100.0 79.0 l 0.0 -53.16164017739749 a74.16164017739749,74.16164017739749 0 0,0 1.2765707254744019,0.010987847261919722 l -0.9150902462018735 53.15376370674413" fill="red" stroke="none" /><path d="M 100.36148047927253 79.00311137660856 l 0.7178896739098645 -41.699207540344126 a62.70538664341333,62.70538664341333 0 0,0 1.079050312511289,0.027868686063651525 l -1.4355666216160212 41.680672062138115" fill="red" stroke="none" /><path d="M 100.72285384407766 79.0124445844662 l 1.64382781878454 -47.72739015361736 a68.75569014026937,68.75569014026937 0 0,0 1.1824641818836537,0.050919395051390225 l -2.4651328330575253 47.69202303204177" fill="red" stroke="none" /><path d="M 101.08401301168833 79.027996857942 l 2.1278894278652367 -41.1674982550601 a62.22245536109654,62.22245536109654 0 0,0 1.0691534908888944,0.0644942583019544 l -2.836204967593743 41.12477072737784" fill="red" stroke="none" /><path d="M 101.80526077348638 79.07773832637324 l 2.577108581548262 -29.867673909721027 a50.9786496263344,50.9786496263344 0 0,0 0.8736159550184792,0.08296036153959485 l -3.0908496636569853 29.818888003666252" fill="red" stroke="none" /><path d="M 102.16513564639614 79.11191278185805 l 3.5118535879510575 -33.88051190444686 a55.062034621122834,55.062034621122834 0 0,0 0.9419102956384567,0.10583459654525669 l -4.094530587099239 33.81504135443101" fill="red" stroke="none" /><path d="M 102.88285421437855 79.19881850522331 l 4.258557925206956 -30.727546286049296 a52.02124137367241,52.02124137367241 0 0,0 0.8859242662777838,0.13056220767553087 l -4.786851171913395 30.6496895942128" fill="red" stroke="none" /><path d="M 103.59715602781102 79.31037775812273 l 2.4555697066046203 -14.12360465474809 a35.3354815415324,35.3354815415324 0 0,0 0.5983556968736815,0.10934567901030223 l -2.6983205245812028 14.07924349438705" fill="red" stroke="none" /><path d="M 104.307194497241 79.44645832069477 l 8.898162833004086 -42.46122639099407 a64.38355735102766,64.38355735102766 0 0,0 1.08273912968543,0.236644836765225 l -9.627744686843045 42.30176805613297" fill="red" stroke="none" /><path d="M 104.66035177308747 79.52364482259891 l 6.780208764340571 -29.790447072536768 a51.55228252798234,51.55228252798234 0 0,0 0.8635653274457117,0.20437801232968592 l -7.291997778748806 29.669323148066212" fill="red" stroke="none" /><path d="M 106.0581310904928 79.89281104454417 l 13.771532555628257 -45.70828910202805 a68.73785501638406,68.73785501638406 0 0,0 1.1299672857212242,0.35108633607248624 l -14.5562852140602 45.46446263107304" fill="red" stroke="none" /><path d="M 106.74666289553966 80.11325718540242 l 20.239988686618958 -59.66022844379275 a84.0,84.0 0 0,0 1.3652719837469054,0.4763165873111701 l -21.26394267442914 59.302991003309366" fill="red" stroke="none" /><path d="M 107.08798089147638 80.2323363322302 l 18.958325262589614 -52.8728566333641 a77.16900448943721,77.16900448943721 0 0,0 1.2465281059691666,0.4591068213118735 l -19.86563569433136 52.538686544245905" fill="red" stroke="none" /><line stroke="#e1ed5e" stroke-width="0.3" x1="143.23703022742887" x2="145.7803849466894" y1="26.81831364943548" y2="22.513508569990506" /><path d="M 143.74570117128098 25.957352633546492 a86.0,86.0 0 0,1 28.547481713284135,27.462654790039103" fill="none" id="id110" stroke="none" /><text fill="#e1ed5e" style="font-size:6.75px; font-family:Arial;" text-anchor="middle"><textPath startOffset="19.985693538727396" xlink:href="#id110">February</textPath></text><line stroke="#e1ed5e" stroke-width="0.3" x1="172.23445277983987" x2="176.4835382374775" y1="55.19839476539836" y2="52.563006222186495" /><path d="M 173.08426987136738 54.67131705675599 a86.0,86.0 0 0,1 12.851231095245387,41.99856678651699" fill="none" id="id111" stroke="none" /><text fill="#e1ed5e" style="font-size:6.75px; font-family:Arial;" text-anchor="middle"><textPath startOffset="22.20632615414155" xlink:href="#id111">March</textPath></text><line stroke="#e1ed5e" stroke-width="0.3" x1="184.98032266829074" x2="189.97916517819016" y1="98.17113171792111" y2="98.06355123074" /><path d="M 185.9800911702706 98.14961562048488 a86.0,86.0 0 0,1 -9.607161424134198,41.387399972396054" fill="none" id="id112" stroke="none" /><text fill="#e1ed5e" style="font-size:6.75px; font-family:Arial;" text-anchor="middle"><textPath startOffset="21.466115282336823" xlink:href="#id112">April</textPath></text><line stroke="#e1ed5e" stroke-width="0.3" x1="174.80103733775053" x2="179.2010983576182" y1="140.37084112569926" y2="142.7455964860345" /><path d="M 175.68104954172406 140.8457921977663 a86.0,86.0 0 0,1 -30.038265399797805,32.042727171017184" fill="none" id="id113" stroke="none" /><text fill="#e1ed5e" style="font-size:6.75px; font-family:Arial;" text-anchor="middle"><textPath startOffset="22.206326154141568" xlink:href="#id113">May</textPath></text><line stroke="#e1ed5e" stroke-width="0.3" x1="143.8653032363475" x2="146.44561519142675" y1="172.8068346515853" y2="177.08958963109032" /><path d="M 144.38136562736335 173.6633856474863 a86.0,86.0 0 0,1 -40.68145358897372,12.25698825130547" fill="none" id="id114" stroke="none" /><text fill="#e1ed5e" style="font-size:6.75px; font-family:Arial;" text-anchor="middle"><textPath startOffset="21.466115282336833" xlink:href="#id114">June</textPath></text><line stroke="#e1ed5e" stroke-width="0.3" x1="102.19456741930631" x2="102.32365962044197" y1="184.97166512339345" y2="189.96999836594603" /><path d="M 102.22038585953345 185.97133177190398 a86.0,86.0 0 0,1 -42.740103519485714,-10.115201625700543" fill="none" id="id115" stroke="none" /><text fill="#e1ed5e" style="font-size:6.75px; font-family:Arial;" text-anchor="middle"><textPath startOffset="22.20632615414155" xlink:href="#id115">July</textPath></text><line stroke="#e1ed5e" stroke-width="0.3" x1="58.666819895761336" x2="56.23545636021788" y1="174.27360380694188" y2="178.64263932499728" /><path d="M 58.180547188652646 175.14741091055294 a86.0,86.0 0 0,1 -31.652253787137756,-30.449443065178592" fill="none" id="id116" stroke="none" /><text fill="#e1ed5e" style="font-size:6.75px; font-family:Arial;" text-anchor="middle"><textPath startOffset="22.20632615414155" xlink:href="#id116">August</textPath></text><line stroke="#e1ed5e" stroke-width="0.3" x1="26.63291911575756" x2="22.317208475507996" y1="142.92168965132927" y2="145.44649492493687" /><path d="M 25.769776987707644 143.4266507060508 a86.0,86.0 0 0,1 -11.730757126820373,-40.83630448921669" fill="none" id="id117" stroke="none" /><text fill="#e1ed5e" style="font-size:6.75px; font-family:Arial;" text-anchor="middle"><textPath startOffset="21.46611528233685" xlink:href="#id117">September</textPath></text><line stroke="#e1ed5e" stroke-width="0.3" x1="15.007084014347285" x2="10.007500721073583" y1="101.09737516637583" y2="101.16192664675087" /><path d="M 14.007167355692545 101.11028546245083 a86.0,86.0 0 0,1 10.666146001902534,-42.60595125391555" fill="none" id="id118" stroke="none" /><text fill="#e1ed5e" style="font-size:6.75px; font-family:Arial;" text-anchor="middle"><textPath startOffset="22.20632615414155" xlink:href="#id118">October</textPath></text><line stroke="#e1ed5e" stroke-width="0.3" x1="26.266209847984243" x2="21.928928074336255" y1="57.711370442889674" y2="55.22380399835377" /><path d="M 25.398753493254645 57.213857153982495 a86.0,86.0 0 0,1 29.58750427330803,-30.492523968695096" fill="none" id="id119" stroke="none" /><text fill="#e1ed5e" style="font-size:6.75px; font-family:Arial;" text-anchor="middle"><textPath startOffset="21.46611528233685" xlink:href="#id119">November</textPath></text><line stroke="#e1ed5e" stroke-width="0.3" x1="56.762969772571076" x2="54.21961505331055" y1="26.818313649435495" y2="22.513508569990535" /><path d="M 56.25429882871897 25.957352633546506 a86.0,86.0 0 0,1 42.265352541879196,-11.944610805530505" fill="none" id="id120" stroke="none" /><text fill="#e1ed5e" style="font-size:6.75px; font-family:Arial;" text-anchor="middle"><textPath startOffset="22.20632615414155" xlink:href="#id120">December</textPath></text></svg>