<?xml version="1.0" encoding="utf-8" ?>
<svg baseProfile="full" height="200mm" version="1.1" viewBox="0,0,200,200" width="200mm" xmlns="http://www.w3.org/2000/svg" xmlns:ev="http://www.w3.org/2001/xml-events" xmlns:xlink="http://www.w3.org/1999/xlink"><defs /><rect fill="#1a1a1a" height="200" width="200" x="0" y="0" /><rect fill="#1a1a1a" height="200" width="180" x="10" y="0" /><text alignment-baseline="middle" fill="#e1ed5e" style="dominant-baseline: central; font-size:9.0px; font-family:Arial;" text-anchor="middle" x="100.0" y="100.0">2026</text><line stroke="#e1ed5e" stroke-width="0.3" x1="100.0" x2="100.0" y1="15.0" y2="10.0" /><path d="M 100.0 14.0 a86.0,86.0 0 0,1 42.46469731375804,11.215312516191453" fill="none" id="id109" stroke="none" /><text fill="#e1ed5e" style="font-size:6.75px; font-family:Arial;" text-anchor="middle"><textPath startOffset="22.20632615414155" xlink:href="#id109">January</textPath></text><path d="M 100.0 79.0 l 0.0 -33.2641809431654 a54.2641809431654,54.2641809431654 0 0,0 0.9340686730793634,0.008039823965198608 l -0.5725881938068349 33.25925249580876" fill="#99ff23" stroke="none" /><path d="M 100.36148047927253 79.00311137660856 l 0.4491962988817019 -26.091933585569794 a47.0957999599306,47.0957999599306 0 0,0 0.8104365571290253,0.02093118524989918 l -0.8982594912055951 26.080335608177535" fill="#f8ff18" stroke="none" /><path d="M 100.72285384407766 79.0124445844662 l 1.02857221524753 -29.863874340919537 a50.881582144394756,50.881582144394756 0 0,0 0.8750642787611173,0.03768210859006075 l -1.542477326397979 29.84174450580528" fill="#c5ff1e" stroke="none" /><path d="M 101.08401301168833 79.027996857942 l 1.3314581476297682 -25.759233657278852 a46.79362129304796,46.79362129304796 0 0,0 0.8040435445123113,0.04850210235265914 l -1.7746637409816914 25.732498285545887" fill="#fcff18" stroke="none" /><path d="M 101.80526077348638 79.07773832637324 l 1.6125425378288682 -18.68873319124628 a39.758172664998526,39.758172664998526 0 0,0 0.6813317778543082,0.06470066199513573 l -1.9339994427734206 18.658206984735966" fill="#ff9c0e" stroke="none" /><path d="M 102.16513564639614 79.11191278185805 l 2.197429063619749 -21.199637081847502 a42.313219064507464,42.313219064507464 0 0,0 0.7238246271265788,0.0813301306251638 l -2.562020394256053 21.158670997751738" fill="#ffc212" stroke="none" /><path d="M 102.88285421437855 79.19881850522331 l 2.66465520831058 -19.22677058472713 a40.41054080897555,40.41054080897555 0 0,0 0.6881934719496827,0.10142182850815577 l -2.995217660688919 19.178054272058006" fill="#ffa60f" stroke="none" /><path d="M 103.59715602781102 79.31037775812273 l 1.5364935085990874 -8.837389878068903 a29.96996500321834,29.96996500321834 0 0,0 0.5074983702628456,0.09274208331758838 l -1.688386999964834 8.809632313400575" fill="#ff0000" stroke="none" /><path d="M 104.307194497241 79.44645832069477 l 5.567738270510361 -26.56874229285456 a48.14586112970123,48.14586112970123 0 0,0 0.8096695790403731,0.17696240960779222 l -6.024250573704262 26.468966385150896" fill="#e9ff1a" stroke="none" /><path d="M 104.66035177308747 79.52364482259891 l 4.242496853311003 -18.64041098980191 a40.11710494345526,40.11710494345526 0 0,0 0.6720117746069625,0.15904347521982937 l -4.562732314880489 18.56462160244121" fill="#ffa10e" stroke="none" /><path d="M 106.0581310904928 79.89281104454417 l 8.617092122561697 -28.600487009406056 a50.87042239111994,50.87042239111994 0 0,0 0.8362482812285145,0.25982641162574904 l -9.10812577650093 28.447920462897788" fill="#c5ff1e" stroke="none" /><path d="M 106.74666289553966 80.11325718540242 l 12.66451982505919 -37.33046285710099 a60.42021714202896,60.42021714202896 0 0,0 0.9820241632847221,0.3426089480201321 l -13.305225992407184 37.106933055908655" fill="#4fff2b" stroke="none" /><path d="M 107.08798089147638 80.2323363322302 l 11.862560293658666 -33.0834839588346 a56.145942121035155,56.145942121035155 0 0,0 0.9069379001716705,0.33403288259701724 l -12.430280519602913 32.87438780843125" fill="#82ff25" stroke="none" /><path d="M 107.76421540070413 80.48803036053334 l 20.151729883697858 -50.64258542309199 a75.50471241682402,75.50471241682402 0 0,0 1.2034592937143318,0.4909212629693737 l -21.020473047000575 50.28820327393904" fill="#41ffce" stroke="none" /><path d="M 108.09893153111575 80.62456947434976 l 11.268714081392526 -26.958640897086138 a50.21903893125541,50.21903893125541 0 0,0 0.7946953478579363,0.34024707449495256 l -11.731093187040777 26.760674294628394" fill="#cdff1d" stroke="none" /><path d="M 108.43124777332544 80.76684994638697 l 13.447462769657387 -30.676013354448504 a54.494059925061705,54.494059925061705 0 0,0 0.8558626381251515,0.3840006179296653 l -13.97350752624932 30.439992406002307" fill="#96ff23" stroke="none" /><path d="M 110.36928655335952 81.73862282372117 l 14.27761349731545 -25.144341793422033 a49.91518928527279,49.91518928527279 0 0,0 0.7435063956211887,0.4306868943609607 l -14.708316625401967 24.894850741671025" fill="#d2ff1c" stroke="none" /><line stroke="#e1ed5e" stroke-width="0.3" x1="143.23703022742887" x2="145.7803849466894" y1="26.81831364943548" y2="22.513508569990506" /><path d="M 143.74570117128098 25.957352633546492 a86.0,86.0 0 0,1 28.547481713284135,27.462654790039103" fill="none" id="id110" stroke="none" /><text fill="#e1ed5e" style="font-size:6.75px; font-family:Arial;" text-anchor="middle"><textPath startOffset="19.985693538727396" xlink:href="#id110">February</textPath></text><path d="M 110.68208982089419 81.91981866633111 l 17.19410915164547 -29.10222779858845 a54.80202734096925,54.80202734096925 0 0,0 0.8080374529972503,0.4868335242380723 l -17.69250867086036 28.801947664891763" fill="#92ff23" stroke="none" /><path d="M 111.90073688211348 82.69761687909136 l 11.297954520552956 -16.42600282096927 a40.9363322861296,40.9363322861296 0 0,0 0.5771415833133041,0.4043245617997786 l -11.57902724344991 16.229093416405558" fill="#ffae10" stroke="none" /><path d="M 112.77801427241765 83.33499621200491 l 20.92100054096741 -27.2850339521419 a55.38257322255993,55.38257322255993 0 0,0 0.7515347799966028,0.5865848164345008 l -21.38756787612344 26.920870746484177" fill="#8bff24" stroke="none" /><path d="M 115.19652480421416 85.50635884689758 l 21.186202821056632 -20.206279069809984 a50.27710545497948,50.27710545497948 0 0,0 0.5919115916765726,0.6314100161583461 l -21.530881734703666 19.838599636773584" fill="#cdff1d" stroke="none" /><path d="M 115.4437574822437 85.77008943001954 l 27.763187783583426 -25.581059515612797 a58.75162515505578,58.75162515505578 0 0,0 0.6788788318103417,0.7496349620800687 l -28.199410256009802 25.09937176626318" fill="#62ff29" stroke="none" /><path d="M 115.68641384162765 86.03803664274999 l 33.6224620648571 -29.92625262023266 a66.0116712774891,66.0116712774891 0 0,0 0.7481578506127079,0.8552737554118794 l -34.13261177904766 29.343063308617833" fill="#33ff56" stroke="none" /><path d="M 116.15771136456269 86.58626213691792 l 20.194160340108414 -16.764699347294837 a47.24612840110319,47.24612840110319 0 0,0 0.5140862658668421,0.6302089757084434 l -20.479745098051666 16.414606201978295" fill="#f6ff19" stroke="none" /><path d="M 116.38621287248628 86.86637796730983 l 49.158638617458855 -39.400866098070516 a84.0,84.0 0 0,0 0.8945836776241438,1.1360304241878465 l -49.829576375676965 38.54884327992963" fill="#4dd2ff" stroke="none" /><path d="M 117.04232023915458 87.72973835380427 l 23.10819184178448 -16.637614837077315 a49.47452822547987,49.47452822547987 0 0,0 0.4916528419911545,0.6954080781308749 l -23.391157303579515 16.23738025861465" fill="#d7ff1c" stroke="none" /><path d="M 117.2510076193507 88.02491185347247 l 36.985861878177765 -25.67438180652438 a66.0236366814014,66.0236366814014 0 0,0 0.6400379579004621,0.9391767266830823 l -37.42232430174696 25.033927056570892" fill="#33ff56" stroke="none" /><line stroke="#e1ed5e" stroke-width="0.3" x1="172.23445277983987" x2="176.4835382374775" y1="55.19839476539836" y2="52.563006222186495" /><path d="M 173.08426987136738 54.67131705675599 a86.0,86.0 0 0,1 12.851231095245387,41.99856678651699" fill="none" id="id111" stroke="none" /><text fill="#e1ed5e" style="font-size:6.75px; font-family:Arial;" text-anchor="middle"><textPath startOffset="22.20632615414155" xlink:href="#id111">March</textPath></text><line stroke="#e1ed5e" stroke-width="0.3" x1="184.98032266829074" x2="189.97916517819016" y1="98.17113171792111" y2="98.06355123074" /><path d="M 185.9800911702706 98.14961562048488 a86.0,86.0 0 0,1 -9.607161424134198,41.387399972396054" fill="none" id="id112" stroke="none" /><text fill="#e1ed5e" style="font-size:6.75px; font-family:Arial;" text-anchor="middle"><textPath startOffset="21.466115282336823" xlink:href="#id112">April</textPath></text><line stroke="#e1ed5e" stroke-width="0.3" x1="174.80103733775053" x2="179.2010983576182" y1="140.37084112569926" y2="142.7455964860345" /><path d="M 175.68104954172406 140.8457921977663 a86.0,86.0 0 0,1 -30.038265399797805,32.042727171017184" fill="none" id="id113" stroke="none" /><text fill="#e1ed5e" style="font-size:6.75px; font-family:Arial;" text-anchor="middle"><textPath startOffset="22.206326154141568" xlink:href="#id113">May</textPath></text><line stroke="#e1ed5e" stroke-width="0.3" x1="143.8653032363475" x2="146.44561519142675" y1="172.8068346515853" y2="177.08958963109032" /><path d="M 144.38136562736335 173.6633856474863 a86.0,86.0 0 0,1 -40.68145358897372,12.25698825130547" fill="none" id="id114" stroke="none" /><text fill="#e1ed5e" style="font-size:6.75px; font-family:Arial;" text-anchor="middle"><textPath startOffset="21.466115282336833" xlink:href="#id114">June</textPath></text><line stroke="#e1ed5e" stroke-width="0.3" x1="102.19456741930631" x2="102.32365962044197" y1="184.97166512339345" y2="189.96999836594603" /><path d="M 102.22038585953345 185.97133177190398 a86.0,86.0 0 0,1 -42.740103519485714,-10.115201625700543" fill="none" id="id115" stroke="none" /><text fill="#e1ed5e" style="font-size:6.75px; font-family:Arial;" text-anchor="middle"><textPath startOffset="22.20632615414155" xlink:href="#id115">July</textPath></text><line stroke="#e1ed5e" stroke-width="0.3" x1="58.666819895761336" x2="56.23545636021788" y1="174.27360380694188" y2="178.64263932499728" /><path d="M 58.180547188652646 175.14741091055294 a86.0,86.0 0 0,1 -31.652253787137756,-30.449443065178592" fill="none" id="id116" stroke="none" /><text fill="#e1ed5e" style="font-size:6.75px; font-family:Arial;" text-anchor="middle"><textPath startOffset="22.20632615414155" xlink:href="#id116">August</textPath></text><line stroke="#e1ed5e" stroke-width="0.3" x1="26.63291911575756" x2="22.317208475507996" y1="142.92168965132927" y2="145.44649492493687" /><path d="M 25.769776987707644 143.4266507060508 a86.0,86.0 0 0,1 -11.730757126820373,-40.83630448921669" fill="none" id="id117" stroke="none" /><text fill="#e1ed5e" style="font-size:6.75px; font-family:Arial;" text-anchor="middle"><textPath startOffset="21.46611528233685" xlink:href="#id117">September</textPath></text><line stroke="#e1ed5e" stroke-width="0.3" x1="15.007084014347285" x2="10.007500721073583" y1="101.09737516637583" y2="101.16192664675087" /><path d="M 14.007167355692545 101.11028546245083 a86.0,86.0 0 0,1 10.666146001902534,-42.60595125391555" fill="none" id="id118" stroke="none" /><text fill="#e1ed5e" style="font-size:6.75px; font-family:Arial;" text-anchor="middle"><textPath startOffset="22.20632615414155" xlink:href="#id118">October</textPath></text><line stroke="#e1ed5e" stroke-width="0.3" x1="26.266209847984243" x2="21.928928074336255" y1="57.711370442889674" y2="55.22380399835377" /><path d="M 25.398753493254645 57.213857153982495 a86.0,86.0 0 0,1 29.58750427330803,-30.492523968695096" fill="none" id="id119" stroke="none" /><text fill="#e1ed5e" style="font-size:6.75px; font-family:Arial;" text-anchor="middle"><textPath startOffset="21.46611528233685" xlink:href="#id119">November</textPath></text><line stroke="#e1ed5e" stroke-width="0.3" x1="56.762969772571076" x2="54.21961505331055" y1="26.818313649435495" y2="22.513508569990535" /><path d="M 56.25429882871897 25.957352633546506 a86.0,86.0 0 0,1 42.265352541879196,-11.944610805530505" fill="none" id="id120" stroke="none" /><text fill="#e1ed5e" style="font-size:6.75px; font-family:Arial;" text-anchor="middle"><textPath startOffset="22.20632615414155" xlink:href="#id120">December</textPath></text></svg>