<?xml version="1.0" encoding="utf-8" ?>
<svg baseProfile="full" height="200mm" version="1.1" viewBox="0,0,200,200" width="200mm" xmlns="http://www.w3.org/2000/svg" xmlns:ev="http://www.w3.org/2001/xml-events" xmlns:xlink="http://www.w3.org/1999/xlink"><defs /><rect fill="#1a1a1a" height="200" width="200" x="0" y="0" /><text alignment-baseline="middle" fill="#e1ed5e" style="dominant-baseline: central; font-size:9.0px; font-family:Arial;" text-anchor="middle" x="100.0" y="100.0">2019</text><line stroke="#e1ed5e" stroke-width="0.3" x1="100.0" x2="100.0" y1="15.0" y2="10.0" /><path d="M 100.0 14.0 a86.0,86.0 0 0,1 42.46469731375804,11.215312516191453" fill="none" id="id25" stroke="none" /><text fill="#e1ed5e" style="font-size:6.75px; font-family:Arial;" text-anchor="middle"><textPath startOffset="22.20632615414155" xlink:href="#id25">January</textPath></text><line stroke="#e1ed5e" stroke-width="0.3" x1="143.23703022742887" x2="145.7803849466894" y1="26.81831364943548" y2="22.513508569990506" /><path d="M 143.74570117128098 25.957352633546492 a86.0,86.0 0 0,1 28.547481713284135,27.462654790039103" fill="none" id="id26" stroke="none" /><text fill="#e1ed5e" style="font-size:6.75px; font-family:Arial;" text-anchor="middle"><textPath startOffset="19.985693538727396" xlink:href="#id26">February</textPath></text><path d="M 115.4437574822437 85.77008943001954 l 10.904740738638983 -10.047651012265934 a35.827968891295306,35.827968891295306 0 0,0 0.41399449977541186,0.4571430667721849 l -11.07607887903043 9.858455158224201" fill="#ff740a" stroke="none" /><line stroke="#e1ed5e" stroke-width="0.3" x1="172.23445277983987" x2="176.4835382374775" y1="55.19839476539836" y2="52.563006222186495" /><path d="M 173.08426987136738 54.67131705675599 a86.0,86.0 0 0,1 12.851231095245387,41.99856678651699" fill="none" id="id27" stroke="none" /><text fill="#e1ed5e" style="font-size:6.75px; font-family:Arial;" text-anchor="middle"><textPath startOffset="22.20632615414155" xlink:href="#id27">March</textPath></text><path d="M 118.73160827565052 90.50648371742162 l 13.229207187633886 -6.704800356340133 a35.83125991383479,35.83125991383479 0 0,0 0.2740920537343566,0.5525528550046354 l -13.34265925432165 6.476087912836547" fill="#ff740a" stroke="none" /><path d="M 120.18372546131832 94.20196356495316 l 14.273088817158522 -4.100129540562009 a35.85032412548241,35.85032412548241 0 0,0 0.1652755073728846,0.594583936270113 l -14.341551095097769 3.8538343008729443" fill="#ff750a" stroke="none" /><line stroke="#e1ed5e" stroke-width="0.3" x1="184.98032266829074" x2="189.97916517819016" y1="98.17113171792111" y2="98.06355123074" /><path d="M 185.9800911702706 98.14961562048488 a86.0,86.0 0 0,1 -9.607161424134198,41.387399972396054" fill="none" id="id28" stroke="none" /><text fill="#e1ed5e" style="font-size:6.75px; font-family:Arial;" text-anchor="middle"><textPath startOffset="21.466115282336823" xlink:href="#id28">April</textPath></text><path d="M 120.89721153311464 102.0752229133903 l 10.622301599832413 1.054860531893613 a31.674550202212227,31.674550202212227 0 0,0 -0.05854919713520335,0.542092849777138 l -10.602570101196157 -1.2375497035555425" fill="#ff3404" stroke="none" /><path d="M 120.5718875245553 104.21870165774334 l 30.832134235287914 6.32278276142218 a52.473768178452204,52.473768178452204 0 0,0 -0.18907038623682454,0.8832738997258304 l -30.718729810326646 -6.85257048056418" fill="#a5ff21" stroke="none" /><path d="M 119.54520255179757 107.68017299344265 l 9.8572279226288 3.8733400424453466 a31.590925615972544,31.590925615972544 0 0,0 -0.20323102209081262,0.5044027299745834 l -9.789094286280596 -4.042442140262744" fill="#ff3304" stroke="none" /><line stroke="#e1ed5e" stroke-width="0.3" x1="174.80103733775053" x2="179.2010983576182" y1="140.37084112569926" y2="142.7455964860345" /><path d="M 175.68104954172406 140.8457921977663 a86.0,86.0 0 0,1 -30.038265399797805,32.042727171017184" fill="none" id="id29" stroke="none" /><text fill="#e1ed5e" style="font-size:6.75px; font-family:Arial;" text-anchor="middle"><textPath startOffset="22.206326154141568" xlink:href="#id29">May</textPath></text><path d="M 112.63410532772338 116.77436683061366 l 37.90231598317012 50.32310049184099 a84.0,84.0 0 0,0 -1.1624601183257428,0.8599602050409239 l -37.03047089442582 -50.96807064562168" fill="#4dd2ff" stroke="none" /><path d="M 111.45004920935366 117.60387380957326 l 4.535126252585072 6.972528135143014 a29.317663056547026,29.317663056547026 0 0,0 -0.4254107359422043,0.2715172592906508 l -4.414433714595937 -7.049559823257473" fill="#ff0e01" stroke="none" /><line stroke="#e1ed5e" stroke-width="0.3" x1="143.8653032363475" x2="146.44561519142675" y1="172.8068346515853" y2="177.08958963109032" /><path d="M 144.38136562736335 173.6633856474863 a86.0,86.0 0 0,1 -40.68145358897372,12.25698825130547" fill="none" id="id30" stroke="none" /><text fill="#e1ed5e" style="font-size:6.75px; font-family:Arial;" text-anchor="middle"><textPath startOffset="21.466115282336833" xlink:href="#id30">June</textPath></text><path d="M 107.59598834532513 119.57807347666477 l 3.7598448122780774 9.690709707439177 a31.394531622265156,31.394531622265156 0 0,0 -0.5054964784176709,0.1911355145233006 l -3.5924781131001318 -9.75399347206911" fill="#ff3004" stroke="none" /><path d="M 107.2578585660854 119.70592522655815 l 3.6120960103114754 9.807258331397659 a31.451294348858273,31.451294348858273 0 0,0 -0.5096314409425253,0.18273570290381924 l -3.4427450087392155 -9.867981575341439" fill="#ff3004" stroke="none" /><path d="M 101.26447882468166 120.96189622390904 l 3.764217213129354 62.401306408380734 a83.51473724411099,83.51473724411099 0 0,0 -1.435705552782725,0.07420957786566884 l -2.6895235919331495 -62.45685579300861" fill="#4cd7ff" stroke="none" /><line stroke="#e1ed5e" stroke-width="0.3" x1="102.19456741930631" x2="102.32365962044197" y1="184.97166512339345" y2="189.96999836594603" /><path d="M 102.22038585953345 185.97133177190398 a86.0,86.0 0 0,1 -42.740103519485714,-10.115201625700543" fill="none" id="id31" stroke="none" /><text fill="#e1ed5e" style="font-size:6.75px; font-family:Arial;" text-anchor="middle"><textPath startOffset="22.20632615414155" xlink:href="#id31">July</textPath></text><path d="M 92.7421414339146 119.70592522655815 l -2.626431167424215 7.131064311422464 a28.59935647873295,28.59935647873295 0 0,0 -0.4604901948834259,-0.1741179891252478 l 2.748791583067924 -7.084798072190583" fill="#ff0300" stroke="none" /><path d="M 92.40401165467489 119.57807347666478 l -2.689550015350192 6.932107505417349 a28.4355762219033,28.4355762219033 0 0,0 -0.4548052735020289,-0.18097640443758073 l 2.8084763648940787 -6.884784256573702" fill="#ff0000" stroke="none" /><path d="M 92.06813273071674 119.44442032107085 l -2.8096578179799376 6.88768050655005 a28.438704175758392,28.438704175758392 0 0,0 -0.45167235702495817,-0.18879908186814595 l 2.927801634502358 -6.838296381661931" fill="#ff0000" stroke="none" /><line stroke="#e1ed5e" stroke-width="0.3" x1="58.666819895761336" x2="56.23545636021788" y1="174.27360380694188" y2="178.64263932499728" /><path d="M 58.180547188652646 175.14741091055294 a86.0,86.0 0 0,1 -31.652253787137756,-30.449443065178592" fill="none" id="id32" stroke="none" /><text fill="#e1ed5e" style="font-size:6.75px; font-family:Arial;" text-anchor="middle"><textPath startOffset="22.20632615414155" xlink:href="#id32">August</textPath></text><path d="M 83.28015986056508 112.70617746262583 l -25.096502699160222 19.07198958408075 a52.52102844807322,52.52102844807322 0 0,0 -0.5408133649277502,-0.7245078807777166 l 25.421077330783056 -18.637168823793726" fill="#a4ff21" stroke="none" /><line stroke="#e1ed5e" stroke-width="0.3" x1="26.63291911575756" x2="22.317208475507996" y1="142.92168965132927" y2="145.44649492493687" /><path d="M 25.769776987707644 143.4266507060508 a86.0,86.0 0 0,1 -11.730757126820373,-40.83630448921669" fill="none" id="id33" stroke="none" /><text fill="#e1ed5e" style="font-size:6.75px; font-family:Arial;" text-anchor="middle"><textPath startOffset="21.46611528233685" xlink:href="#id33">September</textPath></text><path d="M 81.69416730710424 110.29060199501025 l -6.499290973287357 3.65356866185163 a28.455826387619204,28.455826387619204 0 0,0 -0.23635082907394395,-0.4290454075082586 l 6.561218211812817 -3.541152735945549" fill="#ff0000" stroke="none" /><line stroke="#e1ed5e" stroke-width="0.3" x1="15.007084014347285" x2="10.007500721073583" y1="101.09737516637583" y2="101.16192664675087" /><path d="M 14.007167355692545 101.11028546245083 a86.0,86.0 0 0,1 10.666146001902534,-42.60595125391555" fill="none" id="id34" stroke="none" /><text fill="#e1ed5e" style="font-size:6.75px; font-family:Arial;" text-anchor="middle"><textPath startOffset="22.20632615414155" xlink:href="#id34">October</textPath></text><path d="M 81.43458229118936 90.18545643968196 l -13.132044154539262 -6.942209510835849 a35.85411917850091,35.85411917850091 0 0,0 0.29313627964782213,-0.5431370065021448 l 13.010599775672969 7.167227500670466" fill="#ff750a" stroke="none" /><line stroke="#e1ed5e" stroke-width="0.3" x1="26.266209847984243" x2="21.928928074336255" y1="57.711370442889674" y2="55.22380399835377" /><path d="M 25.398753493254645 57.213857153982495 a86.0,86.0 0 0,1 29.58750427330803,-30.492523968695096" fill="none" id="id35" stroke="none" /><text fill="#e1ed5e" style="font-size:6.75px; font-family:Arial;" text-anchor="middle"><textPath startOffset="21.46611528233685" xlink:href="#id35">November</textPath></text><path d="M 82.34701348167596 88.62581576622439 l -12.473062744040242 -8.036652238016066 a35.837960554320574,35.837960554320574 0 0,0 0.3385891407565398,-0.515694490637933 l 12.332876967925781 8.250164792631667" fill="#ff740a" stroke="none" /><line stroke="#e1ed5e" stroke-width="0.3" x1="56.762969772571076" x2="54.21961505331055" y1="26.818313649435495" y2="22.513508569990535" /><path d="M 56.25429882871897 25.957352633546506 a86.0,86.0 0 0,1 42.265352541879196,-11.944610805530505" fill="none" id="id36" stroke="none" /><text fill="#e1ed5e" style="font-size:6.75px; font-family:Arial;" text-anchor="middle"><textPath startOffset="22.20632615414155" xlink:href="#id36">December</textPath></text></svg>