<?xml version="1.0" encoding="utf-8" ?>
<svg baseProfile="full" height="200mm" version="1.1" viewBox="0,0,200,200" width="200mm" xmlns="http://www.w3.org/2000/svg" xmlns:ev="http://www.w3.org/2001/xml-events" xmlns:xlink="http://www.w3.org/1999/xlink"><defs /><rect fill="#1a1a1a" height="200" width="200" x="0" y="0" /><rect fill="#1a1a1a" height="200" width="180" x="10" y="0" /><text alignment-baseline="middle" fill="#e1ed5e" style="dominant-baseline: central; font-size:9.0px; font-family:Arial;" text-anchor="middle" x="100.0" y="100.0">2026</text><line stroke="#e1ed5e" stroke-width="0.3" x1="100.0" x2="100.0" y1="15.0" y2="10.0" /><path d="M 100.0 14.0 a86.0,86.0 0 0,1 42.46469731375804,11.215312516191453" fill="none" id="id109" stroke="none" /><text fill="#e1ed5e" style="font-size:6.75px; font-family:Arial;" text-anchor="middle"><textPath startOffset="22.20632615414155" xlink:href="#id109">January</textPath></text><path d="M 100.0 79.0 l 0.0 -38.44884793434036 a59.44884793434036,59.44884793434036 0 0,0 1.0233141925478577,0.00880798832707999 l -0.6618337132753292 38.44315132262184" fill="red" stroke="none" /><path d="M 100.36148047927253 79.00311137660856 l 0.5192095430781876 -30.158710008779096 a51.16317900923667,51.16317900923667 0 0,0 0.880429054890246,0.02273888496908895 l -1.0382652331633013 30.145304331667646" fill="red" stroke="none" /><path d="M 100.72285384407766 79.0124445844662 l 1.1888889361535737 -34.518558121906345 a55.5390259231197,55.5390259231197 0 0,0 0.955163255823869,0.04113133903505685 l -1.7828930243667742 34.492979056347096" fill="red" stroke="none" /><path d="M 101.08401301168833 79.027996857942 l 1.5389836874872398 -29.774154351975742 a50.81390176017939,50.81390176017939 0 0,0 0.8731230572194462,0.05266916720711986 l -2.051268793546298 29.743251915388317" fill="red" stroke="none" /><path d="M 101.80526077348638 79.07773832637324 l 1.8638788350319002 -21.601621930310184 a42.68188447371994,42.68188447371994 0 0,0 0.731435130977564,0.06945857909311658 l -2.2354390930997083 21.566337806701892" fill="red" stroke="none" /><path d="M 102.16513564639614 79.11191278185805 l 2.539927739629947 -24.503883736558134 a45.63516898860854,45.63516898860854 0 0,0 0.7806510567461239,0.08771524211586618 l -2.9613454998857964 24.45653254097167" fill="red" stroke="none" /><path d="M 102.88285421437855 79.19881850522331 l 3.0799773208554515 -22.223519639449005 a43.435932908215776,43.435932908215776 0 0,0 0.7397160462856053,0.10901491666081221 l -3.4620623475697125 22.167210238627224" fill="red" stroke="none" /><path d="M 103.59715602781102 79.31037775812273 l 1.7759765486234071 -10.214815153239602 a31.36805388277442,31.36805388277442 0 0,0 0.5311730001057942,0.09706847059696157 l -1.9515446698321022 10.182731201291901" fill="red" stroke="none" /><path d="M 104.307194497241 79.44645832069477 l 6.435544661893876 -30.70983572299657 a52.376906240556394,52.376906240556394 0 0,0 0.8808231202467133,0.19251381777471982 l -6.963210506294117 30.59450840712598" fill="red" stroke="none" /><path d="M 104.66035177308747 79.52364482259891 l 4.903746665326729 -21.54576806821264 a43.0967611429122,43.0967611429122 0 0,0 0.7219247494624016,0.17085626374457194 l -5.273895101751654 21.4581658923272" fill="red" stroke="none" /><path d="M 106.0581310904928 79.89281104454417 l 9.960181049479614 -33.05825499661582 a55.52612677320883,55.52612677320883 0 0,0 0.912782436134795,0.2836059461043068 l -10.527748858325127 32.88190891562899" fill="red" stroke="none" /><path d="M 106.74666289553966 80.11325718540242 l 14.638454430821858 -43.14891420785524 a66.5643846160584,66.5643846160584 0 0,0 1.0818867789483102,0.3774490537712987 l -15.379023213833442 42.890544300911735" fill="red" stroke="none" /><path d="M 107.08798089147638 80.2323363322302 l 13.711498792713806 -38.23998691098916 a61.623906731076644,61.623906731076644 0 0,0 0.9954246818154043,0.3666233110470737 l -14.367705800301787 37.99830033213576" fill="red" stroke="none" /><path d="M 107.76421540070413 80.48803036053334 l 23.292646202112408 -58.53590891839998 a84.0,84.0 0 0,0 1.33886452164645,0.5461564552656828 l -24.296794593347244 58.12629157695072" fill="red" stroke="none" /><path d="M 108.09893153111575 80.62456947434976 l 13.025093714806841 -31.160505233528784 a54.773216498999254,54.773216498999254 0 0,0 0.8667633086040446,0.3711028142130413 l -13.559540781201202 30.931682891352953" fill="red" stroke="none" /><path d="M 108.43124777332544 80.76684994638697 l 15.54342949302329 -35.45727985042485 a59.71455662662211,59.71455662662211 0 0,0 0.9378537411089521,0.4207876358552104 l -16.151465352599022 35.1844718840531" fill="red" stroke="none" /><path d="M 110.36928655335952 81.73862282372117 l 16.502970301944515 -29.063423376519356 a54.422007826425904,54.422007826425904 0 0,0 0.8106372320906428,0.469573407839741 l -17.000804266500484 28.775045811289566" fill="red" stroke="none" /><line stroke="#e1ed5e" stroke-width="0.3" x1="143.23703022742887" x2="145.7803849466894" y1="26.81831364943548" y2="22.513508569990506" /><path d="M 143.74570117128098 25.957352633546492 a86.0,86.0 0 0,1 28.547481713284135,27.462654790039103" fill="none" id="id110" stroke="none" /><text fill="#e1ed5e" style="font-size:6.75px; font-family:Arial;" text-anchor="middle"><textPath startOffset="19.985693538727396" xlink:href="#id110">February</textPath></text><path d="M 110.68208982089419 81.91981866633111 l 19.874040766781537 -33.638198790773586 a60.07052487857434,60.07052487857434 0 0,0 0.8857196764106552,0.5336361946523185 l -20.45012250940983 33.29111598666265" fill="red" stroke="none" /><path d="M 111.90073688211348 82.69761687909136 l 13.058891667046623 -18.98621480299085 a44.043676011369556,44.043676011369556 0 0,0 0.620950522153956,0.43501552310249975 l -13.38377332878423 18.758614437124415" fill="red" stroke="none" /><path d="M 112.77801427241765 83.33499621200491 l 24.18181796835077 -31.53777100664689 a60.74155659158495,60.74155659158495 0 0,0 0.8242555322639441,0.6433445170566198 l -24.721106055774143 31.116848100367047" fill="red" stroke="none" /><path d="M 115.19652480421416 85.50635884689758 l 24.488355566748663 -23.355697607627263 a54.84033346618257,54.84033346618257 0 0,0 0.6456344050893887,0.6887177677922979 l -24.886757293808515 22.93071042295691" fill="red" stroke="none" /><path d="M 115.4437574822437 85.77008943001954 l 32.09045150059108 -29.568209390022393 a64.63572027644321,64.63572027644321 0 0,0 0.7468699318305712,0.8247124328999073 l -32.59466507303769 29.011444169852936" fill="red" stroke="none" /><path d="M 115.68641384162765 86.03803664274999 l 38.86297195528666 -34.59065888938995 a73.0273415772854,73.0273415772854 0 0,0 0.8276714988892201,0.9461716007158592 l -39.45263531775373 33.91657173247115" fill="red" stroke="none" /><path d="M 116.15771136456269 86.58626213691792 l 23.341690012002132 -19.377701707743782 a51.33693814627139,51.33693814627139 0 0,0 0.5585984656477686,0.6847756694581131 l -23.67178696972631 18.973041868677566" fill="red" stroke="none" /><line stroke="#e1ed5e" stroke-width="0.3" x1="172.23445277983987" x2="176.4835382374775" y1="55.19839476539836" y2="52.563006222186495" /><path d="M 173.08426987136738 54.67131705675599 a86.0,86.0 0 0,1 12.851231095245387,41.99856678651699" fill="none" id="id111" stroke="none" /><text fill="#e1ed5e" style="font-size:6.75px; font-family:Arial;" text-anchor="middle"><textPath startOffset="22.20632615414155" xlink:href="#id111">March</textPath></text><line stroke="#e1ed5e" stroke-width="0.3" x1="184.98032266829074" x2="189.97916517819016" y1="98.17113171792111" y2="98.06355123074" /><path d="M 185.9800911702706 98.14961562048488 a86.0,86.0 0 0,1 -9.607161424134198,41.387399972396054" fill="none" id="id112" stroke="none" /><text fill="#e1ed5e" style="font-size:6.75px; font-family:Arial;" text-anchor="middle"><textPath startOffset="21.466115282336823" xlink:href="#id112">April</textPath></text><line stroke="#e1ed5e" stroke-width="0.3" x1="174.80103733775053" x2="179.2010983576182" y1="140.37084112569926" y2="142.7455964860345" /><path d="M 175.68104954172406 140.8457921977663 a86.0,86.0 0 0,1 -30.038265399797805,32.042727171017184" fill="none" id="id113" stroke="none" /><text fill="#e1ed5e" style="font-size:6.75px; font-family:Arial;" text-anchor="middle"><textPath startOffset="22.206326154141568" xlink:href="#id113">May</textPath></text><line stroke="#e1ed5e" stroke-width="0.3" x1="143.8653032363475" x2="146.44561519142675" y1="172.8068346515853" y2="177.08958963109032" /><path d="M 144.38136562736335 173.6633856474863 a86.0,86.0 0 0,1 -40.68145358897372,12.25698825130547" fill="none" id="id114" stroke="none" /><text fill="#e1ed5e" style="font-size:6.75px; font-family:Arial;" text-anchor="middle"><textPath startOffset="21.466115282336833" xlink:href="#id114">June</textPath></text><line stroke="#e1ed5e" stroke-width="0.3" x1="102.19456741930631" x2="102.32365962044197" y1="184.97166512339345" y2="189.96999836594603" /><path d="M 102.22038585953345 185.97133177190398 a86.0,86.0 0 0,1 -42.740103519485714,-10.115201625700543" fill="none" id="id115" stroke="none" /><text fill="#e1ed5e" style="font-size:6.75px; font-family:Arial;" text-anchor="middle"><textPath startOffset="22.20632615414155" xlink:href="#id115">July</textPath></text><line stroke="#e1ed5e" stroke-width="0.3" x1="58.666819895761336" x2="56.23545636021788" y1="174.27360380694188" y2="178.64263932499728" /><path d="M 58.180547188652646 175.14741091055294 a86.0,86.0 0 0,1 -31.652253787137756,-30.449443065178592" fill="none" id="id116" stroke="none" /><text fill="#e1ed5e" style="font-size:6.75px; font-family:Arial;" text-anchor="middle"><textPath startOffset="22.20632615414155" xlink:href="#id116">August</textPath></text><line stroke="#e1ed5e" stroke-width="0.3" x1="26.63291911575756" x2="22.317208475507996" y1="142.92168965132927" y2="145.44649492493687" /><path d="M 25.769776987707644 143.4266507060508 a86.0,86.0 0 0,1 -11.730757126820373,-40.83630448921669" fill="none" id="id117" stroke="none" /><text fill="#e1ed5e" style="font-size:6.75px; font-family:Arial;" text-anchor="middle"><textPath startOffset="21.46611528233685" xlink:href="#id117">September</textPath></text><line stroke="#e1ed5e" stroke-width="0.3" x1="15.007084014347285" x2="10.007500721073583" y1="101.09737516637583" y2="101.16192664675087" /><path d="M 14.007167355692545 101.11028546245083 a86.0,86.0 0 0,1 10.666146001902534,-42.60595125391555" fill="none" id="id118" stroke="none" /><text fill="#e1ed5e" style="font-size:6.75px; font-family:Arial;" text-anchor="middle"><textPath startOffset="22.20632615414155" xlink:href="#id118">October</textPath></text><line stroke="#e1ed5e" stroke-width="0.3" x1="26.266209847984243" x2="21.928928074336255" y1="57.711370442889674" y2="55.22380399835377" /><path d="M 25.398753493254645 57.213857153982495 a86.0,86.0 0 0,1 29.58750427330803,-30.492523968695096" fill="none" id="id119" stroke="none" /><text fill="#e1ed5e" style="font-size:6.75px; font-family:Arial;" text-anchor="middle"><textPath startOffset="21.46611528233685" xlink:href="#id119">November</textPath></text><line stroke="#e1ed5e" stroke-width="0.3" x1="56.762969772571076" x2="54.21961505331055" y1="26.818313649435495" y2="22.513508569990535" /><path d="M 56.25429882871897 25.957352633546506 a86.0,86.0 0 0,1 42.265352541879196,-11.944610805530505" fill="none" id="id120" stroke="none" /><text fill="#e1ed5e" style="font-size:6.75px; font-family:Arial;" text-anchor="middle"><textPath startOffset="22.20632615414155" xlink:href="#id120">December</textPath></text></svg>