<?xml version="1.0" encoding="utf-8" ?>
<svg baseProfile="full" height="200mm" version="1.1" viewBox="0,0,200,200" width="200mm" xmlns="http://www.w3.org/2000/svg" xmlns:ev="http://www.w3.org/2001/xml-events" xmlns:xlink="http://www.w3.org/1999/xlink"><defs /><rect fill="#1a1a1a" height="200" width="200" x="0" y="0" /><rect fill="#1a1a1a" height="200" width="180" x="10" y="0" /><text alignment-baseline="middle" fill="#e1ed5e" style="dominant-baseline: central; font-size:9.0px; font-family:Arial;" text-anchor="middle" x="100.0" y="100.0">2026</text><line stroke="#e1ed5e" stroke-width="0.3" x1="100.0" x2="100.0" y1="15.0" y2="10.0" /><path d="M 100.0 14.0 a86.0,86.0 0 0,1 42.46469731375804,11.215312516191453" fill="none" id="id109" stroke="none" /><text fill="#e1ed5e" style="font-size:6.75px; font-family:Arial;" text-anchor="middle"><textPath startOffset="22.20632615414155" xlink:href="#id109">January</textPath></text><path d="M 100.0 79.0 l 0.0 -16.428548270627935 a37.428548270627935,37.428548270627935 0 0,0 0.644270931778169,0.0055454433134070604 l -0.2827904525056406 16.42611420392309" fill="#ffaf10" stroke="none" /><path d="M 100.36148047927253 79.00311137660856 l 0.22184953514334782 -12.886311288317604 a33.88822081730698,33.88822081730698 0 0,0 0.583157161143312,0.015061228991121002 l -0.44363333148152756 12.880583267184123" fill="#ff7e0b" stroke="none" /><path d="M 100.72285384407766 79.0124445844662 l 0.5079923151239557 -14.749201310443466 a35.75794685883549,35.75794685883549 0 0,0 0.6149671582382639,0.026481779451520013 l -0.7618003057515511 14.738271804467752" fill="#ff980e" stroke="none" /><path d="M 101.08401301168833 79.027996857942 l 0.6575819343344096 -12.721997101808672 a33.73898050311685,33.73898050311685 0 0,0 0.5797287904278554,0.03497082380926272 l -0.8764727736018769 12.708793008619105" fill="#ff7c0b" stroke="none" /><path d="M 101.80526077348638 79.07773832637324 l 0.7964041852233117 -9.230010980094779 a30.2643058195912,30.2643058195912 0 0,0 0.518636343358446,0.049250770095745355 l -0.9551656556720018 9.214934665483856" fill="#ff4906" stroke="none" /><path d="M 102.16513564639614 79.11191278185805 l 1.085268550716418 -10.470098804296116 a31.526194791989035,31.526194791989035 0 0,0 0.5392980419486072,0.06059641873708321 l -1.2653332961747503 10.449866432088433" fill="#ff5c08" stroke="none" /><path d="M 102.88285421437855 79.19881850522331 l 1.3160226848545025 -9.495737447411237 a30.586498076838055,30.586498076838055 0 0,0 0.5208895472541215,0.0767655789928229 l -1.4792812125372796 9.471677384257445" fill="#ff4e07" stroke="none" /><path d="M 103.59715602781102 79.31037775812273 l 0.7588450115953626 -4.364619301652882 a25.430095642306615,25.430095642306615 0 0,0 0.4306221943440044,0.07869345354857034 l -0.8338623270422678 4.350910366753573" fill="#ff0000" stroke="none" /><path d="M 104.307194497241 79.44645832069477 l 2.7498003660930586 -13.121798068433044 a34.406826119633934,34.406826119633934 0 0,0 0.5786200468063409,0.12646393094277028 l -2.9752631370529277 13.072520639394403" fill="#ff850c" stroke="none" /><path d="M 104.66035177308747 79.52364482259891 l 2.095288757047464 -9.206145561002444 a30.44157566647509,30.44157566647509 0 0,0 0.5099345357620937,0.12068502929081486 l -2.253446979772081 9.16871461957076" fill="#ff4c07" stroke="none" /><path d="M 106.0581310904928 79.89281104454417 l 4.2558184171084905 -14.125238261549168 a35.75243526828477,35.75243526828477 0 0,0 0.5877268388488143,0.1826095897379828 l -4.498330628668023 14.049888536928664" fill="#ff980e" stroke="none" /><path d="M 106.74666289553966 80.11325718540242 l 6.254766219129115 -18.43680781019727 a40.46889782925859,40.46889782925859 0 0,0 0.6577506240405084,0.22947627745567703 l -6.571198847232896 18.326410679569385" fill="#ffd814" stroke="none" /><path d="M 107.08798089147638 80.2323363322302 l 5.858693611923954 -16.339305456127025 a38.3579144377146,38.3579144377146 0 0,0 0.6196039297036218,0.2282053563625076 l -6.139079867400152 16.23603683195819" fill="#ffbc11" stroke="none" /><path d="M 107.76421540070413 80.48803036053334 l 9.952557307712924 -25.011412744362445 a47.918844039671654,47.918844039671654 0 0,0 0.763771907178879,0.31156173810876386 l -10.38161308448019 24.836390120070103" fill="#c7ff1e" stroke="none" /><path d="M 108.09893153111575 80.62456947434976 l 5.565404227158619 -13.31436159648784 a35.43072932785122,35.43072932785122 0 0,0 0.5606765156657136,0.24005242349472677 l -5.793764500614648 13.216589645030323" fill="#ff930d" stroke="none" /><path d="M 108.43124777332544 80.76684994638697 l 6.64144689467185 -15.150301370866327 a37.54208114122345,37.54208114122345 0 0,0 0.5896214128736457,0.2645459409047529 l -6.901250426012275 15.033735099445042" fill="#ffb110" stroke="none" /><path d="M 110.36928655335952 81.73862282372117 l 7.051442599196466 -12.418313668753521 a35.28066374876578,35.28066374876578 0 0,0 0.5255193762574274,0.30441474265695 l -7.264158707919222 12.295094768706521" fill="#ff910d" stroke="none" /><line stroke="#e1ed5e" stroke-width="0.3" x1="143.23703022742887" x2="145.7803849466894" y1="26.81831364943548" y2="22.513508569990506" /><path d="M 143.74570117128098 25.957352633546492 a86.0,86.0 0 0,1 28.547481713284135,27.462654790039103" fill="none" id="id110" stroke="none" /><text fill="#e1ed5e" style="font-size:6.75px; font-family:Arial;" text-anchor="middle"><textPath startOffset="19.985693538727396" xlink:href="#id110">February</textPath></text><path d="M 110.68208982089419 81.91981866633111 l 8.491844505382044 -14.373038524195335 a37.69418040880086,37.69418040880086 0 0,0 0.5557880065428907,0.3348560551876412 l -8.737994578142573 14.22473585954908" fill="#ffb310" stroke="none" /><path d="M 111.90073688211348 82.69761687909136 l 5.579845525653904 -8.112491352149464 a30.846176518266354,30.846176518266354 0 0,0 0.43488534904593645,0.30466497869845777 l -5.718662014283492 8.01524153068707" fill="#ff5207" stroke="none" /><path d="M 112.77801427241765 83.33499621200491 l 10.332485499774034 -13.475560937885813 a37.98090101242318,37.98090101242318 0 0,0 0.5153962054406115,0.4022749134255449 l -10.562914260374075 13.295707635237044" fill="#ffb711" stroke="none" /><path d="M 115.19652480421416 85.50635884689758 l 10.463463877608454 -9.979498116467473 a35.4594072829627,35.4594072829627 0 0,0 0.41746305828128283,0.44532048380449063 l -10.6336942578602 9.797908215784927" fill="#ff940d" stroke="none" /><path d="M 115.4437574822437 85.77008943001954 l 13.711712049318386 -12.63400027146615 a39.644811883814484,39.644811883814484 0 0,0 0.4580983676280261,0.5058436592138643 l -13.927154057562447 12.396103824982736" fill="#ffcd13" stroke="none" /><path d="M 115.68641384162765 86.03803664274999 l 16.60549652353167 -14.780008759888416 a43.230411011391595,43.230411011391595 0 0,0 0.48996140769452307,0.5601105873882116 l -16.85744979480404 14.491982616297257" fill="#fffc17" stroke="none" /><path d="M 116.15771136456269 86.58626213691792 l 9.973512905642018 -8.279767144730698 a33.96246518413723,33.96246518413723 0 0,0 0.3695464051132296,0.4530201970100268 l -10.114557802831657 8.106862778112571" fill="#ff7f0b" stroke="none" /><path d="M 116.38621287248628 86.86637796730983 l 24.27851955306332 -19.459340715548148 a52.11450550422211,52.11450550422211 0 0,0 0.5550093570420321,0.7048055213607298 l -24.609882990699315 19.03854280023438" fill="#95ff23" stroke="none" /><path d="M 117.04232023915458 87.72973835380427 l 11.412697813552755 -8.217002514688406 a35.063029606378116,35.063029606378116 0 0,0 0.3484386566806638,0.4928417694230751 l -11.552449090037301 8.019334244933537" fill="#ff8e0d" stroke="none" /><path d="M 117.2510076193507 88.02491185347247 l 18.26661592042795 -12.680090381533377 a43.23632049751683,43.23632049751683 0 0,0 0.41913604989523257,0.6150304345491653 l -18.482176435991914 12.363781923713805" fill="#fffc17" stroke="none" /><path d="M 117.45458315368197 88.32363383020206 l 8.333876693145413 -5.575005431314676 a31.02667374036577,31.02667374036577 0 0,0 0.2931331649400231,0.44646192091413295 l -8.428606493443361 5.43072544642287" fill="#ff5407" stroke="none" /><line stroke="#e1ed5e" stroke-width="0.3" x1="172.23445277983987" x2="176.4835382374775" y1="55.19839476539836" y2="52.563006222186495" /><path d="M 173.08426987136738 54.67131705675599 a86.0,86.0 0 0,1 12.851231095245387,41.99856678651699" fill="none" id="id111" stroke="none" /><text fill="#e1ed5e" style="font-size:6.75px; font-family:Arial;" text-anchor="middle"><textPath startOffset="22.20632615414155" xlink:href="#id111">March</textPath></text><path d="M 117.84615892207809 88.93136811851018 l 26.705323952378794 -16.56330650172164 a52.42479036797972,52.42479036797972 0 0,0 0.4690376137285679,0.7709745118331012 l -26.986477364393586 16.101164216681457" fill="#91ff23" stroke="none" /><path d="M 118.21658344932153 89.55222093294921 l 20.46625314827181 -11.738034841623415 a44.59340967033614,44.59340967033614 0 0,0 0.37616103675315105,0.6691485112074355 l -20.665271826317394 11.384002820481186" fill="#f0ff19" stroke="none" /><path d="M 118.56541770881063 90.18545643968196 l 9.959383926471476 -5.2649937056841845 a32.26541108507597,32.26541108507597 0 0,0 0.2553431884547924,0.4932417659901348 l -10.048536548086386 5.092779217433705" fill="#ff6609" stroke="none" /><path d="M 118.89224826269711 90.83032412892265 l 9.814855191699044 -4.763807863309985 a31.909869283935336,31.909869283935336 0 0,0 0.23558875085975242,0.496209991932764 l -9.895402136400552 4.59415545573668" fill="#ff6109" stroke="none" /><path d="M 119.04729006885535 91.15688171328212 l 31.1133393178054 -14.445043829727211 a55.30304905905065,55.30304905905065 0 0,0 0.3934355902040248,0.8668831711508164 l -31.357377224972776 13.907338649734331" fill="#71ff27" stroke="none" /><path d="M 119.47837535516314 92.15188598940014 l 22.79824930183477 -9.185738363720903 a45.57921806151171,45.57921806151171 0 0,0 0.2869460294800165,0.730246346327031 l -22.952988881196486 8.791943012498086" fill="#e4ff1a" stroke="none" /><path d="M 119.85752413597 93.16781622104841 l 10.742622666200377 -3.696108931851318 a32.360684969863094,32.360684969863094 0 0,0 0.17669351019255752,0.5282911055012702 l -10.804653470164705 3.510644723427734" fill="#ff6809" stroke="none" /><path d="M 120.28053869075195 94.5502522615342 l 12.076566748264215 -3.2451920202097906 a33.504988431554594,33.504988431554594 0 0,0 0.14487504048705863,0.5582626292450176 l -12.130638120621576 3.0368329654159227" fill="#ff780b" stroke="none" /><path d="M 120.37134235888165 94.90015583598534 l 10.428119255286216 -2.610617513014973 a31.749929999852633,31.749929999852633 0 0,0 0.12815965038107188,0.5313044902727755 l -10.471511705928108 2.4307277910827914" fill="#ff5f08" stroke="none" /><path d="M 120.6074358757038 95.95851677861258 l 61.822307627111385 -12.124449664162288 a84.0,84.0 0 0,0 0.26605710436056285,1.4212876901497489 l -62.02185045538181 11.058483896549978" fill="#4dd2ff" stroke="none" /><line stroke="#e1ed5e" stroke-width="0.3" x1="184.98032266829074" x2="189.97916517819016" y1="98.17113171792111" y2="98.06355123074" /><path d="M 185.9800911702706 98.14961562048488 a86.0,86.0 0 0,1 -9.607161424134198,41.387399972396054" fill="none" id="id112" stroke="none" /><text fill="#e1ed5e" style="font-size:6.75px; font-family:Arial;" text-anchor="middle"><textPath startOffset="21.466115282336823" xlink:href="#id112">April</textPath></text><path d="M 120.99824983174949 100.27111621757518 l 7.609015506082345 0.0982428307125301 a28.609649704525694,28.609649704525694 0 0,0 -0.010596383905033134,0.4923723223758532 l -7.606197059492304 -0.22920496887849814" fill="#ff3004" stroke="none" /><line stroke="#e1ed5e" stroke-width="0.3" x1="174.80103733775053" x2="179.2010983576182" y1="140.37084112569926" y2="142.7455964860345" /><path d="M 175.68104954172406 140.8457921977663 a86.0,86.0 0 0,1 -30.038265399797805,32.042727171017184" fill="none" id="id113" stroke="none" /><text fill="#e1ed5e" style="font-size:6.75px; font-family:Arial;" text-anchor="middle"><textPath startOffset="22.206326154141568" xlink:href="#id113">May</textPath></text><line stroke="#e1ed5e" stroke-width="0.3" x1="143.8653032363475" x2="146.44561519142675" y1="172.8068346515853" y2="177.08958963109032" /><path d="M 144.38136562736335 173.6633856474863 a86.0,86.0 0 0,1 -40.68145358897372,12.25698825130547" fill="none" id="id114" stroke="none" /><text fill="#e1ed5e" style="font-size:6.75px; font-family:Arial;" text-anchor="middle"><textPath startOffset="21.466115282336833" xlink:href="#id114">June</textPath></text><line stroke="#e1ed5e" stroke-width="0.3" x1="102.19456741930631" x2="102.32365962044197" y1="184.97166512339345" y2="189.96999836594603" /><path d="M 102.22038585953345 185.97133177190398 a86.0,86.0 0 0,1 -42.740103519485714,-10.115201625700543" fill="none" id="id115" stroke="none" /><text fill="#e1ed5e" style="font-size:6.75px; font-family:Arial;" text-anchor="middle"><textPath startOffset="22.20632615414155" xlink:href="#id115">July</textPath></text><line stroke="#e1ed5e" stroke-width="0.3" x1="58.666819895761336" x2="56.23545636021788" y1="174.27360380694188" y2="178.64263932499728" /><path d="M 58.180547188652646 175.14741091055294 a86.0,86.0 0 0,1 -31.652253787137756,-30.449443065178592" fill="none" id="id116" stroke="none" /><text fill="#e1ed5e" style="font-size:6.75px; font-family:Arial;" text-anchor="middle"><textPath startOffset="22.20632615414155" xlink:href="#id116">August</textPath></text><line stroke="#e1ed5e" stroke-width="0.3" x1="26.63291911575756" x2="22.317208475507996" y1="142.92168965132927" y2="145.44649492493687" /><path d="M 25.769776987707644 143.4266507060508 a86.0,86.0 0 0,1 -11.730757126820373,-40.83630448921669" fill="none" id="id117" stroke="none" /><text fill="#e1ed5e" style="font-size:6.75px; font-family:Arial;" text-anchor="middle"><textPath startOffset="21.46611528233685" xlink:href="#id117">September</textPath></text><line stroke="#e1ed5e" stroke-width="0.3" x1="15.007084014347285" x2="10.007500721073583" y1="101.09737516637583" y2="101.16192664675087" /><path d="M 14.007167355692545 101.11028546245083 a86.0,86.0 0 0,1 10.666146001902534,-42.60595125391555" fill="none" id="id118" stroke="none" /><text fill="#e1ed5e" style="font-size:6.75px; font-family:Arial;" text-anchor="middle"><textPath startOffset="22.20632615414155" xlink:href="#id118">October</textPath></text><line stroke="#e1ed5e" stroke-width="0.3" x1="26.266209847984243" x2="21.928928074336255" y1="57.711370442889674" y2="55.22380399835377" /><path d="M 25.398753493254645 57.213857153982495 a86.0,86.0 0 0,1 29.58750427330803,-30.492523968695096" fill="none" id="id119" stroke="none" /><text fill="#e1ed5e" style="font-size:6.75px; font-family:Arial;" text-anchor="middle"><textPath startOffset="21.46611528233685" xlink:href="#id119">November</textPath></text><line stroke="#e1ed5e" stroke-width="0.3" x1="56.762969772571076" x2="54.21961505331055" y1="26.818313649435495" y2="22.513508569990535" /><path d="M 56.25429882871897 25.957352633546506 a86.0,86.0 0 0,1 42.265352541879196,-11.944610805530505" fill="none" id="id120" stroke="none" /><text fill="#e1ed5e" style="font-size:6.75px; font-family:Arial;" text-anchor="middle"><textPath startOffset="22.20632615414155" xlink:href="#id120">December</textPath></text></svg>