<?xml version="1.0" encoding="utf-8" ?>
<svg baseProfile="full" height="200mm" version="1.1" viewBox="0,0,200,200" width="200mm" xmlns="http://www.w3.org/2000/svg" xmlns:ev="http://www.w3.org/2001/xml-events" xmlns:xlink="http://www.w3.org/1999/xlink"><defs /><rect fill="#1a1a1a" height="200" width="200" x="0" y="0" /><text alignment-baseline="middle" fill="#e1ed5e" style="dominant-baseline: central; font-size:9.0px; font-family:Arial;" text-anchor="middle" x="100.0" y="100.0">2018</text><line stroke="#e1ed5e" stroke-width="0.3" x1="100.0" x2="100.0" y1="15.0" y2="10.0" /><path d="M 100.0 14.0 a86.0,86.0 0 0,1 42.46469731375804,11.215312516191453" fill="none" id="id13" stroke="none" /><text fill="#e1ed5e" style="font-size:6.75px; font-family:Arial;" text-anchor="middle"><textPath startOffset="22.20632615414155" xlink:href="#id13">January</textPath></text><path d="M 101.80526077348638 79.07773832637324 l 2.3375092797361976 -27.090812326643974 a48.1914703933108,48.1914703933108 0 0,0 0.8258523468155706,0.07842463141449081 l -2.8034867536420123 27.046562150714305" fill="#afff20" stroke="none" /><path d="M 104.307194497241 79.44645832069477 l 1.5156907003647215 -7.232738619729554 a28.389846158107723,28.389846158107723 0 0,0 0.4774324157570359,0.10434823402574876 l -1.6399658402752855 7.2055768876079345" fill="#ff5407" stroke="none" /><path d="M 104.66035177308747 79.52364482259891 l 0.8888147017672802 -3.9052171180257047 a25.005085805947065,25.005085805947065 0 0,0 0.4188665186667521,0.09913217193397311 l -0.9559049073965558 3.889339033950863" fill="#ff2403" stroke="none" /><path d="M 109.41281617654863 81.2277094730956 l 1.8619079059914734 -3.7132644991722352 a25.15391794468865,25.15391794468865 0 0,0 0.3853813949884085,0.197407318807653 l -1.9255497885686375 3.6806646550520816" fill="#ff2703" stroke="none" /><line stroke="#e1ed5e" stroke-width="0.3" x1="143.23703022742887" x2="145.7803849466894" y1="26.81831364943548" y2="22.513508569990506" /><path d="M 143.74570117128098 25.957352633546492 a86.0,86.0 0 0,1 28.547481713284135,27.462654790039103" fill="none" id="id14" stroke="none" /><text fill="#e1ed5e" style="font-size:6.75px; font-family:Arial;" text-anchor="middle"><textPath startOffset="19.985693538727396" xlink:href="#id14">February</textPath></text><path d="M 112.48926042617603 83.11751280151076 l 2.293266554094614 -3.0999468280028473 a24.856000755261064,24.856000755261064 0 0,0 0.3417745628698176,0.25741751502378146 l -2.3462872707228146 3.060012723473218" fill="#ff2203" stroke="none" /><path d="M 112.77801427241765 83.33499621200491 l 2.3462864877849654 -3.0600117023707254 a24.855999468543544,24.855999468543544 0 0,0 0.3372928884528291,0.26326244948857813 l -2.398611931397225 3.0191708636589234" fill="#ff2203" stroke="none" /><path d="M 116.82858285166822 87.43820079747576 l 2.9220701757464935 -2.1811972598615745 a24.646383907162654,24.646383907162654 0 0,0 0.2508501765382451,0.3421593588870678 l -2.959182964798365 2.130575457303013" fill="#ff1f03" stroke="none" /><path d="M 117.65298651832404 88.62581576622439 l 4.438909591683343 -2.8600812355729026 a26.280528670238862,26.280528670238862 0 0,0 0.2417463283408152,0.38238463592884425 l -4.487483516270114 2.783248951929852" fill="#ff3705" stroke="none" /><line stroke="#e1ed5e" stroke-width="0.3" x1="172.23445277983987" x2="176.4835382374775" y1="55.19839476539836" y2="52.563006222186495" /><path d="M 173.08426987136738 54.67131705675599 a86.0,86.0 0 0,1 12.851231095245387,41.99856678651699" fill="none" id="id15" stroke="none" /><text fill="#e1ed5e" style="font-size:6.75px; font-family:Arial;" text-anchor="middle"><textPath startOffset="22.20632615414155" xlink:href="#id15">March</textPath></text><path d="M 118.21658344932153 89.55222093294921 l 2.000318107900044 -1.1472448559468542 a23.30595821564254,23.30595821564254 0 0,0 0.19659392429804376,0.3497186547866491 l -2.019769673490521 1.112642691225411" fill="#ff0c01" stroke="none" /><path d="M 119.7369772167798 92.82701384747503 l 1.4198976958241527 -0.5160317306081625 a22.51076080621692,22.51076080621692 0 0,0 0.1292191839912732,0.3653200339857839 l -1.4285699606252356 0.49151407019576404" fill="#ff0000" stroke="none" /><path d="M 119.85752413597 93.16781622104841 l 1.428570420633152 -0.49151422846618104 a22.51076129269077,22.51076129269077 0 0,0 0.12291165757512434,0.36749021165855505 l -1.4368193719800464 0.46685091388531197" fill="#ff0000" stroke="none" /><path d="M 120.28053869075195 94.5502522615342 l 7.3266960051425585 -1.9688157988949155 a28.586613869293082,28.586613869293082 0 0,0 0.12360806660662339,0.4763123035390694 l -7.359500403619484 1.8424070698069956" fill="#ff5708" stroke="none" /><path d="M 120.37134235888165 94.90015583598534 l 7.359505263523521 -1.8424082864550104 a28.586618879173283,28.586618879173283 0 0,0 0.1153908396380339,0.47836952624121554 l -7.390128903422374 1.7154535285543886" fill="#ff5708" stroke="none" /><path d="M 120.6074358757038 95.95851677861258 l 3.147708442777799 -0.6173213850590987 a24.207671138565473,24.207671138565473 0 0,0 0.07667408198142261,0.40959601186233885 l -3.1578682486690806 0.5630472957341971" fill="#ff1902" stroke="none" /><path d="M 120.78858239683441 97.02765380044208 l 31.446800499057943 -4.496255500609028 a52.766611011474104,52.766611011474104 0 0,0 0.120820465409072,0.9002528036580896 l -31.519536963524853 3.954284354886274" fill="#7dff26" stroke="none" /><line stroke="#e1ed5e" stroke-width="0.3" x1="184.98032266829074" x2="189.97916517819016" y1="98.17113171792111" y2="98.06355123074" /><path d="M 185.9800911702706 98.14961562048488 a86.0,86.0 0 0,1 -9.607161424134198,41.387399972396054" fill="none" id="id16" stroke="none" /><text fill="#e1ed5e" style="font-size:6.75px; font-family:Arial;" text-anchor="middle"><textPath startOffset="21.466115282336823" xlink:href="#id16">April</textPath></text><path d="M 120.89721153311464 102.0752229133903 l 4.391763032624001 0.4361293496522026 a25.413365081697957,25.413365081697957 0 0,0 -0.04697563540881178,0.4349360420784216 l -4.383605095714138 -0.5116617136154157" fill="#ff2a04" stroke="none" /><path d="M 120.8583938346157 102.4346265915055 l 4.383601892460608 0.5116613397263097 a25.413361856697765,25.413361856697765 0 0,0 -0.0544553775483389,0.43406293818416253 l -4.3741450056654205 -0.5870420321978671" fill="#ff2a04" stroke="none" /><path d="M 120.49622156327973 104.57218783832717 l 30.932726960987992 6.9003078240872116 a52.69302518394532,52.69302518394532 0 0,0 -0.2050999075210866,0.8835650336375499 l -30.80936648753635 -7.431741515073326" fill="#7dff26" stroke="none" /><path d="M 120.02730092923936 106.31721596034902 l 7.029778322743884 2.21740453069828 a28.371205201300604,28.371205201300604 0 0,0 -0.15091826042825884,0.4644786455791831 l -6.990567811299379 -2.3380820762552585" fill="#ff5407" stroke="none" /><path d="M 119.9155931802556 106.66101706037122 l 6.990571214905655 2.338083214633577 a28.371208790233716,28.371208790233716 0 0,0 -0.1588911567121664,0.4618120767073653 l -6.949289227250258 -2.4580679944302424" fill="#ff5407" stroke="none" /><line stroke="#e1ed5e" stroke-width="0.3" x1="174.80103733775053" x2="179.2010983576182" y1="140.37084112569926" y2="142.7455964860345" /><path d="M 175.68104954172406 140.8457921977663 a86.0,86.0 0 0,1 -30.038265399797805,32.042727171017184" fill="none" id="id17" stroke="none" /><text fill="#e1ed5e" style="font-size:6.75px; font-family:Arial;" text-anchor="middle"><textPath startOffset="22.206326154141568" xlink:href="#id17">May</textPath></text><path d="M 117.55443506779139 111.5257021239791 l 26.82662015726114 17.61353365868394 a53.092119235219755,53.092119235219755 0 0,0 -0.508159575878233,0.759629617941303 l -26.519457475972185 -18.072700190831053" fill="#79ff26" stroke="none" /><path d="M 116.0416608686014 113.55231037782055 l 24.72684338463224 20.88972326227162 a53.36969758497016,53.36969758497016 0 0,0 -0.5989032856114542,0.6966598247078103 l -24.363597589450006 -21.312260186140957" fill="#76ff27" stroke="none" /><line stroke="#e1ed5e" stroke-width="0.3" x1="143.8653032363475" x2="146.44561519142675" y1="172.8068346515853" y2="177.08958963109032" /><path d="M 144.38136562736335 173.6633856474863 a86.0,86.0 0 0,1 -40.68145358897372,12.25698825130547" fill="none" id="id18" stroke="none" /><text fill="#e1ed5e" style="font-size:6.75px; font-family:Arial;" text-anchor="middle"><textPath startOffset="21.466115282336833" xlink:href="#id18">June</textPath></text><line stroke="#e1ed5e" stroke-width="0.3" x1="102.19456741930631" x2="102.32365962044197" y1="184.97166512339345" y2="189.96999836594603" /><path d="M 102.22038585953345 185.97133177190398 a86.0,86.0 0 0,1 -42.740103519485714,-10.115201625700543" fill="none" id="id19" stroke="none" /><text fill="#e1ed5e" style="font-size:6.75px; font-family:Arial;" text-anchor="middle"><textPath startOffset="22.20632615414155" xlink:href="#id19">July</textPath></text><path d="M 94.46302465271185 120.25689768951611 l -1.0171527172699326 3.7212299560701037 a24.857739239010733,24.857739239010733 0 0,0 -0.4117729863159413,-0.1163711590220729 l 1.0810568716904878 -3.7031700037095097" fill="#ff2203" stroke="none" /><path d="M 94.11515582081647 120.15858648285463 l -1.0810578407491052 3.7031733232284894 a24.857742697085467,24.857742697085467 0 0,0 -0.40970889649459524,-0.1234419296204954 l 1.1446417116839462 -3.6840160245022684" fill="#ff2203" stroke="none" /><line stroke="#e1ed5e" stroke-width="0.3" x1="58.666819895761336" x2="56.23545636021788" y1="174.27360380694188" y2="178.64263932499728" /><path d="M 58.180547188652646 175.14741091055294 a86.0,86.0 0 0,1 -31.652253787137756,-30.449443065178592" fill="none" id="id20" stroke="none" /><text fill="#e1ed5e" style="font-size:6.75px; font-family:Arial;" text-anchor="middle"><textPath startOffset="22.20632615414155" xlink:href="#id20">August</textPath></text><path d="M 86.51685102203217 116.09983520530335 l -2.724051616068478 3.2527106376342054 a25.242709476170152,25.242709476170152 0 0,0 -0.3307209924585663,-0.2818476046118989 l 2.7796380851041005 -3.2053386427993553" fill="#ff2803" stroke="none" /><path d="M 86.24171649860922 115.8653595955263 l -2.7796379988113067 3.205338543290851 a25.24270934445687,25.24270934445687 0 0,0 -0.3258204476748272,-0.28749866257916573 l 2.8344007993927214 -3.157016738939397" fill="#ff2803" stroke="none" /><path d="M 83.06392112726016 112.41649034213515 l -25.38329113324197 18.609466310103258 a52.47417520923763,52.47417520923763 0 0,0 -0.527790770600663,-0.7330552184790148 l 25.69986169621824 -18.169777486173107" fill="#80ff26" stroke="none" /><path d="M 82.24976979558568 111.22182372390057 l -3.644705319731359 2.304209024478817 a25.31198980705749,25.31198980705749 0 0,0 -0.22965852850517743,-0.3702826728177666 l 3.683828487904492 -2.2411300202957865" fill="#ff2904" stroke="none" /><path d="M 82.05923443525364 110.91462005526583 l -7.524483687916984 4.577668676917487 a29.807548199434407,29.807548199434407 0 0,0 -0.26290133214676126,-0.4406377547343446 l 7.602165895761977 -4.447468828297032" fill="#ff6809" stroke="none" /><line stroke="#e1ed5e" stroke-width="0.3" x1="26.63291911575756" x2="22.317208475507996" y1="142.92168965132927" y2="145.44649492493687" /><path d="M 25.769776987707644 143.4266507060508 a86.0,86.0 0 0,1 -11.730757126820373,-40.83630448921669" fill="none" id="id21" stroke="none" /><text fill="#e1ed5e" style="font-size:6.75px; font-family:Arial;" text-anchor="middle"><textPath startOffset="21.46611528233685" xlink:href="#id21">September</textPath></text><path d="M 81.87401531095188 110.60418214915194 l -3.8803058375688466 2.2700819073768317 a25.495558392376914,25.495558392376914 0 0,0 -0.2183488230404521,-0.38070957764809943 l 3.918806656761676 -2.2029524838704253" fill="#ff2b04" stroke="none" /><path d="M 81.35079622478065 109.6543875284942 l -7.187003099741615 3.7205938617922816 a29.092949538956855,29.092949538956855 0 0,0 -0.2264004054046356,-0.4467094784753786 l 7.249982174932517 -3.596330171614218" fill="#ff5e08" stroke="none" /><path d="M 81.18737489456691 109.33194174019688 l -16.0206120579672 7.946972712706052 a38.883354998667855,38.883354998667855 0 0,0 -0.2922671884968338,-0.6021569749852017 l 16.15503250307875 -7.670026781755565" fill="#ffe015" stroke="none" /><path d="M 81.02952815118164 109.00673069616217 l -8.844219579141201 4.199025970564417 a30.790405459711003,30.790405459711003 0 0,0 -0.22319434613150474,-0.4807407652660799 l 8.915188542112533 -4.04616513801951" fill="#ff760a" stroke="none" /><path d="M 80.58989483394504 108.01547362559985 l -7.7651098877790865 3.206630410958673 a29.401155287326233,29.401155287326233 0 0,0 -0.1891437722443026,-0.469439331142492 l 7.819156274280776 -3.0724917119733757" fill="#ff6209" stroke="none" /><path d="M 80.45479744820244 107.68017299344265 l -7.819156274280776 3.0724917119733757 a29.401155287326233,29.401155287326233 0 0,0 -0.18103512215289655,-0.472625577756192 l 7.870885676027182 -2.937442567384026" fill="#ff6209" stroke="none" /><path d="M 79.76711848015287 105.62410040840567 l -60.698644559541364 16.872301225217015 a84.0,84.0 0 0,0 -0.3752476946329004,-1.3964362672978443 l 60.98008033051604 -15.824974024743632" fill="#4dd2ff" stroke="none" /><path d="M 79.4281124754447 104.21870165774334 l -9.370393456471536 1.92159782914127 a30.565396580698838,30.565396580698838 0 0,0 -0.10125888994021684,-0.5163168982727134 l 9.40208227938742 -1.760017203800602" fill="#ff720a" stroke="none" /><path d="M 79.35854240842038 103.8639653848113 l -18.80397658364353 3.519999219708228 a40.13060192113569,40.13060192113569 0 0,0 -0.12125854585551657,-0.680082321215327 l 18.861781571838232 -3.1957981477596875" fill="#ffef16" stroke="none" /><path d="M 79.29508885075956 103.50808413554451 l -9.430796509427866 1.5978831003815308 a30.565205340436854,30.565205340436854 0 0,0 -0.08342590227146415,-0.5194931730806581 l 9.456904166060621 -1.435310697607659" fill="#ff720a" stroke="none" /><line stroke="#e1ed5e" stroke-width="0.3" x1="15.007084014347285" x2="10.007500721073583" y1="101.09737516637583" y2="101.16192664675087" /><path d="M 14.007167355692545 101.11028546245083 a86.0,86.0 0 0,1 10.666146001902534,-42.60595125391555" fill="none" id="id22" stroke="none" /><text fill="#e1ed5e" style="font-size:6.75px; font-family:Arial;" text-anchor="middle"><textPath startOffset="22.20632615414155" xlink:href="#id22">October</textPath></text><path d="M 79.00175016825051 100.2711162175752 l -7.367262747674461 0.09512147088621398 a28.367876796438402,28.367876796438402 0 0,0 -0.0021015229915839905,-0.4883199326380175 l 7.3678085679555485 0.0317079399554789" fill="#ff5407" stroke="none" /><path d="M 79.00019446554 99.90962569577889 l -7.3678085679555485 -0.0317079399554789 a28.367876796438402,28.367876796438402 0 0,0 0.0063044132902142945,-0.48828375703429217 l 7.366171147547619 0.15852795505024303" fill="#ff5407" stroke="none" /><path d="M 79.00486145842228 99.54816195383935 l -8.113894543227792 -0.1746197697102737 a29.115773328685037,29.115773328685037 0 0,0 0.015096258864900137,-0.5009713373552879 l 8.109686589907247 0.3142612544905559" fill="#ff5e08" stroke="none" /><path d="M 79.01574976396665 99.18683210126434 l -8.109686589907247 -0.3142612544905559 a29.115773328685037,29.115773328685037 0 0,0 0.023717420245006324,-0.500637255765247 l 8.103075561428742 0.45380961687881205" fill="#ff5e08" stroke="none" /><path d="M 79.03285615573316 98.82574320788736 l -7.358677184325445 -0.4121198733045965 a28.370208456555652,28.370208456555652 0 0,0 0.03150364258516558,-0.48734740695023826 l 7.350492950735866 0.5387263445078465" fill="#ff5407" stroke="none" /><path d="M 79.05617556472873 98.46500227214037 l -7.350492950735866 -0.5387263445078465 a28.370208456555652,28.370208456555652 0 0,0 0.03988785946801308,-0.48673291775291405 l 7.340130607448356 0.665173179468539" fill="#ff5407" stroke="none" /><path d="M 79.08570108090925 98.10471618934814 l -7.334284956364894 -0.6646434381702978 a28.364338851591718,28.364338851591718 0 0,0 0.04825027199533758,-0.48587365430040663 l 7.321757558687328 0.7907926231751348" fill="#ff5407" stroke="none" /><path d="M 79.12142395522702 97.74499172005258 l -7.321757558687328 -0.7907926231751348 a28.364338851591718,28.364338851591718 0 0,0 0.05660663945508558,-0.48497111775901935 l 7.307060566228653 0.9167074792590159" fill="#ff5407" stroke="none" /><path d="M 79.16333360222342 97.38593545837743 l -7.301521243075841 -0.916012543324355 a28.35875610702076,28.35875610702076 0 0,0 0.06493345025564981,-0.4838296264289221 l 7.2846717937623575 1.0415605118179365" fill="#ff5407" stroke="none" /><path d="M 79.21141760316559 97.0276538004421 l -7.2846717937623575 -1.0415605118179365 a28.35875610702076,28.35875610702076 0 0,0 0.07325216134276538,-0.4826402192431143 l 7.26566373898029 1.1667998434531428" fill="#ff5407" stroke="none" /><path d="M 79.46518482838121 95.60439243477599 l -30.561210598522095 -6.541821165010173 a52.253528079277615,52.253528079277615 0 0,0 0.19584028375170412,-0.8779135916382539 l 30.444075927768353 7.066912926198387" fill="#82ff25" stroke="none" /><path d="M 79.91906864156998 93.8553929516997 l -4.174914669112134 -1.2774910507878152 a25.36599311488356,25.36599311488356 0 0,0 0.13135298333414688,-0.4164248526088011 l 4.152306202009783 1.3491660698230308" fill="#ff2a04" stroke="none" /><path d="M 80.02781315780177 93.51064311812611 l -4.152306202009783 -1.3491660698230308 a25.36599311488356,25.36599311488356 0 0,0 0.13850159127233988,-0.41410212908901284 l 4.128467316965671 1.4204413018343658" fill="#ff2a04" stroke="none" /><path d="M 81.10775173730289 90.83032412892265 l -12.915916400561493 -6.268960968765754 a35.356906633888855,35.356906633888855 0 0,0 0.2704634773178714,-0.5452378663677316 l 12.806092910290209 6.490358423632447" fill="#ffb210" stroke="none" /><line stroke="#e1ed5e" stroke-width="0.3" x1="26.266209847984243" x2="21.928928074336255" y1="57.711370442889674" y2="55.22380399835377" /><path d="M 25.398753493254645 57.213857153982495 a86.0,86.0 0 0,1 29.58750427330803,-30.492523968695096" fill="none" id="id23" stroke="none" /><text fill="#e1ed5e" style="font-size:6.75px; font-family:Arial;" text-anchor="middle"><textPath startOffset="21.46611528233685" xlink:href="#id23">November</textPath></text><path d="M 84.07557802195018 86.31012108654704 l -9.52042656582602 -8.18450346707908 a33.55486435601418,33.55486435601418 0 0,0 0.3803014634891989,-0.4347503145234194 l 9.378133238758977 8.347169337805443" fill="#ff9b0e" stroke="none" /><path d="M 84.31358615837235 86.03803664274999 l -9.378133238758977 -8.347169337805443 a33.55486435601418,33.55486435601418 0 0,0 0.38772862972632566,-0.4281396370353392 l 9.233060968416606 8.507361762110339" fill="#ff9b0e" stroke="none" /><line stroke="#e1ed5e" stroke-width="0.3" x1="56.762969772571076" x2="54.21961505331055" y1="26.818313649435495" y2="22.513508569990535" /><path d="M 56.25429882871897 25.957352633546506 a86.0,86.0 0 0,1 42.265352541879196,-11.944610805530505" fill="none" id="id24" stroke="none" /><text fill="#e1ed5e" style="font-size:6.75px; font-family:Arial;" text-anchor="middle"><textPath startOffset="22.20632615414155" xlink:href="#id24">December</textPath></text><path d="M 89.94658935756843 81.56283822128135 l -2.8181549280229525 -5.168273750418033 a26.886684190408054,26.886684190408054 0 0,0 0.4082358303114623,-0.21806544245026568 l 2.7287740511831853 5.2160179193700476" fill="#ff3f05" stroke="none" /><path d="M 90.26544431104013 81.39251694778311 l -6.142655114262196 -11.741609436152906 a34.25132461318213,34.25132461318213 0 0,0 0.524762118118295,-0.2688035387714372 l 5.939632508555137 11.845605500236848" fill="#ffa40f" stroke="none" /><path d="M 90.58718382345135 81.22770947309562 l -3.3010479288548495 -6.583389030595187 a28.364640422774077,28.364640422774077 0 0,0 0.4383400389575108,-0.2150915534265617 l 3.1872366228869127 6.639235744156579" fill="#ff5407" stroke="none" /><path d="M 97.83486435360386 79.11191278185805 l -0.7593114788000744 -7.325436824853034 a28.364684555142226,28.364684555142226 0 0,0 0.4860827261622545,-0.04615941188907876 l 0.6331036255475836 7.337421781257293" fill="#ff5407" stroke="none" /><path d="M 98.19473922651362 79.07773832637324 l -0.6331036255475836 -7.337421781257293 a28.364684555142226,28.364684555142226 0 0,0 0.4868052661579016,-0.037785457787479985 l 0.5067081700273478 7.347232501233235" fill="#ff5407" stroke="none" /></svg>