<?xml version="1.0" encoding="utf-8" ?>
<svg baseProfile="full" height="200mm" version="1.1" viewBox="0,0,200,200" width="200mm" xmlns="http://www.w3.org/2000/svg" xmlns:ev="http://www.w3.org/2001/xml-events" xmlns:xlink="http://www.w3.org/1999/xlink"><defs /><rect fill="#1a1a1a" height="200" width="200" x="0" y="0" /><rect fill="#1a1a1a" height="200" width="180" x="10" y="0" /><text alignment-baseline="middle" fill="#e1ed5e" style="dominant-baseline: central; font-size:9.0px; font-family:Arial;" text-anchor="middle" x="100.0" y="100.0">2025</text><line stroke="#e1ed5e" stroke-width="0.3" x1="100.0" x2="100.0" y1="15.0" y2="10.0" /><path d="M 100.0 14.0 a86.0,86.0 0 0,1 42.46469731375804,11.215312516191453" fill="none" id="id97" stroke="none" /><text fill="#e1ed5e" style="font-size:6.75px; font-family:Arial;" text-anchor="middle"><textPath startOffset="22.20632615414155" xlink:href="#id97">January</textPath></text><path d="M 100.0 79.0 l 0.0 -15.764940535131238 a36.76494053513124,36.76494053513124 0 0,0 0.6328480154792974,0.0054471226664792914 l -0.27136753620676907 15.762604789073318" fill="#ffc512" stroke="none" /><path d="M 100.36148047927253 79.00311137660856 l 0.3514576610890665 -20.414705050120283 a41.41773015716842,41.41773015716842 0 0,0 0.7127268814041404,0.018407632597548206 l -0.7028111776880748 20.405630625380375" fill="#ffff18" stroke="none" /><path d="M 101.44485096284872 79.0497635885617 l 1.8220940583256555 -26.420234520615022 a47.48299112414765,47.48299112414765 0 0,0 0.8149207542649376,0.06325353462883318 l -2.2766050019529342 26.384955723797724" fill="#b7ff1f" stroke="none" /><path d="M 102.16513564639614 79.11191278185805 l 1.7768889259534844 -17.14248754993536 a38.2343324110586,38.2343324110586 0 0,0 0.6540497748156922,0.07349011297430878 l -2.0717054042789016 17.109361483490453" fill="#ffd814" stroke="none" /><path d="M 102.52436894288641 79.15227682838746 l 0.27775938409500744 -2.293900328732925 a23.31065553330951,23.31065553330951 0 0,0 0.3979298417865971,0.05166271412682952 l -0.31720395438945065 2.288779291441959" fill="#ff0c01" stroke="none" /><path d="M 102.88285421437855 79.19881850522331 l 2.948500275243128 -21.274849438042892 a42.47819527996947,42.47819527996947 0 0,0 0.7234057279774354,0.10661119972104213 l -3.314274983649219 21.22094375416088" fill="#f2ff19" stroke="none" /><path d="M 103.59715602781102 79.31037775812273 l 1.9390763359985232 -11.152909848724667 a32.32022151420232,32.32022151420232 0 0,0 0.5472965932135874,0.10001495417799727 l -2.1307680503150115 11.117879413195931" fill="#ff8b0c" stroke="none" /><path d="M 103.95276090670814 79.375362276772 l 6.135069240564303 -32.01144300906778 a53.59404175780158,53.59404175780158 0 0,0 0.9045489833993539,0.18144401651488534 l -6.685184633430782 31.90109503647569" fill="#74ff27" stroke="none" /><path d="M 104.66035177308747 79.52364482259891 l 3.3069478632291873 -14.529855748586092 a35.901429872493324,35.901429872493324 0 0,0 0.6013939349199628,0.14233051413680964 l -3.556565485111674 14.470779322308415" fill="#ffba11" stroke="none" /><path d="M 105.36241919743992 79.69619591428918 l 4.246768948210892 -16.0796016773398 a37.630954169902495,37.630954169902495 0 0,0 0.6248568166462286,0.17079697209241032 l -4.522923654080832 16.004118164421097" fill="#ffd013" stroke="none" /><path d="M 105.71112130821622 79.79150937346287 l 2.823590938169727 -9.99112222062047 a31.382446196031566,31.382446196031566 0 0,0 0.518572181990056,0.1513854401084226 l -2.9951533378832105 9.941038451593345" fill="#ff7e0b" stroke="none" /><path d="M 106.40334571778207 80.00007090966166 l 1.346875906638226 -4.206773117285321 a25.41712743400018,25.41712743400018 0 0,0 0.41553030749265557,0.13699380925156554 l -1.4190890363732993 4.18296558377452" fill="#ff2b04" stroke="none" /><path d="M 107.08798089147638 80.2323363322302 l 5.128272522154697 -14.302234721953944 a36.193850634495256,36.193850634495256 0 0,0 0.5846473254080113,0.21533054398951515 l -5.3737021733352845 14.211840910158104" fill="#ffbe11" stroke="none" /><path d="M 107.4271985657038 80.35727306442388 l 5.208188053456549 -13.774105385518588 a35.72586846238753,35.72586846238753 0 0,0 0.5733437674681933,0.22244847434779913 l -5.4445149859244095 13.682414207280242" fill="#ffb811" stroke="none" /><path d="M 107.76421540070413 80.48803036053334 l 7.277404257598888 -18.28858211681212 a40.683313963149054,40.683313963149054 0 0,0 0.6484457820031417,0.2645173159830279 l -7.591133909190417 18.160603914645513" fill="#fff617" stroke="none" /><path d="M 108.43124777332544 80.76684994638697 l 15.523373766663047 -35.41152923261699 a59.66460313635729,59.66460313635729 0 0,0 0.9370691909025554,0.42043563104668974 l -16.130625076032384 35.13907327105377" fill="#36ff2f" stroke="none" /><path d="M 109.08828744355905 81.06846463323043 l 7.336913994560977 -15.283302562070329 a37.953160300291216,37.953160300291216 0 0,0 0.5865186202477851,0.287802139733187 l -7.598903881819194 15.15474526220231" fill="#ffd413" stroke="none" /><path d="M 109.41281617654863 81.2277094730956 l 10.727106532244065 -21.393423239056208 a44.9321827763266,44.9321827763266 0 0,0 0.688402789429916,0.3526266464554069 l -11.093769809262735 21.205604067288302" fill="#d4ff1c" stroke="none" /><line stroke="#e1ed5e" stroke-width="0.3" x1="143.23703022742887" x2="145.7803849466894" y1="26.81831364943548" y2="22.513508569990506" /><path d="M 143.74570117128098 25.957352633546492 a86.0,86.0 0 0,1 28.547481713284135,27.462654790039103" fill="none" id="id98" stroke="none" /><text fill="#e1ed5e" style="font-size:6.75px; font-family:Arial;" text-anchor="middle"><textPath startOffset="19.985693538727396" xlink:href="#id98">February</textPath></text><path d="M 110.68208982089419 81.91981866633111 l 6.807577873388792 -11.522299892404217 a34.383068082945364,34.383068082945364 0 0,0 0.5069667694429285,0.3054418060994643 l -7.004906709049358 11.403411476846138" fill="#ffa60f" stroke="none" /><path d="M 110.99172775467656 82.1063720568725 l 18.49720365903026 -30.111924862961047 a56.33941938057633,56.33941938057633 0 0,0 0.8219675745083579,0.5147160197496835 l -19.01279038591088 29.78906450188842" fill="#57ff2a" stroke="none" /><path d="M 111.60114157652 82.49532879139004 l 13.600038035333606 -20.52075588103603 a45.61833577826892,45.61833577826892 0 0,0 0.6508113927693078,0.4394307575572942 l -13.951254122509456 20.283613211180068" fill="#ccff1d" stroke="none" /><path d="M 112.19680574252982 82.90503203632743 l 13.060692929110678 -18.305786934686523 a43.487408367498944,43.487408367498944 0 0,0 0.6056236312719289,0.44001132408409105 l -13.373861876736395 18.07825637578576" fill="#e6ff1a" stroke="none" /><path d="M 112.77801427241765 83.33499621200491 l 10.752384586755324 -14.023190618518102 a38.67098326140307,38.67098326140307 0 0,0 0.5247605375940225,0.4095839232058576 l -10.992177679508778 13.83602830608902" fill="#ffdd14" stroke="none" /><path d="M 113.06298171725822 83.55741782278167 l 14.244935420134489 -17.93032604074488 a43.90010430219077,43.90010430219077 0 0,0 0.5876271486671517,0.47515362082651014 l -14.551465967366132 17.682466322654243" fill="#e1ff1b" stroke="none" /><path d="M 114.42810811169701 84.74124197986012 l 10.544757301396618 -11.151836318212162 a36.347812867426846,36.347812867426846 0 0,0 0.45091496714308804,0.4337798411321905 l -10.735155512152126 10.968673390317669" fill="#ffc011" stroke="none" /><path d="M 114.94478906791727 85.2469230424477 l 20.692471329851966 -20.427027814437707 a50.07648250852495,50.07648250852495 0 0,0 0.6002876283543765,0.618649167791419 l -21.04102322190945 20.067814451096172" fill="#9aff23" stroke="none" /><path d="M 115.4437574822437 85.77008943001954 l 13.115990501621344 -12.0851011866362 a38.83476597911666,38.83476597911666 0 0,0 0.44873823476288976,0.4955079667211263 l -13.32207237700027 11.857540432645525" fill="#ffdf14" stroke="none" /><path d="M 115.68641384162765 86.03803664274999 l 7.493745447149823 -6.66993746295352 a31.032162607652925,31.032162607652925 0 0,0 0.3517098662569836,0.4020651763296632 l -7.607447176984654 6.539956730420909" fill="#ff790b" stroke="none" /><path d="M 115.9244219780498 86.31012108654704 l 12.311506914298603 -10.583934483223704 a37.23554346629623,37.23554346629623 0 0,0 0.41365033770123943,0.48963152780543323 l -12.49186786548696 10.370444005789164" fill="#ffcb12" stroke="none" /><path d="M 116.38621287248628 86.86637796730983 l 6.067200049253242 -4.86288765218029 a28.775512378961665,28.775512378961665 0 0,0 0.30645361535107857,0.38916497064398153 l -6.150007745198285 4.7577302875832705" fill="#ff5a08" stroke="none" /><path d="M 116.60985879189232 87.15038557335679 l 15.356835099022451 -11.880258123103431 a40.41579041219113,40.41579041219113 0 0,0 0.42094789323837106,0.553918084544284 l -15.559058932484934 11.614155262678112" fill="#fff316" stroke="none" /><path d="M 117.04232023915458 87.72973835380427 l 13.89634910500376 -10.005200996841067 a38.1234507455515,38.1234507455515 0 0,0 0.37885157429165955,0.5358586845710926 l -14.066513299099302 9.76451581193818" fill="#ffd614" stroke="none" /><path d="M 117.45458315368197 88.32363383020206 l 12.650085961757343 -8.462363980187124 a36.21960180073771,36.21960180073771 0 0,0 0.34219480301250116,0.5211861616240309 l -12.793877400127768 8.243359754585418" fill="#ffbe11" stroke="none" /><line stroke="#e1ed5e" stroke-width="0.3" x1="172.23445277983987" x2="176.4835382374775" y1="55.19839476539836" y2="52.563006222186495" /><path d="M 173.08426987136738 54.67131705675599 a86.0,86.0 0 0,1 12.851231095245387,41.99856678651699" fill="none" id="id99" stroke="none" /><text fill="#e1ed5e" style="font-size:6.75px; font-family:Arial;" text-anchor="middle"><textPath startOffset="22.20632615414155" xlink:href="#id99">March</textPath></text><path d="M 117.84615892207809 88.93136811851018 l 12.813335513481464 -7.947149557056156 a36.0777568976046,36.0777568976046 0 0,0 0.32278288353952944,0.5305701904943241 l -12.948234195307217 7.725411593354751" fill="#ffbc11" stroke="none" /><path d="M 118.03404312379186 89.2402003453031 l 21.849372346460694 -13.036170947081578 a46.442814798992174,46.442814798992174 0 0,0 0.4036993586629682,0.6900530650247974 l -22.07053137959399 12.658138469702886" fill="#c3ff1e" stroke="none" /><path d="M 118.3937258080291 89.86733742301442 l 8.86610225629026 -4.884123177307812 a31.122372668011714,31.122372668011714 0 0,0 0.25445044381915377,0.47145802807184045 l -8.948860799327878 4.730784165903513" fill="#ff7a0b" stroke="none" /><path d="M 118.73160827565052 90.50648371742162 l 19.630476716969046 -9.949078990167468 a43.007721119826456,43.007721119826456 0 0,0 0.32898856017106465,0.6632208621508098 l -19.798825290093518 9.609698539517707" fill="#ebff1a" stroke="none" /><path d="M 119.04729006885535 91.15688171328212 l 13.2210600607012 -6.138164409211847 a35.57647047275792,35.57647047275792 0 0,0 0.25309725044056824,0.5576662420339105 l -13.324759628105117 5.909676158335874" fill="#ffb610" stroke="none" /><path d="M 119.196687751892 91.48605970444005 l 30.955079763178716 -13.728915339680109 a54.862960289213646,54.862960289213646 0 0,0 0.37544367043295657,0.8665757551639719 l -31.186814143454352 13.194040439929534" fill="#66ff29" stroke="none" /><path d="M 119.47837535516314 92.15188598940014 l 11.120270807763287 -4.480515008914134 a32.98897149813516,32.98897149813516 0 0,0 0.20768356261058152,0.5285320137148657 l -11.195747920255569 4.288433990303483" fill="#ff940d" stroke="none" /><path d="M 119.61058180528143 92.48833698450437 l 6.874338429646461 -2.6331556223420582 a28.361388277817287,28.361388277817287 0 0,0 0.17070234962094752,0.45739742911543807 l -6.918645367769034 2.5144350561972866" fill="#ff5407" stroke="none" /><path d="M 119.7369772167798 92.82701384747503 l 22.101265159069083 -8.032236507042512 a44.51558514977987,44.51558514977987 0 0,0 0.25553412598831216,0.7224293847644346 l -22.2362523658672 7.650609495851463" fill="#d9ff1c" stroke="none" /><path d="M 119.97218684219823 93.5106431181261 l 18.292958069120434 -5.9437423790199055 a40.23435437925473,40.23435437925473 0 0,0 0.20834597156526719,0.6605136655327878 l -18.392559524453908 5.627978547060699" fill="#fff116" stroke="none" /><path d="M 120.08093135843002 93.85539295169968 l 16.43380528745054 -5.028615157198486 a38.18595143205763,38.18595143205763 0 0,0 0.1869186009711653,0.6301966002607351 l -16.517929785533404 4.744989170191221" fill="#ffd714" stroke="none" /><path d="M 120.28053869075195 94.5502522615342 l 14.025280079625764 -3.7688465558434294 a35.52283325227692,35.52283325227692 0 0,0 0.15360016960315856,0.5918841109335166 l -14.088076581099225 3.526866019361062" fill="#ffb510" stroke="none" /><path d="M 120.45610955862082 95.25157060432595 l 14.34567990313104 -3.330029493523627 a35.72710522508871,35.72710522508871 0 0,0 0.13390112939920537,0.6002525077236593 l -14.400875419532284 3.082598816250004" fill="#ffb811" stroke="none" /><path d="M 120.67395015179393 96.31383870115 l 62.02185045538181 -11.058483896549978 a84.0,84.0 0 0,0 0.2415525539191079,1.4256568467366484 l -62.20301487082114 9.98924126149749" fill="#4dd2ff" stroke="none" /><path d="M 120.87857604477298 97.74499172005257 l 8.870769573814025 -0.9580949771459308 a29.922359487094035,29.922359487094035 0 0,0 0.05090060415469679,0.5125621374555246 l -8.88594730365095 0.8052573089859713" fill="#ff6a09" stroke="none" /><path d="M 120.96714384426684 98.82574320788733 l 10.016172491680571 -0.5609518714941236 a31.03186814034312,31.03186814034312 0 0,0 0.02527825207881851,0.5335839488674994 l -10.024344351992887 0.38845681600362436" fill="#ff790b" stroke="none" /><line stroke="#e1ed5e" stroke-width="0.3" x1="184.98032266829074" x2="189.97916517819016" y1="98.17113171792111" y2="98.06355123074" /><path d="M 185.9800911702706 98.14961562048488 a86.0,86.0 0 0,1 -9.607161424134198,41.387399972396054" fill="none" id="id100" stroke="none" /><text fill="#e1ed5e" style="font-size:6.75px; font-family:Arial;" text-anchor="middle"><textPath startOffset="21.466115282336823" xlink:href="#id100">April</textPath></text><path d="M 120.99980553446 99.90962569577887 l 12.028878213920553 -0.05176721743255583 a33.02898960553767,33.02898960553767 0 0,0 -0.0024468232692529406,0.5685555565195659 l -12.027987093361798 -0.15529781729069483" fill="#ff940d" stroke="none" /><path d="M 120.9764740272857 100.99374915477107 l 10.959222110543505 0.5191872425811209 a31.97151332593114,31.97151332593114 0 0,0 -0.030774331045954912,0.5494963538517842 l -10.948661428610022 -0.7077553127683285" fill="#ff860c" stroke="none" /><path d="M 120.49622156327973 104.57218783832717 l 11.82813622545385 2.6385575718495176 a33.11886102849018,33.11886102849018 0 0,0 -0.1289103313092122,0.5553423333832636 l -11.780965328214085 -2.841768562581346" fill="#ff950d" stroke="none" /><path d="M 120.02730092923936 106.31721596034902 l 29.90675077190351 9.43349300866698 a52.3592814343269,52.3592814343269 0 0,0 -0.2785208317826414,0.8571989787377996 l -29.73993768910462 -9.946890887382574" fill="#81ff25" stroke="none" /><path d="M 119.9155931802556 106.66101706037122 l 2.0821596555806585 0.6964041122304866 a23.195533538541213,23.195533538541213 0 0,0 -0.1299051154902978,0.37756507285147706 l -2.06986370914713 -0.732141888171264" fill="#ff0b01" stroke="none" /><path d="M 119.79798401119884 107.00284435728193 l 10.160653201046328 3.593975674240238 a31.777547708962533,31.777547708962533 0 0,0 -0.1868455327050387,0.5141186590410853 l -10.097283407336061 -3.7683421302874542" fill="#ff830c" stroke="none" /><path d="M 119.26925614724726 108.34839909993367 l 6.779817798306183 2.937353905754134 a28.38877373762916,28.38877373762916 0 0,0 -0.19812513737125034,0.44671988126344075 l -6.72825157620366 -3.0536221235102623" fill="#ff5507" stroke="none" /><path d="M 118.97047184881838 109.00673069616215 l 10.641214644741458 5.052196663796369 a32.77964941096021,32.77964941096021 0 0,0 -0.2463886147062604,0.507633524191934 l -10.552672773420484 -5.234619143953579" fill="#ff910d" stroke="none" /><path d="M 118.64920377521936 109.65438752849418 l 6.995228007493274 3.6213150356721817 a28.877000537285987,28.877000537285987 0 0,0 -0.23231889575061346,0.43945979909839206 l -6.931856603517767 -3.741189849856708" fill="#ff5c08" stroke="none" /><line stroke="#e1ed5e" stroke-width="0.3" x1="174.80103733775053" x2="179.2010983576182" y1="140.37084112569926" y2="142.7455964860345" /><path d="M 175.68104954172406 140.8457921977663 a86.0,86.0 0 0,1 -30.038265399797805,32.042727171017184" fill="none" id="id101" stroke="none" /><text fill="#e1ed5e" style="font-size:6.75px; font-family:Arial;" text-anchor="middle"><textPath startOffset="22.206326154141568" xlink:href="#id101">May</textPath></text><path d="M 118.48025628344425 109.97397251340804 l 19.481898765368136 10.514568619313822 a43.13821430816658,43.13821430816658 0 0,0 -0.358301058546699,0.6504204968399606 l -19.298021297369928 -10.848359634551588" fill="#eaff1a" stroke="none" /><path d="M 118.12598468904814 110.60418214915192 l 11.45129717819427 6.699312793473309 a34.266989069420205,34.266989069420205 0 0,0 -0.30223341466173476,0.5065605874065984 l -11.334282887834307 -6.895435474766012" fill="#ffa50f" stroke="none" /><path d="M 117.55443506779139 111.5257021239791 l 12.309593270277167 8.08210032123823 a35.725706505367135,35.725706505367135 0 0,0 -0.34194076498032355,0.511155048513347 l -12.168649399886123 -8.292792283957384" fill="#ffb811" stroke="none" /><path d="M 117.35343817320211 111.8261652097733 l 1.216671489221825 0.8291473939600981 a22.472336549025417,22.472336549025417 0 0,0 -0.22059176524587001,0.317778890347957 l -1.2022188168138188 -0.8499675464950747" fill="#ff0000" stroke="none" /><path d="M 116.498646956653 112.99209946851258 l 13.399942184956705 10.551979334831023 a38.05587049795123,38.05587049795123 0 0,0 -0.40970241241651906,0.5111667541153645 l -13.216321860485332 -10.781073922524637" fill="#ffd614" stroke="none" /><path d="M 116.0416608686014 113.55231037782055 l 7.528839300118084 6.360511409366888 a30.85593864610007,30.85593864610007 0 0,0 -0.34625871743704595,0.4027771147506127 l -7.418238073110259 -6.489165623279028" fill="#ff770a" stroke="none" /><path d="M 115.56566222782051 114.09645910891815 l 10.561809396529913 9.564907171650612 a35.24918478127506,35.24918478127506 0 0,0 -0.4111625917807551,0.44623578777989814 l -10.395600396753435 -9.745294214231844" fill="#ffb110" stroke="none" /><path d="M 115.07121518719521 114.62390073753431 l 7.616493304797231 7.39043538785661 a31.612704908933647,31.612704908933647 0 0,0 -0.38230203709412336,0.3872699451812994 l -7.488150642647573 -7.520445827018574" fill="#ff810b" stroke="none" /><path d="M 114.81725581225074 114.88116024355365 l 10.059008916132699 10.102391797038685 a35.25629616680685,35.25629616680685 0 0,0 -0.4337364663689358,0.42450242176706815 l -9.883622497387968 -10.274044321728326" fill="#ffb210" stroke="none" /><path d="M 114.55890576462653 115.13401014063108 l 5.187550091828095 5.392468154132049 a28.48260574589855,28.48260574589855 0 0,0 -0.3562552320296205,0.33686155821441893 l -5.093959025407667 -5.480964349092389" fill="#ff5608" stroke="none" /><path d="M 114.29624159901734 115.38237550388516 l 8.55472550438318 9.204656981323712 a33.566186318815085,33.566186318815085 0 0,0 -0.426610964341473,0.38969900107759975 l -8.395014990574843 -9.350548748987896" fill="#ff9b0e" stroke="none" /><path d="M 113.75828350139079 115.86535959552629 l 3.9463186304002815 4.550695887571745 a27.02347605571789,27.02347605571789 0 0,0 -0.354051962181977,0.30173076316476416 l -3.867401191641257 -4.617951040959456" fill="#ff4206" stroke="none" /><path d="M 112.92097659922987 116.55440617244103 l 7.697936273905724 9.862626310723144 a33.51117982534349,33.51117982534349 0 0,0 -0.45778070315140323,0.35100672240589836 l -7.5270268422608275 -9.993672374956413" fill="#ff9b0e" stroke="none" /><path d="M 112.34349029814194 116.9893568818739 l 7.056486194099158 9.712420019612518 a33.005211370270914,33.005211370270914 0 0,0 -0.4625015116591428,0.32998254839203794 l -6.88825735459113 -9.832446829848775" fill="#ff940d" stroke="none" /><path d="M 111.7513745106137 117.40417183066458 l 7.667610568423976 11.355983229275992 a34.70221175331211,34.70221175331211 0 0,0 -0.49793592433125383,0.33000477903069225 l -7.470999945352759 -11.486286029398002" fill="#ffaa0f" stroke="none" /><path d="M 111.1453310114006 117.79835938074945 l 15.730012770463423 25.119794115231358 a50.638443922556974,50.638443922556974 0 0,0 -0.7427473338670914,0.45625607676248586 l -15.295286236664024 -25.386838658822224" fill="#94ff23" stroke="none" /><line stroke="#e1ed5e" stroke-width="0.3" x1="143.8653032363475" x2="146.44561519142675" y1="172.8068346515853" y2="177.08958963109032" /><path d="M 144.38136562736335 173.6633856474863 a86.0,86.0 0 0,1 -40.68145358897372,12.25698825130547" fill="none" id="id102" stroke="none" /><text fill="#e1ed5e" style="font-size:6.75px; font-family:Arial;" text-anchor="middle"><textPath startOffset="21.466115282336833" xlink:href="#id102">June</textPath></text><path d="M 110.21172684928248 118.3499491758327 l 7.138385624715059 12.827312691018541 a35.67979905176852,35.67979905176852 0 0,0 -0.5392359188639022,0.2940344175829247 l -6.916526893982508 -12.948287760361236" fill="#ffb711" stroke="none" /><path d="M 109.57404056367764 118.69057910512821 l 8.060253063544094 15.735341467328613 a38.67961115358037,38.67961115358037 0 0,0 -0.5951983426966575,0.29844480514301275 l -7.788200813164677 -15.871754113380927" fill="#ffdd14" stroke="none" /><path d="M 108.2653958097858 119.30500536409082 l 3.1119007676867763 7.268286044037425 a28.906447268266497,28.906447268266497 0 0,0 -0.45910119849992986,0.19190433820718036 l -2.9863281096893854 -7.3207754252645785" fill="#ff5c08" stroke="none" /><path d="M 107.59598834532513 119.57807347666477 l 5.4722637504854195 14.104337305444744 a36.12871446556637,36.12871446556637 0 0,0 -0.5817235355455725,0.21995806503907325 l -5.2286699941795725 -14.196443620590449" fill="#ffbd11" stroke="none" /><path d="M 106.91757812671514 119.82793768551818 l 2.4675789026783215 7.0728511944741035 a28.490939170766033,28.490939170766033 0 0,0 -0.4644433721522646,0.15756440836952545 l -2.3454657975888296 -7.114278589741752" fill="#ff5608" stroke="none" /><path d="M 105.88484417918355 120.15858648285463 l 2.577345972142745 8.828721728853791 a30.19722999743159,30.19722999743159 0 0,0 -0.5002226250325279,0.14136791042294142 l -2.4249921790056117 -8.871778432615251" fill="#ff6e0a" stroke="none" /><path d="M 105.53697534728816 120.25689768951611 l 3.246646078346596 11.877780433923437 a33.313503920271344,33.313503920271344 0 0,0 -0.5544470477891182,0.1464345046119054 l -3.04170858774598 -11.931906287838926" fill="#ff980e" stroke="none" /><path d="M 104.83641907484287 120.43548508189849 l 3.017095063959371 12.74823381020068 a34.10039418889797,34.10039418889797 0 0,0 -0.5723667547308224,0.13026880991056877 l -2.7972081598356864 -12.798279353688933" fill="#ffa20f" stroke="none" /><path d="M 104.48393922423573 120.51570834832081 l 2.5420648394411747 11.630902704169745 a32.905460569074435,32.905460569074435 0 0,0 -0.5543920435684502,0.11617824298264258 l -2.3414813344433467 -11.67293692787893" fill="#ff930d" stroke="none" /><path d="M 104.13013068566511 120.58985236759428 l 4.4383900628239195 22.12661126209023 a43.56737096547651,43.56737096547651 0 0,0 -0.736563220986314,0.14116409433726795 l -4.056859227265901 -22.199732554775967" fill="#e5ff1a" stroke="none" /><path d="M 103.06178313531738 120.77559828337769 l 2.3337701823503676 15.835697582549537 a37.00674236657768,37.00674236657768 0 0,0 -0.6310026845136418,0.08745122236403478 l -2.060838906649895 -15.873523370406176" fill="#ffc812" stroke="none" /><path d="M 102.70371172650421 120.8252237178851 l 1.4977205697961382 11.536128510716198 a32.63294579721532,32.63294579721532 0 0,0 -0.5576699691272043,0.06752606694058445 l -1.2989231776175536 -11.560200106382133" fill="#ff8f0d" stroke="none" /><path d="M 101.62511606390274 120.93702456842531 l 3.1758360755694133 40.915574841962794 a62.038642758102355,62.038642758102355 0 0,0 -1.0654021356811543,0.07347636901698963 l -2.4710711791093285 -40.964179555496074" fill="#32ff44" stroke="none" /><path d="M 101.26447882468166 120.96189622390904 l 0.40955762241193305 6.789441002201988 a27.801782602263707,27.801782602263707 0 0,0 -0.4779416780377018,0.024704125510166392 l -0.2926278759607516 -6.795484934474356" fill="#ff4d07" stroke="none" /><line stroke="#e1ed5e" stroke-width="0.3" x1="102.19456741930631" x2="102.32365962044197" y1="184.97166512339345" y2="189.96999836594603" /><path d="M 102.22038585953345 185.97133177190398 a86.0,86.0 0 0,1 -42.740103519485714,-10.115201625700543" fill="none" id="id103" stroke="none" /><text fill="#e1ed5e" style="font-size:6.75px; font-family:Arial;" text-anchor="middle"><textPath startOffset="22.20632615414155" xlink:href="#id103">July</textPath></text><path d="M 100.54218724476979 120.99299961872073 l 0.2797058824516225 10.829958727918749 a31.83357011465295,31.83357011465295 0 0,0 -0.5479016882887457,0.009432624443994857 l -0.0932445042702088 -10.833168829641904" fill="#ff840c" stroke="none" /><path d="M 99.81925306533755 120.99922214144158 l -0.11462714509977665 13.317409160408621 a34.3179024672855,34.3179024672855 0 0,0 -0.590660633809945,-0.010168758468298417 l 0.34384746880238964 -13.313462924661163" fill="#ffa50f" stroke="none" /><path d="M 99.09653310690486 120.98055641714683 l -0.6806854590311661 15.807064746567338 a36.821713832461654,36.821713832461654 0 0,0 -0.6330037159515588,-0.03271906168860181 l 0.9526772433962137 -15.793005878116535" fill="#ffc612" stroke="none" /><path d="M 98.01472825383883 120.90594882070398 l -1.6763016912746662 17.652332701360347 a38.731746590781356,38.731746590781356 0 0,0 -0.6631749309798769,-0.0687407931547551 l 1.9799092188601364 -17.620862539749833" fill="#ffde14" stroke="none" /><path d="M 97.2962882734958 120.8252237178851 l -2.474909497757296 19.062884355261673 a40.222870154172334,40.222870154172334 0 0,0 -0.6858409420292216,-0.09505130516834934 l 2.8026790309733487 -19.017458484600716" fill="#fff116" stroke="none" /><path d="M 96.58105272829116 120.7198165907248 l -2.5416822173839755 15.403334766780645 a36.611626130281216,36.611626130281216 0 0,0 -0.6209175382085917,-0.1079544729830708 l 2.8064487270646175 -15.357301715276568" fill="#ffc312" stroke="none" /><path d="M 96.22490169976321 120.6578951692458 l -1.5426693959141142 8.441714659350344 a29.581513575994652,29.581513575994652 0 0,0 -0.5001140633078652,-0.09584805051445244 l 1.6877510737936745 -8.413909410487424" fill="#ff6509" stroke="none" /><path d="M 95.51606077576429 120.51570834832081 l -3.0019194992327805 13.73491072281302 a35.05913557952686,35.05913557952686 0 0,0 -0.5884589938803334,-0.1339313511491612 l 3.237898642505977 -13.681202638086171" fill="#ffaf10" stroke="none" /><path d="M 94.11515582081647 120.15858648285463 l -4.303329258966019 14.741092948207982 a36.35638186614217,36.35638186614217 0 0,0 -0.5992311239370782,-0.18054342207437754 l 4.556435357343343 -14.66483415702788" fill="#ffc011" stroke="none" /><path d="M 93.76903079525671 120.05430185196036 l -7.834885906944256 25.21648908711042 a47.405619838496364,47.405619838496364 0 0,0 -0.7771782396727505,-0.24882792986331403 l 8.267785491707947 -25.0778883105874" fill="#b8ff1f" stroke="none" /><path d="M 91.40352486487194 119.15986991738527 l -2.540596338767855 5.662494754910066 a27.206325531741356,27.206325531741356 0 0,0 -0.42562612641652453,-0.19538407899460886 l 2.637690460951799 -5.617923605581383" fill="#ff4406" stroke="none" /><line stroke="#e1ed5e" stroke-width="0.3" x1="58.666819895761336" x2="56.23545636021788" y1="174.27360380694188" y2="178.64263932499728" /><path d="M 58.180547188652646 175.14741091055294 a86.0,86.0 0 0,1 -31.652253787137756,-30.449443065178592" fill="none" id="id104" stroke="none" /><text fill="#e1ed5e" style="font-size:6.75px; font-family:Arial;" text-anchor="middle"><textPath startOffset="22.20632615414155" xlink:href="#id104">August</textPath></text><path d="M 88.24862548938628 117.40417183066458 l -5.162976205167338 7.646537428554144 a30.226367537736806,30.226367537736806 0 0,0 -0.42870073685586035,-0.2948642759114807 l 5.293833826646088 -7.5565323632775625" fill="#ff6e0a" stroke="none" /><path d="M 87.36589467227662 116.77436683061367 l -8.039227842704356 10.673724286000228 a34.36254371145195,34.36254371145195 0 0,0 -0.4694107907953506,-0.35992417767889756 l 8.221767361993193 -10.533760766493964" fill="#ffa60f" stroke="none" /><path d="M 87.07902340077011 116.55440617244103 l -8.608353690387018 11.029056694924442 a34.990848610383054,34.990848610383054 0 0,0 -0.4716141677442936,-0.3746788177455167 l 8.796925350848669 -10.879243963173794" fill="#ffae10" stroke="none" /><path d="M 86.51685102203217 116.09983520530335 l -12.07940142428959 14.423661166063905 a39.8136636571017,39.8136636571017 0 0,0 -0.5216244464770494,-0.44453966968843983 l 12.325891347343696 -14.213597106152513" fill="#ffec16" stroke="none" /><path d="M 84.67929136418377 114.36230785411682 l -9.193847361718728 8.618717926928921 a33.60194937359091,33.60194937359091 0 0,0 -0.39194848559079803,-0.42538267034275734 l 9.340842255305255 -8.45918400178482" fill="#ff9c0e" stroke="none" /><path d="M 83.06392112726016 112.41649034213515 l -7.996065769894246 5.862223136358587 a30.91477321459913,30.91477321459913 0 0,0 -0.31094403890707795,-0.43187407410774636 l 8.095789601176932 -5.723715456799702" fill="#ff780b" stroke="none" /><path d="M 82.85270091963577 112.12312394758628 l -9.72121348588555 6.872888579011974 a32.905401675612474,32.905401675612474 0 0,0 -0.32300426908935026,-0.46531174041996387 l 9.838078662137034 -6.704535576404997" fill="#ff930d" stroke="none" /><path d="M 82.05923443525364 110.91462005526583 l -27.398961349919006 16.668700784481103 a53.070994198760296,53.070994198760296 0 0,0 -0.4680839557770761,-0.7845356340212138 l 27.681826181394314 -16.19460305657378" fill="#79ff26" stroke="none" /><line stroke="#e1ed5e" stroke-width="0.3" x1="26.63291911575756" x2="22.317208475507996" y1="142.92168965132927" y2="145.44649492493687" /><path d="M 25.769776987707644 143.4266507060508 a86.0,86.0 0 0,1 -11.730757126820373,-40.83630448921669" fill="none" id="id105" stroke="none" /><text fill="#e1ed5e" style="font-size:6.75px; font-family:Arial;" text-anchor="middle"><textPath startOffset="21.46611528233685" xlink:href="#id105">September</textPath></text><path d="M 81.02952815118164 109.00673069616217 l -10.641427451743782 5.0522976995205005 a32.77988498480806,32.77988498480806 0 0,0 -0.23761574055994372,-0.5118031658774596 l 10.726817809143553 -4.868374466364214" fill="#ff910d" stroke="none" /><path d="M 80.87730276802145 108.67885076344099 l -23.47825157262019 10.655622431993704 a46.7831453922994,46.7831453922994 0 0,0 -0.32649938293115344,-0.7361699151899719 l 23.658192040282625 -10.249904180311036" fill="#bfff1e" stroke="none" /><path d="M 80.0844068197444 106.66101706037122 l -13.96434479918265 4.670548253439871 a35.7247053165138,35.7247053165138 0 0,0 -0.19003459114359939,-0.5848663326564886 l 14.042671641342498 -4.429483020805579" fill="#ffb811" stroke="none" /><path d="M 79.67330655649465 105.27499134158121 l -9.31151553825763 2.4164364941018888 a30.61995254402228,30.61995254402228 0 0,0 -0.12800406619939975,-0.5113126150553152 l 9.35173091875209 -2.255796039649182" fill="#ff740a" stroke="none" /><path d="M 79.07016306316243 101.71520430193888 l -18.980852372964268 1.5554846290882873 a40.044481857892414,40.044481857892414 0 0,0 -0.05038633415186228,-0.6874814973732535 l 19.00481526578047 -1.228529995218273" fill="#ffee16" stroke="none" /><path d="M 79.0235259727143 100.99374915477108 l -10.31481113809309 0.48865861997444954 a31.326379620244676,31.326379620244676 0 0,0 -0.020881071437001606,-0.5388476708337814 l 10.32169434238129 -0.3110337021266714" fill="#ff7d0b" stroke="none" /><line stroke="#e1ed5e" stroke-width="0.3" x1="15.007084014347285" x2="10.007500721073583" y1="101.09737516637583" y2="101.16192664675087" /><path d="M 14.007167355692545 101.11028546245083 a86.0,86.0 0 0,1 10.666146001902534,-42.60595125391555" fill="none" id="id106" stroke="none" /><text fill="#e1ed5e" style="font-size:6.75px; font-family:Arial;" text-anchor="middle"><textPath startOffset="22.20632615414155" xlink:href="#id106">October</textPath></text><path d="M 79.00175016825051 100.2711162175752 l -13.879413777434008 0.17920227617301254 a34.880570602861056,34.880570602861056 0 0,0 -0.0025839903919310696,-0.6004283651324659 l 13.880442065115442 0.059735567163128736" fill="#ffad10" stroke="none" /><path d="M 79.00019446554 99.90962569577889 l -25.175823726111503 -0.10834612485850363 a46.17605686303975,46.17605686303975 0 0,0 0.010262063271988975,-0.7948081096060368 l 25.1702286557218 0.5416904925250123" fill="#c6ff1e" stroke="none" /><path d="M 79.01574976396665 99.18683210126434 l -13.429055458789827 -0.5203939472031813 a34.43913465873226,34.43913465873226 0 0,0 0.028053777598645878,-0.5921709058468002 l 13.418108072957683 0.7514759596729906" fill="#ffa70f" stroke="none" /><path d="M 79.05617556472873 98.46500227214037 l -17.93623205426363 -1.3145677158795945 a38.98434064913215,38.98434064913215 0 0,0 0.05481108479153281,-0.668834065843495 l 17.910946485652598 1.6231156989308682" fill="#ffe115" stroke="none" /><path d="M 79.21141760316559 97.0276538004421 l -9.190061722691723 -1.3139926770237522 a30.28352364256997,30.28352364256997 0 0,0 0.0782239373095703,-0.5153980109404559 l 9.16608189194285 1.4719898003563001" fill="#ff6f0a" stroke="none" /><path d="M 79.32604984820605 96.31383870115002 l -61.97539472451992 -11.050200848755232 a83.95281161360374,83.95281161360374 0 0,0 0.2659076423909817,-1.420489258331816 l 61.77600135821908 12.11536818454962" fill="#4dd2ff" stroke="none" /><path d="M 80.02781315780177 93.51064311812611 l -7.039981934820633 -2.287428791747067 a28.402275063783723,28.402275063783723 0 0,0 0.15508008199294987,-0.46366970619350845 l 6.999564559055911 2.4082716008628973" fill="#ff5507" stroke="none" /><path d="M 80.14247586403 93.16781622104843 l -11.29802397341656 -3.887200418181035 a32.94804054207225,32.94804054207225 0 0,0 0.1891326086047763,-0.5347033533966891 l 11.229438284001974 4.081101398004336" fill="#ff930d" stroke="none" /><path d="M 80.2630227832202 92.82701384747504 l -13.237669268527059 -4.810950395895627 a35.08478368221088,35.08478368221088 0 0,0 0.2111693176592584,-0.5658287845473968 l 13.152895362366172 5.038102317472365" fill="#ffaf10" stroke="none" /><path d="M 80.52162464483688 92.15188598940014 l -14.140386257441943 -5.697362407224971 a36.24501432957389,36.24501432957389 0 0,0 0.2381440921895297,-0.5766848086568935 l 14.040220478366214 5.939921786335176" fill="#ffbe11" stroke="none" /><path d="M 80.65960295795068 91.81776055985345 l -13.58035352714468 -5.745368308589919 a35.74568611233741,35.74568611233741 0 0,0 0.2446184370185883,-0.5646130790857732 l 13.479444380283411 5.978280532262291" fill="#ffb811" stroke="none" /><path d="M 81.10775173730289 90.83032412892265 l -11.754987922544503 -5.705484472750284 a34.066456831442935,34.066456831442935 0 0,0 0.2605921516250531,-0.5253378761274687 l 11.655035757966038 5.906981937376714" fill="#ffa20f" stroke="none" /><path d="M 81.26839172434947 90.50648371742162 l -9.3057842880963 -4.716339000962595 a31.43271176581529,31.43271176581529 0 0,0 0.2487533421750284,-0.48051228048358124 l 9.223221512761157 4.875824003706512" fill="#ff7f0b" stroke="none" /><path d="M 81.43458229118936 90.18545643968196 l -8.701496201259463 -4.600015730681562 a30.842569830234922,30.842569830234922 0 0,0 0.2521628304352404,-0.46721942789970844 l 8.62102527160575 4.749116141913744" fill="#ff770a" stroke="none" /><line stroke="#e1ed5e" stroke-width="0.3" x1="26.266209847984243" x2="21.928928074336255" y1="57.711370442889674" y2="55.22380399835377" /><path d="M 25.398753493254645 57.213857153982495 a86.0,86.0 0 0,1 29.58750427330803,-30.492523968695096" fill="none" id="id107" stroke="none" /><text fill="#e1ed5e" style="font-size:6.75px; font-family:Arial;" text-anchor="middle"><textPath startOffset="21.46611528233685" xlink:href="#id107">November</textPath></text><path d="M 82.34701348167596 88.62581576622439 l -9.901905441937945 -6.380002423109539 a32.77931077355394,32.77931077355394 0 0,0 0.3096916927676893,-0.47168169481096417 l 9.790617113812335 6.54950218189817" fill="#ff910d" stroke="none" /><path d="M 82.95767976084542 87.72973835380427 l -6.263640050514226 -4.50974404886625 a28.718223763839088,28.718223763839088 0 0,0 0.29229324383485034,-0.398687656104985 l 6.185084194165743 4.616894148642736" fill="#ff5908" stroke="none" /><path d="M 83.17141714833178 87.43820079747576 l -6.366879059762568 -4.752596044506821 a28.945081379312924,28.945081379312924 0 0,0 0.30147550999175593,-0.3967064325870892 l 6.284127609546704 4.8614872529749364" fill="#ff5d08" stroke="none" /><path d="M 84.07557802195018 86.31012108654704 l -8.940514752621624 -7.6859659054525356 a32.79011772382378,32.79011772382378 0 0,0 0.37163403869097245,-0.42484194966317196 l 8.806888850352808 7.838723411318651" fill="#ff910d" stroke="none" /><path d="M 85.57189188830299 84.74124197986013 l -7.102253332953353 -7.511141735721339 a31.337274910707464,31.337274910707464 0 0,0 0.39513634950993287,-0.36723617335443415 l 6.971909099648564 7.632282495150421" fill="#ff7d0b" stroke="none" /><line stroke="#e1ed5e" stroke-width="0.3" x1="56.762969772571076" x2="54.21961505331055" y1="26.818313649435495" y2="22.513508569990535" /><path d="M 56.25429882871897 25.957352633546506 a86.0,86.0 0 0,1 42.265352541879196,-11.944610805530505" fill="none" id="id108" stroke="none" /><text fill="#e1ed5e" style="font-size:6.75px; font-family:Arial;" text-anchor="middle"><textPath startOffset="22.20632615414155" xlink:href="#id108">December</textPath></text></svg>