<?xml version="1.0" encoding="utf-8" ?>
<svg baseProfile="full" height="200mm" version="1.1" viewBox="0,0,200,200" width="200mm" xmlns="http://www.w3.org/2000/svg" xmlns:ev="http://www.w3.org/2001/xml-events" xmlns:xlink="http://www.w3.org/1999/xlink"><defs /><rect fill="#1a1a1a" height="200" width="200" x="0" y="0" /><text alignment-baseline="middle" fill="#e1ed5e" style="dominant-baseline: central; font-size:9.0px; font-family:Arial;" text-anchor="middle" x="100.0" y="100.0">2020</text><line stroke="#e1ed5e" stroke-width="0.3" x1="100.0" x2="100.0" y1="15.0" y2="10.0" /><path d="M 100.0 14.0 a86.0,86.0 0 0,1 42.35913384403234,11.155469271406648" fill="none" id="id37" stroke="none" /><text fill="#e1ed5e" style="font-size:6.75px; font-family:Arial;" text-anchor="middle"><textPath startOffset="22.145653131862478" xlink:href="#id37">January</textPath></text><line stroke="#e1ed5e" stroke-width="0.3" x1="143.13028292997686" x2="145.6673583964461" y1="26.7553504044142" y2="22.446841604673864" /><path d="M 143.63769802327073 25.89364864446614 a86.0,86.0 0 0,1 29.32050498858742,28.57503671076993" fill="none" id="id38" stroke="none" /><text fill="#e1ed5e" style="font-size:6.75px; font-family:Arial;" text-anchor="middle"><textPath startOffset="20.669276256404974" xlink:href="#id38">February</textPath></text><path d="M 115.6541949942343 86.00192230759917 l 19.586352673898833 -17.514237336444342 a47.274963759130955,47.274963759130955 0 0,0 0.5357580155443706,0.6095942739470722 l -19.884121753401793 17.17543078468597" fill="red" stroke="none" /><path d="M 117.62189284568427 88.57770195909679 l 45.14463105749999 -29.26220442951272 a74.79883197052132,74.79883197052132 0 0,0 0.6891547939687452,1.0834658016876357 l -45.640303543094625 28.482924953146412" fill="red" stroke="none" /><line stroke="#e1ed5e" stroke-width="0.3" x1="172.87174338648825" x2="177.1583165268699" y1="56.24261187166439" y2="53.66864786411523" /><path d="M 173.72905801456457 55.72781907015455 a86.0,86.0 0 0,1 12.242430191666344,42.057860355516425" fill="none" id="id39" stroke="none" /><text fill="#e1ed5e" style="font-size:6.75px; font-family:Arial;" text-anchor="middle"><textPath startOffset="22.145653131862474" xlink:href="#id39">March</textPath></text><path d="M 119.0197475246899 91.09779779509293 l 5.09917936694512 -2.3866734163904533 a26.63008349962802,26.63008349962802 0 0,0 0.19023458224530299,0.41569689408195265 l -5.139398414045474 2.2987875400938163" fill="red" stroke="none" /><path d="M 119.16976305983485 91.42560881287824 l 47.95639229688563 -21.450284293712734 a73.53503838785969,73.53503838785969 0 0,0 0.5055222870375413,1.1567339228570968 l -48.31754846594014 20.623888301079788" fill="red" stroke="none" /><path d="M 120.05942366710727 93.78553927170692 l 50.216682438305185 -15.557256584082864 a73.57131753658622,73.57131753658622 0 0,0 0.3633851331941138,1.20959092379379 l -50.47634389150292 14.692928056698351" fill="red" stroke="none" /><path d="M 120.65975698304385 96.23510406497455 l 61.97927094913153 -11.294687805076354 a84.0,84.0 0 0,0 0.24634073003106272,1.4208278683176294 l -62.16402649665483 10.229066903838131" fill="red" stroke="none" /><path d="M 120.86939407059847 97.66154086499901 l 52.226071905136344 -5.8520402901320105 a73.55291582964546,73.55291582964546 0 0,0 0.12983002932392138,1.2559877614007167 l -52.31883432694193 4.9546480064483625" fill="red" stroke="none" /><line stroke="#e1ed5e" stroke-width="0.3" x1="184.99686870605535" x2="189.99668451229388" y1="99.2704041080226" y2="99.22748670261217" /><path d="M 185.99683186730306 99.26182062694052 a86.0,86.0 0 0,1 -10.086455211305974,41.156179273409016" fill="none" id="id40" stroke="none" /><text fill="#e1ed5e" style="font-size:6.75px; font-family:Arial;" text-anchor="middle"><textPath startOffset="21.40746469413373" xlink:href="#id40">April</textPath></text><path d="M 120.77682067341334 103.0534771498775 l 51.919246460131305 7.630341292194616 a73.47694980868484,73.47694980868484 0 0,0 -0.19411388274367827,1.2463503751182468 l -51.78061108524936 -8.520479849244312" fill="red" stroke="none" /><path d="M 120.65975698304385 103.76489593502545 l 51.669266832920556 9.41586161079555 a73.52020168397297,73.52020168397297 0 0,0 -0.23692307810085195,1.239681658787058 l -51.50001746253754 -10.301445834615924" fill="red" stroke="none" /><line stroke="#e1ed5e" stroke-width="0.3" x1="174.33088141563837" x2="178.70328620479359" y1="141.23008692659167" y2="143.65538615756765" /><path d="M 175.20536237346943 141.71514677278685 a86.0,86.0 0 0,1 -30.301960400862466,31.631185727798858" fill="none" id="id41" stroke="none" /><text fill="#e1ed5e" style="font-size:6.75px; font-family:Arial;" text-anchor="middle"><textPath startOffset="22.145653131862474" xlink:href="#id41">May</textPath></text><path d="M 118.18653347947321 110.5 l 13.778537236514286 7.955042182540801 a36.91008436508161,36.91008436508161 0 0,0 -0.3215154662715111,0.546003551723768 l -13.639948060113008 -8.190396902558119" fill="red" stroke="none" /><line stroke="#e1ed5e" stroke-width="0.3" x1="143.1302829299769" x2="145.66735839644613" y1="173.24464959558577" y2="177.55315839532614" /><path d="M 143.63769802327073 174.10635135553383 a86.0,86.0 0 0,1 -40.68552437913181,11.842963189579606" fill="none" id="id42" stroke="none" /><text fill="#e1ed5e" style="font-size:6.75px; font-family:Arial;" text-anchor="middle"><textPath startOffset="21.407464694133747" xlink:href="#id42">June</textPath></text><line stroke="#e1ed5e" stroke-width="0.3" x1="101.45913802915013" x2="101.54496967792366" y1="184.9874750549273" y2="189.98673829345242" /><path d="M 101.47630435890484 185.9873277026323 a86.0,86.0 0 0,1 -42.54439059252881,-10.42667462771756" fill="none" id="id43" stroke="none" /><text fill="#e1ed5e" style="font-size:6.75px; font-family:Arial;" text-anchor="middle"><textPath startOffset="22.145653131862474" xlink:href="#id43">July</textPath></text><path d="M 100.0 121.0 l 4.217012687638163e-15 34.43452177864027 a55.43452177864027,55.43452177864027 0 0,0 -0.9516072806466392,-0.008168404004818438 l 0.5911143557977829 -34.42944777282988" fill="red" stroke="none" /><path d="M 92.59220618246901 119.65005319985036 l -12.247047529625142 32.48674860910751 a55.71856863962346,55.71856863962346 0 0,0 -0.8921013462285546,-0.3450839652408425 l 12.802921138347225 -32.27172475572862" fill="red" stroke="none" /><path d="M 91.59046798132341 119.24265499422711 l -23.13091929667557 52.9280700444118 a78.76175227722476,78.76175227722476 0 0,0 -1.2342589067637775,-0.5520683098559369 l 24.036091606294985 -52.523197983646" fill="red" stroke="none" /><line stroke="#e1ed5e" stroke-width="0.3" x1="58.13341422392154" x2="55.67067388415222" y1="173.97424548756322" y2="178.32567169271397" /><path d="M 57.64086615596768 174.84453072859336 a86.0,86.0 0 0,1 -31.369924170532247,-30.572349798747897" fill="none" id="id44" stroke="none" /><text fill="#e1ed5e" style="font-size:6.75px; font-family:Arial;" text-anchor="middle"><textPath startOffset="22.145653131862474" xlink:href="#id44">August</textPath></text><path d="M 87.54013794807813 116.9041958592261 l -12.62022413315054 17.12175782084224 a42.27027616291166,42.27027616291166 0 0,0 -0.5804051328329551,-0.4355468320928356 l 12.912282254894262 -16.902591961485392" fill="red" stroke="none" /><line stroke="#e1ed5e" stroke-width="0.3" x1="26.387840678322732" x2="22.057713659400548" y1="142.50000000000003" y2="145.00000000000006" /><path d="M 25.521815274538298 143.00000000000003 a86.0,86.0 0 0,1 -11.493303480769221,-40.785679425670985" fill="none" id="id45" stroke="none" /><text fill="#e1ed5e" style="font-size:6.75px; font-family:Arial;" text-anchor="middle"><textPath startOffset="21.40746469413373" xlink:href="#id45">September</textPath></text><path d="M 79.407916724674 104.11899336999214 l -14.448260865679208 2.8900568202809676 a35.73447218149228,35.73447218149228 0 0,0 -0.11515639170770016,-0.6025469018740378 l 14.495743549669065 -2.641607353373615" fill="red" stroke="none" /><line stroke="#e1ed5e" stroke-width="0.3" x1="15.003131293944662" x2="10.003315487706104" y1="100.72959589197737" y2="100.7725132973878" /><path d="M 14.003168132696942 100.73817937305945 a86.0,86.0 0 0,1 10.791469493833604,-42.45332614584628" fill="none" id="id46" stroke="none" /><text fill="#e1ed5e" style="font-size:6.75px; font-family:Arial;" text-anchor="middle"><textPath startOffset="22.145653131862435" xlink:href="#id46">October</textPath></text><line stroke="#e1ed5e" stroke-width="0.3" x1="26.387840678322718" x2="22.05771365940052" y1="57.49999999999999" y2="54.99999999999999" /><path d="M 25.521815274538284 56.99999999999999 a86.0,86.0 0 0,1 29.574782752854787,-30.34633250058573" fill="none" id="id47" stroke="none" /><text fill="#e1ed5e" style="font-size:6.75px; font-family:Arial;" text-anchor="middle"><textPath startOffset="21.40746469413373" xlink:href="#id47">November</textPath></text><line stroke="#e1ed5e" stroke-width="0.3" x1="56.869717070023135" x2="54.33264160355391" y1="26.7553504044142" y2="22.446841604673864" /><path d="M 56.362301976729285 25.89364864446614 a86.0,86.0 0 0,1 42.16139366436587,-11.88097634709845" fill="none" id="id48" stroke="none" /><text fill="#e1ed5e" style="font-size:6.75px; font-family:Arial;" text-anchor="middle"><textPath startOffset="22.145653131862474" xlink:href="#id48">December</textPath></text></svg>