<?xml version="1.0" encoding="utf-8" ?>
<svg baseProfile="full" height="200mm" version="1.1" viewBox="0,0,200,200" width="200mm" xmlns="http://www.w3.org/2000/svg" xmlns:ev="http://www.w3.org/2001/xml-events" xmlns:xlink="http://www.w3.org/1999/xlink"><defs /><rect fill="#1a1a1a" height="200" width="200" x="0" y="0" /><text alignment-baseline="middle" fill="#e1ed5e" style="dominant-baseline: central; font-size:9.0px; font-family:Arial;" text-anchor="middle" x="100.0" y="100.0">2024</text><line stroke="#e1ed5e" stroke-width="0.3" x1="100.0" x2="100.0" y1="15.0" y2="10.0" /><path d="M 100.0 14.0 a86.0,86.0 0 0,1 42.35913384403234,11.155469271406648" fill="none" id="id85" stroke="none" /><text fill="#e1ed5e" style="font-size:6.75px; font-family:Arial;" text-anchor="middle"><textPath startOffset="22.145653131862478" xlink:href="#id85">January</textPath></text><line stroke="#e1ed5e" stroke-width="0.3" x1="143.13028292997686" x2="145.6673583964461" y1="26.7553504044142" y2="22.446841604673864" /><path d="M 143.63769802327073 25.89364864446614 a86.0,86.0 0 0,1 29.32050498858742,28.57503671076993" fill="none" id="id86" stroke="none" /><text fill="#e1ed5e" style="font-size:6.75px; font-family:Arial;" text-anchor="middle"><textPath startOffset="20.669276256404974" xlink:href="#id86">February</textPath></text><line stroke="#e1ed5e" stroke-width="0.3" x1="172.87174338648825" x2="177.1583165268699" y1="56.24261187166439" y2="53.66864786411523" /><path d="M 173.72905801456457 55.72781907015455 a86.0,86.0 0 0,1 12.242430191666344,42.057860355516425" fill="none" id="id87" stroke="none" /><text fill="#e1ed5e" style="font-size:6.75px; font-family:Arial;" text-anchor="middle"><textPath startOffset="22.145653131862474" xlink:href="#id87">March</textPath></text><line stroke="#e1ed5e" stroke-width="0.3" x1="184.99686870605535" x2="189.99668451229388" y1="99.2704041080226" y2="99.22748670261217" /><path d="M 185.99683186730306 99.26182062694052 a86.0,86.0 0 0,1 -10.086455211305974,41.156179273409016" fill="none" id="id88" stroke="none" /><text fill="#e1ed5e" style="font-size:6.75px; font-family:Arial;" text-anchor="middle"><textPath startOffset="21.40746469413373" xlink:href="#id88">April</textPath></text><path d="M 119.83427380445688 106.89939002012753 l 2.8519344560189324 0.992050846827243 a24.019552123100155,24.019552123100155 0 0,0 -0.138809941013337,0.3882761099609012 l -2.834484344961652 -1.0408619131690655" fill="#ff0901" stroke="none" /><path d="M 119.71291397450082 107.23885506374661 l 2.834484344961652 1.0408619131690655 a24.019552123100155,24.019552123100155 0 0,0 -0.14545476278943084,0.3858360393643532 l -2.8161988983577806 -1.0893662327275777" fill="#ff0901" stroke="none" /><line stroke="#e1ed5e" stroke-width="0.3" x1="174.33088141563837" x2="178.70328620479359" y1="141.23008692659167" y2="143.65538615756765" /><path d="M 175.20536237346943 141.71514677278685 a86.0,86.0 0 0,1 -30.301960400862466,31.631185727798858" fill="none" id="id89" stroke="none" /><text fill="#e1ed5e" style="font-size:6.75px; font-family:Arial;" text-anchor="middle"><textPath startOffset="22.145653131862474" xlink:href="#id89">May</textPath></text><path d="M 116.1254893667686 113.45245675266167 l 9.335884303180087 7.788326727944152 a33.15799197826572,33.15799197826572 0 0,0 -0.3683780853198514,0.4339484582332646 l -9.20081165435312 -7.947441968626973" fill="#ff8b0c" stroke="none" /><path d="M 115.41159269507618 114.26474011684316 l 2.2492896252733376 2.0819088972086983 a24.0649059487428,24.0649059487428 0 0,0 -0.28321433890082653,0.30076381342285813 l -2.213219452636251 -2.120214170576054" fill="#ff0901" stroke="none" /><path d="M 114.65682725009322 115.03919595460226 l 10.183757379265709 10.449432211185387 a35.591077681100444,35.591077681100444 0 0,0 -0.44120651324264054,0.4226658591913453 l -10.002878380157757 -10.622710200682311" fill="#ffac0f" stroke="none" /><path d="M 113.59037401385872 116.0094264158162 l 3.8724630239859605 4.5617517050856895 a26.983773766695286,26.983773766695286 0 0,0 -0.3557048161804863,0.2967416087379418 l -3.793583873643579 -4.627555497735502" fill="#ff3404" stroke="none" /><path d="M 113.31354834802062 116.24036423190432 l 3.793583873643579 4.627555497735502 a26.983773766695286,26.983773766695286 0 0,0 -0.36074636656704034,0.29059173701099694 l -3.713586736721286 -4.691995528539903" fill="#ff3404" stroke="none" /><path d="M 112.45986205192187 116.90419585922612 l 15.03837408760918 20.402442653211036 a46.345854915872145,46.345854915872145 0 0,0 -0.6444699869470313,0.46654657044145986 l -14.68592309028818 -20.65758999502557" fill="#cbff1d" stroke="none" /><path d="M 111.5731344415666 117.5232005979908 l 3.956542169360668 5.990709125360476 a28.1793329608402,28.1793329608402 0 0,0 -0.4059358616222753,0.2631227211256176 l -3.853120675481383 -6.057745688189987" fill="#ff4506" stroke="none" /><path d="M 111.27062007382361 117.71928675628689 l 3.853120675481383 6.057745688189987 a28.1793329608402,28.1793329608402 0 0,0 -0.4103928974382507,0.2561155205289274 l -3.7485636492534176 -6.122997005560463" fill="#ff4506" stroke="none" /><line stroke="#e1ed5e" stroke-width="0.3" x1="143.1302829299769" x2="145.66735839644613" y1="173.24464959558577" y2="177.55315839532614" /><path d="M 143.63769802327073 174.10635135553383 a86.0,86.0 0 0,1 -40.68552437913181,11.842963189579606" fill="none" id="id90" stroke="none" /><text fill="#e1ed5e" style="font-size:6.75px; font-family:Arial;" text-anchor="middle"><textPath startOffset="21.407464694133747" xlink:href="#id90">June</textPath></text><path d="M 110.65571695917076 118.09573695890943 l 9.97324018378125 16.936742190623615 a40.65499315174236,40.65499315174236 0 0,0 -0.6044188133837085,0.34896136461035965 l -9.681028902537143 -17.105450452510148" fill="#ffed16" stroke="none" /><path d="M 109.3889696526874 118.78422872680471 l 2.942571657140855 5.887114464889723 a27.581553363767743,27.581553363767743 0 0,0 -0.425333493632737,0.2080519254689409 l -2.8410779142460485 -5.936760140455887" fill="#ff3d05" stroke="none" /><path d="M 109.06512990194946 118.94263497670748 l 2.8410779142460485 5.936760140455887 a27.581553363767743,27.581553363767743 0 0,0 -0.4288423077250233,0.20071985353282917 l -2.738746892649519 -5.98465622555925" fill="#ff3d05" stroke="none" /><path d="M 108.4095320186766 119.2426549942271 l 12.936266742755144 29.60070991956399 a53.304009425795535,53.304009425795535 0 0,0 -0.8416066608751679,0.3592318385021024 l -12.426225006709545 -29.818416407725493" fill="#7cff26" stroke="none" /><path d="M 107.74402155503746 119.51999308798841 l 2.206593953797906 5.5620582174275395 a26.983773766695286,26.983773766695286 0 0,0 -0.4320330096648767,0.1671196492644855 l -2.1107886816395 -5.599117754830066" fill="#ff3404" stroke="none" /><path d="M 107.407793817531 119.65005319985036 l 2.1107886816395 5.599117754830066 a26.983773766695286,26.983773766695286 0 0,0 -0.434838179617165,0.15967860269180695 l -2.014361350368208 -5.634527206530595" fill="#ff3404" stroke="none" /><path d="M 107.06938296918513 119.77432235084164 l 2.018386048370942 5.645785003147041 a26.995729358636737,26.995729358636737 0 0,0 -0.4377090488595502,0.1522579285329074 l -1.9211712274663701 -5.679601364248539" fill="#ff3405" stroke="none" /><path d="M 106.72888874123015 119.89276391827305 l 1.9211712274663701 5.679601364248539 a26.995729358636737,26.995729358636737 0 0,0 -0.4402582612356475,0.14472163510837058 l -1.8233902285829884 -5.711743920758928" fill="#ff3405" stroke="none" /><path d="M 104.64783097203109 120.47920084513623 l 1.4831249177780659 6.53492204264266 a27.701109283182234,27.701109283182234 0 0,0 -0.4646367519465396,0.10126541751182891 l -1.3707257492123903 -6.559418918288207" fill="#ff3e05" stroke="none" /><path d="M 104.29559338865022 120.5559693870025 l 1.3707257492123903 6.559418918288207 a27.701109283182234,27.701109283182234 0 0,0 -0.46630664220456697,0.09327438812008688 l -1.2579226214768648 -6.581982703071156" fill="#ff3e05" stroke="none" /><path d="M 103.58742460773223 120.69131181640829 l 3.3985048472373465 19.60167284134648 a40.89410499057135,40.89410499057135 0 0,0 -0.6927120541740885,0.11398550490649066 l -3.0615152900101856 -19.65712434474864" fill="#fff016" stroke="none" /><path d="M 103.2317021107853 120.74984581791261 l 0.9548836751894747 6.131038182045999 a27.204952217612096,27.204952217612096 0 0,0 -0.46206302186498843,0.06790735220011498 l -0.8494955477168008 -6.146526607544996" fill="#ff3705" stroke="none" /><path d="M 102.875027216393 120.80226474461374 l 0.8494955477168008 6.146526607544996 a27.204952217612096,27.204952217612096 0 0,0 -0.4631606558189551,0.059965419695133165 l -0.7438570700070704 -6.160203623440524" fill="#ff3705" stroke="none" /><path d="M 102.15924093988457 120.88869738790638 l 0.6158722282783811 5.958005134346172 a26.98975156266601,26.98975156266601 0 0,0 -0.46126826761765705,0.043682584522202035 l -0.5135043972757087 -5.967699474373558" fill="#ff3405" stroke="none" /><path d="M 101.80034050326958 120.92268563240118 l 0.5135043972757087 5.967699474373558 a26.98975156266601,26.98975156266601 0 0,0 -0.46195016833027114,0.0357578646058147 l -0.4109852341702017 -5.975635105974426" fill="#ff3405" stroke="none" /><path d="M 101.08105385017728 120.97215588758144 l 1.3078503445874103 25.37194728996738 a46.40563287557939,46.40563287557939 0 0,0 -0.7959101678475689,0.0341798071980493 l -0.872114416139012 -25.39065966559126" fill="#caff1d" stroke="none" /><path d="M 100.72087961077811 120.9876233191556 l 0.2056137988167741 5.986221408217045 a26.98975156266601,26.98975156266601 0 0,0 -0.46317843427253175,0.011929833459844183 l -0.10282205047349853 -5.988868959026934" fill="#ff3405" stroke="none" /><line stroke="#e1ed5e" stroke-width="0.3" x1="101.45913802915013" x2="101.54496967792366" y1="184.9874750549273" y2="189.98673829345242" /><path d="M 101.47630435890484 185.9873277026323 a86.0,86.0 0 0,1 -42.54439059252881,-10.42667462771756" fill="none" id="id91" stroke="none" /><text fill="#e1ed5e" style="font-size:6.75px; font-family:Arial;" text-anchor="middle"><textPath startOffset="22.145653131862474" xlink:href="#id91">July</textPath></text><path d="M 100.36049292484886 120.99690560180557 l 0.10282205047349853 5.988868959026934 a26.98975156266601,26.98975156266601 0 0,0 -0.46331497532235005,0.003977001833512406 l -7.335330078906788e-16 -5.989751562666012" fill="#ff3405" stroke="none" /><path d="M 99.63950707515114 120.99690560180557 l -0.11513606849427514 6.706098774479262 a27.70708707915296,27.70708707915296 0 0,0 -0.47548882329567843,-0.01224690541312126 l 0.2302382058606975 -6.703134151716093" fill="#ff3f05" stroke="none" /><path d="M 99.27912038922189 120.98762331915562 l -0.2302382058606975 6.703134151716093 a27.70708707915296,27.70708707915296 0 0,0 -0.4752085245095355,-0.020407498738876532 l 0.3452724909710717 -6.698194084551388" fill="#ff3f05" stroke="none" /><path d="M 98.55909050195518 120.95050786540614 l -1.231315042893163 17.903050487160908 a38.94534350411514,38.94534350411514 0 0,0 -0.6665792364051348,-0.05159744863948405 l 1.538463274073534 -17.879275271526367" fill="#ffd814" stroke="none" /><path d="M 98.19965949673042 120.92268563240118 l -0.3243994845065112 3.7700137397988627 a24.783944849468647,24.783944849468647 0 0,0 -0.42356993464361903,-0.0401125131947516 l 0.3890689825351455 -3.7638894710989277" fill="#ff1402" stroke="none" /><path d="M 97.84075906011543 120.88869738790638 l -0.3890689825351455 3.7638894710989277 a24.783944849468647,24.783944849468647 0 0,0 -0.4228189360128761,-0.047377743696147404 l 0.4536238201488209 -3.7566559668958095" fill="#ff1402" stroke="none" /><path d="M 96.41257539226777 120.69131181640829 l -1.331579744014233 7.680198109927268 a28.79477694500615,28.79477694500615 0 0,0 -0.4863098684542134,-0.08862185786641671 l 1.4632243460195036 -7.6562080781294855" fill="#ff4e07" stroke="none" /><path d="M 96.05791012581884 120.62667999033965 l -2.475886842750186 12.954886171464654 a34.18935522964294,34.18935522964294 0 0,0 -0.5755265348147285,-0.11512142552360974 l 2.6979098630958727 -12.910475349278183" fill="#ff990e" stroke="none" /><path d="M 95.70440661134978 120.55596938700252 l -2.3988495412052666 11.479363447976437 a32.72732980230701,32.72732980230701 0 0,0 -0.5489426457177684,-0.11963949467142855 l 2.5955546035421713 -11.43649249517129" fill="#ff850c" stroke="none" /><path d="M 95.00130118170881 120.39639698878247 l -1.9183347275533158 7.827460321748477 a29.059103127239645,29.059103127239645 0 0,0 -0.4834808007750179,-0.12289892892004632 l 2.0524208215537123 -7.7933761609931675" fill="#ff5207" stroke="none" /><path d="M 94.6519064749342 120.30758222061772 l -2.0445258003801854 7.763397479643734 a29.028102277335467,29.028102277335467 0 0,0 -0.48078637464891466,-0.13104046437260186 l 2.177493575963795 -7.727156521126988" fill="#ff5107" stroke="none" /><path d="M 93.95794788825049 120.11202640906438 l -3.101937205897282 10.325340108031817 a31.78121805622446,31.78121805622446 0 0,0 -0.5211504826861936,-0.16145375170947443 l 3.2787283214551093 -10.270569768515694" fill="#ff780b" stroke="none" /><path d="M 93.61358852112213 120.00534299687104 l -3.1258071457343286 9.79154636360403 a31.278377814759054,31.278377814759054 0 0,0 -0.5101015811818207,-0.1676805216392869 l 3.2934314645638927 -9.736444920562722" fill="#ff710a" stroke="none" /><path d="M 92.59220618246901 119.65005319985036 l -3.4809730991437533 9.233694709961682 a30.868043965940608,30.868043965940608 0 0,0 -0.4942234563770718,-0.19117625005571987 l 3.6389688180143533 -9.172578571767922" fill="#ff6b09" stroke="none" /><path d="M 92.25597844496254 119.51999308798841 l -4.088443850161598 10.305549271601562 a32.08691656437134,32.08691656437134 0 0,0 -0.5102515543250645,-0.2075148650723168 l 4.2647498656771035 -10.233847149949954" fill="#ff7c0b" stroke="none" /><path d="M 91.59046798132341 119.24265499422711 l -2.6795331684374943 6.131296270864921 a27.691239942034567,27.691239942034567 0 0,0 -0.43394361539201315,-0.1940974596248902 l 2.7843901866851426 -6.084395060330175" fill="#ff3e05" stroke="none" /><path d="M 90.93487009805054 118.94263497670748 l -10.851991250066401 22.676487953716403 a46.13938782083929,46.13938782083929 0 0,0 -0.711512754814348,-0.3480365427385285 l 11.239664254142818 -22.486857660880652" fill="#cdff1d" stroke="none" /><path d="M 90.28995756902619 118.62028667847754 l -5.531085994701707 10.60658669586566 a32.9621316502411,32.9621316502411 0 0,0 -0.4994723307915462,-0.2659408832555865 l 5.712347141279815 -10.5100753448875" fill="#ff880c" stroke="none" /><path d="M 89.97174638481275 118.45085714620012 l -6.783380472710193 12.480656041721195 a35.20496483168113,35.20496483168113 0 0,0 -0.528503322330833,-0.2931518839235534 l 6.996627983197129 -12.362371242364494" fill="#ffa70f" stroke="none" /><line stroke="#e1ed5e" stroke-width="0.3" x1="58.13341422392154" x2="55.67067388415222" y1="173.97424548756322" y2="178.32567169271397" /><path d="M 57.64086615596768 174.84453072859336 a86.0,86.0 0 0,1 -31.369924170532247,-30.572349798747897" fill="none" id="id92" stroke="none" /><text fill="#e1ed5e" style="font-size:6.75px; font-family:Arial;" text-anchor="middle"><textPath startOffset="22.145653131862474" xlink:href="#id92">August</textPath></text><path d="M 89.65649057296885 118.27599006163327 l -3.958722291321717 6.994682971321846 a29.037230371782762,29.037230371782762 0 0,0 -0.4316972397401592,-0.24924051757240123 l 4.078211998922276 -6.925695556473273" fill="#ff5207" stroke="none" /><path d="M 89.03521579738668 117.91015095944536 l -1.2768462998715917 2.085632472115503 a23.44544459807177,23.44544459807177 0 0,0 -0.3414503797411337,-0.21309029051936232 l 1.312460808402438 -2.063406384754593" fill="#ff0000" stroke="none" /><path d="M 88.4268655584334 117.5232005979908 l -4.504633621318099 6.820589440601506 a29.17387083208159,29.17387083208159 0 0,0 -0.4155244312597191,-0.2795833816177079 l 4.621054340674824 -6.7422563849266774" fill="#ff5407" stroke="none" /><path d="M 88.1277618465304 117.32195027204791 l -5.761786010852655 8.406617982895119 a31.19163401742787,31.19163401742787 0 0,0 -0.43906667285062106,-0.30650263728596816 l 5.905247774877041 -8.306470529804022" fill="#ff700a" stroke="none" /><path d="M 87.54013794807813 116.9041958592261 l -6.983774818063265 9.474831813492125 a32.7705373115834,32.7705373115834 0 0,0 -0.4499660231230136,-0.3376628924076815 l 7.145393830097045 -9.353549893820428" fill="#ff860c" stroke="none" /><path d="M 86.96720088162412 116.46651593811092 l -2.55380132291455 3.2266445453953754 a25.114989212531405,25.114989212531405 0 0,0 -0.3357625654263858,-0.2704665553225745 l 2.6088146586961978 -3.1823296962793903" fill="#ff1902" stroke="none" /><path d="M 86.68645165197938 116.24036423190432 l -8.347972698553715 10.18316933086152 a34.167596052309506,34.167596052309506 0 0,0 -0.4504032155841936,-0.3757423815857982 l 8.521550248299802 -10.038364765363854" fill="#ff990e" stroke="none" /><path d="M 86.40962598614128 116.0094264158162 l -5.787997555780815 6.8182465669969625 a29.943679441599556,29.943679441599556 0 0,0 -0.38901191443196514,-0.3360192264765906 l 5.904188949975643 -6.71788320805565" fill="#ff5e08" stroke="none" /><path d="M 86.13680546590413 115.77377054828092 l -9.170594718274735 10.434453366543398 a34.8916386558756,34.8916386558756 0 0,0 -0.4465049322988269,-0.39926746374765154 l 9.348364677396933 -10.275490372912364" fill="#ffa20f" stroke="none" /><path d="M 85.60350026404147 115.28858382429668 l -8.152741238842173 8.65792867112779 a32.89230501550706,32.89230501550706 0 0,0 -0.40775104756413355,-0.39061627986458625 l 8.300164772271621 -8.51670026095762" fill="#ff870c" stroke="none" /><path d="M 85.34317274990678 115.03919595460226 l -7.329989743094582 7.521215213266778 a31.502258229454625,31.502258229454625 0 0,0 -0.38403964956632214,-0.38075727912258583 l 7.4580213127908666 -7.394277923915533" fill="#ff740a" stroke="none" /><path d="M 85.08716467003676 114.78537596483092 l -8.984763487949968 8.907971099064856 a33.652190483713625,33.652190483713625 0 0,0 -0.4032064426614035,-0.41372533071947104 l 9.13635673176218 -8.752423076277648" fill="#ff920d" stroke="none" /><path d="M 84.83555147118756 114.52719865689866 l -13.79702613487028 13.217238935848037 a40.106368970937176,40.106368970937176 0 0,0 -0.47200262481849914,-0.5012504308114177 l 14.021884593425032 -12.97844704509213" fill="#ffe615" stroke="none" /><path d="M 84.58840730492382 114.26474011684316 l -7.964445084154084 7.37177146763191 a31.852437517419673,31.852437517419673 0 0,0 -0.3679749797864942,-0.4044689625139443 l 8.089817764782458 -7.233964929560291" fill="#ff790b" stroke="none" /><path d="M 84.3458050057657 113.99807769240083 l -10.399820524613109 9.299583641584736 a34.95129108186746,34.95129108186746 0 0,0 -0.3960962179927224,-0.4506847856958623 l 10.557927806564424 -9.119686578077573" fill="#ffa30f" stroke="none" /><path d="M 83.8745106332314 113.45245675266167 l -14.264997110388963 11.90036794168971 a39.57710687128116,39.57710687128116 0 0,0 -0.4307368409887612,-0.5254289091756188 l 14.467180770616356 -11.653736750815597" fill="#ffe015" stroke="none" /><path d="M 83.4222238831116 112.89097897827486 l -20.14486447908592 15.664768464060717 a46.518631152813995,46.518631152813995 0 0,0 -0.484786211618011,-0.6346007128544264 l 20.410802668058228 -15.31664683796542" fill="#c9ff1d" stroke="none" /><path d="M 82.98947788004972 112.3143062007846 l -8.51508953585239 6.164268158976984 a31.512133548398268,31.512133548398268 0 0,0 -0.31344804339847115,-0.44090392721385036 l 8.619652677780822 -6.017187005053629" fill="#ff740a" stroke="none" /><path d="M 82.37810715431573 111.42229804090323 l -9.109985689478371 5.904982660195298 a31.85636492937244,31.85636492937244 0 0,0 -0.29350681061633443,-0.4614414564743348 l 9.210010191720597 -5.747727529042291" fill="#ff790b" stroke="none" /><path d="M 82.18462484594161 111.11811171558189 l -10.87801187232959 6.788683942613215 a33.822533757695396,33.822533757695396 0 0,0 -0.3031659226898474,-0.4951987509102642 l 10.992945759474843 -6.600948075578393" fill="#ff940d" stroke="none" /><line stroke="#e1ed5e" stroke-width="0.3" x1="26.387840678322732" x2="22.057713659400548" y1="142.50000000000003" y2="145.00000000000006" /><path d="M 25.521815274538298 143.00000000000003 a86.0,86.0 0 0,1 -11.493303480769221,-40.785679425670985" fill="none" id="id93" stroke="none" /><text fill="#e1ed5e" style="font-size:6.75px; font-family:Arial;" text-anchor="middle"><textPath startOffset="21.40746469413373" xlink:href="#id93">September</textPath></text><path d="M 81.81346652052679 110.50000000000001 l -21.852579589885234 12.616592708707977 a46.23318541741593,46.23318541741593 0 0,0 -0.39092719804348713,-0.6907309010222032 l 22.0659401529501 -12.239605037586653" fill="#ccff1d" stroke="none" /><path d="M 81.4637452351635 109.86951160357371 l -6.745217171620931 3.5914482180200378 a28.64175732374754,28.64175732374754 0 0,0 -0.22734999220220797,-0.4359735872678581 l 6.805875232798089 -3.475128387647677" fill="#ff4c07" stroke="none" /><path d="M 81.29705330413844 109.54985784667822 l -9.422264335690546 4.811075306095008 a31.57948537560042,31.57948537560042 0 0,0 -0.2423801996937123,-0.4849227634463706 l 9.503464448595995 -4.648620686484884" fill="#ff750a" stroke="none" /><path d="M 81.1358732173502 109.22738970284198 l -5.735891256103964 2.805711842536738 a27.38533221102871,27.38533221102871 0 0,0 -0.20293931998545772,-0.4240651267533486 l 5.783209834049334 -2.7068342137182846" fill="#ff3a05" stroke="none" /><path d="M 80.9802524753101 108.90220220490708 l -12.724279808159789 5.955605436770987 a35.049075868356574,35.049075868356574 0 0,0 -0.25037647012986913,-0.5471177729924075 l 12.824640743144714 -5.73629868156389" fill="#ffa50f" stroke="none" /><path d="M 80.68587082218212 108.24405325689762 l -13.900112496737068 5.933131473076091 a36.11341048535214,36.11341048535214 0 0,0 -0.2384760333315922,-0.5722556658441691 l 13.999914374605144 -5.69364329779064" fill="#ffb310" stroke="none" /><path d="M 80.41425534168474 107.57618678355246 l -10.696937302872433 4.137805145136746 a32.46934606159845,32.46934606159845 0 0,0 -0.19662402550694819,-0.5215685879966891 l 10.766392012193817 -3.953568276945912" fill="#ff820b" stroke="none" /><path d="M 80.28708602549918 107.23885506374661 l -11.352257718549565 4.168706279405347 a33.09346382771792,33.09346382771792 0 0,0 -0.19124843537089342,-0.53495591151346 l 11.422146323964402 -3.973215411510966" fill="#ff8a0c" stroke="none" /><path d="M 80.16572619554312 106.89939002012753 l -14.586658279723151 5.073996938547772 a36.443964669145295,36.443964669145295 0 0,0 -0.20046710547561233,-0.5926453766683777 l 14.671610806771131 -4.822849887405233" fill="#ffb711" stroke="none" /><path d="M 79.94057633289273 106.21446072829308 l -9.760658465511252 3.0238769429684407 a31.218330854233123,31.218330854233123 0 0,0 -0.15419429331168052,-0.5132626534585802 l 9.811129078826562 -2.855876685919137" fill="#ff700a" stroke="none" /><path d="M 79.73907114497094 105.5222062557868 l -28.002324461300205 7.632158052733165 a50.0237835538,50.0237835538 0 0,0 -0.2187004542945741,-0.8304412472328498 l 28.12921439639951 -7.1503363011275125" fill="#a0ff22" stroke="none" /><path d="M 79.64726062577567 105.17358676015961 l -10.98617900715525 2.7926437425000423 a32.33556298777363,32.33556298777363 0 0,0 -0.1321330781651926,-0.5391480494374692 l 11.032499611836737 -2.6036398684544735" fill="#ff800b" stroke="none" /><path d="M 79.56144815229197 104.8234425847677 l -13.168261093015364 3.1076737626356197 a34.52999395523871,34.52999395523871 0 0,0 -0.1311961175289278,-0.5780743011407092 l 13.219668072101959 -2.8811651275558843" fill="#ff9e0e" stroke="none" /><path d="M 79.48165901384964 104.47187691870673 l -25.3477290072197 5.524419560310945 a46.942755776936906,46.942755776936906 0 0,0 -0.1648412510097146,-0.7888250592860885 l 25.438827969053783 -5.0884780497394475" fill="#c4ff1e" stroke="none" /><path d="M 79.2786578344484 103.40968896794605 l -8.957753054261715 1.4739948562539509 a30.07821571771668,30.07821571771668 0 0,0 -0.07946164415058239,-0.5102007573840903 l 8.981736190550565 -1.3200059169384106" fill="#ff6008" stroke="none" /><path d="M 79.17382384314188 102.69636545807758 l -13.542128862670744 1.7532997041377898 a34.65515704727374,34.65515704727374 0 0,0 -0.07132017085366507,-0.5906333254491377 l 13.57023111978407 -1.5205727017652528" fill="#ff9f0e" stroke="none" /><path d="M 79.13060592940153 102.33845913500099 l -10.521547502847445 1.1789613435420074 a31.587393999669686,31.587393999669686 0 0,0 -0.05575567253841582,-0.5393855543404199 l 10.540235567867526 -0.9981712669186562" fill="#ff750a" stroke="none" /><path d="M 79.0935383218832 101.97986365728391 l -20.37601928343842 1.929630211008992 a41.46718433469277,41.46718433469277 0 0,0 -0.06102859260525462,-0.7092447541721574 l 20.406141498741416 -1.5795644094611727" fill="#fff817" stroke="none" /><path d="M 79.03789590574601 101.26102812881392 l -13.305241827441334 0.8004103085087813 a34.329295433317604,34.329295433317604 0 0,0 -0.030337959919910146,-0.5885483175951296 l 13.317021376817817 -0.5718901975369208" fill="#ff9b0e" stroke="none" /><path d="M 79.01933749520258 100.90099992219065 l -20.817509229342328 0.8939934185372694 a41.83669634913704,41.83669634913704 0 0,0 -0.024654391063732947,-0.7177856955203444 l 20.829788307402907 -0.5365014584528052" fill="#fffc17" stroke="none" /><line stroke="#e1ed5e" stroke-width="0.3" x1="15.003131293944662" x2="10.003315487706104" y1="100.72959589197737" y2="100.7725132973878" /><path d="M 14.003168132696942 100.73817937305945 a86.0,86.0 0 0,1 10.791469493833604,-42.45332614584628" fill="none" id="id94" stroke="none" /><text fill="#e1ed5e" style="font-size:6.75px; font-family:Arial;" text-anchor="middle"><textPath startOffset="22.145653131862435" xlink:href="#id94">October</textPath></text><path d="M 79.00077361379809 100.18025310272382 l -24.990938629572934 0.21451715149473574 a45.9918592984869,45.9918592984869 0 0,0 0.0,-0.7895405084370973 l 24.990938629572934 0.21451715149472655" fill="#cfff1d" stroke="none" /><path d="M 79.00077361379809 99.81974689727619 l -14.919506342535191 -0.128066018237541 a35.92005597878155,35.92005597878155 0 0,0 0.010585415400211184,-0.6165473788626709 l 14.915109495536313 0.38416031306926424" fill="#ffb010" stroke="none" /><path d="M 79.00696218219943 99.45929381324524 l -14.581720750172297 -0.37557340159998276 a35.58655666756191,35.58655666756191 0 0,0 0.020971179879304604,-0.6105530206217068 l 14.573124883296142 0.625832686785828" fill="#ffac0f" stroke="none" /><path d="M 79.03789590574601 98.7389718711861 l -62.886312282761985 -3.7830843864417325 a84.0,84.0 0 0,0 0.09894415533974499,-1.4386263033827 l 62.81210416625718 4.862054113978758" fill="#4dd2ff" stroke="none" /><path d="M 79.13060592940154 97.66154086499901 l -13.229447563333434 -1.482387193458489 a34.312240781413124,34.312240781413124 0 0,0 0.07061445058707634,-0.5847889492663472 l 13.20205102648669 1.7092698196482725" fill="#ff9b0e" stroke="none" /><path d="M 79.17382384314186 97.30363454192245 l -22.64575139500667 -2.931945901821249 a43.834762162449884,43.834762162449884 0 0,0 0.10302313705786645,-0.745424098832389 l 22.592083741393594 3.3202583088537048" fill="#e9ff1a" stroke="none" /><path d="M 79.2786578344484 96.59031103205396 l -18.35488344283216 -3.020289085665712 a39.60171745729264,39.60171745729264 0 0,0 0.1161370951061113,-0.6698479023400256 l 18.300331530233816 3.33493002092633" fill="#ffe015" stroke="none" /><path d="M 79.407916724674 95.88100663000787 l -26.898673421622085 -5.380488025609487 a48.43151988564989,48.43151988564989 0 0,0 0.1700691021249059,-0.8138422193756862 l 26.802346608672813 5.841446696270582" fill="#b3ff20" stroke="none" /><path d="M 79.56144815229197 95.17655741523228 l -7.331708444565431 -1.730263229710361 a28.53311088197962,28.53311088197962 0 0,0 0.1165950867127333,-0.47574774195885233 l 7.300925831336399 1.855866796277331" fill="#ff4a06" stroke="none" /><path d="M 79.64726062577567 94.8264132398404 l -21.85711853643263 -5.555994060363994 a43.55222163589359,43.55222163589359 0 0,0 0.19040724192852632,-0.7230073114357105 l 21.758521813699378 5.930381876172489" fill="#edff1a" stroke="none" /><path d="M 79.73907114497095 94.47779374421319 l -25.265028922977255 -6.886095981550677 a47.18663789695053,47.18663789695053 0 0,0 0.21971336226164265,-0.7796852118047439 l 25.14309706864103 7.318789117258435" fill="#c1ff1e" stroke="none" /><path d="M 79.94057633289273 93.78553927170692 l -3.332130783506674 -1.0323026343769746 a24.488372727696174,24.488372727696174 0 0,0 0.12784712876921114,-0.40047930996181275 l 3.3139189389602057 1.0893509780301789" fill="#ff1001" stroke="none" /><path d="M 80.28708602549916 92.7611449362534 l -12.469255360215394 -4.578883285454518 a34.28339193805841,34.28339193805841 0 0,0 0.20760930996593174,-0.550708360154449 l 12.388815366435027 4.792259925803112" fill="#ff9a0e" stroke="none" /><path d="M 80.41425534168474 92.42381321644754 l -9.285358917438623 -3.5917763014934874 a30.95583985536264,30.95583985536264 0 0,0 0.19596716037657846,-0.4939652593729168 l 9.222333082095913 3.750642578079987" fill="#ff6d0a" stroke="none" /><path d="M 80.68587082218212 91.75594674310238 l -11.941221322512591 -5.096997313669069 a33.98353373657492,33.98353373657492 0 0,0 0.23362242099497174,-0.5345738188686744 l 11.851965019500643 5.30123320231361" fill="#ff960d" stroke="none" /><path d="M 81.46374523516351 90.13048839642627 l -5.4409203454055985 -2.8969836228712738 a27.164099959948164,27.164099959948164 0 0,0 0.22268695864850213,-0.40971892215837424 l 5.390388037141746 2.989957378504268" fill="#ff3705" stroke="none" /><path d="M 81.63589988554816 89.8137432299009 l -5.54137824440692 -3.073709101234378 a27.33676261876657,27.33676261876657 0 0,0 0.23114747378209566,-0.4084154380498031 l 5.487797405603456 3.168381309383286" fill="#ff3905" stroke="none" /><line stroke="#e1ed5e" stroke-width="0.3" x1="26.387840678322718" x2="22.05771365940052" y1="57.49999999999999" y2="54.99999999999999" /><path d="M 25.521815274538284 56.99999999999999 a86.0,86.0 0 0,1 29.574782752854787,-30.34633250058573" fill="none" id="id95" stroke="none" /><text fill="#e1ed5e" style="font-size:6.75px; font-family:Arial;" text-anchor="middle"><textPath startOffset="21.40746469413373" xlink:href="#id95">November</textPath></text><path d="M 82.18462484594161 88.88188828441811 l -43.35199312510637 -27.05485000961496 a72.10146981214956,72.10146981214956 0 0,0 0.664302800781948,-1.04439434059164 l 42.88117263269853 27.79505802488527" fill="#3effb4" stroke="none" /><path d="M 82.78059297857968 87.97951657250589 l -10.097188383105658 -7.04862167857604 a33.31406841022154,33.31406841022154 0 0,0 0.33137170940166133,-0.46611580808952635 l 9.974701575174025 7.220914713375087" fill="#ff8d0d" stroke="none" /><path d="M 82.98947788004972 87.6856937992154 l -10.217865334854798 -7.396946523129541 a33.61426136827938,33.61426136827938 0 0,0 0.34238202951698193,-0.4645069794124791 l 10.089381285753998 7.571259811810884" fill="#ff910d" stroke="none" /><path d="M 83.64595745247003 86.82634096563983 l -10.283316326337625 -8.283511714729002 a34.20466436512396,34.20466436512396 0 0,0 0.37226594464400814,-0.45410392286978235 l 10.139603562454987 8.458817919297276" fill="#ff990e" stroke="none" /><path d="M 84.58840730492382 85.73525988315684 l -4.829210750596529 -4.4698453748218565 a27.580333893389714,27.580333893389714 0 0,0 0.32458660120747856,-0.3446997222810467 l 4.751768315652778 4.5520865570474145" fill="#ff3d05" stroke="none" /><path d="M 85.08716467003674 85.21462403516908 l -7.6924240549560565 -7.62667723587844 a31.832340167366098,31.832340167366098 0 0,0 0.38806363257222937,-0.38474686931801194 l 7.5603685022538505 7.757604115425125" fill="#ff790b" stroke="none" /><path d="M 85.34317274990677 84.96080404539775 l -9.26239599404096 -9.5040342624369 a34.27097007803124,34.27097007803124 0 0,0 0.42484173559040683,-0.40698877238675313 l 9.097881772585252 9.661635165129221" fill="#ff9a0e" stroke="none" /><line stroke="#e1ed5e" stroke-width="0.3" x1="56.869717070023135" x2="54.33264160355391" y1="26.7553504044142" y2="22.446841604673864" /><path d="M 56.362301976729285 25.89364864446614 a86.0,86.0 0 0,1 42.16139366436587,-11.88097634709845" fill="none" id="id96" stroke="none" /><text fill="#e1ed5e" style="font-size:6.75px; font-family:Arial;" text-anchor="middle"><textPath startOffset="22.145653131862474" xlink:href="#id96">December</textPath></text><path d="M 89.34428304082924 81.90426304109057 l -3.807985114879431 -6.46679123012885 a28.504674506546884,28.504674506546884 0 0,0 0.423779718196742,-0.2446693343779914 l 3.6964129288222893 6.531207461783016" fill="#ff4a06" stroke="none" /><path d="M 89.65649057296885 81.72400993836675 l -4.259202231282372 -7.525602233800562 a29.647282383983118,29.647282383983118 0 0,0 0.4450703846156131,-0.2468730398008274 l 4.129387658510657 7.597608189034536" fill="#ff5a08" stroke="none" /><path d="M 89.97174638481275 81.54914285379989 l -5.0451415102678885 -9.282492132761929 a31.56494737579962,31.56494737579962 0 0,0 0.4783009182899073,-0.2546682985830118 l 4.885051776191419 9.367730899067517" fill="#ff750a" stroke="none" /><path d="M 90.28995756902619 81.37971332152246 l -3.5791493636536993 -6.86349083333908 a28.740659958083178,28.740659958083178 0 0,0 0.4394211210727125,-0.2243715554191771 l 3.4608010208674047 6.923920340431091" fill="#ff4d07" stroke="none" /><path d="M 90.93487009805054 81.0573650232925 l -4.349313540683921 -9.08839252074141 a31.075485441716687,31.075485441716687 0 0,0 0.4831665104115092,-0.22614632337989887 l 4.192658316400889 9.161715075691852" fill="#ff6e0a" stroke="none" /><path d="M 91.26138138417902 80.90454125486306 l -4.927600174415406 -10.767695671341409 a32.84164319465518,32.84164319465518 0 0,0 0.5146545049313808,-0.2301984139147827 l 4.742032266628406 10.850697836166038" fill="#ff870c" stroke="none" /><path d="M 91.5904679813234 80.7573450057729 l -4.739633647221256 -10.845209325555489 a32.83565344309251,32.83565344309251 0 0,0 0.5184357602661306,-0.22128939796171754 l 4.552762811784694 10.924973373176611" fill="#ff870c" stroke="none" /><path d="M 92.592206182469 80.34994680014964 l -2.607897339945617 -6.917757531048506 a28.393003300017778,28.393003300017778 0 0,0 0.45754763494505657,-0.16801782924694128 l 2.4887605533464336 6.9615062093041695" fill="#ff4806" stroke="none" /><path d="M 92.93061703081487 80.22567764915836 l -4.135459704117917 -11.567616808227616 a33.28461580947378,33.28461580947378 0 0,0 0.5396771220393056,-0.1877277175155478 l 3.936276810033607 11.63690295831175" fill="#ff8d0d" stroke="none" /><path d="M 93.61358852112211 79.99465700312896 l -4.534784224040836 -14.20514699354704 a35.91142075950136,35.91142075950136 0 0,0 0.588877815496333,-0.18243585253976172 l 4.290265775672887 14.280899433893442" fill="#ffb010" stroke="none" /><path d="M 93.95794788825049 79.88797359093562 l -1.7217541577276727 -5.731159620883949 a26.98419819020921,26.98419819020921 0 0,0 0.4447766679738482,-0.1294680058025757 l 1.6231174773722001 5.759871320989045" fill="#ff3404" stroke="none" /><path d="M 94.6519064749342 79.69241777938228 l -3.8845650718268314 -14.750326301837156 a36.253261022087244,36.253261022087244 0 0,0 0.6031760716398096,-0.1533249987091607 l 3.6307837069616435 14.81483653238158" fill="#ffb510" stroke="none" /><path d="M 95.00130118170881 79.60360301121753 l -1.423170489102122 -5.807021253656907 a26.978871973999293,26.978871973999293 0 0,0 0.450762795430664,-0.10637879235817767 l 1.323275539931552 5.830596189661317" fill="#ff3404" stroke="none" /><path d="M 95.35216902796891 79.52079915486377 l -2.327065333190373 -10.253479230406208 a31.514231754783985,31.514231754783985 0 0,0 0.5285950874004834,-0.11520483904052242 l 2.150707829170771 10.291915527580445" fill="#ff740a" stroke="none" /><path d="M 96.05791012581881 79.37332000966035 l -3.808233373258474 -19.926286215138646 a41.286929874991536,41.286929874991536 0 0,0 0.6972876183320695,-0.12706903193278743 l 3.465611021375366 19.988723421002796" fill="#fff517" stroke="none" /><path d="M 97.12497278360702 79.19773525538626 l -2.140039690408975 -15.484261140219989 a36.631446284175134,36.631446284175134 0 0,0 0.6236454506099368,-0.08074338939835475 l 1.8739164179082444 15.518716125818738" fill="#ffba11" stroke="none" /><path d="M 97.48249496171623 79.15144685158666 l -1.4878459990708734 -12.321499229026244 a33.411004349682806,33.411004349682806 0 0,0 0.5699982547595659,-0.06386949334839548 l 1.2761118427105083 12.34522448288161" fill="#ff8e0d" stroke="none" /><path d="M 97.84075906011542 79.11130261209362 l -1.6793772332861199 -16.246451323828833 a37.333018352687276,37.333018352687276 0 0,0 0.6380398374730805,-0.06042303597621901 l 1.4002378324280238 16.272886115310236" fill="#ffc312" stroke="none" /><path d="M 98.5590905019552 79.04949213459386 l -1.8289790401502966 -26.59295383806272 a47.655775324732986,47.655775324732986 0 0,0 0.8166285668624086,-0.04912634671481984 l 1.372206121155404 26.620432162602235" fill="#bcff1f" stroke="none" /><path d="M 99.63950707515114 79.00309439819443 l -0.25177744067685937 -14.664773675579596 a35.666934882094694,35.666934882094694 0 0,0 0.6122703655257079,-0.0052556047095324455 l 3.5923629713319854e-15 14.666934882094694" fill="#ffad10" stroke="none" /></svg>