<?xml version="1.0" encoding="utf-8" ?>
<svg baseProfile="full" height="200mm" version="1.1" viewBox="0,0,200,200" width="200mm" xmlns="http://www.w3.org/2000/svg" xmlns:ev="http://www.w3.org/2001/xml-events" xmlns:xlink="http://www.w3.org/1999/xlink"><defs /><rect fill="#1a1a1a" height="200" width="200" x="0" y="0" /><text alignment-baseline="middle" fill="#e1ed5e" style="dominant-baseline: central; font-size:9.0px; font-family:Arial;" text-anchor="middle" x="100.0" y="100.0">2025</text><line stroke="#e1ed5e" stroke-width="0.3" x1="100.0" x2="100.0" y1="15.0" y2="10.0" /><path d="M 100.0 14.0 a86.0,86.0 0 0,1 42.46469731375804,11.215312516191453" fill="none" id="id97" stroke="none" /><text fill="#e1ed5e" style="font-size:6.75px; font-family:Arial;" text-anchor="middle"><textPath startOffset="22.20632615414155" xlink:href="#id97">January</textPath></text><path d="M 100.0 79.0 l 0.0 -30.47155860857734 a51.47155860857734,51.47155860857734 0 0,0 0.8859982702253605,0.007626066831466401 l -0.5245177909528321 30.46704391835443" fill="#baff1f" stroke="none" /><path d="M 100.36148047927253 79.00311137660856 l 0.6793214788500851 -39.45894245685981 a60.464789591297716,60.464789591297716 0 0,0 1.0404935460400757,0.026872878539241463 l -1.3584416600850286 39.44140278617821" fill="#4cff2c" stroke="none" /><path d="M 101.44485096284872 79.0497635885617 l 3.5218683993690396 -51.066841822412044 a72.18814209109104,72.18814209109104 0 0,0 1.2389197438730728,0.09616401657619715 l -4.400378332604453 50.99865254364738" fill="#3cffa7" stroke="none" /><path d="M 102.16513564639614 79.11191278185805 l 3.4344928182548906 -33.13417598440148 a54.311700032930354,54.311700032930354 0 0,0 0.9290748114676445,0.10439238034380817 l -4.0043343332322605 33.07014765058707" fill="#95ff23" stroke="none" /><path d="M 102.88285421437855 79.19881850522331 l 5.69906361170613 -41.12148853941656 a62.51452933308579,62.51452933308579 0 0,0 1.0646254696863893,0.15689811980640592 l -6.4060580618211755 41.017295935449184" fill="#35ff2f" stroke="none" /><path d="M 103.59715602781102 79.31037775812273 l 3.747979771139208 -21.557109292880945 a42.88050075821124,42.88050075821124 0 0,0 0.7261197751986036,0.1326937476767452 l -4.118494667440713 21.48940006385346" fill="#ffcf13" stroke="none" /><path d="M 103.95276090670814 79.375362276772 l 11.858282720124386 -61.87391316968404 a84.0,84.0 0 0,0 1.4177343621314986,0.2843841756911667 l -12.921583491723009 61.66062503791566" fill="#4dd2ff" stroke="none" /><path d="M 104.66035177308747 79.52364482259891 l 6.39189570080157 -28.084302001049682 a49.80250595931001,49.80250595931001 0 0,0 0.8342543774472869,0.19744105746387183 l -6.874373765211381 27.97011503144494" fill="#cfff1d" stroke="none" /><path d="M 105.36241919743992 79.69619591428918 l 8.208446369595984 -31.079757251336787 a53.14544917409858,53.14544917409858 0 0,0 0.8824728716743889,0.24121317143446344 l -8.742217130494083 30.93385753907603" fill="#a4ff21" stroke="none" /><path d="M 105.71112130821622 79.79150937346287 l 5.457630275696467 -19.31152646168618 a41.067904287857374,41.067904287857374 0 0,0 0.6786173583564057,0.19810701581746162 l -5.7892378517763 19.214721116950017" fill="#ffb510" stroke="none" /><path d="M 106.40334571778207 80.00007090966166 l 2.6033341537920234 -8.131139683698155 a29.537726938249488,29.537726938249488 0 0,0 0.48289566903875875,0.1592031098089568 l -2.7429126450731993 8.085122849629963" fill="#ff0000" stroke="none" /><path d="M 107.08798089147638 80.2323363322302 l 9.912276952225923 -27.644340465000138 a50.367716869420974,50.367716869420974 0 0,0 0.8136009415519214,0.29965609303436713 l -10.386660219550421 27.469621104159447" fill="#c8ff1d" stroke="none" /><path d="M 107.4271985657038 80.35727306442388 l 10.066743173673027 -26.623535851609 a49.46316882159473,49.46316882159473 0 0,0 0.7938057431114764,0.30798429581510167 l -10.52353208178417 26.44630885190335" fill="#d4ff1c" stroke="none" /><path d="M 107.76421540070413 80.48803036053334 l 14.066266210111573 -35.3494261902448 a59.04525958740841,59.04525958740841 0 0,0 0.9411143242022146,0.38390416281548867 l -14.672664403902177 35.10206114124573" fill="#5cff2a" stroke="none" /><line stroke="#e1ed5e" stroke-width="0.3" x1="143.23703022742887" x2="145.7803849466894" y1="26.81831364943548" y2="22.513508569990506" /><path d="M 143.74570117128098 25.957352633546492 a86.0,86.0 0 0,1 28.547481713284135,27.462654790039103" fill="none" id="id98" stroke="none" /><text fill="#e1ed5e" style="font-size:6.75px; font-family:Arial;" text-anchor="middle"><textPath startOffset="19.985693538727396" xlink:href="#id98">February</textPath></text><line stroke="#e1ed5e" stroke-width="0.3" x1="172.23445277983987" x2="176.4835382374775" y1="55.19839476539836" y2="52.563006222186495" /><path d="M 173.08426987136738 54.67131705675599 a86.0,86.0 0 0,1 12.851231095245387,41.99856678651699" fill="none" id="id99" stroke="none" /><text fill="#e1ed5e" style="font-size:6.75px; font-family:Arial;" text-anchor="middle"><textPath startOffset="22.20632615414155" xlink:href="#id99">March</textPath></text><line stroke="#e1ed5e" stroke-width="0.3" x1="184.98032266829074" x2="189.97916517819016" y1="98.17113171792111" y2="98.06355123074" /><path d="M 185.9800911702706 98.14961562048488 a86.0,86.0 0 0,1 -9.607161424134198,41.387399972396054" fill="none" id="id100" stroke="none" /><text fill="#e1ed5e" style="font-size:6.75px; font-family:Arial;" text-anchor="middle"><textPath startOffset="21.466115282336823" xlink:href="#id100">April</textPath></text><line stroke="#e1ed5e" stroke-width="0.3" x1="174.80103733775053" x2="179.2010983576182" y1="140.37084112569926" y2="142.7455964860345" /><path d="M 175.68104954172406 140.8457921977663 a86.0,86.0 0 0,1 -30.038265399797805,32.042727171017184" fill="none" id="id101" stroke="none" /><text fill="#e1ed5e" style="font-size:6.75px; font-family:Arial;" text-anchor="middle"><textPath startOffset="22.206326154141568" xlink:href="#id101">May</textPath></text><line stroke="#e1ed5e" stroke-width="0.3" x1="143.8653032363475" x2="146.44561519142675" y1="172.8068346515853" y2="177.08958963109032" /><path d="M 144.38136562736335 173.6633856474863 a86.0,86.0 0 0,1 -40.68145358897372,12.25698825130547" fill="none" id="id102" stroke="none" /><text fill="#e1ed5e" style="font-size:6.75px; font-family:Arial;" text-anchor="middle"><textPath startOffset="21.466115282336833" xlink:href="#id102">June</textPath></text><line stroke="#e1ed5e" stroke-width="0.3" x1="102.19456741930631" x2="102.32365962044197" y1="184.97166512339345" y2="189.96999836594603" /><path d="M 102.22038585953345 185.97133177190398 a86.0,86.0 0 0,1 -42.740103519485714,-10.115201625700543" fill="none" id="id103" stroke="none" /><text fill="#e1ed5e" style="font-size:6.75px; font-family:Arial;" text-anchor="middle"><textPath startOffset="22.20632615414155" xlink:href="#id103">July</textPath></text><line stroke="#e1ed5e" stroke-width="0.3" x1="58.666819895761336" x2="56.23545636021788" y1="174.27360380694188" y2="178.64263932499728" /><path d="M 58.180547188652646 175.14741091055294 a86.0,86.0 0 0,1 -31.652253787137756,-30.449443065178592" fill="none" id="id104" stroke="none" /><text fill="#e1ed5e" style="font-size:6.75px; font-family:Arial;" text-anchor="middle"><textPath startOffset="22.20632615414155" xlink:href="#id104">August</textPath></text><line stroke="#e1ed5e" stroke-width="0.3" x1="26.63291911575756" x2="22.317208475507996" y1="142.92168965132927" y2="145.44649492493687" /><path d="M 25.769776987707644 143.4266507060508 a86.0,86.0 0 0,1 -11.730757126820373,-40.83630448921669" fill="none" id="id105" stroke="none" /><text fill="#e1ed5e" style="font-size:6.75px; font-family:Arial;" text-anchor="middle"><textPath startOffset="21.46611528233685" xlink:href="#id105">September</textPath></text><line stroke="#e1ed5e" stroke-width="0.3" x1="15.007084014347285" x2="10.007500721073583" y1="101.09737516637583" y2="101.16192664675087" /><path d="M 14.007167355692545 101.11028546245083 a86.0,86.0 0 0,1 10.666146001902534,-42.60595125391555" fill="none" id="id106" stroke="none" /><text fill="#e1ed5e" style="font-size:6.75px; font-family:Arial;" text-anchor="middle"><textPath startOffset="22.20632615414155" xlink:href="#id106">October</textPath></text><line stroke="#e1ed5e" stroke-width="0.3" x1="26.266209847984243" x2="21.928928074336255" y1="57.711370442889674" y2="55.22380399835377" /><path d="M 25.398753493254645 57.213857153982495 a86.0,86.0 0 0,1 29.58750427330803,-30.492523968695096" fill="none" id="id107" stroke="none" /><text fill="#e1ed5e" style="font-size:6.75px; font-family:Arial;" text-anchor="middle"><textPath startOffset="21.46611528233685" xlink:href="#id107">November</textPath></text><line stroke="#e1ed5e" stroke-width="0.3" x1="56.762969772571076" x2="54.21961505331055" y1="26.818313649435495" y2="22.513508569990535" /><path d="M 56.25429882871897 25.957352633546506 a86.0,86.0 0 0,1 42.265352541879196,-11.944610805530505" fill="none" id="id108" stroke="none" /><text fill="#e1ed5e" style="font-size:6.75px; font-family:Arial;" text-anchor="middle"><textPath startOffset="22.20632615414155" xlink:href="#id108">December</textPath></text></svg>