<?xml version="1.0" encoding="utf-8" ?>
<svg baseProfile="full" height="200mm" version="1.1" viewBox="0,0,200,200" width="200mm" xmlns="http://www.w3.org/2000/svg" xmlns:ev="http://www.w3.org/2001/xml-events" xmlns:xlink="http://www.w3.org/1999/xlink"><defs /><rect fill="#1a1a1a" height="200" width="200" x="0" y="0" /><rect fill="#1a1a1a" height="200" width="180" x="10" y="0" /><text alignment-baseline="middle" fill="#e1ed5e" style="dominant-baseline: central; font-size:9.0px; font-family:Arial;" text-anchor="middle" x="100.0" y="100.0">2022</text><line stroke="#e1ed5e" stroke-width="0.3" x1="100.0" x2="100.0" y1="15.0" y2="10.0" /><path d="M 100.0 14.0 a86.0,86.0 0 0,1 42.46469731375804,11.215312516191453" fill="none" id="id61" stroke="none" /><text fill="#e1ed5e" style="font-size:6.75px; font-family:Arial;" text-anchor="middle"><textPath startOffset="22.20632615414155" xlink:href="#id61">January</textPath></text><line stroke="#e1ed5e" stroke-width="0.3" x1="143.23703022742887" x2="145.7803849466894" y1="26.81831364943548" y2="22.513508569990506" /><path d="M 143.74570117128098 25.957352633546492 a86.0,86.0 0 0,1 28.547481713284135,27.462654790039103" fill="none" id="id62" stroke="none" /><text fill="#e1ed5e" style="font-size:6.75px; font-family:Arial;" text-anchor="middle"><textPath startOffset="19.985693538727396" xlink:href="#id62">February</textPath></text><path d="M 117.04232023915458 87.72973835380427 l 5.306349321015182 -3.820506459289449 a27.53862468123922,27.53862468123922 0 0,0 0.2736649256634259,0.387079629676697 l -5.371326866482491 3.728600329280959" fill="#ff3905" stroke="none" /><path d="M 117.2510076193507 88.02491185347247 l 5.371326866482491 -3.728600329280959 a27.53862468123922,27.53862468123922 0 0,0 0.2669614397253086,0.39173297148543584 l -5.434712771876534 3.6355893345251165" fill="#ff3905" stroke="none" /><line stroke="#e1ed5e" stroke-width="0.3" x1="172.23445277983987" x2="176.4835382374775" y1="55.19839476539836" y2="52.563006222186495" /><path d="M 173.08426987136738 54.67131705675599 a86.0,86.0 0 0,1 12.851231095245387,41.99856678651699" fill="none" id="id63" stroke="none" /><text fill="#e1ed5e" style="font-size:6.75px; font-family:Arial;" text-anchor="middle"><textPath startOffset="22.20632615414155" xlink:href="#id63">March</textPath></text><path d="M 119.196687751892 91.48605970444005 l 30.4813246452622 -13.518799780121684 a54.344701222606375,54.344701222606375 0 0,0 0.3718970684053506,0.8583897087011442 l -30.709512423510233 12.992110926833936" fill="#72ff27" stroke="none" /><path d="M 119.34039704204932 91.81776055985345 l 15.710098253026063 -6.646388140585278 a38.058184617216604,38.058184617216604 0 0,0 0.25005733874558184,0.6055336801426185 l -15.822177278657843 6.374979889989356" fill="#ffca12" stroke="none" /><path d="M 120.08093135843002 93.85539295169968 l 7.044799231980367 -2.155653153832181 a28.367227208287918,28.367227208287918 0 0,0 0.13885636534783175,0.46815463475604124 l -7.0808614944399 2.0340691323296096" fill="#ff4506" stroke="none" /><path d="M 120.18372546131832 94.20196356495316 l 7.0808614944399 -2.0340691323296096 a28.367227208287918,28.367227208287918 0 0,0 0.1307772798148612,0.4704754566663354 l -7.114825544821125 1.9118823722443226" fill="#ff4506" stroke="none" /><path d="M 120.45610955862082 95.25157060432595 l 12.76850177788112 -2.9639227834138997 a34.10799282566913,34.10799282566913 0 0,0 0.12783288016544728,0.573049736272823 l -12.817629045048605 2.743694877591113" fill="#ff950d" stroke="none" /><line stroke="#e1ed5e" stroke-width="0.3" x1="184.98032266829074" x2="189.97916517819016" y1="98.17113171792111" y2="98.06355123074" /><path d="M 185.9800911702706 98.14961562048488 a86.0,86.0 0 0,1 -9.607161424134198,41.387399972396054" fill="none" id="id64" stroke="none" /><text fill="#e1ed5e" style="font-size:6.75px; font-family:Arial;" text-anchor="middle"><textPath startOffset="21.466115282336823" xlink:href="#id64">April</textPath></text><path d="M 120.41448212921028 104.9243191809786 l 54.81079402645932 13.221292739185545 a77.38284955113735,77.38284955113735 0 0,0 -0.3234923170570185,1.2921910021754088 l -54.575090395107246 -14.16281158075835" fill="#45ffec" stroke="none" /><path d="M 118.97047184881838 109.00673069616215 l 3.1317128021342557 1.4868630601986585 a24.466754510321564,24.466754510321564 0 0,0 -0.18390464384102426,0.37889803706871344 l -3.105654901678517 -1.5405500532326473" fill="#ff0b01" stroke="none" /><path d="M 118.81262510543309 109.33194174019688 l 3.105654901678517 1.5405500532326473 a24.466754510321564,24.466754510321564 0 0,0 -0.1903995032423596,0.3756762831027284 l -3.078676728649888 -1.59378054803807" fill="#ff0b01" stroke="none" /><path d="M 118.64920377521936 109.65438752849418 l 21.834882115510464 11.303561059386054 a45.587244042826505,45.587244042826505 0 0,0 -0.3667547875226297,0.6937618428424486 l -21.63707481976294 -11.677737917314635" fill="#d6ff1c" stroke="none" /><line stroke="#e1ed5e" stroke-width="0.3" x1="174.80103733775053" x2="179.2010983576182" y1="140.37084112569926" y2="142.7455964860345" /><path d="M 175.68104954172406 140.8457921977663 a86.0,86.0 0 0,1 -30.038265399797805,32.042727171017184" fill="none" id="id65" stroke="none" /><text fill="#e1ed5e" style="font-size:6.75px; font-family:Arial;" text-anchor="middle"><textPath startOffset="22.206326154141568" xlink:href="#id65">May</textPath></text><path d="M 118.48025628344425 109.97397251340804 l 55.44076885033275 29.921917540224147 a84.0,84.0 0 0,0 -0.6976943621939617,1.2665179264087798 l -54.91749807868728 -30.871805985030733" fill="#4dd2ff" stroke="none" /><path d="M 115.56566222782051 114.09645910891815 l 41.182137570233536 37.29506074203971 a76.55978771203209,76.55978771203209 0 0,0 -0.8930283334832022,0.9692058807580913 l -40.534062828754614 -37.99841787759914" fill="#43ffe3" stroke="none" /><line stroke="#e1ed5e" stroke-width="0.3" x1="143.8653032363475" x2="146.44561519142675" y1="172.8068346515853" y2="177.08958963109032" /><path d="M 144.38136562736335 173.6633856474863 a86.0,86.0 0 0,1 -40.68145358897372,12.25698825130547" fill="none" id="id66" stroke="none" /><text fill="#e1ed5e" style="font-size:6.75px; font-family:Arial;" text-anchor="middle"><textPath startOffset="21.466115282336833" xlink:href="#id66">June</textPath></text><line stroke="#e1ed5e" stroke-width="0.3" x1="102.19456741930631" x2="102.32365962044197" y1="184.97166512339345" y2="189.96999836594603" /><path d="M 102.22038585953345 185.97133177190398 a86.0,86.0 0 0,1 -42.740103519485714,-10.115201625700543" fill="none" id="id67" stroke="none" /><text fill="#e1ed5e" style="font-size:6.75px; font-family:Arial;" text-anchor="middle"><textPath startOffset="22.20632615414155" xlink:href="#id67">July</textPath></text><path d="M 92.06813273071674 119.44442032107085 l -1.0230087224873445 2.507834651898193 a23.708464784254453,23.708464784254453 0 0,0 -0.3765452217642,-0.15739593323615786 l 1.0660254037490067 -2.489853675642062" fill="#ff0000" stroke="none" /><path d="M 91.7346041902142 119.30500536409082 l -1.0660254037490067 2.489853675642062 a23.708464784254453,23.708464784254453 0 0,0 -0.37378012027007695,-0.16385422034121516 l 1.108726198676827 -2.4711349020063946" fill="#ff0000" stroke="none" /><line stroke="#e1ed5e" stroke-width="0.3" x1="58.666819895761336" x2="56.23545636021788" y1="174.27360380694188" y2="178.64263932499728" /><path d="M 58.180547188652646 175.14741091055294 a86.0,86.0 0 0,1 -31.652253787137756,-30.449443065178592" fill="none" id="id68" stroke="none" /><text fill="#e1ed5e" style="font-size:6.75px; font-family:Arial;" text-anchor="middle"><textPath startOffset="22.20632615414155" xlink:href="#id68">August</textPath></text><path d="M 88.24862548938628 117.40417183066458 l -30.816128345819163 45.63969877753819 a76.0691916658527,76.0691916658527 0 0,0 -1.0788897633321923,-0.742070217061972 l 31.597174993774246 -45.10248777111112" fill="#43ffde" stroke="none" /><path d="M 87.36589467227662 116.77436683061367 l -10.893912272055484 14.463903531894303 a39.10750755822528,39.10750755822528 0 0,0 -0.534229543746603,-0.40962443342849814 l 11.141270544295574 -14.274239756638439" fill="#ffd714" stroke="none" /><path d="M 83.95833913139862 113.55231037782056 l -6.520286161473031 5.50846589616222 a29.53565042376262,29.53565042376262 0 0,0 -0.32475713469490264,-0.3911908894853687 l 6.61413929606147 -5.39541374956309" fill="#ff5507" stroke="none" /><line stroke="#e1ed5e" stroke-width="0.3" x1="26.63291911575756" x2="22.317208475507996" y1="142.92168965132927" y2="145.44649492493687" /><path d="M 25.769776987707644 143.4266507060508 a86.0,86.0 0 0,1 -11.730757126820373,-40.83630448921669" fill="none" id="id69" stroke="none" /><text fill="#e1ed5e" style="font-size:6.75px; font-family:Arial;" text-anchor="middle"><textPath startOffset="21.46611528233685" xlink:href="#id69">September</textPath></text><line stroke="#e1ed5e" stroke-width="0.3" x1="15.007084014347285" x2="10.007500721073583" y1="101.09737516637583" y2="101.16192664675087" /><path d="M 14.007167355692545 101.11028546245083 a86.0,86.0 0 0,1 10.666146001902534,-42.60595125391555" fill="none" id="id70" stroke="none" /><text fill="#e1ed5e" style="font-size:6.75px; font-family:Arial;" text-anchor="middle"><textPath startOffset="22.20632615414155" xlink:href="#id70">October</textPath></text><line stroke="#e1ed5e" stroke-width="0.3" x1="26.266209847984243" x2="21.928928074336255" y1="57.711370442889674" y2="55.22380399835377" /><path d="M 25.398753493254645 57.213857153982495 a86.0,86.0 0 0,1 29.58750427330803,-30.492523968695096" fill="none" id="id71" stroke="none" /><text fill="#e1ed5e" style="font-size:6.75px; font-family:Arial;" text-anchor="middle"><textPath startOffset="21.46611528233685" xlink:href="#id71">November</textPath></text><line stroke="#e1ed5e" stroke-width="0.3" x1="56.762969772571076" x2="54.21961505331055" y1="26.818313649435495" y2="22.513508569990535" /><path d="M 56.25429882871897 25.957352633546506 a86.0,86.0 0 0,1 42.265352541879196,-11.944610805530505" fill="none" id="id72" stroke="none" /><text fill="#e1ed5e" style="font-size:6.75px; font-family:Arial;" text-anchor="middle"><textPath startOffset="22.20632615414155" xlink:href="#id72">December</textPath></text></svg>